<svg width="89" height="74" viewBox="0 0 89 74" fill="none" xmlns="http://www.w3.org/2000/svg">
<path d="M76.4645 71.1142C74.9981 73.8466 72.7202 73.4587 68.4699 71.5151C64.2196 69.5714 57.596 66.2734 54.8523 64.093C52.1085 61.9127 50.9426 59.4393 55.2663 58.9323C59.5782 58.4348 64.4673 62.1691 65.3755 61.306C66.2836 60.4428 61.3928 48.3651 58.4009 45.233C55.409 42.101 38.0686 20.3072 24.4309 14.107C10.7932 7.90677 6.85263 4.4736 6.85263 4.4736L16.7763 1.07059C16.7763 1.07059 52.9748 14.5931 71.4817 49.5874C74.7212 42.944 74.5654 38.3305 78.2481 38.4271C81.9415 38.525 88.3382 39.6389 82.5097 51.0991C78.8894 61.6614 77.7655 68.6958 76.4645 71.1142Z" fill="#F5BE6B"/>
</svg>
