<svg width="89" height="74" viewBox="0 0 89 74" fill="none" xmlns="http://www.w3.org/2000/svg">
<path d="M9.19857 51.1001C3.39857 39.6001 9.79857 38.5001 13.4986 38.4001C17.1986 38.3001 16.9986 42.9001 20.2986 49.6001C38.7986 14.6001 74.9986 1.1001 74.9986 1.1001L84.8986 4.5001C84.8986 4.5001 80.9986 7.9001 67.2986 14.1001C53.6986 20.3001 36.2986 42.1001 33.2986 45.2001C30.2986 48.3001 25.3986 60.4001 26.2986 61.3001C27.1986 62.2001 32.0986 58.4001 36.3986 58.9001C40.6986 59.4001 39.5986 61.9001 36.7986 64.1001C34.0986 66.3001 27.3986 69.6001 23.1986 71.5001C18.8986 73.4001 16.6986 73.8001 15.1986 71.1001C13.8986 68.7001 12.7986 61.7001 9.19857 51.1001Z" fill="#F5BE6B"/>
</svg>
