<?xml version="1.0" encoding="UTF-8"?>
<svg xmlns="http://www.w3.org/2000/svg" width="60" height="60" viewBox="0 0 60 60" fill="none">
  <path d="M49.8006 7.48425C44.3232 2.64149 37.2718 0 29.9685 0C27.3872 0 24.8688 0.314465 22.4134 0.943396C21.6579 1.13208 20.8395 1.38362 20.021 1.69808C17.3767 2.64148 14.9213 3.89936 12.6548 5.53458C12.0882 5.97483 11.4586 6.41507 10.9549 6.85532C4.02939 12.5786 0 21.0063 0 30C0 41.0062 6.04407 51.0692 15.7398 56.3522C16.1805 56.6037 16.7471 56.8553 17.3137 57.1698C21.2802 59.0566 25.5614 60 29.9685 60C32.9276 60 35.8237 59.5597 38.5939 58.7421C38.6569 58.7421 38.7198 58.7421 38.7828 58.7421C38.9087 58.7421 39.0346 58.7421 39.0976 58.6792C39.5383 58.5534 39.979 58.3647 40.4197 58.239C45.2046 56.478 49.4858 53.522 52.8227 49.6226C53.2004 49.1824 53.5152 48.805 53.83 48.3647C53.9559 48.1761 54.0189 47.9874 54.0818 47.7987C57.9223 42.5786 60 36.478 60 29.9371C60 22.0754 56.978 14.717 51.5005 9.05658C50.9339 8.55343 50.3673 7.9874 49.8006 7.48425ZM29.9685 2.26413C36.7051 2.26413 43.127 4.71698 48.2267 9.11949C47.7859 9.11949 47.4082 9.11947 47.0934 9.05658C46.4008 8.8679 45.7083 8.67922 44.9528 8.42765C41.8678 7.48425 38.9717 6.60374 35.5089 7.67292C34.6904 7.9245 33.935 8.23896 33.2424 8.61632H33.1794C32.361 8.99368 31.5425 9.37105 30.787 9.49684C30.5352 9.55973 30.2833 9.55972 30.0315 9.55972C29.15 9.55972 28.2057 9.18239 27.1983 8.49056C26.128 7.73585 25.4355 6.66666 24.7429 5.53458C24.2393 4.65408 23.6726 3.83646 23.043 3.20753C25.3096 2.5786 27.639 2.26413 29.9685 2.26413ZM16.936 54.4025C16.873 54.4025 16.8101 54.3396 16.7471 54.3396C7.80694 49.4968 2.20357 40.1258 2.20357 29.9371C2.20357 21.6352 5.91817 13.8365 12.34 8.55344C12.7807 8.23898 13.1584 7.86163 13.6621 7.54717C15.2991 7.61006 15.8027 7.67295 16.1805 10.0629C16.3064 10.6289 16.2434 11.195 16.1805 11.8239C16.1175 12.6415 16.0546 13.522 16.3064 14.4025C16.5582 15.0943 16.9989 15.5975 17.4397 16.0377C18.0063 16.6667 18.384 17.044 18.384 17.6729C18.51 19.8742 16.1175 20.5031 12.9696 21.0692C12.7178 21.1321 12.403 21.1949 12.1511 21.1949C11.3327 21.3207 10.5772 21.5094 9.94756 21.761C8.37358 22.3899 7.42917 23.2704 7.05142 24.4654C6.42183 26.5408 7.80694 28.7421 9.06612 30.2515C10.9549 32.4528 12.0252 35.9748 11.5215 38.3648C11.3956 38.9308 11.2067 39.5597 11.0178 40.1886C10.3882 42.0754 9.63275 44.2138 11.8993 46.1635C12.6548 46.7924 13.4103 47.1698 14.0399 47.5471C14.4177 47.7358 14.7324 47.9245 15.0472 48.1132C15.7398 48.5534 16.2435 49.1195 16.5583 50.3773C16.999 51.761 17.0619 53.0817 16.936 54.4025ZM51.1228 48.1132C48.0378 51.6981 44.0713 54.4654 39.6642 56.0377C39.5383 56.1006 39.3494 56.1635 39.2235 56.1635C37.02 53.0188 33.1794 49.3082 29.0241 48.1132C27.1983 47.6101 26.7576 46.9811 25.8132 45.849C25.5614 45.5346 25.2466 45.0943 24.8688 44.6541C23.6726 43.3333 22.4135 42.7673 20.9654 42.0754C20.6506 41.9496 20.2728 41.761 19.958 41.6352C17.6915 40.566 16.6842 38.6792 17.1879 36.1635C17.9434 32.327 21.6579 31.0063 24.8688 31.0063C25.0577 31.0063 25.2466 31.0063 25.4355 31.0063C26.3169 31.0692 27.0724 31.195 27.765 31.3207C29.7167 31.6981 31.4795 32.0126 33.6831 29.9371C35.2571 28.4905 35.5089 26.9182 35.7608 25.4088C35.8867 24.5283 36.0756 23.7107 36.4533 22.7673C36.7681 22.0754 37.3977 21.0691 38.0273 20.566C38.5939 20.1257 39.0346 20.1887 39.5383 20.3145C39.9161 20.3773 40.4197 20.4402 40.9234 20.2515C41.8678 19.8742 42.4344 19.1824 42.9381 18.4277C43.6306 17.4843 44.2602 16.6038 45.9601 16.5409C47.9748 16.4151 51.7523 17.61 52.8227 19.5597C53.3263 20.4402 53.2004 21.2578 52.5708 22.2641C52.0671 22.9559 51.5005 23.522 50.9339 24.0251C49.9265 24.9056 48.8562 25.849 48.6044 27.8616C48.2896 29.8742 49.1081 30.6918 49.8636 31.5094C50.3043 32.0126 50.745 32.4528 51.0598 33.2704C51.5005 34.4025 51.0598 35.5974 50.6191 36.9182C50.2413 38.1132 49.8006 39.3081 50.0524 40.6289C50.1154 40.9434 50.1784 41.3836 50.1784 41.8239C50.2413 42.6415 51.0598 45.3459 51.6894 47.3585C51.5005 47.6729 51.3116 47.9245 51.1228 48.1132ZM53.2634 45.0314C52.7597 43.3962 52.4449 42.0126 52.3819 41.6981C52.319 41.2578 52.319 40.7547 52.1931 40.3144C52.0671 39.6226 52.3819 38.6792 52.6967 37.7358C53.2004 36.2264 53.83 34.4654 53.0745 32.5786C52.6338 31.3836 51.9412 30.6289 51.3746 30.0629C50.745 29.4339 50.6191 29.2453 50.745 28.3019C50.9339 27.1069 51.4375 26.6038 52.3819 25.7862C52.5079 25.6604 52.6338 25.5346 52.7597 25.4088C52.9486 25.2201 53.1374 25.0314 53.3263 24.8428C53.5152 24.6541 53.6411 24.4654 53.83 24.2767C54.0189 24.088 54.1448 23.8365 54.3337 23.6478C55.8447 21.3836 55.2151 19.4968 54.7114 18.6163C54.2078 17.6729 53.3893 16.9182 52.3819 16.2893C50.3043 14.9056 47.4711 14.2767 45.6453 14.3396C42.9381 14.4654 41.7419 16.0377 40.9864 17.1069C40.5456 17.6729 40.2938 17.9874 39.979 18.1132C39.916 18.1132 39.7901 18.1132 39.7272 18.0503C39.0976 17.9245 37.9014 17.7987 36.5792 18.7421C35.5089 19.4968 34.6904 20.8805 34.2497 21.8868C33.7461 23.0189 33.6202 24.088 33.4313 24.9685C33.1794 26.3522 33.0535 27.2956 32.0462 28.1761C30.6611 29.4968 29.8426 29.371 28.0168 28.9937C27.2613 28.8679 26.4428 28.6792 25.4355 28.6792C21.2172 28.4905 15.8657 30.1886 14.8584 35.6603C14.2917 38.7421 15.362 41.3836 17.8174 43.0188C18.1952 43.2704 18.5729 43.4591 18.9507 43.7107C19.3284 43.8994 19.6433 44.0251 20.021 44.2138C20.7765 44.5283 21.4061 44.8427 22.0357 45.2201C22.4134 45.4717 22.7282 45.7232 23.043 46.1006C23.3578 46.478 23.6726 46.8553 23.9244 47.1698C24.554 47.9874 25.1207 48.6792 26.0651 49.3081C26.6317 49.6855 27.3872 50 28.3946 50.3144C29.4649 50.6289 30.5351 51.132 31.6054 51.8239C33.6201 53.1446 35.4459 54.9685 36.831 56.7924C34.6275 57.3584 32.298 57.6729 29.9685 57.6729C26.191 57.6729 22.4764 56.9182 19.0136 55.4088C19.0766 55.1572 19.0766 54.9685 19.1396 54.717C19.1396 54.717 19.1396 54.7169 19.1396 54.654C19.1396 54.4025 19.2025 54.1509 19.2025 53.9622C19.2025 53.8993 19.2025 53.7735 19.2025 53.7107C19.2025 53.522 19.2025 53.3962 19.2025 53.2075C19.2025 53.0817 19.2025 53.0188 19.2025 52.8931C19.2025 52.7044 19.2025 52.5786 19.2025 52.3899C19.2025 52.2641 19.2025 52.2012 19.2025 52.0754C19.2025 51.8868 19.1396 51.761 19.1396 51.5723C19.1396 51.4465 19.1396 51.3836 19.0766 51.2578C19.0766 51.0692 19.0136 50.9434 19.0136 50.7547C19.0136 50.6918 19.0137 50.566 18.9507 50.5031C18.8877 50.2515 18.8248 50 18.7618 49.7484C18.0063 47.044 16.4953 46.2264 15.1102 45.5346C14.5435 45.2201 13.9769 44.9056 13.3473 44.4654C12.34 43.6478 12.4029 43.0188 13.1585 40.9434C13.4103 40.2515 13.5992 39.6226 13.788 38.8679C14.4176 35.7861 13.2214 31.6352 10.829 28.8679C9.56978 27.3585 8.94021 26.0377 9.19204 25.2201C9.19204 25.1572 9.25499 25.0943 9.25499 25.0314C9.31795 24.8428 9.50683 24.717 9.69571 24.5283C9.88459 24.3396 10.1364 24.2138 10.4512 24.0251C10.5771 23.9622 10.6401 23.8994 10.766 23.8994C11.3956 23.6478 12.4029 23.4591 13.3473 23.3333C16.1805 22.8302 20.9024 22.0126 20.5876 17.6101C20.5247 16.1635 19.6432 15.2201 19.0136 14.5912C18.6988 14.2767 18.447 14.0251 18.384 13.7736C18.2581 13.3333 18.3211 12.7673 18.3211 12.0754C18.3841 11.3836 18.447 10.566 18.3211 9.74842C18.2581 9.49685 18.2581 9.24526 18.1952 9.05658C18.1952 8.99368 18.1322 8.9308 18.1322 8.86791C18.0693 8.74212 18.0693 8.55343 18.0063 8.42765C18.0063 8.36475 17.9433 8.30187 17.9433 8.23898C17.8804 8.11319 17.8804 7.98742 17.8174 7.86163C17.8174 7.79874 17.7545 7.73582 17.7545 7.67292C17.6915 7.54714 17.6285 7.42135 17.5656 7.35846C17.5656 7.29556 17.5026 7.2956 17.5026 7.2327C17.4397 7.10692 17.3138 6.98111 17.2508 6.85532C17.2508 6.85532 17.2508 6.79244 17.1879 6.79244C17.1249 6.66666 16.999 6.60375 16.936 6.54086C16.873 6.47796 16.873 6.47795 16.8101 6.41506C16.7471 6.35217 16.6842 6.28928 16.6212 6.22639C16.5582 6.22639 16.5582 6.16351 16.4953 6.16351C16.4323 6.10062 16.3694 6.03772 16.2435 6.03772L16.1805 5.97484C17.4397 5.22012 18.8248 4.59119 20.1469 4.08805C20.2099 4.08805 20.2728 4.15093 20.3358 4.15093C21.3431 4.52829 21.9727 5.47167 22.7282 6.72953C23.4837 7.9245 24.3652 9.30815 25.8132 10.3144C27.1983 11.3207 28.5834 11.761 29.9685 11.761C31.4795 11.761 32.8017 11.1949 34.0609 10.6289L33.6201 9.62263L34.1238 10.6289C34.7534 10.3144 35.446 10.0629 36.1385 9.8113C38.9087 8.9308 41.2382 9.68552 44.2602 10.566C45.0157 10.8176 45.7713 11.0063 46.4638 11.195C46.5897 11.2579 46.7786 11.2579 46.9045 11.3208C46.9674 11.3208 47.0304 11.3208 47.0934 11.3208C47.2193 11.3208 47.2823 11.3207 47.4082 11.3836C47.4711 11.3836 47.5341 11.3836 47.5971 11.3836C47.723 11.3836 47.7859 11.3836 47.9119 11.3836C47.9748 11.3836 48.0378 11.3836 48.1007 11.3836C48.2266 11.3836 48.2896 11.3836 48.4155 11.3836C48.4785 11.3836 48.5414 11.3836 48.6044 11.3836C48.7303 11.3836 48.7933 11.3836 48.9192 11.3836C48.9821 11.3836 49.0451 11.3836 49.1081 11.3836C49.234 11.3836 49.2969 11.3836 49.4229 11.3208C49.4858 11.3208 49.5488 11.3208 49.6118 11.3208C49.7377 11.3208 49.8006 11.3207 49.9266 11.2578C49.9895 11.2578 50.0524 11.2579 50.1784 11.195H50.2413C55.0262 16.3522 57.6705 23.0189 57.6705 30.0629C57.7335 35.3459 56.2225 40.5031 53.2634 45.0314Z" fill="#3E4651"></path>
  <path d="M44.7008 33.7737C42.4972 33.2076 40.1677 33.9624 38.7197 35.6605C37.2716 33.8995 34.9421 33.1448 32.7386 33.7108C30.535 34.2768 29.2129 36.1007 29.2129 38.4278C29.2129 43.585 37.9642 49.8114 38.342 50.063L38.7827 50.3775L39.2234 50.063C39.6011 49.8114 48.3525 43.6479 48.3525 38.4278C48.3525 36.1636 46.9673 34.3397 44.7008 33.7737ZM38.7827 48.5535C36.2014 46.6668 30.7239 41.9498 30.7239 38.4907C30.7239 36.8554 31.6053 35.5976 33.1793 35.2202C33.4941 35.1574 33.8719 35.0945 34.2496 35.0945C35.6347 35.0945 37.2087 35.7234 38.1531 37.4215L38.7827 38.5536L39.4123 37.4215C40.4826 35.4718 42.6861 34.8429 44.3231 35.2831C45.0786 35.4718 46.7785 36.1636 46.7785 38.5536C46.8414 41.9498 41.364 46.6668 38.7827 48.5535Z" fill="#3E4651"></path>
</svg>
