<?xml version="1.0" encoding="UTF-8"?>
<svg xmlns="http://www.w3.org/2000/svg" width="60" height="59" viewBox="0 0 60 59" fill="none">
  <path fill-rule="evenodd" clip-rule="evenodd" d="M41.5556 46.6709H42.2222C47.1111 46.6709 51.1111 42.2495 51.1111 36.8455H50.8889H28.8889V0H26.6667V36.8455H4.66667H4.44444C4.44444 39.0562 5.11111 41.0213 6.22222 42.4951C6.88889 42.0038 7.55556 41.7582 8.22222 41.5126C7.77778 40.7756 7.33333 40.0387 7.11111 39.3018H16.8889C18.2222 39.3018 19.3333 39.3018 20.6667 39.3018H48.6667C47.7778 42.2495 45.3333 44.2146 42.4444 44.2146H33.7778C36.2222 45.6884 38.8889 46.4253 41.5556 46.6709ZM51.1111 34.3891H31.1111V12.2818L51.1111 34.3891ZM45.5556 31.9327H33.3333V18.4227L45.5556 31.9327ZM11.1111 13.51C4.44444 25.7918 4.44444 34.3891 4.44444 34.3891H24.4444C24.4444 34.3891 22.2222 30.7046 22.2222 19.6509C22.2222 8.59728 24.4444 0 24.4444 0C24.4444 0 17.7778 1.22818 11.1111 13.51ZM12 16.7033C6.88889 27.5113 6.88889 31.9327 6.88889 31.9327H21.3333C21.3333 31.9327 20 27.5113 20 19.6509C20 11.7905 21.3333 4.42146 21.3333 4.42146C21.3333 4.42146 16.4444 7.61473 12 16.7033ZM0 49.1273C0.888889 48.3904 2 47.6535 3.11111 46.9166C12 41.0213 21.7778 39.5475 31.5556 45.6884C40.4444 51.338 48.8889 50.1098 56.2222 44.4602C57.5556 43.4776 58.8889 42.2495 60 41.2669V44.4602C59.3333 45.1971 58.4444 45.6884 57.5556 46.4253C49.5556 52.3206 40.2222 53.7944 30.4444 47.6535C21.5556 42.0038 12.4444 43.232 4.22222 48.8816C2.66667 49.8642 1.11111 51.0924 0 52.0749V49.1273ZM6.66667 52.0749C14.6667 47.8991 23.1111 47.6535 31.5556 52.8118C39.3333 57.7246 46.6667 57.2333 53.3333 53.5487V56.4964C46.4444 59.9353 38.6667 60.1809 30.6667 55.0226C22.6667 49.8642 14.4444 50.6011 6.66667 54.7769V52.0749Z" fill="#3E4651"></path>
</svg>
