<?xml version="1.0" encoding="UTF-8"?>
<svg xmlns="http://www.w3.org/2000/svg" width="60" height="62" viewBox="0 0 60 62" fill="none">
  <path d="M55.23 40.8668C56.3996 37.6156 56.3814 34.1816 56.1986 30.7842C55.961 26.2361 55.5772 21.688 55.1751 17.1582C54.9193 14.254 52.7993 12.2996 50.2041 12.2996C49.2537 12.2996 48.3765 12.5735 47.6089 13.0484C48.5227 9.85198 47.3165 7.84278 42.9851 6.29021C42.9668 6.29021 42.9485 6.27194 42.9485 6.23541C43.0399 3.91569 42.4733 2.49098 40.4082 1.32199C38.3064 0.116468 36.2595 -0.029657 34.3954 2.36312C34.3771 2.38139 33.8836 3.00242 33.8836 2.98415C33.6095 1.6873 32.5129 0.865352 31.654 0.481777C30.1919 -0.157516 28.8395 -0.157514 27.6333 0.463513C27.2495 0.55484 26.8839 0.700965 26.4819 0.88362C25.6229 1.30373 24.5812 2.1622 24.3436 3.47732C24.3436 3.49559 23.8319 2.89282 23.8136 2.87456C21.8581 0.55484 19.8294 0.774027 17.7642 2.07088C15.7539 3.3312 15.2422 4.77417 15.4249 7.09389C15.4249 7.11216 15.4066 7.13042 15.3884 7.14869C11.4408 8.73778 10.1797 10.6009 10.8194 13.3772C10.0701 12.9936 9.24764 12.7927 8.37039 12.8293C5.7752 12.9389 3.74657 14.9846 3.60036 17.8888C3.36278 22.4369 3.16174 26.985 3.10691 31.5514C3.07036 34.9488 3.18002 38.3827 4.47761 41.5792L0 49.0315L21.6387 62L26.555 53.7988C27.6698 53.5065 28.7481 53.0499 29.8081 52.4654C31.0509 53.1595 32.3485 53.6709 33.6461 53.9632L38.8913 61.9635L60 48.1547L55.23 40.8668ZM40.664 10.8383C41.6875 9.15789 42.7292 8.70125 44.0634 9.35881C45.4706 10.0529 45.8361 11.1488 44.8675 12.9206C44.0634 14.4001 43.2227 15.8613 42.382 17.3043C41.4133 15.8248 40.4447 14.327 39.4578 12.8475C39.8599 12.1717 40.262 11.5141 40.664 10.8383ZM44.904 18.7473C44.8675 19.3135 44.8127 19.9163 44.7578 20.6469C44.7578 20.6834 44.6847 20.7017 44.6665 20.6652C44.374 20.2633 44.1547 19.9528 43.9537 19.6971C44.2278 19.3135 44.5385 18.9847 44.904 18.7473ZM35.565 4.92029C36.4788 3.40426 37.5754 2.91109 38.7633 3.40426C40.3716 4.06182 40.7737 5.55959 39.7685 7.25828C39.1471 8.31768 38.5075 9.35881 37.8678 10.4182C36.8992 8.92044 35.9123 7.44093 34.9436 5.96143C35.1447 5.61438 35.3457 5.26734 35.565 4.92029ZM27.0119 50.9128C26.5184 51.0955 26.0067 51.2234 25.4767 51.3512L24.0694 53.6892L23.7405 54.2554L20.4874 59.662L2.61346 48.9402L5.629 43.9172L6.04934 43.2231L7.12763 41.4148C6.94487 40.9947 6.76211 40.5746 6.6159 40.1362C6.45142 39.6613 6.32348 39.1681 6.21383 38.6749C6.01279 37.7069 5.88486 36.7023 5.88486 35.6794C5.83003 29.8344 5.99452 23.9712 6.14072 18.108C6.17728 16.5189 7.20073 15.4595 8.4435 15.4047C9.55833 15.3499 10.4539 15.9344 10.8925 17.0121C10.5818 17.1764 10.2711 17.4139 9.8873 17.834C8.07798 19.8797 7.87694 22.9118 9.33902 25.2133C13.579 31.9532 17.9104 38.6567 22.3332 45.3053C23.1922 46.6022 24.1608 47.826 25.2391 48.9402C25.9153 49.6343 26.6098 50.2553 27.3226 50.8215C27.2129 50.8215 27.1215 50.8763 27.0119 50.9128ZM36.4788 54.292L36.1133 53.744L34.6147 51.4608C34.0847 51.3695 33.5547 51.2416 33.0612 51.0955C32.4581 50.9128 31.855 50.6754 31.3067 50.4014C28.7846 49.1776 26.7377 47.1684 25.0381 44.7208C22.717 41.3782 20.5605 37.9261 18.3308 34.5287C15.9915 30.9669 13.6339 27.4051 11.3311 23.8068C10.929 23.1858 10.2894 22.2908 10.4173 21.2131C10.5087 20.4277 10.929 19.9711 11.5139 19.5692C12.0439 19.2039 13.177 19.277 13.8166 19.6058C14.5111 19.9528 15.0594 20.7565 15.5163 21.4506C16.6129 23.0762 17.6729 24.7384 18.7694 26.3823C19.2994 27.1859 19.8294 27.9896 20.3594 28.775C20.926 29.6153 22.0225 31.9715 23.3201 31.04C24.5081 30.1998 22.9363 28.3184 22.4429 27.5513C21.9129 26.7476 21.3829 25.9439 20.8712 25.1402C18.477 21.3775 16.028 17.6514 13.7253 13.8339C12.6835 12.0986 13.0308 10.9844 14.4015 10.2538C15.6991 9.54147 16.7773 9.96158 17.8556 11.6055C20.6701 15.8796 23.4663 20.172 26.2808 24.4461C26.6829 25.0489 26.9022 25.5421 27.6515 25.7978C28.1998 25.9804 28.7481 25.8708 28.9491 25.3229C29.2964 24.3731 29.0222 23.8799 28.5288 23.1127C25.2391 18.0715 21.9312 13.0484 18.6415 7.9889C17.5632 6.32674 17.9104 4.8107 19.4822 4.09835C20.6701 3.56865 21.7667 4.00702 22.7353 5.48653C26.0981 10.6009 29.4609 15.7152 32.8054 20.8478C33.3536 21.688 34.0116 22.3821 34.9802 21.7063C35.9123 21.0487 35.3823 20.2085 34.8888 19.4596C32.2936 15.5143 29.7167 11.5689 27.1398 7.62359C26.7926 7.09389 26.4453 6.54592 26.2626 5.96143C25.8605 4.62805 26.7743 3.23987 28.145 2.98415C29.5522 2.72844 30.2467 3.58691 30.9047 4.57325C35.2909 11.295 39.6771 18.0167 44.1365 24.7018C44.5385 25.3229 45.4158 26.0352 46.0372 26.017C47.2251 25.9804 47.0972 24.7566 47.1703 23.8982C47.353 21.7611 47.4444 19.6058 47.6637 17.4504C47.8282 15.7883 48.8699 14.8385 50.2589 14.8567C51.5017 14.875 52.5617 15.8796 52.6713 17.4687C53.0369 23.3137 53.4389 29.1586 53.6034 35.0036C53.64 36.0447 53.5669 37.0493 53.3841 38.0174C53.2927 38.5106 53.1831 39.0037 53.0369 39.4786C52.9089 39.917 52.7627 40.3554 52.58 40.7755L53.7313 42.529L54.17 43.2048L57.3865 48.1182L39.933 59.5342L36.4788 54.292Z" fill="#3E4651"></path>
  <path d="M41.3207 27.4053C39.42 27.4053 37.6655 28.4464 36.642 30.1268C35.6369 28.4464 33.8641 27.4053 31.9634 27.4053C29.6423 27.4053 27.5589 28.9578 26.7547 31.2776C26.5354 31.9351 26.4258 32.6109 26.4258 33.2685C26.4258 33.9261 26.5354 34.5836 26.7365 35.2046C26.7547 35.2777 26.7913 35.3325 26.8096 35.3873L27.6685 34.9855L26.8096 35.3873L27.6685 34.9855L26.8096 35.3873C26.8279 35.4056 26.8279 35.4421 26.8461 35.4786C27.0837 36.0997 27.3944 36.6476 27.7599 37.086C27.9427 37.3052 28.1437 37.5244 28.3448 37.707L36.642 46.4927L45.2317 37.3965C45.7983 36.7937 46.2369 36.0449 46.5111 35.2412C46.7304 34.6019 46.84 33.9443 46.84 33.2502C46.8583 30.0355 44.3728 27.4053 41.3207 27.4053ZM44.7383 34.6567C44.5555 35.2046 44.2448 35.7161 43.8428 36.1362L36.6603 43.7529L29.7155 36.3919L29.6606 36.3371C29.5144 36.191 29.3682 36.0449 29.2403 35.8987C29.0027 35.6065 28.7834 35.2229 28.6189 34.8028C28.5823 34.7297 28.5641 34.6567 28.5275 34.5836C28.3996 34.1635 28.3265 33.7251 28.3265 33.2685C28.3265 32.8119 28.3996 32.337 28.5641 31.8803C29.0941 30.3278 30.4648 29.2866 31.9817 29.2866C33.3889 29.2866 34.6865 30.1999 35.2896 31.6063C35.5272 32.1543 36.0572 32.5014 36.6603 32.5014C37.2634 32.5014 37.7934 32.1543 38.031 31.6063C38.6341 30.1999 39.9317 29.2866 41.339 29.2866C43.3493 29.2866 44.9759 31.0766 44.9759 33.2685C44.9576 33.7434 44.8845 34.2183 44.7383 34.6567Z" fill="#3E4651"></path>
</svg>
