<?xml version="1.0" encoding="UTF-8"?>
<svg xmlns="http://www.w3.org/2000/svg" width="60" height="50" viewBox="0 0 60 50" fill="none">
  <path d="M40.1554 5.12797C39.889 5.06049 39.6227 5.06051 39.3563 5.06051C37.5583 4.3183 34.2952 3.77851 30.4328 6.74734L30.3663 6.8148L29.101 8.09681C24.3729 4.85809 20.6437 6.8823 19.5783 7.55703L14.8502 2.76639L0 17.813L5.5938 23.4808C5.66039 26.0447 6.5261 28.6762 8.2575 31.3077C8.99002 32.3872 9.78914 33.3993 10.7214 34.344C11.8535 35.5585 13.0522 36.7056 14.2508 37.9201C12.9856 39.8093 13.5183 41.3612 14.8502 42.7107C16.2486 44.1276 17.4473 44.33 19.3119 43.7902H19.3785C20.7103 45.8144 21.909 46.7591 23.2409 46.894C23.7736 47.4338 24.3063 47.9736 24.9057 48.5134C26.5705 50.1327 29.0344 50.4701 31.0322 49.3231C31.8979 48.8508 32.0311 48.4459 32.4972 47.7037C35.8269 50.5376 38.0244 50.6051 40.6881 46.6241C40.6881 46.6241 40.6881 46.6241 40.7547 46.6241C42.6193 47.1639 43.8846 47.029 45.2164 45.5446C46.6149 44.0602 47.1476 42.4408 45.616 40.4166L45.2164 39.8768C46.3485 39.9443 47.2142 39.2021 47.6804 38.5948C48.9456 36.908 48.879 35.1537 47.4806 33.3994C48.0799 32.7921 48.6792 32.1848 49.2786 31.5776C50.2109 30.6329 51.01 29.6208 51.7425 28.5413C53.4739 25.9098 54.4062 23.2783 54.4062 20.7144L60 15.0466L45.1498 0L40.1554 5.12797ZM11.7203 32.1173C9.98892 30.2956 8.72367 28.2714 8.19093 25.9773C8.05774 25.4375 7.99113 24.9652 7.92454 24.4254C7.85795 23.9531 7.85796 23.5482 7.85796 23.0759L2.13097 17.2732L14.384 4.8581L18.313 8.83901L18.5794 9.10892V9.17637L20.444 9.31133L20.5771 8.97396C21.3097 8.43417 24.4395 6.67988 28.5683 9.9186L34.0289 15.5189C34.2952 15.7888 34.4284 16.1936 34.4284 16.5985C34.4284 17.0033 34.2952 17.3407 34.0289 17.6781L33.6959 18.0154C33.0966 18.6227 32.1642 18.6227 31.6315 18.0154L26.0377 12.2802L24.7059 13.2248L26.2375 15.0466L26.9034 15.7213C26.2375 16.396 25.6382 17.0033 24.9722 17.6781C24.8391 17.813 24.7059 18.0154 24.7059 18.2178L24.6393 18.2853C20.8435 22.1313 17.1143 25.9098 13.3185 29.7558C12.4528 30.5655 11.9867 31.3751 11.7203 32.1173ZM29.9001 47.6362C29.434 48.0411 29.0344 48.311 28.3685 48.2435C27.5028 48.176 26.8368 47.5013 26.4373 47.029C26.1709 46.7591 25.9045 46.4892 25.6382 46.2193C26.2375 45.8819 26.9034 45.4096 27.6359 44.8023C28.1021 45.4771 28.2353 45.8819 29.101 46.4217C29.5005 46.6241 29.9001 46.8266 30.2997 46.894C30.1665 47.2314 30.0333 47.4338 29.9001 47.6362ZM38.0244 46.8265C37.1587 47.8386 36.2264 47.9061 34.9611 46.7591C34.7614 46.5567 34.5616 46.4217 34.3618 46.2193C34.6282 46.0169 34.8946 45.8145 35.0943 45.612C35.8269 44.9373 36.4928 44.1951 37.2253 43.5204C37.2919 43.5878 37.3585 43.6553 37.4251 43.7228C38.6237 44.9373 38.7569 45.8819 38.0244 46.8265ZM43.8846 43.7228C43.0189 44.8698 41.7536 44.9373 40.5549 43.7228C39.9556 43.1155 39.4229 42.5758 38.8235 41.9685C39.7558 41.0239 40.7547 40.0792 41.687 39.1346C42.2198 39.6744 42.7525 40.2141 43.2852 40.7539C44.2841 41.8335 44.4839 42.8456 43.8846 43.7228ZM46.2153 36.773C45.7492 37.8526 44.4839 38.3924 43.485 37.7851C43.4184 37.7177 43.2852 37.6502 43.2186 37.5827C44.1509 36.6381 45.0166 35.7609 45.9489 34.8163C46.3485 35.3561 46.5483 35.9633 46.2153 36.773ZM57.9356 14.4393L52.2086 20.242C52.2086 20.7143 52.2087 21.1192 52.1421 21.5915C52.0755 22.1313 52.0089 22.6711 51.8757 23.1434C51.3429 25.4375 50.0111 27.4617 48.2797 29.2835C45.9489 31.78 43.485 34.1416 41.1543 36.5706C38.6238 39.1346 36.1598 41.6311 33.6293 44.1951C33.1631 44.5999 32.5638 45.3421 31.6981 45.4096C31.0322 45.4771 30.6327 45.2072 30.1665 44.8023C29.7669 44.3975 29.6338 43.4529 29.8335 42.9131C29.9667 42.3058 30.566 41.6986 31.0322 41.1588C32.1643 39.9443 33.3629 38.7972 34.495 37.6502C35.0278 37.1104 35.6271 36.5031 36.1598 35.8959C36.7592 35.2886 38.4906 34.0066 37.4917 33.062C36.626 32.2523 35.3607 33.8717 34.828 34.4115C34.2952 34.9512 33.6959 35.5585 33.1632 36.0983C30.4995 38.7298 27.9024 41.3612 25.1721 43.9252C23.9734 45.0722 22.9745 45.0048 22.1088 43.9927C21.3097 43.0481 21.4428 42.1034 22.6415 40.8889C25.6382 37.8526 28.6348 34.8163 31.6315 31.7125C32.0311 31.3077 32.4307 31.0378 32.4972 30.3631C32.5638 29.8907 32.364 29.4859 31.8979 29.351C31.0988 29.216 30.6992 29.5534 30.1665 30.0931C26.6371 33.6692 23.1077 37.2453 19.5783 40.8214C18.4462 41.9685 17.1143 41.9685 16.2486 40.8214C15.5827 39.9443 15.7825 38.9322 16.848 37.9201C20.444 34.2765 24.0399 30.6329 27.6359 26.9894C28.2353 26.3821 28.7014 25.7074 27.9689 25.0326C27.303 24.3579 26.7037 24.9652 26.1709 25.505C23.3741 28.3388 20.6438 31.1053 17.8469 33.9391C17.4473 34.344 17.1143 34.6813 16.6482 34.9512C15.6493 35.491 14.3174 35.0187 13.9179 33.9391C13.4517 32.7921 14.0511 32.1174 14.717 31.3752C19.3119 26.7195 23.9068 22.0638 28.5017 17.4081L30.3663 19.2974C31.0322 19.9721 31.8313 20.3095 32.697 20.3095C33.5627 20.3095 34.3618 19.9721 35.0278 19.3649L35.3607 19.0275C35.9601 18.4203 36.293 17.5431 36.3596 16.6659C36.3596 15.8563 36.0267 15.0466 35.4939 14.4393L31.2985 10.1885L30.4995 9.37878L31.6315 8.23177C33.3629 6.8823 34.8946 6.40995 36.1598 6.34248C38.4906 6.14006 40.5549 7.35458 40.5549 7.35458L41.8202 6.07261L45.7492 2.09166L57.9356 14.4393Z" fill="#3E4651"></path>
</svg>
