<?xml version="1.0" encoding="UTF-8"?>
<svg xmlns="http://www.w3.org/2000/svg" width="60" height="43" viewBox="0 0 60 43" fill="none">
  <path d="M15.4185 24.2922C18.6975 24.2922 21.6974 23.0357 23.9996 20.7322C26.3019 18.4286 27.5577 15.3572 27.5577 12.1461C27.5577 5.44483 22.116 0 15.4185 0C12.1395 0 9.13959 1.25648 6.83733 3.56005C4.53507 5.86363 3.2793 8.93509 3.2793 12.1461C3.2793 18.8474 8.721 24.2922 15.4185 24.2922ZM9.06982 5.86366C10.7442 4.18833 12.9767 3.21103 15.4185 3.21103C20.3718 3.21103 24.3485 7.18996 24.3485 12.1461C24.3485 14.5195 23.4415 16.7533 21.6974 18.4984C20.023 20.1737 17.7905 21.151 15.3487 21.151C10.3954 21.151 6.41873 17.1721 6.41873 12.2159C6.4885 9.77274 7.39545 7.53899 9.06982 5.86366Z" fill="#3E4651"></path>
  <path d="M44.5806 24.2922C47.8596 24.2922 50.8595 23.0357 53.1617 20.7322C55.464 18.4286 56.7198 15.3572 56.7198 12.1461C56.7198 5.44483 51.2781 0 44.5806 0C41.3016 0 38.3017 1.25648 35.9994 3.56005C33.6972 5.86363 32.4414 8.93509 32.4414 12.1461C32.4414 18.8474 37.8831 24.2922 44.5806 24.2922ZM38.3017 5.86366C39.9761 4.18833 42.2086 3.21103 44.6504 3.21103C49.6037 3.21103 53.5803 7.18996 53.5803 12.1461C53.5803 14.5195 52.6734 16.7533 50.9292 18.4984C49.2549 20.1737 47.0224 21.151 44.5806 21.151C39.6272 21.151 35.6506 17.1721 35.6506 12.2159C35.6506 9.77274 36.5576 7.53899 38.3017 5.86366Z" fill="#3E4651"></path>
  <path d="M59.9982 41.3943C59.9982 40.9755 60.2773 30.7141 53.7891 24.7807C53.231 24.2222 52.3241 24.2223 51.6962 24.7109C51.6264 24.7807 47.0917 28.1314 41.929 26.8051C41.5802 23.943 39.2082 23.1053 38.4407 22.8959C36.1385 22.2677 32.999 23.1752 31.4642 25.9674C31.3247 26.1768 31.1154 26.3164 30.8363 26.3164C30.5572 26.3164 30.2782 26.1768 30.2084 25.9674C29.0224 23.943 26.9294 22.6865 24.6272 22.6865C24.1388 22.6865 23.5807 22.7563 23.0924 22.8959C22.3947 23.1053 20.3017 23.8732 19.7436 26.2466C17.0228 27.2937 12.7671 28.0615 8.72068 24.7109C8.09279 24.2223 7.2556 24.2223 6.62771 24.7109C6.34865 24.9203 0.139531 30.4349 0 41.3245C0 41.7434 0.139534 42.1622 0.488361 42.5112C0.837188 42.8603 1.18601 42.9998 1.60461 42.9998H29.1619C29.441 42.9998 29.7201 42.93 29.9294 42.7904C30.2084 42.93 30.4177 42.9998 30.7665 42.9998H58.3239C59.2308 42.93 59.9982 42.232 59.9982 41.3943ZM3.27898 39.719C3.76734 33.5762 6.41842 29.7369 7.88349 28.0615C12.0694 30.8537 16.5344 30.6443 19.9529 29.5274C21.1389 32.9479 24.7667 36.5778 27.4876 38.9511C27.4876 39.2304 27.5573 39.4398 27.5573 39.719H3.27898ZM21.4877 27.5729C21.4877 25.6183 22.604 24.9203 23.5807 24.6411C23.9295 24.5713 24.2086 24.5014 24.6272 24.5014C26.2318 24.5014 27.6969 25.3391 28.5341 26.8051C29.0224 27.6427 29.8596 28.1313 30.8363 28.1313C31.813 28.1313 32.6502 27.5729 33.1386 26.7352C34.1851 24.7807 36.4175 24.2222 38.0221 24.6411C38.9989 24.9203 40.1849 25.6184 40.1849 27.5031C40.1849 30.5745 35.5804 35.5307 30.8363 39.2304C27.069 36.3684 21.4877 31.0632 21.4877 27.5729ZM33.2781 39.719C35.8594 37.5551 40.0453 33.646 41.5104 29.9463C45.8359 30.9236 49.952 29.5274 52.5334 27.9917C55.8123 31.6914 56.5797 37.0664 56.7193 39.719H33.2781Z" fill="#3E4651"></path>
</svg>
