<?xml version="1.0" encoding="UTF-8"?>
<svg xmlns="http://www.w3.org/2000/svg" width="60" height="64" viewBox="0 0 60 64" fill="none">
  <path d="M17.8008 55.6557C16.2459 54.9603 14.959 54.265 14.1547 53.7836C13.7258 53.5161 13.4041 53.3021 13.1896 53.1417C13.0824 53.0882 12.9751 53.0347 12.9215 52.9812L12.8679 52.9277C12.1708 52.3928 11.2057 52.5533 10.6695 53.1952C10.1333 53.837 10.2405 54.8533 10.8839 55.3882C16.782 60.2557 22.144 62.9836 27.2914 63.7859C28.3638 63.9464 29.3825 63.9999 30.4549 63.9999C31.9562 63.9999 33.4576 63.8394 34.9589 63.5185C36.9964 63.0906 39.034 62.3952 41.2323 61.3789L42.4656 63.1441C42.7873 63.6255 43.3771 63.8929 43.9133 63.7859C44.5031 63.7324 44.9856 63.358 45.2001 62.8231L48.6318 54.158C48.7926 53.7301 48.7926 53.1952 48.5245 52.7673C48.2564 52.3393 47.8275 52.0719 47.3449 52.0184L38.0152 50.9486C37.4254 50.8952 36.8356 51.1626 36.5139 51.644C36.1922 52.1254 36.1921 52.7673 36.4602 53.3021L37.4254 54.9068C34.9053 56.4045 32.2243 57.3138 29.3825 57.5812C24.8249 58.1696 20.5354 56.8324 17.8008 55.6557ZM39.5701 56.1905C40.0527 55.8696 40.16 55.2812 39.8919 54.7998L38.9267 53.1952L46.5942 54.051L43.7524 61.2185L42.5192 59.4533C42.2511 59.0254 41.6613 58.865 41.2323 59.1324C38.8731 60.3092 36.7283 61.058 34.6372 61.4859C32.278 61.9673 30.026 62.0743 27.7203 61.6999C24.6641 61.2185 21.4469 59.9882 18.1225 57.9557C21.0716 59.1324 25.2539 60.2022 29.8115 59.7208C33.1895 59.3999 36.5138 58.2231 39.5701 56.1905Z" fill="#3E4651"></path>
  <path d="M44.9325 10.2438C45.3615 10.5112 45.6832 10.7252 45.8977 10.8857C46.0049 10.9391 46.1122 10.9926 46.1658 11.0461L46.2194 11.0996C46.9164 11.6345 47.8816 11.474 48.4177 10.8322C48.9539 10.1368 48.8467 9.2275 48.2033 8.63912C42.3052 3.77165 36.9433 1.04374 31.7958 0.24141C29.2221 -0.133011 26.7557 -0.0795254 24.1283 0.455362C22.0908 0.883271 20.0533 1.57862 17.8549 2.59491L16.6217 0.829781C16.3 0.348383 15.7101 0.0809407 15.1739 0.187918C14.5841 0.241407 14.1016 0.615829 13.8871 1.15072L10.4555 9.81588C10.2946 10.2438 10.2946 10.7787 10.5627 11.2066C10.8308 11.6345 11.2598 11.9019 11.7423 11.9554L21.072 13.0252C21.1257 13.0252 21.1793 13.0252 21.2329 13.0252C21.7691 13.0252 22.2517 12.7578 22.5734 12.3299C22.8951 11.8485 22.8951 11.2066 22.627 10.6717L21.6619 9.06704C24.182 7.56936 26.8629 6.66005 29.7047 6.39261C34.3696 5.91121 38.6591 7.24843 41.4473 8.47867C42.895 9.06704 44.1818 9.76239 44.9325 10.2438ZM29.4366 4.25306C25.9514 4.57399 22.627 5.80423 19.5707 7.78331C19.0881 8.10424 18.9809 8.69261 19.249 9.17401L20.2141 10.7787L12.5466 9.92287L15.3884 2.75538L16.6217 4.52051C16.8898 4.94842 17.4796 5.10888 17.9085 4.84143C20.2678 3.66468 22.4125 2.91584 24.5037 2.48793C26.8629 2.00654 29.1149 1.89955 31.4205 2.27397C34.4768 2.75537 37.6939 3.98561 41.0183 6.01818C38.1229 4.89492 33.9406 3.77166 29.4366 4.25306Z" fill="#3E4651"></path>
  <path d="M10.8846 34.6345C13.1902 34.6345 15.335 33.7252 16.9972 32.1205C18.6058 30.5159 19.5173 28.3228 19.5173 26.0228C19.5173 21.2623 15.6567 17.4111 10.8846 17.4111C8.57899 17.4111 6.43424 18.3204 4.77205 19.9251C3.16348 21.5298 2.25195 23.7228 2.25195 26.0228C2.25195 30.7833 6.16613 34.6345 10.8846 34.6345ZM6.43423 21.5298C7.61385 20.353 9.22243 19.6576 10.9382 19.6576C14.4235 19.6576 17.2653 22.4926 17.2653 25.9693C17.2653 27.681 16.6219 29.2321 15.3886 30.4624C14.209 31.6391 12.6004 32.3345 10.8846 32.3345C7.39937 32.3345 4.55756 29.4996 4.55756 26.0228C4.55756 24.3112 5.20099 22.76 6.43423 21.5298Z" fill="#3E4651"></path>
  <path d="M21.823 46.6695C21.823 46.3486 22.0374 39.0742 17.4262 34.902C16.9972 34.5276 16.4074 34.5276 15.9785 34.8485C15.9248 34.902 10.8847 38.6997 6.16619 34.8485C5.73724 34.4741 5.0938 34.5276 4.71847 34.8485C4.55761 35.009 0.107238 38.9137 0 46.5626C0 46.8835 0.107258 47.151 0.321734 47.3649C0.53621 47.5789 0.804305 47.6858 1.12602 47.6858H20.697C21.2868 47.7928 21.823 47.3114 21.823 46.6695ZM2.30561 45.4928C2.68095 41.1602 4.55763 38.4323 5.57639 37.2555C9.70506 39.9835 14.1018 38.6997 16.5147 37.2555C18.8203 39.8765 19.3565 43.6742 19.5173 45.5463L2.30561 45.4928Z" fill="#3E4651"></path>
  <path d="M42.9478 19.9251C41.3393 21.5298 40.4277 23.7228 40.4277 26.0228C40.4277 30.7833 44.2883 34.6345 49.0604 34.6345C51.366 34.6345 53.5108 33.7252 55.173 32.1205C56.7815 30.5159 57.6931 28.3228 57.6931 26.0228C57.6931 21.2623 53.8325 17.4111 49.0604 17.4111C46.7548 17.4111 44.61 18.3204 42.9478 19.9251ZM55.3874 26.0228C55.3874 27.7344 54.744 29.2856 53.5108 30.5159C52.3311 31.6926 50.7226 32.388 49.0068 32.388C45.5215 32.388 42.6797 29.5531 42.6797 26.0763C42.6797 24.3647 43.3232 22.8135 44.5564 21.5832C45.736 20.4065 47.3446 19.7111 49.0604 19.7111C52.5456 19.7111 55.3874 22.546 55.3874 26.0228Z" fill="#3E4651"></path>
  <path d="M55.602 34.9553C55.173 34.5808 54.5832 34.5808 54.1542 34.9018C54.1006 34.9553 49.0604 38.753 44.342 34.9018C43.913 34.5273 43.2696 34.5808 42.8942 34.9018C42.6798 35.0622 38.283 38.9669 38.1758 46.6158C38.1758 46.9367 38.283 47.2042 38.4975 47.4181C38.712 47.6321 38.9801 47.7391 39.3018 47.7391H58.8727C59.4625 47.7391 59.9987 47.2577 59.9987 46.6158C59.9987 46.4018 60.1596 39.1274 55.602 34.9553ZM40.4814 45.4925C40.8567 41.16 42.7334 38.432 43.7522 37.2553C47.8808 39.9832 52.2776 38.6995 54.6904 37.2553C56.9961 39.8762 57.5323 43.6739 57.6931 45.546L40.4814 45.4925Z" fill="#3E4651"></path>
</svg>
