<?xml version="1.0" encoding="UTF-8"?>
<svg xmlns="http://www.w3.org/2000/svg" width="66" height="62" viewBox="0 0 66 62" fill="none">
  <path d="M65.7439 40.9141C65.4879 40.6146 65.1678 40.4349 64.7197 40.4349C61.3269 40.4349 59.0223 38.8175 56.3977 37.0204C55.8215 36.6011 55.2454 36.2417 54.6693 35.8223C52.2367 34.2648 49.1639 32.6475 44.8109 32.6475C42.9544 32.6475 41.4821 32.6475 40.2658 32.7074H30.9195C28.871 32.7074 27.2066 34.2649 27.2066 36.1818C27.2066 38.0987 28.871 39.6562 30.9195 39.6562H39.5616C40.7139 39.8958 41.5461 40.7943 41.5461 41.9325C41.5461 42.7112 41.098 43.49 40.3938 43.9093C39.9457 44.0291 38.7294 44.3286 37.193 44.6881C36.1048 44.9277 34.9525 45.2272 33.9282 45.5267L33.6722 45.5866C27.6547 47.0842 25.6702 47.5634 25.0941 47.6832C24.838 47.6832 24.582 47.6832 24.3899 47.6832L10.7546 39.3566L8.258 37.6794C8.19399 37.6195 8.19399 37.6194 8.12997 37.6194C8.00194 37.5595 7.87391 37.4996 7.74588 37.4397C7.48982 37.3199 7.23375 37.2001 6.97769 37.1402C6.78565 37.0803 6.5936 37.0204 6.33754 37.0204C5.69738 36.9605 5.24927 36.9605 4.73715 37.0204C2.0485 37.26 0 39.3567 0 41.8726C0 43.1905 0.512125 44.3885 1.53637 45.2871L1.60039 45.347C1.98448 45.6465 2.36858 45.946 2.75267 46.1856L25.2861 61.461C25.4142 61.5209 25.4782 61.5808 25.6062 61.6407L25.7983 61.7006H25.8623C26.5664 61.9402 27.2066 62.0001 27.7827 62.0001C28.1668 62.0001 28.5509 61.9402 28.935 61.8803H28.999H29.1271C43.4025 58.4658 53.645 56.0697 58.7022 54.8716C58.7662 54.8716 58.7663 54.8716 58.8303 54.8117L59.2784 54.632C61.711 54.033 63.6314 53.7335 64.7197 53.7335C65.4239 53.7335 65.936 53.1943 65.936 52.5953V51.8165C65.936 51.7566 65.936 51.6968 65.936 51.5769V41.7528C66.064 41.4533 66 41.1537 65.7439 40.9141ZM63.5034 51.517C62.2231 51.6368 60.6227 51.9363 58.6382 52.4156C58.5742 52.4156 58.5102 52.4156 58.5102 52.4755L58.0621 52.5953C52.9408 53.7933 42.7624 56.1895 28.4869 59.5441H28.4229C27.8468 59.6639 27.2706 59.604 26.6305 59.4243L4.03298 44.1489C3.96896 44.089 3.90495 44.089 3.84093 44.0291C3.58487 43.9093 3.39282 43.7895 3.20078 43.6098C3.20078 43.6098 3.20078 43.6098 3.13676 43.5499C2.62464 43.0707 2.30456 42.4117 2.30456 41.7528C2.30456 40.4349 3.39282 39.2967 4.80116 39.2368C4.86518 39.2368 4.9292 39.2368 4.9292 39.2368C5.18526 39.1769 5.44132 39.1769 5.7614 39.2368C5.88943 39.2368 6.01746 39.2968 6.08147 39.2968C6.20951 39.3567 6.33754 39.3567 6.46557 39.4765C6.52959 39.5364 6.5936 39.5364 6.72163 39.5963C6.72163 39.5963 6.78565 39.5963 6.78565 39.6562L9.21824 41.2736C9.21824 41.2736 9.28225 41.2735 9.28225 41.3334L23.1096 49.7199C23.2376 49.7798 23.3657 49.8397 23.4937 49.8996C24.0058 50.0194 24.518 50.0793 25.2221 50.0194C25.2861 50.0194 25.3501 50.0194 25.4142 50.0194C26.0543 49.8996 28.999 49.1808 34.1843 47.8629L34.4404 47.803C35.5286 47.5035 36.6169 47.2639 37.7051 47.0243C39.4976 46.6049 40.8419 46.2455 41.098 46.1856C41.226 46.1856 41.29 46.1257 41.354 46.0658C42.9544 45.2272 43.9146 43.6697 43.9146 41.9924C43.9146 39.7161 42.1862 37.7992 39.7536 37.4397C39.6896 37.4397 39.6256 37.4397 39.5616 37.4397H30.9195C30.2153 37.4397 29.7032 36.9006 29.7032 36.3016C29.7032 35.6427 30.2793 35.1634 30.9195 35.1634H40.3298C41.5461 35.1035 43.0184 35.1035 44.8749 35.1035C48.5878 35.1035 51.1484 36.4214 53.3249 37.8591C53.9011 38.2185 54.4772 38.6378 54.9893 38.9972C57.4859 40.7344 59.9825 42.4716 63.5674 42.831V50.4987V51.6368C63.5034 51.4571 63.5034 51.517 63.5034 51.517Z" fill="#3E4651"></path>
  <path d="M42.5063 1.19807C42.5063 0.53913 41.9941 0.0599034 41.354 0H41.29H41.2259C32.5839 0 24.966 4.97199 21.8292 12.2203C21.2531 9.04542 19.6527 5.99034 17.0921 3.5942C17.0281 3.5343 16.9 3.41451 16.836 3.35461C16.772 3.29471 16.772 3.2947 16.708 3.2348C16.2599 2.81547 15.4917 2.81547 15.0436 3.2348L14.9796 3.29469C8.57803 9.28502 8.32197 18.8696 14.3394 25.1594L14.4034 25.2193L6.84961 32.2879L8.12992 33.486L15.6837 26.4174L15.7478 26.4773C19.0126 29.1729 23.0455 30.5507 27.0785 30.5507C31.4316 30.5507 35.7846 28.9932 39.1134 25.8783L39.1774 25.8184C39.6256 25.399 39.6256 24.6802 39.1774 24.201L39.1134 24.141C36.3608 21.5053 32.7759 20.0077 29.127 19.5884C36.9369 16.7729 42.5063 9.64444 42.5063 1.19807ZM36.3608 24.9797C30.8554 29.2928 22.7255 29.2927 17.2841 24.7401C17.2201 24.6802 17.1561 24.6203 17.0921 24.6203C17.0281 24.6203 17.0281 24.5604 16.9641 24.5604C16.9 24.5005 16.836 24.4406 16.772 24.3807C16.708 24.3208 16.644 24.3208 16.58 24.201C16.4519 24.0812 16.3239 23.9613 16.2599 23.8415L16.0678 23.6618C11.2027 18.57 11.1386 10.9024 15.8118 5.81063C20.2929 10.4831 20.805 17.4319 16.9641 22.6435C16.644 23.1227 16.708 23.7217 17.0921 24.141C17.5402 24.5604 18.1804 24.6203 18.6925 24.2609C24.1978 20.6667 31.4316 21.0261 36.3608 24.9797ZM22.7255 18.5102C22.7895 17.8512 22.8535 17.1923 22.9815 16.5333C24.5179 8.68601 31.5596 2.87536 39.9456 2.39613C39.4335 11.0222 32.0717 17.9111 22.7255 18.5102Z" fill="#3E4651"></path>
</svg>

