<?xml version="1.0" encoding="UTF-8"?>
<svg xmlns="http://www.w3.org/2000/svg" width="60" height="53" viewBox="0 0 60 53" fill="none">
  <path d="M54.761 26.8955C56.2229 25.3134 57.3802 23.3662 58.1112 21.2365C58.7203 19.5327 58.964 17.7072 58.964 15.8817C58.964 11.6831 57.3802 7.66706 54.5782 4.68543C51.7153 1.64295 47.9387 0 43.9184 0C38.0708 0 32.6495 3.7118 30.213 9.37082C30.0911 9.67507 29.7866 9.91848 29.482 9.91848C29.1774 9.91848 28.8729 9.73592 28.751 9.37082C26.3145 3.65095 20.9541 0 15.0456 0C11.0253 0 7.24868 1.64295 4.38576 4.68543C1.58375 7.66706 0 11.6831 0 15.8817C0 17.7072 0.304562 19.4719 0.852781 21.1148C1.46191 22.9403 2.37561 24.6441 3.59388 26.1653C4.14209 26.7738 4.69032 27.3823 5.23854 27.93L28.5683 52.6349C28.8119 52.8783 29.1165 53 29.4211 53C29.7257 53 30.0302 52.8783 30.2739 52.6349L37.0961 45.4547C37.5225 46.124 38.0098 46.7325 38.5581 47.2802C40.9337 49.775 44.0403 51.1137 47.3905 51.1137C47.4514 51.1137 47.4514 51.1137 47.5123 51.1137C54.4564 51.0528 60.0604 45.0287 59.9995 37.6659C59.9995 34.0149 58.5376 30.4857 55.9792 27.9908C55.6747 27.6257 55.1874 27.2606 54.761 26.8955ZM29.6038 50.1401L7.18777 26.4087C7.18777 26.4087 7.18777 26.4087 7.12685 26.3479L7.00502 26.2262C6.51771 25.7394 6.03041 25.2526 5.60402 24.7049C4.5685 23.4271 3.77663 21.9667 3.22841 20.3846C2.74111 18.9242 2.49745 17.403 2.49745 15.8817C2.49745 12.2308 3.83754 8.82319 6.21315 6.2675C8.58877 3.71182 11.7563 2.31228 15.1065 2.31228C20.0405 2.31228 24.548 5.41559 26.6191 10.2836C27.1064 11.4397 28.2637 12.2308 29.482 12.2308C30.7003 12.2308 31.8576 11.4397 32.3449 10.2836C34.416 5.47644 38.9235 2.31228 43.8575 2.31228C47.2077 2.31228 50.3752 3.71182 52.7508 6.2675C55.1874 8.82319 56.4665 12.2308 56.4665 15.8817C56.4665 17.4638 56.2229 19.0459 55.7356 20.5063C55.1264 22.3318 54.0909 24.0964 52.7508 25.496L52.6899 25.5568L52.5681 25.6785C50.9235 24.8875 49.157 24.4616 47.2687 24.4616C40.3245 24.5224 34.7205 30.5465 34.7814 37.9093C34.7814 39.7956 35.2078 41.6211 35.8779 43.2641L29.6038 50.1401ZM47.5732 49.5316C44.6494 49.5924 41.9083 48.3754 39.7763 46.1848C37.6444 43.9942 36.487 41.0126 36.487 37.8485C36.4261 31.3376 41.3601 26.0436 47.3905 25.9828C50.1925 25.9828 52.8727 27.0781 54.8828 29.0861C57.1366 31.2767 58.4158 34.4409 58.4158 37.6659C58.5376 44.1768 53.6645 49.5316 47.5732 49.5316Z" fill="#3E4651"></path>
  <path d="M50.8009 28.1729H44.2223V34.3795H38.4355V41.3164H44.2223V47.523H50.8009V41.3164H56.5877V34.3795H50.8009V28.1729ZM52.6283 35.9008H55.0648V39.6734H52.6283H49.2781V45.8801H45.806V39.6734H42.8822H40.0193V35.9008H42.8822H45.806V29.6941H49.2781V35.9008H52.6283Z" fill="#3E4651"></path>
</svg>
