<?xml version="1.0" encoding="UTF-8"?>
<svg xmlns="http://www.w3.org/2000/svg" width="54" height="57" viewBox="0 0 54 57" fill="none">
  <path d="M53.9807 55.2878L49.5395 15.8167C49.4654 15.1812 48.8733 14.6869 48.2071 14.6869H39.9907V12.2862C39.9907 5.5076 34.2171 0 27.111 0C20.005 0 14.2313 5.5076 14.2313 12.2862V14.6869H5.79291C5.12672 14.6869 4.53455 15.1812 4.46053 15.8167L0.0192551 55.2878C-0.0547661 55.6408 0.0932763 55.9939 0.31534 56.2763C0.537404 56.5588 0.90751 56.7 1.27762 56.7H52.7224C53.0925 56.7 53.4626 56.5588 53.6847 56.2763C53.9067 55.9939 54.0548 55.6408 53.9807 55.2878ZM38.6583 21.8186C39.3245 21.8186 39.8427 22.3128 39.8427 22.9483C39.8427 23.5838 39.3245 24.0781 38.6583 24.0781C37.9922 24.0781 37.474 23.5838 37.474 22.9483C37.474 22.3128 37.9922 21.8186 38.6583 21.8186ZM16.8961 12.2862C16.8961 6.9198 21.4854 2.54197 27.111 2.54197C32.7366 2.54197 37.326 6.9198 37.326 12.2862V14.6869H16.8961V12.2862ZM15.5637 21.8186C16.2299 21.8186 16.7481 22.3128 16.7481 22.9483C16.7481 23.5838 16.2299 24.0781 15.5637 24.0781C14.8975 24.0781 14.3794 23.5838 14.3794 22.9483C14.3794 22.3128 14.8975 21.8186 15.5637 21.8186ZM2.83206 54.0874L6.97725 17.1583H14.2313V19.4884C12.7509 19.9827 11.7146 21.3243 11.7146 22.8777C11.7146 24.8548 13.4171 26.4788 15.4897 26.4788C17.5623 26.4788 19.2648 24.8548 19.2648 22.8777C19.2648 21.3243 18.2285 19.9827 16.7481 19.4884V17.1583H37.1779V19.4884C35.6975 19.9827 34.6612 21.3243 34.6612 22.8777C34.6612 24.8548 36.3637 26.4788 38.4363 26.4788C40.5089 26.4788 42.2114 24.8548 42.2114 22.8777C42.2114 21.3243 41.1751 19.9827 39.6946 19.4884V17.1583H47.2448L51.39 54.0874H2.83206Z" fill="#3E4651"></path>
</svg>
