<?xml version="1.0" encoding="utf-8"?>
<!-- Generator: Adobe Illustrator 25.4.1, SVG Export Plug-In . SVG Version: 6.00 Build 0)  -->
<svg version="1.1" id="Layer_2" xmlns="http://www.w3.org/2000/svg" xmlns:xlink="http://www.w3.org/1999/xlink" x="0px" y="0px"
	 viewBox="0 0 411.5 255.3" style="enable-background:new 0 0 411.5 255.3;" xml:space="preserve">
<style type="text/css">
	.st0{fill:#CCD5F8;}
	.st1{fill:#F3EFE0;}
	.st2{fill:#8AA0D2;}
	.st3{fill:#586BA0;}
	.st4{fill:#F4B2A8;}
	.st5{fill:#FFFFFF;}
	.st6{fill:#002169;}
	.st7{fill:#253367;}
	.st8{fill:#A0B2D2;}
</style>
<g>
	<g>
		<path class="st0" d="M61.6,111.8c4-1.7,7.4-3.1,7.4-3.1c0.8-0.2,1.5-0.3,2.3-0.5c1.7-0.3,3.3-0.4,5-0.4c0.5,0,1,0.1,1.5,0.3
			c1.7,0.7,3.4,1.3,5.1,2c2.9,1.1,5.9,2.2,8.8,3.3c3.6,1.3,7.1,2.7,10.7,4c0.2,0.1,0.3,0.3,0.5,0.4l1.5,2.5l-6.2,1.2
			c-1.2,2-1.8,4.4-1.3,6.7l5.4,18.7l32.1,3.1l29.6,24.5c2,1.5,4,3,5.9,4.5c1.7,1.3,3.3,2.8,5.3,3.7c1.2,0.5,2.5,0.7,3.8,1.2
			c2.1,0.9,4,2.2,5.9,3.4c1.2,0.7,2.5,1.5,3.7,2.2c2,1.2,4.1,2.5,6.1,3.7c2.1,1.3,4.2,2.6,6.3,3.9c2.1,1.3,4.3,2.6,6.4,3.9
			c2.1,1.3,4.2,2.5,6.2,3.8c2,1.2,3.9,2.4,5.9,3.6c1.8,1.1,3.5,2.1,5.3,3.2c1.5,0.9,3,1.8,4.5,2.7c1.2,0.7,2.3,1.4,3.5,2.1
			c0.7,0.5,1.5,0.9,2.2,1.4c0.2,0.1,0.5,0.4,0.8,0.5c2.2,0.4,4,1.3,6,2.3c0.6,0.3,1.2,0.4,1.8,0.5c0.4,0.1,0.8,0.2,1.2,0.3
			c2.1,0.7,4.3,1.5,6.4,2.3c1.8,0.7,3.7,1.3,5.5,2c2.1,0.8,4.2,1.5,6.3,2.3c2.3,0.8,4.5,1.6,6.8,2.4c2.3,0.8,4.7,1.7,7,2.5
			c2.3,0.8,4.7,1.7,7,2.5c2.2,0.8,4.5,1.6,6.7,2.4c2,0.7,4.1,1.5,6.1,2.2c1.7,0.6,3.5,1.2,5.2,1.9c1.4,0.5,2.7,1,4.1,1.5
			c0.9,0.3,1.8,0.6,2.6,0.9c0.3,0.1,0.6,0.2,0.9,0.3c1,0.7,1.9,1.6,3,2.1l44.3,5.1c0.1,0,0.2,0.1,0.3,0.1l25.2-1.3
			c3-1.3,5.8-3.1,8.4-5.1c1.1-0.8,2.1-1.8,2.6-3.1c0.8-2.1-0.4-4.6-2.3-6c-1.9-1.3-4.3-1.5-6.5-1.6l-8.2,0.8
			c-0.6-0.3-1.2-0.6-1.8-0.8l-5.5-9.1c-0.3-0.2-0.4-0.6-0.1-0.9c0.3-0.3,0.7-0.4,1-0.4c3.6-0.5,7.2-0.1,10.6,1.2
			c1.9,0.7,3.7,1.6,5.6,2.2c1.9,0.6,4.1,0.9,5.9,0.2c1.9-0.7,3.8-2.6,3.6-4.6l-4.5-12.3c-0.4-0.8-0.9-1.6-1.3-2.5l-27.7-31.6
			c-0.3-0.2-0.6-0.4-0.9-0.6c-9-8-18.1-15.9-27.1-23.9c-0.6-0.5-1.1-1.1-1.8-1.4c-0.5-0.2-1-0.5-1.4-0.8c-1-0.7-2.1-1.4-3.1-2.1
			c-2.1-1.4-4.2-2.7-6.3-4.1c-4.2-2.7-8.4-5.5-12.6-8.2c-4.2-2.7-8.4-5.5-12.6-8.2c0,0,0,0-0.1,0c-4.2-2.7-8.3-5.4-12.5-8.2
			c-0.7-0.5-1.4-0.9-2.1-1.4c-4.7-3.1-9.5-6.2-13.4-10.3c-3.1-3.3-5.7-7.1-8.1-10.9C253.4,86.8,247,76.3,237.5,69
			c-2.2-1.7-5-3.4-7.8-2.6c-0.6,0.2-1.9,0.5-2,1.3c-0.1,0.6-0.1,1.3-0.2,1.9c-0.3,1.3-1,2.4-1.8,3.4c-1.3,1.7-3,3-4.4,4.6
			c-3.3,3.5-5.5,8-6.4,12.7c-0.2,1.2-0.2,2-1.2,2.8c-0.7,0.5-1.5,0.9-2.4,0.7l-61.1-10.9c-5.1-2.4-9.3-6.5-13.7-10
			c-2.3-1.8-4.8-3.7-7.7-3.4c-2.7,0.2-4.9,2.4-6,4.8c-1.1,2.5-1.9,5.4-2.1,8.1c-4.2-1.4-8.4-2.8-12.5-4.3c-0.4-0.2-0.9-0.3-1.4-0.4
			c-0.2,0-0.5,0-0.7-0.1c-0.7-0.2-1.4-0.8-2.1-1.2c-2.8-1.7-5.5-3.7-8-5.8c-2.5-2.1-4.8-4.5-7-7c-1.6-1.9-3-3.8-4.3-5.8L51.2,3.4
			c-0.7-0.3-1.5,0-2.1,0.4S48,5,47.6,5.7l-1.6,16.8l-4.2,13.2l-0.6,21c0,4.5-1,9-2.9,13.1l-3.4,6c-0.1,0-0.2,0.1-0.3,0.1L21.1,90
			c0,0-0.1,0-0.1,0.1L12.5,102c-0.1,0.3-0.2,0.6-0.3,0.9c-0.2,0.6-0.4,1.3-0.6,1.9c-0.5,1.6-1,3.3-1.6,4.9c-0.1,0.4-0.2,0.8-0.4,1.1
			c-0.2,0.3-0.5,0.7-0.7,0.9c-0.5,0.6-0.9,1.3-1.4,1.9c-0.7,0.8-1.6,1.3-2.4,1.9c-0.9,0.7-1.9,2-1.6,3.2c0.2,0.6,0.7,1.4,1.3,1.4
			c0.4,0,0.9,0,1.3,0.1c1.6,0.1,3.2,0.1,4.8,0.2c1.7,0.1,3.5,0.1,5.2,0.2c0.6,0,1.2,0,1.8,0.1c0.2,0,0.5,0.1,0.7,0
			c0,0,30.4-3.7,30.4-3.7c0,0,0.1,0,0.1,0C49.1,117,55.9,114.2,61.6,111.8z"/>
	</g>
	<g>
		<path class="st1" d="M392.7,238.3l-6.9-4.4l-11,2.8l-20.8-12.2c0,0-17.3-3.6-17.8-4.1c-0.5-0.5-5.2-6.4-5.2-6.4l0.7-10.7l5.9-7.4
			c0,0-13.1,1.8-15.5-4.6c-3.1-8.3-9.5-8-13.2,8.7c0-3.1-3.9,2.7-2,9.4c2.8,10,3.7,20.4-9,9.7c-4-3.3-2.9-9.8-2.9-9.8
			s-21.3,1-51.3-23.5c0,0-47.4-16.3-122.4-72c-12.1-9-26.4-14.5-40.4-20.1c-2.2-0.9-4.3-1.7-6.5-2.5c-1.1-0.4-2.2-0.9-3.4-1.2
			c-1-0.3-2.2,0.2-3,0.8c-0.6,0.4-1,1.1-1.1,1.9c-0.1,0.7,0.2,1.4,0.3,2.1c0.2,1.1,0.7,2.2,1.1,3.2c1.1,2.4,2.5,4.6,4.3,6.4
			c2.2,2.2,4.8,3.9,7.8,4.9c0.2,0.1,0.5,0.2,0.7,0.2c14.7,4.7,22.5,8.2,39.6,23.8c7.5,7,10.7,13.6,31.3,30.2s24.8,20.3,24.8,20.3
			l37.9,23c0,0,56.3,32.8,104.3,39.8C367.1,253.6,389.2,255.4,392.7,238.3z"/>
	</g>
	<g>
		<path class="st2" d="M395,222.6c0,0-1-7.1-8.3-4.5c-5.4,1.9-12-5.3-12-5.3s0.4-2.2-1.7-4c0,0,2.8-6.8-0.4-9.3
			c-0.8-0.6-1.6-1.4-1.8-1.5c-0.2-0.1-4.3-2.3-4.3-2.3s-2.3-1.4-2.6-1.4c-3-1.6-6.4,0.5-9.8,2.8c-1.3,0.9-3,0.9-4.3,0
			c-3.7-2.5-12-7.1-21.9-7c-1.2,0-2.2-0.8-2.5-1.9c-0.8-3.1-3.5-8.1-11.8-0.8c-0.8-2.4-0.4-4.6-3.2-4c-3.7,0.7-5.5-1.4-8.7-3.5
			c-34.1-22.2-62.2-29.1-154-70.1c-13.8-6.2-27.6-12.5-41.3-18.9c-5.4-2.5-10.7-5-16.1-7.4c-2.2-1-4.4-2.2-6.9-2.4
			c-2.2-0.1-4.4,0.3-6.3,1.1c-3.1,1.3-5.7,3.4-8.3,5.5c-0.9,0.7-2,1.5-3,0.9c-0.6-0.4-0.8-1.1-0.7-1.8c0.1-0.7,0.5-1.3,0.8-1.9
			c1.9-2.9,4.1-5.6,6.7-7.9c0.7-0.6,1.3-1.1,2-1.7c0.6-0.4,1-0.8,1.4-1.4c0.5-0.7,1.4-1.1,2.1-1.4c1.7-0.7,3.5-1.1,5.3-1.2
			c2.8-0.1,5.6,0.3,8.3,1c0.5,0.1,1.1,0.3,1.6,0.4c16.1,4.6,19,9.9,19,9.9l7.7-0.4l0.2-6.4l6.1-6l8,2.9c0,0,12.8,9.6,13.4,9.9
			c0.6,0.3,41.5,5.9,41.5,5.9s45,7.6,86.4,26.7s106.5,74.2,118.8,102.6L395,222.6z"/>
	</g>
	<g>
		<path class="st3" d="M391.8,213.8c0,0-2.5,6.1-8.8-2.9c-6.3-9-11.7-30.1-92.6-81.3s-151-32.3-181.5-44S83.8,72.2,83.8,72.2
			s3.5-2.2,11.7,0.9s16.9,9.4,24.9,9.8c8,0.4,12.6,1.5,19,0.3s-17-3.4-15.4-10.3c1.6-6.9,10.4-0.2,10.4-0.2s10.9,9.2,17.3,10
			c6.3,0.8,66.7,4.4,124,32.5S379.8,190.7,391.8,213.8z"/>
	</g>
	<g>
		<path class="st4" d="M366.4,225.1c0,0,6.6,10.5,6.3,10.3c-0.3-0.2-5.1-1.3-5.1-1.3s-12.1-7.3-12.8-4.7c-3.1-0.5-17-0.1-25.9-7.8
			c-9.3-8.1-0.5-22.4-0.5-22.4s-3.7-0.7-0.9-2.2c2.8-1.5,7.1-0.4,7.1-0.4l-3.9,10l-0.1,9.5l7.2,6.3c0,0,19,0.4,19.3,0.6
			C357.5,223.1,366.4,225.1,366.4,225.1z"/>
	</g>
	<g>
		<path class="st4" d="M354.5,242.8c-0.2,0.4-0.7,0.5-1.1,0.6c-1.4,0.2-2.8,0.1-4.1-0.1c-1.4-0.2-2.7-0.7-4-1.2
			c-0.3-0.1-0.6-0.2-0.9-0.4c-0.7-0.3-1.9-1.1-1.4-2c0.1-0.2,0.3-0.3,0.5-0.4c0.5-0.4,0.2-1.2-0.1-1.6c-0.4-0.5-1.1-0.7-1.7-1
			c-2.4-0.9-4.7-2.1-6.9-3.4c-0.4-0.2-0.8-0.5-1.1-0.9c-0.3-0.4-0.4-1-0.1-1.3c0.6-0.7,1.8-0.4,2.4,0.1c0.5,0.4,0.9,0.5,1.5,0.7
			c1.5,0.5,3,1,4.4,1.6c2.1,0.8,4.1,1.7,6.1,2.6c0.5,0.2,0.9,0.4,1.3,0.8c0.3,0.4,0.5,1,0.2,1.4c-0.1,0.2-0.4,0.4-0.5,0.6
			c-0.1,0.3,0,0.8,0.3,1c0.3,0.2,0.7,0.4,1,0.5c1.1,0.4,2.2,0.8,3.3,1.2c0.5,0.2,1.1,0.5,1,1.1C354.6,242.7,354.6,242.8,354.5,242.8
			z"/>
	</g>
	<g>
		<path class="st4" d="M388.4,241.9c-0.1,1.3-2.3,2.5-3.3,3c-2.4,1.1-5,1.7-7.6,1.7c-0.7,0-1.5-0.1-1.7-0.8c-0.2-0.7,0.4-1.3,1-1.7
			c1-0.7,2-1.4,3-2.1c1.3-1,2.7-1.9,4.4-2.2c1.3-0.3,2.8,0,3.8,1C388.3,241.1,388.4,241.5,388.4,241.9z"/>
	</g>
	<g>
		
			<ellipse transform="matrix(0.4289 -0.9033 0.9033 0.4289 26.6903 444.4318)" class="st1" cx="364.9" cy="201.1" rx="7.7" ry="7.4"/>
	</g>
	<g>
		<path class="st5" d="M344.2,203.9c0.3,0.8,0.8,1.6,1.1,2c1.8,2,4.5,3.3,7.1,3.9c0.4,0.1,0.7,0.2,1.1,0.1c1.6-0.3,0.7-2.8,0.2-3.6
			c-0.7-1.3-1.8-2.3-2.9-3.1c-1.4-1.1-3.1-2.3-4.9-2.8C343.4,199.6,343.5,201.9,344.2,203.9z"/>
	</g>
	<g>
		<path class="st5" d="M231.8,70.2C231.8,70.2,231.8,70.2,231.8,70.2c0.4,1.1,1.4,1.9,2.2,2.7c0.9,1,1.9,1.9,2.9,2.7
			c2,1.7,4.2,3.1,6.7,3.8c0.7,0.2,1.6,0.4,2.2-0.2c0.7-0.7,0.3-1.9-0.2-2.8c-0.7-1.2-1.6-2.3-2.5-3.4c-1.1-1.3-2.3-2.4-3.6-3.5
			c-1-0.8-2.1-1.6-3.2-2.2c-0.9-0.5-1.9-1.1-2.9-0.7C231.8,67.1,231.3,68.9,231.8,70.2z"/>
	</g>
	<g>
		<path class="st5" d="M223.9,75.9c-0.1,0.2-0.2,0.5-0.2,0.8c0.1,0.6,0.6,1.1,1.1,1.5c2.3,1.8,4.9,3.3,7.7,4.4
			c0.7,0.3,1.5,0.5,2.2,0.3c0.9-0.3,1.1-1.3,0.7-2c-0.5-0.9-1.4-1.8-2.2-2.4c-1.7-1.4-3.8-2.4-5.8-3.1c-0.7-0.2-1.5-0.4-2.3-0.3
			C224.6,75.1,224.2,75.4,223.9,75.9z"/>
	</g>
	<g>
		<path class="st5" d="M386,222c0,0.2,0,0.5,0.1,0.7c0.1,0.3,0.3,0.4,0.5,0.7c0.2,0.3,0.5,0.5,0.8,0.6c0.4,0.2,0.7,0.3,1.1,0.3
			c0.2,0,0.3,0,0.4,0c0.2,0,0.4,0,0.6,0c0.3,0,0.7-0.1,1-0.2c0.2-0.1,0.5-0.3,0.6-0.5c0.1-0.1,0.1-0.1,0.2-0.2
			c0.2-0.2,0.3-0.3,0.4-0.5c0.2-0.4,0.2-0.9,0.1-1.3c-0.2-0.7-0.8-1.3-1.5-1.5s-1.5-0.2-2.2-0.1c-0.7,0.2-1.4,0.5-1.8,1.1
			C386.2,221.4,386.1,221.7,386,222z"/>
	</g>
	<g>
		<path class="st3" d="M299.4,218.9c-3.8-11.3,3.2-17.4,3.2-17.4s1-2.2,1.3,4.3C299.9,210.7,300.9,223.3,299.4,218.9z"/>
	</g>
	<g>
		<path class="st4" d="M320.9,240.3c0.6,0.4,0.2,1.4-0.5,1.3C308,239.2,267.1,230,214.3,201c-1.4-0.8-2.3-2.4-2-4
			c0.2-1.4,0.1-3.4-0.9-5.7c-0.3-0.8,0.5-1.6,1.3-1.2c50.5,24.6,72.4,31.2,80.8,32.9c2.4,0.5,4.4,2,5.7,4
			C301.2,230.2,306.6,235.4,320.9,240.3z"/>
	</g>
	<g>
		<path class="st4" d="M181.1,178.5c3.9,0.1,10.8,1.7,14.9,2.8c0.5,0.1,0.8-0.6,0.4-0.8c-8.6-5.2-34.2-21.1-59.2-42.1
			c-0.5-0.4-1.2,0-1.1,0.6l0,0c0.6,3.6,2.3,6.9,4.8,9.5c5.9,5.9,18.1,17.1,36.2,28.7C178.3,178.1,179.7,178.5,181.1,178.5z"/>
	</g>
	<g>
		<path class="st4" d="M124.7,127.4c-2.9-0.7-5.6-2-8-3.8c-21.6-16.1-26.9-15.7-32.6-17.7c-5.9-2.1-4.7-5.3-4.7-5.3
			c17.6,1.9,39.5,20.1,46,25.8c0.5,0.4,0.1,1.2-0.6,1.1L124.7,127.4z"/>
	</g>
	<g>
		<path class="st1" d="M63.9,23.1c0,0-6.6-3.7-5.6,6.3c0,0-6.8,2.8-2.6,15.2c0,0-5.8,0.7-2.7,10.5c0,0-5.7-1.3-3.1,7.2
			c0,0-6.6,1.8,1.8,10.1c0,0-6.8,1.1-3.5,7.3c0,0-8.5-2-8.3,7.3c0,0-11.5,1.2-8,10.3c0,0-11.4,4.6-6.5,11.3c0,0-7,5-1.8,6.9
			c0,0-3.9,6.5,0.2,7.6c4.1,1.1,45.2-14.1,45.2-14.1l2.4-3.3c0-0.1,0-0.1-0.1-0.2c-0.8-1.7-1.5-3.4-2.3-5.1
			c-0.5-1.2-1.1-2.4-1.6-3.7c-0.5-1.1-0.9-2.3-1.7-3.3c-0.9-1.1-1.1-2.4-1.1-3.8c0-1.6,0.3-3.3,0.9-4.8c0.5-1.2,1.3-2.6,2.4-3.4
			c0.5-0.3,0.9-0.7,1.3-1.1c2.4-2.9,5.4-5,9-6.2c13.3-4.3,17.1-0.8,17.1-0.8L63.9,23.1z"/>
	</g>
	<g>
		<path class="st3" d="M264.5,106.1c0,0-6.2-13.8-18.1-26.8c9,16.9-11.3-0.4-11.3-0.4s9,14.1-6.3,4.9c0,0,2,8.2-5.1,4.3
			c3.7,2.2,0.5,6.9-5.8,6.4l38,14.9l14,5.7L264.5,106.1z"/>
	</g>
	<g>
		<path class="st0" d="M141.3,78.4c0,0-15.5,0.5-17.3-5.5c-1.8-6.1,9.3-1.9,9.3-1.9L141.3,78.4z"/>
	</g>
	<g>
		<path class="st3" d="M78.8,55.5c-0.2,0.5-0.4,1-0.5,1.5c-0.9,3-2.8,5.7-5,7.9c-0.7,0.7-1.4,1.4-2.2,2.1c-1,0.9-2,1.7-3.1,2.5
			c-0.5,0.4-1.1,0.8-1.6,1.2c-0.3,0.2-0.5,0.3-0.7,0.6c-1,1.3-2,2.6-2.7,4c-4.8,9-0.7,20.9-5.8,29.7c-1.9,3.2-4.9,5.7-8.1,7.8
			c-0.7,0.5-1.5,0.9-2,1.6c-0.5,0.7-0.8,1.7-0.4,2.4c0.5,1,1.8,1.2,2.8,0.9c1-0.3,1.9-1,2.5-1.9c0.5-0.7,1.1-1.2,1.9-1.5
			c1.2-0.5,2.4-1,3.6-1.5c3.1-1.3,6.2-2.5,9.3-3.8c1.9-0.8,3.9-1.6,5.8-2.4c0.1,0,0.2-0.1,0.2-0.1c0,0-7.2-11.5-7.2-11.5
			c-0.1-0.2-0.1-0.4-0.2-0.6c-0.2-0.5-0.3-1.1-0.3-1.7c-0.3-2-0.1-4,0.5-5.9c0.8-3,2.5-5.7,4.6-8c0.7-0.7,1.4-1.4,2.1-2.1
			c0.4-0.4,0.8-0.7,1.2-1c0.2-0.2,0.6-0.4,0.8-0.6c0.2-0.3,0.4-0.4,0.7-0.6c2.4-1.6,5.3-2.2,8.2-1.9c1.6,0.2,3.2,0.7,4.6,1.5
			c1.3,0.7,2.4,1.7,3.8,2.3c1.2,0.5,2.7,0.7,3.9,0c1.2-0.7,1.4-2.3,1.2-3.6c-0.1-0.4-0.3-0.8-0.5-1.2c-0.3-0.5-0.7-0.8-1.1-1.2
			c-0.4-0.4-0.7-1-1-1.4c-0.5-0.7-1.3-0.7-2-1.1c-1.1-0.6-2-1.5-2.7-2.4c-0.8-0.9-1.6-2-2.3-3c-1.5-2.4-2.8-4.9-4.6-7.1
			c-0.5-0.7-1.2-1.3-2-1.3c-0.6,0-1.1,0.5-1.4,1C78.9,55.4,78.9,55.5,78.8,55.5z"/>
	</g>
	<g>
		<path class="st5" d="M238.7,160.5c-3.2-1.5-6.3-2.9-9.5-4.4c-35-15.9-123.3-60.8-118.6-62.5s39.2,13.3,111.3,45.1
			c13.8,6.1,27.5,12.3,41,19c0,0,25.8,11.8,22,12.4S264.1,171.6,238.7,160.5z"/>
	</g>
	<g>
		<polygon class="st6" points="314.5,160.3 316.6,162.8 315.4,165.9 312.2,166.4 310.2,163.9 311.3,160.9 		"/>
	</g>
	<g>
		<polygon class="st6" points="241.1,115.7 243.2,118.2 242,121.2 238.8,121.7 236.8,119.2 237.9,116.2 		"/>
	</g>
	<g>
		<polygon class="st6" points="338.3,168.7 339.8,170.5 338.9,172.6 336.7,173 335.2,171.2 336,169.1 		"/>
	</g>
	<g>
		<polygon class="st6" points="283.3,141.8 285.1,144 284.1,146.6 281.4,147 279.6,144.9 280.6,142.3 		"/>
	</g>
	<g>
		<polygon class="st6" points="255,141.9 256.7,143.8 255.8,146.2 253.3,146.6 251.6,144.7 252.5,142.3 		"/>
	</g>
	<g>
		<polygon class="st6" points="188.8,115 190.5,117 189.6,119.4 187.1,119.8 185.4,117.8 186.3,115.5 		"/>
	</g>
	<g>
		<polygon class="st6" points="289.8,161.9 291.4,163.9 290.5,166.2 288,166.7 286.4,164.7 287.3,162.3 		"/>
	</g>
	<g>
		<polygon class="st6" points="215.2,113.3 216.8,115.2 215.9,117.6 213.4,118 211.8,116.1 212.7,113.7 		"/>
	</g>
	<g>
		<polygon class="st6" points="170.5,98.8 172.1,100.7 171.2,103.1 168.7,103.6 167.1,101.6 168,99.2 		"/>
	</g>
	<g>
		<polygon class="st6" points="137.9,95 139.3,96.7 138.5,98.8 136.3,99.2 134.9,97.5 135.7,95.4 		"/>
	</g>
	<g>
		<polygon class="st7" points="168.7,130.3 170.1,132 169.4,134.1 167.2,134.4 165.8,132.7 166.6,130.7 		"/>
	</g>
	<g>
		<polygon class="st7" points="137.5,108.1 138.9,109.8 138.1,111.9 136,112.2 134.6,110.5 135.3,108.5 		"/>
	</g>
	<g>
		<polygon class="st7" points="95.8,88 97.2,89.7 96.4,91.7 94.2,92.1 92.8,90.4 93.6,88.3 		"/>
	</g>
	<g>
		<polygon class="st7" points="206.4,144.1 207.8,145.8 207,147.9 204.8,148.2 203.4,146.5 204.2,144.5 		"/>
	</g>
	<g>
		<polygon class="st7" points="238.9,164.8 240.5,166.7 239.6,169 237.2,169.5 235.6,167.5 236.4,165.2 		"/>
	</g>
	<g>
		<path class="st4" d="M297.6,194c0.2,0.4,0.3,0.7,0.4,1.1c0.2,0.7,0.3,1.5,0.3,2.3c-0.1,1.6-0.7,3.2-1.2,4.7
			c-0.6,1.7-1.2,3.3-1.9,5c-0.2,0.5-0.4,1-0.9,1.1c-0.3,0.1-0.6,0-0.9,0c-0.5-0.1-1.1-0.2-1.6-0.3c-0.5-0.1-1-0.2-1.5-0.3
			c-0.3-0.1-0.5-0.3-0.8-0.4c-0.3-0.2-0.6-0.3-1-0.4c-0.8-0.2-1.6-0.5-2.4-0.8c-1-0.4-2-0.8-2.9-1.2c-1.1-0.5-2.2-1-3.3-1.5
			c-1.2-0.6-2.4-1.2-3.6-1.8c-1.3-0.7-2.6-1.4-3.8-2.1c-1.3-0.8-2.6-1.6-3.9-2.4c-1.3-0.9-2.7-1.7-4-2.6c-1.3-0.9-2.6-1.9-3.9-2.9
			c-1.3-1-2.5-2-3.8-3.1c-1.2-1-2.4-2.1-3.5-3.2c-1.1-1.1-2.2-2.2-3.2-3.4c-1-1.1-1.9-2.3-2.8-3.5c0,0,0,0,0,0l0.5-4.8l8.1,1.1
			l4.5-1.8l7.1,2.8l5.3-0.5l3.7,2.3l4.7-3.1c0,0,3.8,1.8,3.8,1.8c2.7,4.1,5.5,8.1,8.2,12.2c0.8,1.2,1.6,2.4,2.4,3.6
			c0.3,0.5,0.6,1.1,1.1,1.4C297.1,193.2,297.4,193.6,297.6,194z"/>
	</g>
	<g>
		<path class="st5" d="M265.6,194.1c0,0-15.2-21-17.8-20.8S248.7,183.4,265.6,194.1z"/>
	</g>
	<g>
		<path class="st5" d="M277.3,194.3c0,0-16.9-20.4-19.5-20.2C255.2,174.3,260.5,183.6,277.3,194.3z"/>
	</g>
	<g>
		<path class="st5" d="M287.5,194.1c0,0-16.9-20.4-19.5-20.2S270.6,183.4,287.5,194.1z"/>
	</g>
	<g>
		<path class="st5" d="M290.2,188.7c0,0-8.7-12.6-11.3-12.4S273.4,178.1,290.2,188.7z"/>
	</g>
	<g>
		<path class="st1" d="M172.2,190.5c-1,1.5-1.9,3-2.7,4.6c-0.3,0.6-0.6,1.3-1,1.9c-0.1,0.2-0.3,0.3-0.4,0.4
			c-0.2,0.3-0.4,0.6-0.5,0.9c-0.7,1.3-1.4,2.7-1.9,4.1c-0.2,0.6-0.4,1.2-0.4,1.8c-0.2,1.5,0.3,3.1,1.5,3.9c1.5,1.1,3.5,0.6,5.3,0
			c2.3-0.7,4.6-1.6,6.9-2.5c1.2-0.5,2.3-1.1,3.5-1.4c0.9-0.2,1.8-0.7,2.7-1c1.8-0.7,3.5-1.5,5.3-2.4c2.8-1.4,5.5-2.9,8.2-4.6
			c0.7-0.4,1.4-1,1.5-1.8c0.1-0.9-0.8-1.7-1.6-2.2c-4.5-3-9.1-5.8-13.8-8.5c-1.6-0.9-3.4-1.8-5.2-1.3c-1.3,0.4-2.2,1.4-3.1,2.4
			C174.8,186.8,173.4,188.6,172.2,190.5z"/>
	</g>
	<g>
		<path class="st1" d="M188.8,200.1c-1.9,0.9-3.6,1.9-5.2,3.2c-0.3,0.2-0.6,0.5-1,0.7c-0.5,0.3-1,0.5-1.5,0.7
			c-1.5,0.9-2.7,2.3-2.6,4.1c0.1,1.3,0.7,2.6,1.3,3.7c0.6,1.1,1.4,2.2,2.3,3.1c1,0.9,2.2,1.4,3.5,1.4c1.1,0,2.1-0.5,3-1.2
			c1.1-0.8,1.4-2,2.2-3c1.3-1.6,2.8-3,4.1-4.6c0.7-0.8,1.4-1.6,2.1-2.4c0.4-0.4,0.7-0.8,1.1-1.2c0.1-0.2,0.3-0.3,0.4-0.5
			c0.2-0.3,0.4-0.8,0.6-1.1c0.2-0.4,0.5-0.8,0.9-1.2c0.3-0.3,0.7-0.6,0.8-1c0.3-0.6,0-1.3-0.4-1.8s-1-0.8-1.7-1
			c-3-0.9-6.2,0.2-9,1.5C189.5,199.8,189.2,199.9,188.8,200.1z"/>
	</g>
	<g>
		<path class="st0" d="M195.8,198.1c-0.5,0.2-0.9,0.5-1.4,0.7c-2.1,1.2-4.3,2.3-6.4,3.5c-0.4,0.2-0.8,0.5-0.9,0.9
			c-0.2,0.6,0.3,1.2,0.7,1.6c0.7,0.6,1.5,1.1,2.4,1.3c1.4,0.5,3,0.5,4.4,0.1c0.7-0.2,1.4-0.5,2.1-0.9c0.3-0.2,0.5-0.4,0.7-0.7
			c0.6-1.1,1.7-2,2.5-2.9c0.5-0.6,1-1,1-1.8c0-0.6-0.3-1.3-0.8-1.7c-0.8-0.7-1.9-0.8-2.9-0.6C196.8,197.7,196.3,197.9,195.8,198.1z"
			/>
	</g>
	<g>
		<path class="st5" d="M193.3,198c0,0-23.9,1.5-29.1,6c-5.2,4.5,2.7,6.3,3,6.1S193.3,198,193.3,198z"/>
	</g>
	<g>
		<path class="st5" d="M190.4,192.1c0,0-24.3,8.1-24.3,6.9c0-1.2,3.1-4.8,3.1-4.8S185.5,190.8,190.4,192.1z"/>
	</g>
	<g>
		<path class="st5" d="M172.2,190.5l16.3-3c0,0-13-2.3-15.5-0.2C170.5,189.4,172.2,190.5,172.2,190.5z"/>
	</g>
	<g>
		<path class="st1" d="M108.5,120.3c0,0,0.5,0.7,0.6,0.8c0.2,0.2,0.4,0.3,0.6,0.5c0.4,0.3,0.8,0.6,1.1,1c0.8,0.6,1.5,1.3,2.3,1.9
			c1.5,1.3,3,2.6,4.6,3.9c2.5,2.2,5.1,4.3,7.6,6.5c3.2,2.8,6.5,5.5,9.2,8.9c0.9,1.1,1.7,2.6,1.1,3.9c-0.6,1.2-2.3,1.5-3.7,1.5
			c-2,0.1-4,0.2-6,0.3c-1.3,0.1-2.6,0.2-3.9,0.2c-2.4,0-4.7-0.2-7-0.5c-2.4-0.3-4.8-0.6-7.2-1c-1.6-0.3-3.2-0.5-4.8-0.9
			c-0.1,0-0.8-0.3-0.7-0.3c0.8-0.4-2.5-8.3-2.4-8.9c0.1-0.6-3-9.8-3-9.8s1.7-6.8,2.7-6.6C100.4,122,108.3,120.3,108.5,120.3z"/>
	</g>
	<g>
		<path class="st5" d="M126.3,70.5c-0.4,1.3,0.4,3.2,1.2,3.9c1.3,1.2,3.2,1.5,5,1.4c0.9-0.1,1.8-0.2,2.3-0.9c0.3-0.4,0.4-1,0.2-1.5
			c-0.2-0.6-0.9-0.7-1.4-1.1c0,0,0,0,0,0c-1-0.8-2.2-1.5-3.4-2.1c-0.9-0.4-2.1-1.1-3.1-0.8C126.8,69.7,126.5,70,126.3,70.5z"/>
	</g>
	<g>
		<polygon class="st7" points="375.5,193.4 367.9,193.1 361.3,188.4 372.1,188.3 		"/>
	</g>
	<g>
		<polygon class="st7" points="294.8,127.3 294.7,137.2 300.8,142.5 300.4,129.5 		"/>
	</g>
	<g>
		<path class="st7" d="M385.2,203c0,0,18.3,4.6,21.8-0.9c2.1-3.3-2.9-15.5-35.4-14.5L385.2,203z"/>
	</g>
	<g>
		<polygon class="st7" points="297.3,121.8 299.9,127.6 291.8,124.4 		"/>
	</g>
	<g>
		<path class="st6" d="M333.6,196.2l-0.2,0.3l-0.2,0.3l-0.3,0.5c-0.2,0.3-0.4,0.7-0.6,1c-0.4,0.7-0.8,1.4-1.2,2.1
			c-0.7,1.5-1.4,3-1.9,4.5c-0.5,1.6-0.9,3.3-1,5c-0.1,1.8,0,3.6,0.6,5.4c0.3,0.9,0.7,1.8,1.2,2.6c0.5,0.8,1.1,1.6,1.8,2.2
			c0.7,0.7,1.4,1.2,2.2,1.7c0.8,0.5,1.6,0.9,2.4,1.2c0.2,0.1,0.4,0.2,0.6,0.3l0.6,0.2c0.4,0.1,0.8,0.3,1.2,0.4
			c0.8,0.3,1.6,0.5,2.4,0.7c0.8,0.2,1.6,0.4,2.4,0.6c0.8,0.2,1.6,0.3,2.4,0.4c6.3,1,12.6,0.9,18.7,0.9c3.1,0,6.1,0,9,0.1
			c1.5,0.1,2.9,0.2,4.3,0.5c1.4,0.3,2.7,0.6,3.8,1.2l-0.3-0.2l0.1,0.1l0.1,0.1l0.1,0.1c0.1,0.1,0.2,0.1,0.3,0.2
			c0.2,0.1,0.4,0.2,0.5,0.3c0.4,0.2,0.7,0.4,1.1,0.5c0.7,0.3,1.5,0.5,2.3,0.7c1.5,0.4,3.2,0.5,4.8,0.3c0.8-0.1,1.6-0.3,2.4-0.5
			l0.6-0.2c0.2-0.1,0.4-0.1,0.6-0.2c0.2-0.1,0.4-0.2,0.5-0.2l0.3-0.1c0.1,0,0.2-0.1,0.3-0.2c0.4-0.2,0.9-0.5,1.2-0.9
			c0.4-0.4,0.7-0.8,1-1.3c0.5-0.9,0.8-1.9,0.8-2.8c0.1-0.9,0-1.7-0.2-2.5c-0.1-0.8-0.4-1.5-0.6-2.2c-0.5-1.4-1.1-2.7-1.7-4
			c-1.3-2.5-2.8-4.8-4.3-7.1c-1.6-2.3-3.2-4.4-4.9-6.6c-1.7-2.1-3.4-4.2-5.2-6.3c-3.5-4.1-7.2-8.1-10.9-12c-1.9-1.9-3.8-3.9-5.7-5.8
			c-1.9-1.9-3.9-3.8-5.9-5.6c-4-3.7-8-7.3-12.1-10.8c-4.1-3.5-8.3-6.9-12.6-10.2c-4.3-3.3-8.6-6.5-13-9.7c-2.2-1.6-4.4-3.1-6.6-4.6
			l-3.4-2.3c-1.1-0.8-2.3-1.5-3.4-2.2l-1.7-1.1l-1.7-1.1c-1.1-0.7-2.3-1.5-3.4-2.2l-3.4-2.1c-0.6-0.4-1.2-0.7-1.7-1.1l-1.7-1
			c-2.3-1.4-4.7-2.7-7-4.1l-3.5-2l-1.8-1l-1.8-1l-3.5-1.9c-1.1-0.6-2.1-1.3-3.1-2c-1-0.8-1.9-1.6-2.8-2.5c-0.9-0.9-1.7-1.9-2.5-2.9
			c-1.6-2-3-4.2-4.4-6.5c-1.4-2.3-2.7-4.6-4.1-6.9c-1.4-2.3-2.8-4.6-4.4-6.9c-1.5-2.3-3.2-4.5-4.9-6.6c-3.5-4.3-7.4-8.2-11.8-11.6
			l-0.8-0.6l-0.8-0.6c-0.3-0.2-0.6-0.4-0.8-0.6l-0.4-0.3l-0.1-0.1l-0.1,0l-0.1-0.1c-0.1-0.1-0.3-0.2-0.4-0.2
			c-0.6-0.3-1.2-0.5-1.8-0.5c-0.3,0-0.6,0-1,0.1c-0.1,0-0.2,0-0.2,0.1c-0.1,0-0.2,0-0.2,0.1l-0.3,0.1c-0.7,0.3-1.5,0.6-2.2,1
			c-0.7,0.4-1.4,0.9-2,1.4c-0.3,0.3-0.6,0.6-0.9,0.9c-0.3,0.3-0.5,0.7-0.7,1c-0.4,0.7-0.8,1.5-1,2.3c-0.2,0.8-0.3,1.6-0.4,2.5
			l1.7-1.9c-0.1,0-0.2,0-0.2,0l-0.2,0c-0.1,0-0.2,0.1-0.4,0.1c-0.2,0.1-0.5,0.1-0.7,0.2c-0.4,0.1-0.9,0.3-1.3,0.5
			c-0.8,0.4-1.7,1-2.4,1.7c-0.4,0.4-0.7,0.7-1,1.2c-0.3,0.4-0.5,0.9-0.7,1.3c-0.4,0.9-0.6,1.9-0.7,2.8l1-1.5l-0.2,0.1l-0.1,0.1
			l-0.3,0.2c-0.2,0.1-0.3,0.2-0.5,0.4c-0.3,0.2-0.6,0.5-0.9,0.8c-0.6,0.5-1.1,1.1-1.6,1.7c-1,1.2-1.8,2.7-2.3,4.2
			c-0.5,1.5-0.7,3.2-0.7,4.8c0.1,1.6,0.4,3.2,0.9,4.6l3.8-1.3c-0.4-1.2-0.6-2.3-0.7-3.5c0-1.2,0.1-2.3,0.5-3.4
			c0.4-1.1,0.9-2.1,1.6-3c0.4-0.5,0.8-0.9,1.2-1.3c0.2-0.2,0.4-0.4,0.7-0.6c0.1-0.1,0.2-0.2,0.3-0.3l0.2-0.1l0.1-0.1l0.9-0.6l0.1-1
			c0.1-0.6,0.2-1.1,0.4-1.6c0.1-0.2,0.2-0.5,0.4-0.7c0.1-0.2,0.3-0.4,0.5-0.6c0.4-0.4,0.8-0.7,1.3-0.9c0.3-0.1,0.5-0.2,0.8-0.3
			c0.1,0,0.3-0.1,0.4-0.1c0.1,0,0.1,0,0.2,0l0.1,0c0,0,0.1,0,0,0l1.7-1.9c0-1.1,0.3-2,0.8-2.9c0.5-0.8,1.3-1.5,2.2-2.1
			c0.5-0.3,1-0.5,1.5-0.7l0.2-0.1c0,0,0,0,0,0c0,0,0,0,0,0c0,0,0,0,0,0c0,0,0.1,0,0.1,0c0,0,0,0,0,0c0,0,0,0,0,0l0,0l0.1,0.1
			l0.4,0.3c0.3,0.2,0.5,0.4,0.8,0.6l0.8,0.6l0.8,0.6c4.1,3.2,7.9,6.9,11.2,11c3.3,4,6.2,8.5,9,13.1c1.4,2.3,2.7,4.6,4.2,6.9
			c1.4,2.3,2.9,4.6,4.7,6.8c0.9,1.1,1.8,2.2,2.8,3.2c1,1,2.1,2,3.2,2.8c1.1,0.9,2.4,1.7,3.6,2.4l3.5,1.9l1.8,1l1.8,1l3.5,2
			c2.3,1.3,4.6,2.7,6.9,4.1l1.7,1c0.6,0.3,1.1,0.7,1.7,1l3.4,2.1c1.1,0.7,2.3,1.4,3.4,2.2l1.7,1.1l1.7,1.1c1.1,0.7,2.2,1.5,3.3,2.2
			l3.3,2.3c2.2,1.5,4.4,3,6.6,4.6c4.3,3.1,8.6,6.3,12.9,9.6c4.2,3.3,8.4,6.7,12.4,10.1c4.1,3.5,8.1,7,12,10.7c2,1.8,3.9,3.7,5.8,5.5
			c1.9,1.9,3.8,3.8,5.6,5.7c3.7,3.8,7.3,7.8,10.8,11.8c3.5,4.1,6.8,8.2,9.7,12.6c1.5,2.2,2.9,4.4,4,6.7c0.6,1.1,1.1,2.3,1.4,3.4
			c0.2,0.6,0.3,1.1,0.4,1.7c0.1,0.5,0.1,1.1,0.1,1.5c0,0.4-0.1,0.8-0.3,1c-0.1,0.2-0.3,0.4-0.7,0.6l-0.1,0.1l-0.2,0.1
			c-0.1,0.1-0.3,0.1-0.4,0.2c-0.1,0-0.3,0.1-0.4,0.1l-0.4,0.1c-0.5,0.2-1,0.3-1.6,0.3c-1.1,0.1-2.2,0-3.2-0.2
			c-0.5-0.1-1.1-0.3-1.6-0.5c-0.3-0.1-0.5-0.2-0.7-0.4c-0.1-0.1-0.2-0.1-0.3-0.2l-0.2-0.1l-0.1,0l0,0c0,0,0,0,0,0l-0.3-0.2
			c-1.6-0.8-3.3-1.3-4.9-1.6c-1.6-0.3-3.2-0.5-4.8-0.6c-3.2-0.2-6.3-0.3-9.4-0.3c-3.1,0-6.1,0-9.1-0.1c-3-0.1-6-0.3-8.8-0.8
			c-1.4-0.2-2.9-0.5-4.2-0.9c-0.7-0.2-1.4-0.4-2.1-0.6c-0.3-0.1-0.7-0.2-1-0.4l-0.5-0.2c-0.2-0.1-0.3-0.1-0.5-0.2
			c-1.2-0.5-2.3-1.2-3.1-2c-0.9-0.8-1.5-1.8-1.8-2.8c-0.4-1.1-0.5-2.3-0.5-3.6c0.1-1.3,0.3-2.7,0.7-4c0.4-1.3,0.9-2.7,1.5-4
			c0.3-0.7,0.6-1.3,0.9-1.9c0.2-0.3,0.3-0.6,0.5-1l0.3-0.5l0.3-0.4L333.6,196.2z"/>
	</g>
	<g>
		<g>
			<path class="st6" d="M348.6,199.5c0,0.1,0.1,0.3,0.3,0.5c0.2,0.2,0.6,0.4,1,0.7c0.9,0.6,2.1,1.3,3.4,2.4c0.7,0.5,1.3,1.2,2,1.8
				c0.7,0.7,1.3,1.4,1.8,2.3c0.1,0.1,0.1,0.2,0.2,0.3l0.1,0.2c0,0.1,0.1,0.1,0.1,0.2c0.1,0.2,0.2,0.3,0.3,0.5
				c0.1,0.1,0.2,0.3,0.4,0.4c0.5,0.5,1,0.9,1.6,1.3c0.6,0.4,1.1,0.7,1.7,1c0.6,0.3,1.2,0.5,1.9,0.7c0.7,0.2,1.3,0.3,1.9,0.4
				c0.2,0,0.3,0,0.5,0c0.2,0,0.3,0,0.5,0c0.1,0,0.2,0,0.2,0c0.1,0,0.1,0,0.2,0c0.1,0,0.2,0,0.3,0c0.7-0.1,1.3-0.1,1.9,0
				c0.5,0.1,1,0.2,1.4,0.3c0.4,0.1,0.7,0.2,1,0.2c0.5,0.1,0.9,0.1,1.1,0c0.2-0.1,0.3-0.3,0.5-0.5c0.1-0.2,0.2-0.4,0.2-0.6
				c0-0.2-0.2-0.6-0.7-1c-0.2-0.2-0.6-0.5-1-0.7c-0.5-0.3-1-0.5-1.8-0.7c-0.8-0.2-1.7-0.3-2.7-0.3c-0.1,0-0.3,0-0.4,0
				c-0.1,0-0.2,0-0.2,0c-0.1,0-0.2,0-0.2,0c-0.1,0-0.2,0-0.3,0c-0.4,0-0.8-0.1-1.3-0.3c-0.5-0.1-0.9-0.3-1.4-0.5
				c-0.5-0.2-0.9-0.4-1.3-0.7c-0.4-0.3-0.8-0.5-1.1-0.8c-0.1-0.1-0.1-0.1-0.2-0.2l-0.2-0.2c0,0-0.1-0.1-0.1-0.2l-0.1-0.2
				c-0.1-0.1-0.2-0.3-0.3-0.4c-0.8-1-1.6-1.8-2.4-2.5c-0.8-0.7-1.7-1.3-2.5-1.7c-1.6-0.9-3.1-1.5-4.2-1.7c-0.5-0.1-1-0.1-1.3-0.1
				C348.8,199.3,348.6,199.4,348.6,199.5z"/>
		</g>
	</g>
	<g>
		<path class="st6" d="M277.8,204c-9.4-4.6-22.7-12.5-32.2-24.3c-0.9-1.2-1.2-2.7-0.8-4.2c0.4-1.4,1.5-2.5,2.9-2.9
			c2-0.6,4.5-0.5,7.4,0.2c1.7-1.1,5.6-2.7,11.3,0.6c1.7-0.7,5.2-1.4,9.4,1.5c2.8-1.6,7.5-2.8,11.4,1.2c4.8,4.8,14.3,20.2,14.7,20.8
			l-3.1,1.9c-0.1-0.2-9.7-15.7-14.2-20.2c-1.4-1.5-3.1-1.9-5-1.5c-1.6,0.4-2.8,1.3-2.8,1.3l-1.2,0.9l-1.1-0.9
			c-4.1-3.4-7-1.7-7.3-1.6l-0.9,0.7l-1-0.7c-2.4-1.5-4.6-2.1-6.5-1.8c-1.3,0.2-2,0.8-2.1,0.9l-0.7,0.8l-1.1-0.3
			c-3.3-1-5.3-0.8-6.3-0.5c-0.3,0.1-0.5,0.4-0.5,0.5c0,0.1-0.1,0.5,0.1,0.8c9.1,11.2,21.9,18.9,30.9,23.3c9.9,4.8,17.7,7,17.8,7
			l-1,3.5c-0.3-0.1-7.5-2.1-17.1-6.6C278.6,204.4,278.2,204.2,277.8,204z M297.1,207.7C297.1,207.7,297.1,207.7,297.1,207.7
			l-0.5,1.8L297.1,207.7z"/>
	</g>
	<g>
		<g>
			<path class="st6" d="M297.7,219.3c0.4-0.3-0.7-2.4-1-5.8c-0.1-0.8-0.1-1.7-0.1-2.7c0-0.9,0.2-1.9,0.4-2.9c0.4-2,1.2-4.1,2.2-6
				c1-1.9,2-3.3,2.7-4.4c0.7-1,1.2-1.7,1.5-2.3c0.6-1,0.3-1.3-0.1-1.7c-0.3-0.3-0.6-0.6-1.7,0c-0.5,0.3-1.2,0.9-2.2,2
				c-0.9,1-2.1,2.5-3.2,4.7c-1.2,2.2-2,4.7-2.3,7.1c-0.1,1.2-0.2,2.4-0.1,3.5c0.1,1.1,0.3,2.1,0.5,3.1c0.2,0.9,0.6,1.8,0.9,2.5
				c0.2,0.3,0.3,0.7,0.5,1c0.2,0.3,0.3,0.5,0.5,0.8c0.2,0.2,0.3,0.4,0.5,0.6c0.1,0.2,0.3,0.3,0.4,0.4
				C297.5,219.3,297.6,219.4,297.7,219.3z"/>
		</g>
	</g>
	<g>
		<g>
			<path class="st6" d="M291.1,202.5c0.1-0.2-0.6-0.9-2.1-1.9c-1.4-1-3.5-2.4-5.9-4c-2.5-1.6-5.3-3.5-8.3-5.5c-3-2-6.1-4.3-9.1-6.6
				c-0.7-0.6-1.4-1.2-2-1.7c-0.6-0.5-1.2-1.1-1.7-1.6c-1-1-1.9-1.9-2.6-2.7c-1.5-1.5-2.4-2.6-3.1-3.3c-0.7-0.7-1.1-1-1.4-1
				c-0.3-0.1-0.5,0-0.7,0.2c-0.2,0.1-0.4,0.3-0.4,0.6c0,0.3,0.1,0.8,0.6,1.7c0.5,0.9,1.3,2.1,2.7,3.9c0.7,0.9,1.6,1.9,2.6,2.9
				c0.5,0.5,1.1,1.1,1.8,1.7c0.6,0.6,1.4,1.2,2.1,1.8c3.1,2.5,6.4,4.7,9.5,6.6c3.2,1.9,6.2,3.6,8.8,5c2.6,1.4,4.9,2.4,6.5,3.1
				C290,202.4,291,202.7,291.1,202.5z"/>
		</g>
	</g>
	<g>
		<g>
			<path class="st6" d="M293.1,198c0.1-0.2-0.5-0.8-1.5-1.6c-0.5-0.4-1.2-0.9-1.9-1.5c-0.7-0.6-1.6-1.2-2.5-1.9
				c-1.8-1.4-3.9-3-6.1-4.9c-2.2-1.8-4.5-3.8-6.7-5.8c-0.3-0.2-0.6-0.5-0.8-0.7c-0.3-0.2-0.5-0.5-0.8-0.7c-0.5-0.4-0.9-0.9-1.4-1.2
				c-0.4-0.4-0.8-0.7-1.2-1.1c-0.4-0.3-0.7-0.7-1-0.9c-0.6-0.6-1.1-1-1.6-1.4c-0.2-0.2-0.4-0.4-0.6-0.5c-0.2-0.2-0.3-0.3-0.5-0.4
				c-1.2-0.9-1.5-0.6-1.9-0.3c-0.4,0.3-0.7,0.6,0.1,1.9c0.1,0.2,0.2,0.4,0.4,0.6c0.1,0.2,0.3,0.4,0.5,0.7c0.4,0.5,0.8,1.1,1.4,1.7
				c0.3,0.3,0.6,0.7,1,1c0.4,0.4,0.7,0.8,1.2,1.2c0.4,0.4,0.9,0.9,1.4,1.3c0.2,0.2,0.5,0.5,0.8,0.7c0.3,0.2,0.5,0.5,0.8,0.7
				c2.3,2.1,4.7,4,7.1,5.7c2.3,1.7,4.6,3.2,6.7,4.4c1,0.6,2,1.1,2.8,1.5c0.9,0.4,1.6,0.8,2.3,1C292.2,198,292.9,198.2,293.1,198z"/>
		</g>
	</g>
	<g>
		<g>
			<path class="st6" d="M293.6,194.3c0.3-0.3-1-2.1-3.1-4.6c-2.1-2.5-5.1-5.6-8.3-8.5c-3.2-2.9-5-4.1-6-4.6c-1-0.4-1.3-0.1-1.6,0.2
				c-0.3,0.4-0.6,0.7,0.1,1.6c0.6,0.9,2.1,2.4,5.2,5.2c3.1,2.8,6.4,5.7,8.9,7.7C291.4,193.4,293.3,194.6,293.6,194.3z"/>
		</g>
	</g>
	<g>
		<path class="st6" d="M355.7,200.2c0.1-1.2,0.5-2.4,1.1-3.5c0.6-1.1,1.4-2,2.4-2.8c1-0.8,2.1-1.3,3.3-1.6c1.2-0.3,2.4-0.4,3.6-0.2
			c1.2,0.2,2.4,0.6,3.4,1.2c1,0.6,1.9,1.4,2.7,2.4c0.7,1,1.2,2.1,1.5,3.2c0.6,2.3,0.2,4.8-1,6.8c-1.2,2-3.1,3.5-5.4,4.1
			c-2.2,0.6-4.7,0.4-6.8-0.6c-1.1-0.5-2-1.3-2.8-2.2c-0.2-0.2-0.4-0.5-0.5-0.7c-0.2-0.3-0.3-0.5-0.5-0.8c-0.1-0.3-0.3-0.5-0.4-0.8
			l-0.3-0.9C355.7,202.7,355.6,201.4,355.7,200.2z M358.9,203.7l0.2,0.6l0.3,0.6c0.1,0.2,0.2,0.4,0.3,0.5c0.5,0.7,1.1,1.3,1.9,1.8
			c0.7,0.5,1.6,0.8,2.5,1c0.9,0.1,1.8,0.1,2.7-0.2c0.9-0.3,1.7-0.7,2.4-1.2c0.7-0.6,1.3-1.3,1.7-2.1c0.4-0.8,0.7-1.7,0.8-2.6
			c0.1-0.9,0-1.8-0.3-2.6c-0.3-0.8-0.7-1.6-1.3-2.3c-0.6-0.7-1.3-1.2-2-1.6c-1.5-0.8-3.3-1-5-0.5c-0.8,0.2-1.6,0.6-2.2,1.2
			c-0.7,0.5-1.2,1.2-1.6,1.9c-0.8,1.5-1.1,3.2-0.7,4.9L358.9,203.7z"/>
	</g>
	<g>
		<ellipse transform="matrix(0.6093 -0.793 0.793 0.6093 -17.4551 368.425)" class="st6" cx="365.1" cy="201.9" rx="4.6" ry="4.5"/>
	</g>
	<g>
		<circle class="st5" cx="367.8" cy="200.2" r="2"/>
	</g>
	<g>
		<g>
			<path class="st6" d="M326.3,195.2c0,0.2,0.4,0.4,1,0.6c0.6,0.2,1.5,0.4,2.5,0.6c1,0.2,2.2,0.5,3.3,1c0.6,0.2,1.1,0.5,1.6,0.8
				c0.5,0.3,1,0.7,1.4,1c0.9,0.8,1.4,1.5,1.7,2c0,0.1,0.1,0.1,0.1,0.2c0,0.1,0.1,0.1,0.1,0.2c0,0.1,0.1,0.1,0.1,0.2
				c0,0.1,0.1,0.1,0.1,0.2c0.1,0.1,0.1,0.2,0.2,0.3c0.1,0.1,0.1,0.2,0.2,0.2c0.1,0.1,0.2,0.2,0.3,0.3c0.1,0.1,0.2,0.1,0.3,0.2
				c0.2,0.1,0.4,0,0.7,0s0.5,0,0.6-0.2c0.1-0.1,0.2-0.1,0.3-0.3c0.1-0.1,0.1-0.3,0.2-0.5c0-0.1,0-0.2,0-0.4c0-0.1,0-0.3,0-0.5
				c0-0.1,0-0.2,0-0.3c0-0.1,0-0.2-0.1-0.3c0-0.1-0.1-0.2-0.1-0.3c0-0.1-0.1-0.2-0.1-0.3c-0.4-0.9-1-2.1-2.3-3.2
				c-0.6-0.6-1.3-1-2.1-1.4c-0.7-0.4-1.5-0.6-2.2-0.8c-1.5-0.4-2.9-0.5-4-0.4c-1.2,0-2.1,0.2-2.8,0.4
				C326.7,194.8,326.3,195,326.3,195.2z"/>
		</g>
	</g>
	<g>
		<g>
			<path class="st6" d="M340.2,212.4c0.1,0.4,2.3,0.3,5.5,0.5c3.3,0.2,7.5,0.8,11.6,1.9c0.5,0.1,1,0.3,1.4,0.4
				c0.2,0.1,0.4,0.1,0.6,0.2c0.2,0.1,0.4,0.1,0.6,0.2c0.8,0.2,1.4,0.5,2,0.7c0.3,0.1,0.5,0.2,0.8,0.3c0.2,0.1,0.5,0.2,0.7,0.2
				c0.4,0.1,0.7,0.2,1,0.3c1.1,0.3,1.2,0,1.4-0.3c0.2-0.3,0.3-0.6-0.6-1.3c-0.2-0.2-0.5-0.4-0.9-0.6c-0.2-0.1-0.4-0.2-0.6-0.4
				c-0.2-0.1-0.5-0.3-0.8-0.4c-0.6-0.3-1.2-0.6-2-0.9c-0.2-0.1-0.4-0.2-0.6-0.2c-0.2-0.1-0.4-0.1-0.7-0.2c-0.5-0.1-1-0.3-1.5-0.5
				c-2.2-0.6-4.4-1-6.5-1.2c-0.5,0-1-0.1-1.6-0.1c-0.5,0-1,0-1.5,0c-0.5,0-1,0-1.4,0c-0.5,0-0.9,0.1-1.3,0.1c-0.2,0-0.4,0-0.6,0
				c-0.2,0-0.4,0-0.6,0.1c-0.4,0-0.7,0.1-1.1,0.1c-0.7,0.1-1.3,0.2-1.8,0.4C340.7,212,340.2,212.2,340.2,212.4z"/>
		</g>
	</g>
	<g>
		<path class="st6" d="M241.6,222.6c3.4,1.6,5.5,2.6,5.6,2.6l0,0c2.7,1.2,5.4,2.3,8.1,3.4c11.5,4.7,23,8.9,34,12.3
			c10,3.1,19.9,5.7,29.4,7.7c8.4,1.8,16.7,3.1,24.5,3.9c6.9,0.8,13.3,1.1,19.4,1.2c7.6,0,16.3,0.1,23.8-2.9
			c3.6-1.4,9.1-5.3,9.5-10.1c0.1-1.7-0.5-3.3-1.8-4.6c-2.6-2.4-7.4-3.5-10.7-3c-1.4,0.2-2.6,0.5-3.6,0.8c-2.2,0.6-3.6,1-5.5,0.2
			c-1.9-0.8-3.3-1.9-5.2-3.3c-2.5-1.9-5.9-4.6-12.5-7.9l-1.8,3.6c6.2,3.1,9.3,5.5,11.9,7.5c2,1.5,3.7,2.8,6.1,3.8
			c3.2,1.3,5.7,0.7,8.1,0c1-0.3,2-0.5,3.1-0.7c2.1-0.3,5.8,0.5,7.3,1.9c0.6,0.6,0.6,1,0.6,1.3c-0.2,2.4-3.8,5.4-6.9,6.7
			c-6.8,2.6-15,2.6-22.3,2.6c-6,0-12.2-0.4-19-1.1c-7.7-0.8-15.8-2.1-24.1-3.9c-9.4-2-19.1-4.5-29-7.6c-11-3.4-22.3-7.5-33.7-12.2
			c-2.6-1.1-5.3-2.2-8-3.4c-0.9-0.4-33.2-15.3-49.9-26.4l-2.2,3.4C209.6,207,231.4,217.7,241.6,222.6z"/>
	</g>
	<g>
		<g>
			<path class="st6" d="M362.2,233.3c0.1-0.5-1.8-1.4-4.5-2.9c-2.7-1.4-6.2-3.5-9.4-5.8c-1.6-1.1-2.8-2.1-3.7-2.7
				c-0.5-0.3-0.8-0.6-1.2-0.8c-0.3-0.2-0.6-0.4-0.8-0.5c-0.9-0.5-1.2-0.2-1.6,0.2c-0.3,0.3-0.6,0.6-0.1,1.6c0.1,0.2,0.3,0.5,0.6,0.8
				c0.3,0.3,0.6,0.7,1,1.1c0.4,0.4,0.9,0.9,1.6,1.4c0.3,0.3,0.6,0.5,1,0.8c0.4,0.3,0.8,0.6,1.2,0.9c3.5,2.5,7.4,4.3,10.5,5.2
				C359.9,233.6,362.1,233.7,362.2,233.3z"/>
		</g>
	</g>
	<g>
		<g>
			<path class="st6" d="M379.9,235.5c-0.1-0.2-0.6-0.2-1.2-0.3c-0.3,0-0.7-0.1-1-0.3c-0.4-0.1-0.8-0.4-1.2-0.6
				c-0.4-0.3-0.8-0.7-1.2-1.1c-0.4-0.5-0.8-1-1.2-1.6c-0.9-1.2-1.9-2.5-2.9-3.7c-4-5-4.6-4.5-5.3-3.9c-0.7,0.6-1.3,1.1,2.7,6
				c1,1.2,2.1,2.4,3.1,3.6c0.5,0.6,1.1,1.1,1.7,1.6c0.6,0.5,1.3,0.9,2,1.2c0.7,0.3,1.4,0.4,2,0.4c0.6,0,1.1-0.1,1.5-0.3
				c0.4-0.2,0.7-0.4,0.8-0.6C379.9,235.7,379.9,235.6,379.9,235.5z"/>
		</g>
	</g>
	<g>
		<g>
			<path class="st6" d="M314.3,218.3c0.1-0.1,0-0.4-0.2-0.9c-0.1-0.2-0.2-0.5-0.4-0.9c-0.2-0.3-0.3-0.7-0.5-1.2
				c-0.1-0.2-0.2-0.5-0.3-0.7c-0.1-0.2-0.2-0.5-0.3-0.8c-0.1-0.3-0.2-0.5-0.3-0.8c-0.1-0.3-0.2-0.6-0.3-0.9c-0.1-0.3-0.2-0.6-0.3-1
				c-0.1-0.2-0.1-0.3-0.2-0.5c-0.1-0.2-0.1-0.4-0.1-0.5c-0.1-0.4-0.2-0.7-0.3-1.1c-0.1-0.4-0.2-0.8-0.2-1.2
				c-0.3-1.6-0.5-3.3-0.5-5.1c0-1.8,0.1-3.7,0.5-5.7c0.4-1.9,1-3.9,1.8-5.7c0.8-1.9,1.9-3.7,3.1-5.3c1.2-1.7,2.5-3,3.7-4.1
				c0.3-0.3,0.6-0.5,0.9-0.8c0.1-0.1,0.3-0.2,0.4-0.4c0.1-0.1,0.3-0.2,0.4-0.3c0.3-0.2,0.5-0.4,0.8-0.6c0.3-0.2,0.5-0.4,0.7-0.5
				c0.2-0.2,0.5-0.3,0.7-0.5c0.2-0.1,0.4-0.3,0.7-0.4c0.2-0.1,0.4-0.3,0.6-0.4c0.2-0.1,0.4-0.2,0.6-0.3c0.4-0.2,0.7-0.4,1-0.6
				c0.3-0.2,0.5-0.3,0.8-0.4c0.5-0.3,0.8-0.5,1.1-0.7c0.3-0.2,0.4-0.3,0.5-0.5c0.2-0.3,0.1-0.5,0.1-0.7c-0.1-0.2-0.1-0.4-0.5-0.5
				c-0.2,0-0.4-0.1-0.7-0.1c-0.3,0-0.8,0.1-1.3,0.2c-0.3,0.1-0.6,0.2-0.9,0.3c-0.4,0.1-0.7,0.3-1.1,0.4c-0.2,0.1-0.4,0.2-0.7,0.3
				c-0.2,0.1-0.5,0.2-0.7,0.4c-0.2,0.1-0.5,0.3-0.8,0.4c-0.3,0.1-0.5,0.3-0.8,0.5c-0.3,0.2-0.6,0.3-0.9,0.5
				c-0.3,0.2-0.6,0.4-0.9,0.6c-0.2,0.1-0.3,0.2-0.5,0.3c-0.2,0.1-0.3,0.3-0.5,0.4c-0.3,0.3-0.7,0.5-1,0.8c-1.3,1.2-2.8,2.6-4.2,4.5
				c-1.4,1.9-2.6,3.9-3.5,6c-0.9,2.1-1.5,4.4-1.8,6.5c-0.3,2.2-0.4,4.3-0.2,6.3c0.2,2,0.5,3.9,1,5.6c0.1,0.4,0.3,0.8,0.4,1.2
				c0.1,0.4,0.3,0.8,0.4,1.1c0.1,0.2,0.1,0.4,0.2,0.5c0.1,0.2,0.2,0.4,0.2,0.5c0.2,0.3,0.3,0.7,0.5,1c0.2,0.3,0.3,0.6,0.5,0.9
				c0.2,0.3,0.3,0.6,0.5,0.8c0.2,0.3,0.3,0.5,0.5,0.7c0.2,0.2,0.3,0.5,0.4,0.7c0.3,0.4,0.6,0.8,0.8,1.1c0.3,0.3,0.5,0.5,0.7,0.7
				C313.9,218.2,314.2,218.4,314.3,218.3z"/>
		</g>
	</g>
	<g>
		<g>
			<path class="st6" d="M325.5,190.4c0.1,0.1,0.3,0,0.5-0.2c0.1-0.1,0.2-0.2,0.3-0.3c0.1-0.1,0.3-0.3,0.4-0.4
				c0.2-0.2,0.3-0.3,0.5-0.5c0.2-0.2,0.4-0.4,0.6-0.6c0.4-0.4,0.9-0.9,1.5-1.3c0.6-0.4,1.2-0.9,1.8-1.3c0.7-0.4,1.4-0.8,2.2-1.1
				c1.6-0.7,3.3-1.1,5.1-1.2c1.8-0.1,3.1,0.1,4.1,0.2c0.3,0,0.5,0.1,0.7,0.1c0.1,0,0.2,0,0.3,0c0.1,0,0.2,0,0.3,0
				c0.4,0,0.6,0.1,0.9,0.1c1,0.1,1.2-0.3,1.4-0.7c0.1-0.2,0.2-0.4,0.2-0.6c0-0.1-0.1-0.2-0.2-0.4c-0.1-0.1-0.2-0.3-0.5-0.5
				c-0.2-0.2-0.5-0.4-0.9-0.5c-0.1,0-0.2-0.1-0.3-0.1c-0.1,0-0.2-0.1-0.3-0.1c-0.2-0.1-0.5-0.2-0.8-0.3c-1.2-0.4-2.8-0.7-5-0.5
				c-2.2,0.1-4.4,0.8-6.2,1.8c-0.9,0.5-1.7,1.1-2.5,1.7c-0.7,0.6-1.4,1.2-1.9,1.9c-0.5,0.6-0.9,1.3-1.3,1.8
				c-0.2,0.3-0.3,0.6-0.4,0.8c-0.1,0.3-0.2,0.5-0.3,0.7c-0.1,0.2-0.1,0.4-0.2,0.6c0,0.2-0.1,0.3-0.1,0.5
				C325.4,190.2,325.4,190.3,325.5,190.4z"/>
		</g>
	</g>
	<g>
		<g>
			<path class="st6" d="M330.8,228.5c0.1-0.2-0.5-0.6-1.5-1.3c-1-0.7-2.5-1.7-4.2-2.9c-0.9-0.6-1.8-1.3-2.7-2
				c-0.9-0.7-1.9-1.5-2.8-2.4c-1.9-1.7-3.8-3.7-5.3-5.9c-0.8-1.1-1.4-2.1-1.8-3c-0.2-0.5-0.5-0.9-0.6-1.3c-0.1-0.2-0.2-0.4-0.3-0.6
				c-0.1-0.2-0.2-0.4-0.2-0.5c-0.2-0.3-0.3-0.7-0.4-0.9c-0.1-0.3-0.2-0.6-0.3-0.8c-0.2-0.5-0.3-0.9-0.5-1.2
				c-0.1-0.3-0.2-0.5-0.3-0.7c-0.1-0.2-0.2-0.3-0.3-0.4c-0.2-0.1-0.4-0.1-0.5-0.1c-0.2,0-0.3,0.1-0.5,0.3c-0.1,0.1-0.1,0.2-0.1,0.5
				c0,0.2,0,0.5,0,0.9c0,0.4,0.1,0.8,0.2,1.4c0.1,0.3,0.1,0.6,0.2,0.9c0.1,0.3,0.2,0.7,0.3,1.1c0.1,0.2,0.1,0.4,0.2,0.6
				c0.1,0.2,0.2,0.4,0.3,0.6c0.2,0.5,0.4,0.9,0.6,1.4c0.5,1,1.1,2.1,2,3.3c1.7,2.4,3.7,4.5,5.8,6.2c1.1,0.9,2.1,1.6,3.1,2.3
				c1,0.7,2,1.3,3,1.8c1.9,1,3.5,1.8,4.7,2.2C330,228.5,330.7,228.6,330.8,228.5z"/>
		</g>
	</g>
	<g>
		<g>
			<path class="st6" d="M334.9,235.1c0-0.1-0.1-0.2-0.4-0.3c-0.1-0.1-0.3-0.1-0.5-0.2c-0.2-0.1-0.5-0.2-0.7-0.3
				c-0.3-0.1-0.6-0.2-0.9-0.3c-0.3-0.1-0.7-0.3-1-0.4c-0.7-0.3-1.5-0.6-2.4-1c-0.9-0.4-1.8-0.9-2.7-1.5c-0.9-0.6-1.9-1.2-2.8-1.9
				c-1.8-1.4-3.6-3.2-5-5.2c-1.4-2-2.3-3.7-2.9-4.9c-0.2-0.3-0.3-0.6-0.4-0.9c-0.1-0.1-0.1-0.3-0.2-0.4c-0.1-0.1-0.1-0.2-0.2-0.4
				c-0.2-0.4-0.4-0.8-0.5-1.1c-0.6-1.1-0.9-1.1-1.2-1c-0.2,0-0.3,0.1-0.4,0.3c-0.1,0.2-0.2,0.6-0.1,1.2c0,0.3,0.1,0.8,0.2,1.3
				c0,0.1,0.1,0.3,0.1,0.4c0,0.1,0.1,0.3,0.1,0.4c0.1,0.3,0.2,0.6,0.3,1c0.5,1.4,1.4,3.3,3,5.5c1.6,2.2,3.6,4.1,5.7,5.6
				c1,0.7,2.1,1.4,3.2,1.9c1.1,0.5,2.1,0.9,3.1,1.3c1,0.3,1.9,0.6,2.7,0.7c0.4,0.1,0.8,0.1,1.1,0.2c0.4,0,0.7,0.1,1,0.1
				c0.3,0,0.6,0,0.8,0c0.2,0,0.4,0,0.6,0C334.7,235.2,334.9,235.2,334.9,235.1z"/>
		</g>
	</g>
	<g>
		<g>
			<path class="st6" d="M342.4,242.2c0-0.2-0.6-0.5-1.8-0.8c-1.2-0.4-2.8-0.8-4.8-1.4c-1.9-0.6-4.2-1.3-6.4-2.4
				c-1.1-0.5-2.2-1.1-3.2-1.9c-0.3-0.2-0.5-0.4-0.8-0.6c-0.1-0.1-0.3-0.2-0.4-0.3l-0.4-0.3c-0.5-0.4-0.9-0.8-1.4-1.3
				c-0.9-0.9-1.5-1.8-2.1-2.6c-0.5-0.8-0.9-1.5-1.3-2.2c-0.7-1.3-1-2.2-1.4-2.8c-0.3-0.6-0.5-0.9-0.7-1c-0.2-0.1-0.4-0.1-0.5,0
				c-0.2,0-0.3,0.1-0.4,0.3c-0.1,0.2-0.2,0.6-0.1,1.3c0.1,0.7,0.3,1.8,0.9,3.2c0.3,0.7,0.7,1.6,1.3,2.5c0.6,0.9,1.3,2,2.3,3
				c0.5,0.5,1,1,1.6,1.5l0.4,0.3c0.1,0.1,0.3,0.2,0.4,0.3c0.3,0.2,0.6,0.4,0.9,0.6c1.2,0.8,2.4,1.4,3.7,1.9c2.5,1,4.9,1.6,6.9,2
				c2.1,0.4,3.8,0.5,5,0.6C341.7,242.4,342.4,242.4,342.4,242.2z"/>
		</g>
	</g>
	<g>
		<path class="st6" d="M178,181.7c-1.8-1.3-3.7-2.7-5.5-4c-1.8-1.4-3.6-2.7-5.5-4.1c-3.6-2.8-7.2-5.5-10.8-8.4
			c-3.6-2.8-7.1-5.7-10.5-8.7c-1.7-1.5-3.4-3-5-4.5c-1.6-1.5-3.2-3.1-4.6-4.7l-0.8-0.9l-1.2,0.1c-0.4,0-0.9,0.1-1.3,0.1l-1.3,0.1
			c-0.9,0.1-1.8,0.1-2.6,0.1c-1.8,0.1-3.5,0.1-5.3,0.1c-3.5,0-7-0.1-10.5-0.5c-1.7-0.2-3.4-0.5-5.1-0.8c-0.4-0.1-0.8-0.2-1.2-0.3
			c-0.4-0.1-0.8-0.2-1.2-0.3c-0.4-0.1-0.8-0.2-1.2-0.4l-0.6-0.2c-0.1,0-0.1,0-0.2-0.1c0,0-0.1,0-0.1-0.1c-0.1,0-0.1-0.1-0.2-0.1
			c-0.1-0.1-0.1-0.1-0.2-0.2c-0.2-0.2-0.4-0.5-0.5-0.7c-0.3-0.5-0.5-1.2-0.6-1.9c-0.3-1.4-0.1-2.9,0.2-4.5l0.2-0.7l-0.3-0.7
			c-0.1-0.1-0.1-0.3-0.2-0.4l-0.2-0.5c-0.1-0.3-0.3-0.6-0.4-1c-0.2-0.6-0.5-1.3-0.7-2c-0.4-1.3-0.8-2.7-1-4c-0.1-0.7-0.2-1.3-0.3-2
			l0-0.5c0-0.1,0,0,0-0.1c0,0,0,0,0-0.1c0,0,0-0.1,0-0.1c0-0.1,0-0.3,0.1-0.4c0.1-0.3,0.3-0.5,0.6-0.6c0.1-0.1,0.2-0.1,0.4-0.1
			c0,0,0.1,0,0.1,0l0,0c0,0,0,0,0,0l0.1,0c0.1,0,0.3,0,0.4,0c1.2,0,2.5,0.3,3.8,0.7c1.3,0.4,2.6,0.9,3.9,1.4
			c1.3,0.6,2.6,1.2,3.8,1.8c0.6,0.3,1.3,0.7,1.9,1c0.3,0.2,0.6,0.3,1,0.5c0.3,0.2,0.6,0.3,1,0.5l1-1.3c-1.1-1.1-2.2-2.1-3.4-3
			c-1.2-0.9-2.4-1.8-3.7-2.6c-1.3-0.8-2.7-1.5-4.2-2c-0.4-0.1-0.7-0.3-1.1-0.4l-0.6-0.2l-0.6-0.1c-0.8-0.2-1.6-0.3-2.5-0.4
			c-0.2,0-0.4,0-0.7,0l-0.2,0c0,0,0,0-0.1,0l-0.1,0c-0.1,0-0.3,0-0.4,0c-0.6,0.1-1.2,0.2-1.7,0.5c-1.1,0.5-1.9,1.4-2.4,2.5
			c-0.3,0.5-0.4,1.1-0.5,1.7c0,0.1,0,0.3,0,0.4c0,0.1,0,0.1,0,0.2c0,0.1,0,0.2,0,0.2c0,0.2,0,0.4,0,0.6c0.1,0.8,0.2,1.6,0.3,2.4
			c0.3,1.6,0.6,3.1,1.1,4.5c0.2,0.7,0.5,1.5,0.7,2.2c0.1,0.4,0.3,0.7,0.4,1.1l0.2,0.5c0.1,0.2,0.1,0.4,0.2,0.6l-0.1-1.4
			c-0.4,1.9-0.7,4-0.3,6.2c0.2,1.1,0.5,2.2,1.1,3.2c0.3,0.5,0.6,1,1,1.5c0.1,0.1,0.2,0.2,0.3,0.4c0.1,0.1,0.3,0.3,0.4,0.4
			c0.3,0.2,0.6,0.4,0.9,0.6c0.2,0.1,0.3,0.2,0.5,0.2c0.2,0.1,0.4,0.1,0.4,0.2l0.7,0.2c0.5,0.2,0.9,0.3,1.4,0.4
			c0.5,0.1,0.9,0.3,1.4,0.4c0.5,0.1,0.9,0.2,1.4,0.3c1.8,0.4,3.7,0.7,5.5,0.9c3.7,0.5,7.3,0.6,11,0.7c1.8,0,3.7,0,5.5-0.1
			c0.9,0,1.8-0.1,2.7-0.1l1.4-0.1c0.5,0,0.9-0.1,1.4-0.1l-2-0.8c1.6,1.8,3.2,3.5,4.9,5.1c1.7,1.6,3.4,3.1,5.2,4.6
			c1.7,1.5,3.5,3,5.3,4.4c1.8,1.5,3.6,2.9,5.4,4.3c1.8,1.4,3.6,2.8,5.5,4.2c1.8,1.4,3.7,2.8,5.5,4.1c1.9,1.4,3.7,2.7,5.6,4
			c1.9,1.3,3.7,2.6,5.6,3.9L178,181.7z"/>
	</g>
	<g>
		<path class="st6" d="M122.1,133.8c0-0.8-0.2-1.5-0.4-2.1c-0.2-0.6-0.5-1.2-0.9-1.7c-0.2-0.2-0.4-0.5-0.6-0.7
			c-0.2-0.2-0.4-0.4-0.6-0.6c-0.4-0.4-0.9-0.8-1.3-1.3c-0.9-0.8-1.8-1.7-2.7-2.4c-0.9-0.8-1.8-1.6-2.8-2.3c-3.8-3-7.8-5.7-12.1-8
			c-4.2-2.3-8.7-4.2-13.2-5.8c-2.3-0.8-4.6-1.5-6.9-2.1c-1.2-0.3-2.3-0.6-3.5-0.9c-0.6-0.1-1.2-0.3-1.8-0.4l-0.9-0.2l-0.4-0.1
			l-0.2,0c0,0-0.1,0,0,0c0,0,0,0,0,0c0.1,0,0.2,0.1,0.2,0.1l-1.8,0c-0.4,0.2-0.8,0.4-1.2,0.6l-1.2,0.6c-0.8,0.4-1.6,0.7-2.4,1.1
			c-1.6,0.7-3.3,1.4-5,2.1c-3.3,1.3-6.7,2.5-10.1,3.6c-6.8,2.2-13.8,4-20.8,5.1c-3.5,0.5-7,0.9-10.6,1.1c-3.5,0.1-7.1,0-10.5-0.4
			c-1.7-0.2-3.5-0.5-5.2-0.9l-0.6-0.1l-0.2,0l-0.1,0l0,0c0,0,0,0,0,0c0,0,0,0,0.1,0c0.2,0.1,0.4,0.2,0.5,0.3
			c0.3,0.3,0.5,0.7,0.4,1.1c0,0.1,0,0.2-0.1,0.3c0,0,0,0,0,0.1c0,0,0,0,0,0l0,0l0-0.1l0.1-0.3c0.4-0.8,0.8-1.5,1.2-2.3
			c0.8-1.5,1.8-2.9,2.8-4.3c1-1.3,2.2-2.6,3.4-3.7l0.7-1.7c0,0,0,0,0,0l0,0l0-0.1l0-0.2c0-0.1,0-0.2,0-0.3c0-0.2,0-0.5,0.1-0.7
			c0.1-0.5,0.1-1,0.3-1.5c0.2-1,0.6-1.9,1.1-2.7c0.5-0.9,1.1-1.6,1.7-2.3c0.7-0.7,1.5-1.3,2.3-1.8l0.7-0.4l0.2-0.8l0-0.2l0.1-0.2
			l0.1-0.4c0.1-0.3,0.2-0.5,0.3-0.8c0.2-0.5,0.4-1.1,0.7-1.6c0.5-1.1,1.1-2.1,1.7-3c0.7-0.9,1.4-1.7,2.2-2.4
			c0.8-0.7,1.7-1.1,2.7-1.4l0.8-0.2l0.4-0.8l0.1-0.2l0.1-0.2l0.2-0.4c0.2-0.3,0.3-0.5,0.5-0.8c0.3-0.5,0.7-1,1-1.6
			c0.7-1,1.5-2,2.3-2.9c0.8-0.9,1.7-1.7,2.7-2.5c0.5-0.4,1-0.7,1.5-1c0.5-0.3,1-0.6,1.5-0.8l1.4-0.7l-0.2-1.6l0-0.1l0-0.2
			c0-0.1,0-0.3,0-0.4c0-0.3,0-0.6,0-0.8c0-0.6,0.2-1.1,0.3-1.5c0.2-0.5,0.4-0.9,0.7-1.2c0.3-0.3,0.6-0.5,1-0.7l1.7-0.8L43.4,65
			l0-0.1l0-0.1l-0.1-0.3c-0.1-0.2-0.1-0.4-0.2-0.6c-0.1-0.4-0.2-0.8-0.2-1.3c-0.1-0.8-0.2-1.7-0.1-2.5c0-0.8,0.1-1.7,0.3-2.5
			c0.2-0.8,0.5-1.5,0.9-2.3l0.4-0.7L44,53.8l0-0.1l0-0.2l-0.1-0.4c-0.1-0.3-0.1-0.5-0.2-0.8c-0.1-0.5-0.2-1-0.2-1.6
			c-0.1-1.1-0.1-2.1-0.1-3.2c0.1-1,0.2-2.1,0.5-3.1c0.3-1,0.6-1.9,1.1-2.8l0.4-0.7l-0.3-0.9l0-0.1l0-0.1c0-0.1-0.1-0.2-0.1-0.3
			c0-0.2-0.1-0.4-0.1-0.7c-0.1-0.4-0.1-0.9-0.2-1.3c-0.1-0.9,0-1.8,0.1-2.7c0.1-0.9,0.3-1.8,0.6-2.6c0.3-0.8,0.6-1.7,1.1-2.4
			l0.4-0.6l-0.1-0.8l0-0.1l0-0.1l0-0.3c0-0.2,0-0.4-0.1-0.7c0-0.4,0-0.9,0-1.3c0-0.9,0.1-1.8,0.3-2.7c0.2-0.9,0.5-1.7,0.9-2.5
			c0.4-0.8,0.8-1.5,1.4-2.2l0,0l0.6-0.7l-0.1-0.9l0-0.4l0-0.5c0-0.3,0-0.6-0.1-0.9c0-0.6,0-1.2,0-1.9c0-1.2,0.1-2.5,0.3-3.6
			c0.2-1.2,0.5-2.3,0.9-3.4c0.2-0.5,0.5-1,0.7-1.4l0.2-0.3l0.1-0.1c0,0-0.1,0.1-0.1,0.1c0,0-0.1,0.1-0.1,0.1
			c-0.1,0.1-0.2,0.2-0.3,0.2c-0.4,0.3-1,0.4-1.5,0.3C49.2,5.1,49,5,48.8,4.8c-0.1-0.1-0.2-0.2-0.3-0.3c0,0-0.1-0.1-0.1-0.1l0,0
			l0.1,0.2L48.8,5c3.1,4.3,6.1,8.6,9,13c5.9,8.8,11.5,17.7,16.5,26.9c1.3,2.3,2.5,4.6,3.7,6.9l0.9,1.8l0.9,1.8l0.9,1.8
			c0.3,0.6,0.6,1.2,1,1.8c2.7,4.9,6.2,9.3,10.3,13.1c4.2,3.8,8.9,6.8,14.1,9c2.6,1.1,5.2,2,7.9,2.7c1.4,0.3,2.7,0.6,4.1,0.8
			c0.4,0.1,0.7,0.1,1.1,0.1l1,0.1c0.7,0.1,1.4,0.1,2.1,0.2l5.2,0.3l-2.9-4.3c-0.8-1.2-1.2-2.5-1.1-3.7c0-0.6,0.2-1.1,0.4-1.7
			c0.1-0.3,0.3-0.5,0.5-0.8c0.1-0.1,0.2-0.2,0.3-0.3c0.1-0.1,0.2-0.2,0.3-0.3c0.4-0.4,1-0.7,1.5-0.9c0.6-0.2,1.2-0.3,1.9-0.3
			c1.3,0,2.8,0.4,4.1,1.1c0.7,0.4,1.4,0.8,2.1,1.3c0.7,0.5,1.3,1,2,1.6c1.4,1.2,2.8,2.5,4.3,3.7c0.8,0.6,1.5,1.2,2.4,1.8
			c0.8,0.6,1.8,1.2,2.9,1.6c0.5,0.2,1,0.4,1.6,0.6c0.5,0.2,1,0.3,1.5,0.4c1,0.2,1.9,0.4,2.8,0.6l0.1,0l0.1,0
			c6.2,0.7,12.5,1.6,18.7,2.5c6.2,0.9,12.5,1.9,18.7,2.9c6.2,1.1,12.4,2.2,18.5,3.5c3.1,0.7,6.1,1.4,9.1,2.2l2.3,0.6l1.1,0.3
			c0.4,0.1,0.7,0.2,1.1,0.3c0.8,0.2,1.5,0.2,2.4,0.2c0.8,0,1.7-0.2,2.7-0.6c-0.5-0.9-1.1-1.6-1.8-2.2c-0.7-0.5-1.4-1-2.1-1.3
			c-1.5-0.6-3.1-1-4.6-1.4c-3.1-0.9-6.2-1.6-9.3-2.4c-6.2-1.4-12.4-2.7-18.7-3.8c-6.2-1.1-12.5-2.2-18.8-3.2c-3.1-0.5-6.3-1-9.4-1.4
			c-3.1-0.4-6.3-0.9-9.4-1.3l0.3,0c-0.9-0.2-1.8-0.4-2.7-0.6c-0.9-0.2-1.6-0.4-2.3-0.7c-0.7-0.3-1.3-0.7-2-1.2
			c-0.7-0.5-1.4-1-2.1-1.6c-1.4-1.1-2.8-2.4-4.2-3.6c-0.8-0.6-1.5-1.3-2.4-1.9c-0.8-0.6-1.7-1.2-2.7-1.7c-1-0.5-2-0.9-3.1-1.2
			c-1.1-0.3-2.3-0.5-3.5-0.5c-1.2,0-2.4,0.2-3.6,0.6c-1.2,0.4-2.3,1.1-3.2,1.9c-0.2,0.2-0.5,0.4-0.7,0.7c-0.2,0.2-0.4,0.5-0.6,0.7
			c-0.4,0.5-0.7,1-1,1.6c-0.6,1.1-0.9,2.4-1,3.7c-0.1,1.3,0.1,2.5,0.5,3.7c0.4,1.1,0.9,2.2,1.5,3.2l2.3-4.1c-0.6,0-1.2-0.1-1.8-0.2
			l-1-0.1c-0.3,0-0.6-0.1-0.9-0.1c-1.2-0.2-2.4-0.4-3.7-0.7c-2.4-0.6-4.8-1.4-7.1-2.4c-4.6-2-8.9-4.7-12.6-8.1
			c-3.7-3.3-6.9-7.3-9.3-11.7c-0.3-0.5-0.6-1.1-0.9-1.7l-0.9-1.7c-0.3-0.6-0.6-1.2-0.9-1.8l-0.9-1.8c-1.2-2.4-2.5-4.7-3.8-7.1
			c-2.6-4.7-5.4-9.2-8.2-13.8c-2.9-4.5-5.8-9-8.8-13.4c-3-4.4-6.1-8.7-9.3-13L52.1,2L52,1.7l0,0c0-0.1-0.1-0.1-0.2-0.2
			c-0.1-0.1-0.2-0.2-0.4-0.3c-0.3-0.2-0.6-0.4-0.9-0.4c-0.7-0.1-1.4,0-2,0.4c-0.1,0.1-0.3,0.2-0.4,0.3C48.1,1.5,48,1.6,48,1.6
			c0,0.1-0.1,0.2-0.1,0.2l-0.1,0.1c-0.1,0.2-0.2,0.3-0.3,0.5c-0.4,0.7-0.7,1.4-1,2.1c-0.3,0.7-0.5,1.4-0.7,2.2
			c-0.2,0.7-0.3,1.4-0.4,2.2c-0.2,1.4-0.3,2.9-0.2,4.3c0,0.7,0,1.4,0.1,2.1c0,0.4,0.1,0.7,0.1,1.1l0.1,0.5l0,0.3l0,0.3l0.4-1.6l0,0
			c-0.8,0.9-1.4,1.9-1.9,3c-0.5,1.1-0.9,2.2-1.2,3.3c-0.3,1.1-0.4,2.3-0.4,3.4c0,0.6,0,1.1,0,1.7c0,0.3,0,0.6,0.1,0.9
			c0,0.1,0,0.3,0.1,0.4l0,0.2c0,0.1,0,0.1,0,0.3l0.2-1.4c-0.6,1-1.1,2.1-1.4,3.2c-0.4,1.1-0.6,2.3-0.7,3.4c-0.1,1.2-0.2,2.3-0.1,3.5
			c0,0.6,0.1,1.2,0.2,1.7c0,0.3,0.1,0.6,0.2,0.9c0,0.1,0.1,0.3,0.1,0.4l0.1,0.2l0,0.1l0,0.2l0.1-1.6c-0.6,1.2-1.1,2.4-1.4,3.7
			c-0.3,1.3-0.5,2.6-0.6,3.8c-0.1,1.3-0.1,2.6,0.1,3.8c0.1,0.6,0.1,1.3,0.3,1.9c0.1,0.3,0.1,0.6,0.2,0.9c0,0.2,0.1,0.3,0.1,0.5
			l0.1,0.2L40,55l0.2-1.6c-0.5,1-0.9,2.1-1.2,3.2c-0.3,1.1-0.4,2.2-0.5,3.3c0,1.1,0,2.2,0.2,3.3c0.1,0.5,0.2,1.1,0.3,1.6
			c0.1,0.3,0.1,0.5,0.2,0.8c0,0.1,0.1,0.3,0.1,0.4l0.1,0.2l0.1,0.2l1.1-2.6c-0.9,0.4-1.7,1-2.4,1.8c-0.7,0.8-1.2,1.6-1.5,2.5
			c-0.3,0.9-0.5,1.8-0.6,2.6c0,0.4,0,0.9,0,1.3c0,0.2,0,0.4,0,0.6l0,0.3l0,0.2l0,0.2l1.2-2.3c-0.7,0.3-1.4,0.7-2,1.1
			c-0.6,0.4-1.2,0.8-1.8,1.3c-1.2,0.9-2.2,1.9-3.2,2.9c-1,1.1-1.9,2.2-2.7,3.3c-0.4,0.6-0.8,1.2-1.2,1.8c-0.2,0.3-0.4,0.6-0.6,0.9
			l-0.3,0.5l-0.1,0.2l-0.1,0.3l1.3-1.1c-1.5,0.4-2.9,1.2-4.1,2.2c-1.2,0.9-2.2,2-3,3.2c-0.8,1.2-1.5,2.4-2.1,3.6
			c-0.3,0.6-0.6,1.3-0.8,1.9c-0.1,0.3-0.2,0.7-0.4,1l-0.2,0.5L16.1,95L16,95.3l0.9-1.3c-1.1,0.7-2.2,1.5-3.1,2.5
			c-0.9,1-1.8,2.1-2.4,3.3c-0.7,1.2-1.1,2.5-1.5,3.8c-0.2,0.7-0.3,1.3-0.3,2c0,0.3-0.1,0.7-0.1,1c0,0.2,0,0.3,0,0.5
			c0,0.1,0,0.2,0,0.3l0,0.1l0,0.2l0.7-1.7c-1.4,1.3-2.7,2.8-3.9,4.3c-1.2,1.5-2.2,3.1-3.1,4.8c-0.5,0.8-0.9,1.7-1.3,2.5l-0.2,0.3
			l0,0.1l0,0.1l-0.1,0.1c-0.1,0.2-0.1,0.4-0.1,0.6c-0.1,0.9,0.2,1.8,0.9,2.4c0.3,0.3,0.7,0.5,1.1,0.6l0.2,0l0.1,0l0.1,0l0.2,0
			l0.7,0.2c1.8,0.4,3.7,0.7,5.6,0.9c3.7,0.4,7.5,0.5,11.2,0.4c3.7-0.2,7.4-0.5,11-1.1c7.3-1.1,14.4-3,21.4-5.2
			c3.5-1.1,6.9-2.4,10.3-3.7c1.7-0.7,3.4-1.4,5.1-2.1c0.8-0.4,1.7-0.7,2.5-1.1l1.3-0.6c0.4-0.2,0.8-0.4,1.3-0.6l-1.8,0
			c0.1,0.1,0.2,0.1,0.3,0.1l0.1,0l0.2,0l0.3,0.1l0.4,0.1l0.9,0.2c0.6,0.1,1.1,0.2,1.7,0.4c1.1,0.3,2.2,0.6,3.3,0.9
			c2.2,0.6,4.4,1.3,6.6,2.1c4.3,1.6,8.5,3.5,12.5,5.7c4,2.2,7.9,4.7,11.6,7.4c1.9,1.4,3.7,2.8,5.4,4.3c0.4,0.4,0.9,0.7,1.3,1.1
			c0.4,0.4,0.9,0.8,1.3,1.1c0.5,0.3,1,0.6,1.6,0.8C120.7,133.5,121.3,133.7,122.1,133.8z"/>
	</g>
	<g>
		<path class="st6" d="M205.6,193.6c-1.9,0.3-3.8,0.8-5.6,1.2c-1.8,0.5-3.7,1-5.5,1.6c-3.6,1.2-7.2,2.5-10.7,3.9
			c-3.5,1.4-6.9,3-10.4,4.6c-1.7,0.8-3.4,1.6-5.2,2.3l-1.3,0.6l0,0l0,0l0,0c0,0,0,0,0,0c0,0-0.1,0-0.1,0c-0.1,0-0.1,0-0.2,0
			c-0.2,0-0.5-0.2-0.6-0.4l0,0c0,0,0,0,0,0l0-0.1c0-0.1-0.1-0.2-0.1-0.3c0-0.2-0.1-0.3-0.1-0.5l-0.1-0.3l0-0.3c0-0.2,0-0.4-0.1-0.5
			c-0.1-0.7,0-1.5,0.2-2.2c0.2-0.7,0.4-1.5,0.8-2.2c0.4-0.7,0.8-1.4,1.3-2.1c0.1-0.2,0.2-0.3,0.4-0.5l0.4-0.5l0.2-0.2l0.3-0.3
			c0.2-0.2,0.3-0.4,0.5-0.7c0.7-0.9,1.2-1.9,1.6-2.9c0.1-0.1,0.1-0.3,0.2-0.4l0.1-0.4c0.1-0.2,0.2-0.4,0.2-0.5
			c0.2-0.4,0.4-0.7,0.6-1c0.4-0.7,0.9-1.3,1.5-1.9c0.1-0.1,0.3-0.3,0.4-0.4l0.4-0.4l0.5-0.4l0.5-0.4c0.6-0.5,1.3-0.9,2-1.3
			c0.7-0.4,1.5-0.7,2.3-1c0.2-0.1,0.4-0.1,0.6-0.2c0.2-0.1,0.4-0.1,0.6-0.2l0.6-0.2c0.2-0.1,0.4-0.1,0.6-0.2c1.7-0.5,3.5-0.8,5.3-1
			c1.8-0.2,3.7-0.4,5.7-0.6c-1.8-0.8-3.7-1.3-5.6-1.7c-1.9-0.4-3.9-0.5-6-0.4c-2,0.1-4.1,0.6-6.1,1.4c-1,0.4-1.9,1-2.8,1.6l-0.6,0.5
			l-0.6,0.6c-0.2,0.2-0.4,0.4-0.6,0.6c-0.2,0.2-0.4,0.4-0.5,0.6c-0.7,0.8-1.3,1.8-1.8,2.7c-0.3,0.5-0.5,1-0.7,1.5
			c-0.1,0.3-0.2,0.5-0.3,0.8l-0.1,0.3c0,0.1-0.1,0.2-0.1,0.3c-0.3,0.7-0.7,1.4-1.1,2.1c-0.1,0.2-0.2,0.3-0.4,0.5l-0.4,0.5l-0.5,0.6
			c-0.2,0.2-0.3,0.4-0.5,0.6c-0.6,0.8-1.2,1.7-1.6,2.7c-0.5,1-0.9,2-1.1,3.1c-0.3,1.1-0.4,2.2-0.3,3.4c0,0.3,0,0.6,0.1,0.9l0.1,0.4
			l0.1,0.4c0.1,0.3,0.2,0.6,0.2,0.8c0,0.1,0.1,0.3,0.1,0.4l0.1,0.2c0,0,0,0.1,0.1,0.1l0.1,0.1c0.2,0.4,0.4,0.7,0.7,1
			c0.3,0.3,0.6,0.6,0.9,0.8c0.7,0.5,1.5,0.8,2.3,0.9c0.4,0,0.8,0,1.2,0c0.2,0,0.4-0.1,0.6-0.1c0.1,0,0.2-0.1,0.3-0.1l0.1-0.1l0.1,0
			l1.3-0.5c1.8-0.7,3.5-1.4,5.3-2.1c3.5-1.4,7.1-2.7,10.5-4.2c3.5-1.5,6.9-3.2,10.2-4.9c1.7-0.9,3.3-1.8,5-2.8c1.6-1,3.2-2,4.8-3.2
			L205.6,193.6z"/>
	</g>
	<g>
		<g>
			<path class="st6" d="M198,191.3c0-0.2-0.7-0.3-1.9-0.3c-1.2,0-2.8,0.2-4.7,0.5c-3.9,0.6-8.9,1.8-13.8,3.5
				c-2.4,0.8-4.3,1.6-5.6,2.2c-0.7,0.3-1.2,0.6-1.7,0.9c-0.4,0.3-0.8,0.5-1.1,0.7c-1.1,0.9-0.8,1.3-0.6,1.7c0.3,0.4,0.5,0.7,1.7,0.4
				c0.3-0.1,0.7-0.2,1.1-0.3c0.5-0.1,1-0.3,1.7-0.6c1.3-0.5,3.1-1.1,5.5-1.9c4.8-1.6,9.7-3.2,13.3-4.3c1.8-0.6,3.4-1.1,4.4-1.6
				C197.5,191.9,198.1,191.6,198,191.3z"/>
		</g>
	</g>
	<g>
		<g>
			<path class="st6" d="M196.6,187.5c0-0.2-0.5-0.4-1.4-0.6c-0.4-0.1-1-0.1-1.6-0.2c-0.6,0-1.3-0.1-2-0.1c-2.9,0-6.8,0.2-10.7,1
				c-1.9,0.4-3.3,0.8-4.4,1.2c-1,0.4-1.7,0.8-2.1,1.1c-0.4,0.3-0.5,0.5-0.6,0.8c0,0.2,0,0.4,0.1,0.7c0.1,0.2,0.1,0.4,0.3,0.6
				c0.2,0.2,0.5,0.2,1,0.2c0.5,0,1.2-0.1,2.2-0.4c1-0.2,2.3-0.5,4.1-0.9c3.6-0.7,7.4-1.3,10.2-1.9c0.7-0.1,1.4-0.3,1.9-0.4
				c0.6-0.1,1.1-0.3,1.5-0.4C196.1,188,196.6,187.7,196.6,187.5z"/>
		</g>
	</g>
	<g>
		<g>
			<path class="st6" d="M200.1,186.2c0.1,0.5,1.2,0.7,2.4,1.4c0.3,0.2,0.6,0.4,0.9,0.6c0.3,0.2,0.6,0.5,0.9,0.8
				c0.6,0.6,1,1.3,1.4,2.1c0.3,0.8,0.5,1.4,0.6,1.9c0.1,0.5,0.2,0.8,0.3,1.1c0.2,0.5,0.6,0.6,1.1,0.7c0.4,0.1,0.9,0.2,1.3-0.4
				c0.2-0.3,0.4-0.8,0.4-1.5c0-0.8,0-1.8-0.6-3c-0.3-0.6-0.6-1.2-1-1.7c-0.4-0.5-0.9-1-1.4-1.4c-0.5-0.4-1.1-0.7-1.6-0.9
				c-0.5-0.2-1.1-0.3-1.5-0.4c-0.5-0.1-0.9-0.1-1.3-0.1c-0.4,0-0.7,0.1-1,0.2c-0.3,0.1-0.5,0.2-0.6,0.3
				C200.1,185.9,200.1,186,200.1,186.2z"/>
		</g>
	</g>
	<g>
		<g>
			<path class="st6" d="M184.3,217.9c0.1,0.2,0.7,0.1,1.6-0.2c0.5-0.2,1-0.4,1.6-0.7c0.3-0.1,0.6-0.3,0.9-0.5
				c0.2-0.1,0.3-0.2,0.5-0.3c0.2-0.1,0.3-0.2,0.5-0.3c2.8-1.6,6.2-4.4,9-7.8c0.4-0.4,0.7-0.8,0.9-1.2c0.3-0.4,0.5-0.7,0.8-1.1
				c0.5-0.7,0.8-1.3,1.1-1.8c0.2-0.3,0.3-0.5,0.4-0.7c0.1-0.2,0.2-0.4,0.3-0.6c0.2-0.4,0.3-0.7,0.4-1c0.3-1.1-0.1-1.3-0.5-1.5
				c-0.4-0.2-0.8-0.4-1.5,0.3c-0.2,0.2-0.4,0.4-0.7,0.7c-0.1,0.2-0.3,0.3-0.4,0.5c-0.1,0.2-0.3,0.4-0.5,0.6c-0.3,0.4-0.8,1-1.2,1.6
				c-0.2,0.3-0.5,0.6-0.8,1c-0.3,0.3-0.6,0.7-0.9,1.1c-2.6,3.1-5.5,6-7.8,8C185.7,216.2,184,217.5,184.3,217.9z"/>
		</g>
	</g>
	<g>
		<g>
			<path class="st6" d="M182.8,215.7c0.3-0.4-0.3-1.2-0.8-2.3c-0.3-0.6-0.5-1.2-0.7-1.9c-0.2-0.7-0.3-1.4-0.4-2.2c0-0.7,0-1.3,0-1.7
				c0-0.4,0-0.7-0.1-1c-0.2-0.5-0.5-0.6-1-0.8c-0.4-0.2-0.8-0.3-1.3,0.1c-0.2,0.2-0.5,0.6-0.7,1.1c-0.2,0.6-0.4,1.4-0.3,2.5
				c0.1,1.1,0.4,2.2,0.9,3.1c0.5,0.9,1.1,1.7,1.8,2.2c0.6,0.5,1.2,0.8,1.7,1C182.4,216,182.7,215.9,182.8,215.7z"/>
		</g>
	</g>
	<g>
		<g>
			<path class="st6" d="M186.9,211.9c0.4,0.3,1.3-0.3,2.4-1.2c1.1-1,2.4-2.3,3.6-3.7c1.2-1.4,1.7-2.1,1.8-2.7
				c0.1-0.5-0.2-0.8-0.5-1.2c-0.3-0.3-0.6-0.6-1.2-0.5c-0.6,0.1-1.4,0.7-2.7,2.1c-1.3,1.5-2.4,3.1-3,4.5
				C186.7,210.6,186.5,211.6,186.9,211.9z"/>
		</g>
	</g>
	<g>
		<g>
			<path class="st6" d="M128.2,143.6c0-0.2-0.6-0.5-1.6-0.7c-0.5-0.1-1.1-0.3-1.8-0.4c-0.7-0.2-1.5-0.3-2.3-0.5
				c-3.4-0.7-7.9-1.6-12.3-2.8c-0.6-0.1-1.1-0.3-1.5-0.4c-0.5-0.1-0.9-0.2-1.3-0.4c-0.8-0.2-1.6-0.4-2.2-0.6
				c-0.6-0.2-1.1-0.3-1.6-0.4c-0.2,0-0.4-0.1-0.6-0.1c-0.2,0-0.3-0.1-0.5-0.1c-1.2-0.1-1.3,0.3-1.5,0.7c-0.2,0.4-0.3,0.8,0.7,1.5
				c0.1,0.1,0.3,0.2,0.4,0.3c0.2,0.1,0.3,0.2,0.6,0.3c0.4,0.2,0.9,0.5,1.5,0.7c0.3,0.1,0.6,0.3,1,0.4c0.4,0.1,0.8,0.3,1.2,0.4
				c0.4,0.1,0.9,0.3,1.4,0.4c0.5,0.1,1,0.3,1.6,0.4c4.6,1.2,9.3,1.8,12.9,1.9c0.9,0,1.7,0,2.4,0c0.7,0,1.4-0.1,1.9-0.1
				C127.6,144,128.2,143.8,128.2,143.6z"/>
		</g>
	</g>
	<g>
		<g>
			<path class="st6" d="M122.3,137.2c0-0.2-0.5-0.5-1.3-0.8c-0.9-0.3-2.1-0.6-3.6-1c-1.5-0.4-3.2-0.8-5-1.3
				c-1.8-0.5-3.7-1.1-5.5-1.7c-0.9-0.3-1.7-0.6-2.4-0.8c-0.7-0.3-1.3-0.5-1.8-0.6c-0.3-0.1-0.5-0.2-0.7-0.2
				c-0.2-0.1-0.4-0.1-0.6-0.2c-0.4-0.1-0.7-0.2-0.9-0.2c-0.9-0.2-1.2,0.1-1.5,0.5c-0.3,0.4-0.5,0.7,0.3,1.5c0.2,0.2,0.5,0.4,0.8,0.7
				c0.2,0.1,0.4,0.3,0.6,0.4c0.2,0.1,0.5,0.3,0.7,0.4c0.5,0.3,1.1,0.6,1.9,0.9c0.7,0.3,1.6,0.6,2.6,0.9c3.9,1.3,8,2,11.2,2.1
				c1.6,0.1,2.9,0.1,3.8-0.1C121.8,137.6,122.3,137.4,122.3,137.2z"/>
		</g>
	</g>
	<g>
		<g>
			<path class="st6" d="M114.6,132.5c0.1-0.1,0-0.2-0.1-0.4c-0.1-0.2-0.3-0.4-0.6-0.6c-0.5-0.4-1.3-1-2.3-1.5
				c-1.9-1.1-4.6-2.2-7.3-3.2c-2.7-1-4-1.3-4.8-1.3c-0.7,0-0.9,0.4-1.1,0.8c-0.2,0.4-0.4,0.8,0.2,1.4c0.6,0.6,1.9,1.3,4.5,2.3
				c2.7,1,5.5,1.8,7.6,2.3c1.1,0.2,2,0.4,2.6,0.5c0.3,0,0.6,0,0.8,0C114.4,132.6,114.5,132.6,114.6,132.5z"/>
		</g>
	</g>
	<g>
		<g>
			<path class="st6" d="M132.1,141.6c0.3-0.3-1.1-2.4-3.6-5.1c-2.5-2.7-6.1-6.1-9.9-9.1c-1.9-1.5-3.4-2.5-4.6-3.2
				c-1.2-0.7-2-1.1-2.6-1.3c-1.2-0.4-1.4-0.1-1.7,0.3c-0.3,0.4-0.5,0.7,0.3,1.7c0.8,0.9,2.7,2.4,6.4,5.3c3.7,2.9,7.5,5.9,10.3,8.2
				C129.8,140.4,131.8,141.9,132.1,141.6z"/>
		</g>
	</g>
	<g>
		<g>
			<path class="st6" d="M259.5,106.3c0.3-0.3-1.7-3.6-5.3-8.1c-3.5-4.5-8.6-10.2-14.1-15.4c-2.7-2.6-4.9-4.5-6.5-5.8
				c-1.6-1.3-2.8-2.2-3.6-2.7c-1.6-1-1.9-0.7-2.2-0.3c-0.3,0.4-0.6,0.7,0.6,2.1c0.6,0.7,1.6,1.7,3.1,3.2c1.5,1.4,3.5,3.4,6.2,5.9
				c5.4,5.1,10.7,10.5,14.6,14.6C256.4,103.9,259.1,106.6,259.5,106.3z"/>
		</g>
	</g>
	<g>
		<g>
			<path class="st6" d="M248.6,103c0.3-0.3-1.3-2.6-4.2-5.8c-2.8-3.1-6.9-7-11.2-10.4c-2.2-1.7-3.8-3-5.1-3.8
				c-1.3-0.9-2.2-1.4-2.9-1.7c-1.3-0.6-1.5-0.2-1.8,0.2c-0.3,0.4-0.5,0.7,0.4,1.8c0.9,1.1,3,2.8,7.3,6.2c4.2,3.4,8.5,6.9,11.7,9.6
				C246,101.6,248.3,103.3,248.6,103z"/>
		</g>
	</g>
	<g>
		<g>
			<path class="st6" d="M239.7,100.4c0.3-0.4-1.2-1.9-3.4-3.9c-2.3-2-5.4-4.6-8.5-7.1c-3.1-2.5-4.7-3.6-5.7-4
				c-1-0.4-1.2-0.1-1.5,0.3s-0.6,0.7,0,1.6c0.6,0.9,2,2.3,5.1,4.8c3.2,2.5,6.5,4.8,9.2,6.4C237.5,99.9,239.5,100.7,239.7,100.4z"/>
		</g>
	</g>
	<g>
		<g>
			<path class="st6" d="M238.9,103.2c0.2-0.4-1.5-1.8-4.3-3.5c-2.8-1.7-6.8-3.6-10.9-5.1c-2-0.7-3.6-1.2-4.8-1.5
				c-1.2-0.3-2-0.4-2.6-0.4c-1.1,0-1.2,0.4-1.4,0.8c-0.1,0.4-0.2,0.9,0.7,1.4c0.9,0.6,2.9,1.3,6.9,2.7c4,1.4,8,2.9,11,4.1
				C236.6,102.9,238.7,103.6,238.9,103.2z"/>
		</g>
	</g>
	<g>
		<g>
			<path class="st6" d="M265.6,111.9c-0.2,0.4,1.4,1.5,3.9,2.8c2.4,1.3,5.7,2.9,8.9,4.5c3.2,1.6,4.9,2.3,5.8,2.4
				c0.9,0.2,1.1-0.2,1.4-0.6c0.2-0.4,0.4-0.8-0.2-1.5c-0.7-0.7-2.2-1.7-5.5-3.4c-3.3-1.6-6.8-2.9-9.5-3.7
				C267.6,111.7,265.7,111.5,265.6,111.9z"/>
		</g>
	</g>
	<g>
		<g>
			<path class="st6" d="M137.5,84.2c0-0.5-1.9-0.9-4.8-1.2c-2.9-0.3-6.7-0.5-10.3-1c-1.8-0.2-3.2-0.4-4.2-0.6
				c-1-0.1-1.7-0.2-2.2-0.2c-1,0-1.1,0.4-1.2,0.9s-0.3,0.8,0.6,1.4c0.4,0.3,1.1,0.6,2.2,0.9c1.1,0.3,2.5,0.6,4.5,0.9
				c3.9,0.5,7.8,0.3,10.7,0C135.6,85,137.5,84.6,137.5,84.2z"/>
		</g>
	</g>
	<g>
		<g>
			<path class="st6" d="M78.9,64.2c0.4-0.2-1.3-5.1-4.7-11.9c-3.3-6.9-8.5-15.7-14.4-23.9c-0.7-1-1.4-2-2.1-2.9
				c-0.3-0.4-0.7-0.9-1-1.3c-0.3-0.4-0.6-0.8-0.9-1.2c-1.2-1.5-2.2-2.8-3.2-3.9c-0.5-0.5-0.9-1-1.3-1.5c-0.4-0.4-0.8-0.8-1.1-1.2
				c-0.7-0.7-1.2-1.3-1.7-1.7c-1.9-1.7-2.2-1.4-2.5-1.1s-0.7,0.6,0.7,2.7c0.3,0.5,0.8,1.2,1.4,1.9c0.3,0.4,0.6,0.8,1,1.3
				c0.4,0.5,0.7,1,1.2,1.5c0.8,1.1,1.8,2.4,3,3.9c0.3,0.4,0.6,0.8,0.9,1.2c0.3,0.4,0.6,0.8,0.9,1.3c0.6,0.9,1.3,1.8,2.1,2.8
				c5.8,8,11.2,16.5,15,23C76,59.9,78.5,64.5,78.9,64.2z"/>
		</g>
	</g>
	<g>
		<g>
			<path class="st6" d="M73.5,67.4c0.2-0.1-0.2-1.1-1.1-2.8c-0.4-0.8-1-1.8-1.6-2.9c-0.7-1.1-1.4-2.3-2.3-3.7
				c-3.4-5.3-8.2-12.2-13.1-18.8c-4.8-6.7-7.3-10-8.7-11.5c-1.4-1.5-1.7-1.3-2.1-1.1c-0.4,0.3-0.7,0.5,0.2,2.4
				c0.9,1.9,3.1,5.4,7.9,12.1c4.9,6.7,10,13.3,13.8,18.2c1,1.2,1.9,2.4,2.7,3.4c0.8,1,1.5,1.9,2.1,2.6
				C72.5,66.8,73.3,67.5,73.5,67.4z"/>
		</g>
	</g>
	<g>
		<g>
			<path class="st6" d="M68.4,72c0.4-0.3-1.6-3.1-4.6-7.2c-3-4-7.1-9.3-11-14.6c-3.9-5.3-5.9-7.9-7.1-9.1c-1.2-1.2-1.5-1-1.9-0.7
				c-0.4,0.3-0.7,0.5-0.1,2c0.7,1.6,2.4,4.5,6.4,9.8c4,5.3,8.4,10.4,11.9,14.1C65.5,70,68,72.3,68.4,72z"/>
		</g>
	</g>
	<g>
		<g>
			<path class="st6" d="M65.9,76.3c0.3-0.4-1.7-2.5-4.8-5.4C58,68,53.8,64.1,50,60.2c-1.9-2-3.3-3.5-4.3-4.7
				c-0.2-0.3-0.5-0.6-0.7-0.8c-0.2-0.2-0.4-0.5-0.6-0.7c-0.3-0.4-0.6-0.7-0.9-1c-0.9-1-1.3-0.8-1.7-0.6c-0.4,0.2-0.8,0.4-0.3,1.8
				c0.1,0.3,0.3,0.8,0.6,1.3c0.1,0.3,0.3,0.5,0.5,0.8c0.2,0.3,0.4,0.6,0.6,1c0.9,1.3,2.3,3,4.3,5.1c4,4.1,8.5,7.7,12,10.3
				C63.1,75.3,65.6,76.7,65.9,76.3z"/>
		</g>
	</g>
	<g>
		<g>
			<path class="st6" d="M62.9,79.4c0.2-0.4-1.5-1.8-4.2-3.6c-2.7-1.8-6.2-4.2-9.7-6.5c-3.5-2.4-5.2-3.5-6.2-3.9
				c-1-0.4-1.3-0.1-1.6,0.2c-0.3,0.4-0.6,0.7,0.1,1.6c0.2,0.2,0.4,0.5,0.7,0.8c0.3,0.3,0.7,0.7,1.1,1.1c0.9,0.8,2.2,1.8,4,3
				c3.6,2.4,7.4,4.5,10.4,5.8C60.6,79.2,62.7,79.8,62.9,79.4z"/>
		</g>
	</g>
	<g>
		<g>
			<path class="st6" d="M61.2,83.2c0.1-0.2-0.4-0.6-1.3-1.1c-0.9-0.5-2.2-1.1-3.8-1.7c-3.1-1.3-7.3-2.7-11.3-4.4
				c-4-1.7-5.8-2.7-6.9-3c-1.1-0.3-1.3,0-1.6,0.4c-0.3,0.4-0.5,0.7,0.3,1.6c0.8,0.9,2.7,2.3,6.9,4.1c4.2,1.8,8.6,2.9,11.9,3.6
				c1.7,0.3,3.1,0.6,4,0.7C60.6,83.4,61.2,83.4,61.2,83.2z"/>
		</g>
	</g>
	<g>
		<g>
			<path class="st6" d="M61.1,86.5c0-0.1-0.2-0.2-0.6-0.3c-0.4-0.1-1-0.1-1.7-0.2c-1.4-0.1-3.5-0.3-5.9-0.5
				c-4.9-0.4-11.4-1-17.8-1.7c-1.6-0.2-3-0.3-4.2-0.4c-0.3,0-0.6-0.1-0.9-0.1c0,0,0,0,0,0c0,0-0.1,0-0.1,0c0,0,0-0.1,0-0.1
				c0,0,0-0.1,0-0.1c0,0,0-0.1,0-0.1c0,0,0-0.1,0.1-0.1c0.1-0.1,0.1-0.3,0.2-0.4c0.3-0.5,0.5-0.9,0.7-1.3c0.4-0.7,0.5-1.1,0.5-1.4
				c0-0.3-0.2-0.4-0.3-0.6c-0.2-0.2-0.3-0.3-0.6-0.3c-0.3,0-0.7,0.2-1.4,0.7c-0.3,0.3-0.7,0.6-1.2,1.2c-0.1,0.1-0.2,0.3-0.4,0.4
				c0,0-0.1,0.1-0.1,0.1c0,0-0.1,0.1-0.1,0.1c-0.1,0.1-0.2,0.2-0.2,0.4c-0.4,0.6-0.7,1.4-0.6,2.2c0,0.4,0.2,0.8,0.4,1.1
				c0.3,0.3,0.6,0.6,1.1,0.8c0.4,0.2,1,0.3,1.5,0.4c0.3,0,0.6,0.1,0.9,0.1c1.2,0.2,2.7,0.4,4.3,0.5c6.5,0.7,13.1,0.9,18.1,0.7
				c2.5-0.1,4.6-0.3,6-0.6c0.7-0.1,1.3-0.3,1.7-0.4C60.9,86.7,61.1,86.6,61.1,86.5z"/>
		</g>
	</g>
	<g>
		<g>
			<path class="st6" d="M59.5,91.9c-0.1-0.5-3.7,0.1-9.1,0.8c-0.3,0-0.7,0.1-1,0.1C49,93,48.6,93,48.3,93c-0.7,0.1-1.5,0.2-2.2,0.3
				c-0.8,0.1-1.6,0.2-2.4,0.2c-0.4,0-0.8,0.1-1.2,0.1c-0.4,0-0.8,0.1-1.2,0.1c-3.3,0.3-6.9,0.5-10.4,0.6c-3.2,0.1-5.7,0.1-7.7,0.2
				c-1,0-1.8,0.1-2.5,0.2c-0.4,0-0.7,0.1-1,0.1c-0.1,0-0.3,0-0.4,0.1c0,0-0.1,0-0.1,0c0,0-0.1,0-0.1,0c-0.1,0-0.2,0-0.3,0
				c-0.1,0-0.1,0-0.2,0l-0.1,0l0,0l0,0l0,0c-0.3-1.1,0.4,1.4,0.3,1.2l0,0l0,0c0,0,0,0,0,0c0,0,0,0,0,0l0,0c0,0-0.1,0-0.1,0l0,0l0,0
				c0,0,0,0,0-0.1l-0.2-0.4l-0.2-0.4l-0.1-0.2l0-0.1l0,0c0,0,0,0,0,0l0,0c0,0,0,0-0.1,0c0,0-0.1,0.1-0.1,0.1
				c-0.2,0.1-0.3,0.2-0.5,0.3c-0.3,0.2-0.4,0.4-0.5,0.5c-0.1,0.2-0.2,0.3-0.1,0.4c0.1,0.1,0.2,0.2,0.2,0.3c0.1,0.1,0.1,0.2,0.1,0.3
				c0.1,0.1,0.2,0.2,0.3,0.2c0.2,0,0.4,0.1,0.7,0c0.2,0,0.4,0,0.6-0.1c0.1,0,0.1,0,0.2,0c0,0,0.1,0,0.1,0l0,0c0,0,0,0,0,0
				c0,0,0,0,0.1,0c0,0,0,0,0.1,0c0,0,0,0,0.1,0c0,0,0.1,0,0.1,0c0.1,0,0.3,0,0.4,0c0.3,0,0.6,0,1,0.1c0.7,0,1.5,0.1,2.5,0.1
				c1.9,0,4.5,0.1,7.8,0c3.6-0.1,7.2-0.4,10.6-0.9c0.4-0.1,0.8-0.1,1.3-0.2c0.4-0.1,0.8-0.1,1.2-0.2c0.8-0.1,1.6-0.3,2.4-0.4
				c0.8-0.2,1.5-0.3,2.2-0.5c0.4-0.1,0.7-0.1,1.1-0.2c0.3-0.1,0.7-0.2,1-0.3C56.1,93.8,59.6,92.4,59.5,91.9z"/>
		</g>
	</g>
	<g>
		<g>
			<path class="st6" d="M57.7,98.8c-0.1-0.1-0.3-0.1-0.8,0c-0.5,0.1-1.1,0.3-2,0.5c-1.7,0.5-4.2,1.1-7.1,1.8
				c-5.9,1.3-13.9,2.9-21.7,4.3c-10,1.7-13.6,2.1-14.8,2.4l0.7,1.4c0.2-0.8-0.1-1-0.4-1.1c-0.3-0.2-0.6-0.3-1.2,0.2L9.5,109l1.5,0.7
				c0.8,0.3,2.1,0.5,4.6,0.4c2.4-0.1,5.9-0.5,11-1.4c8-1.4,15.9-3.4,21.8-5.3c2.9-1,5.4-2,7-2.8c0.8-0.4,1.4-0.8,1.8-1.1
				C57.6,99.1,57.8,98.9,57.7,98.8z"/>
		</g>
	</g>
	<g>
		<g>
			<path class="st6" d="M63.5,103.7c-0.1-0.2-1.2,0-2.9,0.5c-1.8,0.5-4.3,1.3-7.3,2.1c-3,0.8-6.6,1.7-10.4,2.6
				c-3.8,0.9-7.9,1.7-11.9,2.4c-4.1,0.7-7.1,1.3-9.4,1.7c-2.3,0.5-3.8,0.8-4.8,1.1c-2,0.6-1.9,1-1.9,1.5c0.1,0.5,0.1,0.9,2.2,0.8
				c1,0,2.6-0.1,4.9-0.4c2.3-0.3,5.4-0.7,9.5-1.5c4.1-0.8,8.2-1.7,12.1-2.7c3.8-1,7.4-2.2,10.4-3.3c0.7-0.3,1.5-0.6,2.1-0.9
				c0.3-0.1,0.7-0.3,1-0.4c0.3-0.1,0.6-0.3,0.9-0.4c0.6-0.3,1.1-0.5,1.7-0.8c0.3-0.1,0.5-0.2,0.7-0.4c0.2-0.1,0.4-0.2,0.7-0.4
				C62.7,104.6,63.6,103.9,63.5,103.7z"/>
		</g>
	</g>
	<g>
		<g>
			<path class="st6" d="M66.6,95.9c-0.2,0.1-0.3,0.5-0.3,1.2c0,0.4,0.1,0.8,0.2,1.3c0.1,0.2,0.2,0.5,0.2,0.8c0,0.1,0.1,0.3,0.1,0.4
				c0.1,0.1,0.1,0.3,0.2,0.4c0.1,0.3,0.3,0.6,0.4,0.9c0.2,0.3,0.3,0.6,0.5,0.9c0.2,0.3,0.4,0.6,0.6,0.9c0.2,0.3,0.5,0.6,0.7,0.9
				c1,1.2,2.3,2.3,3.7,3.2c0.3,0.2,0.7,0.4,1,0.6c0.2,0.1,0.3,0.2,0.5,0.2c0.2,0.1,0.3,0.1,0.5,0.2c0.1,0.1,0.3,0.1,0.4,0.2
				c0.1,0.1,0.3,0.1,0.4,0.2c0.3,0.1,0.5,0.2,0.7,0.2c0.2,0.1,0.4,0.1,0.6,0.1c0.2,0,0.4,0.1,0.5,0.1c0.3,0,0.6,0,0.8,0
				c0.9-0.1,0.9-0.5,1-1c0.1-0.5,0.2-0.9-0.4-1.3c-0.2-0.1-0.3-0.2-0.6-0.4c-0.1-0.1-0.3-0.1-0.4-0.2c-0.1-0.1-0.3-0.1-0.5-0.2
				c-0.2-0.1-0.4-0.2-0.6-0.3c-0.1,0-0.2-0.1-0.3-0.2c-0.1-0.1-0.2-0.1-0.3-0.2c-0.1-0.1-0.2-0.1-0.4-0.2c-0.1-0.1-0.2-0.1-0.4-0.2
				c-0.3-0.2-0.5-0.3-0.8-0.5c-2.3-1.5-4.4-3.5-5.7-5.2C67.8,97.2,67.1,95.8,66.6,95.9z"/>
		</g>
	</g>
	<g>
		<g>
			<path class="st6" d="M65.4,87.7c0.1,0,0.3-0.1,0.4-0.3c0.1-0.1,0.2-0.3,0.3-0.5c0.1-0.2,0.2-0.4,0.3-0.6c0.1-0.2,0.2-0.5,0.4-0.8
				c0.1-0.3,0.3-0.6,0.5-0.9c0.4-0.6,0.7-1.3,1.2-2c0.5-0.7,1-1.4,1.7-2.1c0.6-0.7,1.3-1.4,2.1-2.1c1.6-1.3,3.4-2.4,5.4-3.1
				c2-0.7,3.6-1,4.8-1.2c0.2,0,0.3,0,0.4-0.1c0.1,0,0.3,0,0.4,0c0.1,0,0.2,0,0.4-0.1c0.1,0,0.2,0,0.3,0c0.4-0.1,0.8-0.1,1-0.2
				c0.3-0.1,0.5-0.1,0.7-0.2c0.2-0.1,0.3-0.2,0.4-0.2c0.2-0.2,0.2-0.4,0.2-0.6c0-0.2,0.1-0.4-0.1-0.7c-0.1-0.1-0.2-0.2-0.3-0.3
				c-0.2-0.1-0.4-0.2-0.7-0.3c-0.3-0.1-0.7-0.2-1.2-0.3c-0.1,0-0.3,0-0.4-0.1c-0.1,0-0.3,0-0.4,0c-0.2,0-0.3,0-0.5,0
				c-0.2,0-0.3,0-0.5,0c-1.4,0-3.4,0.2-5.8,1.1c-1.2,0.4-2.4,1-3.4,1.7c-1.1,0.7-2.1,1.5-2.9,2.3c-0.9,0.8-1.6,1.7-2.2,2.6
				c-0.6,0.9-1.1,1.8-1.5,2.7c-0.4,0.9-0.7,1.7-0.9,2.4c-0.1,0.4-0.2,0.7-0.2,1.1c-0.1,0.3-0.1,0.6-0.1,0.9c0,0.3,0,0.5,0,0.7
				c0,0.2,0,0.4,0,0.6C65.3,87.5,65.3,87.6,65.4,87.7z"/>
		</g>
	</g>
	<g>
		<g>
			<path class="st6" d="M64.6,89.2c-0.2,0-0.4,0.5-0.4,1.3c0,0.4,0,0.9,0,1.4c0,0.3,0.1,0.6,0.1,0.9c0,0.2,0,0.3,0.1,0.5
				c0,0.2,0.1,0.3,0.1,0.5c0.4,2.6,1.6,6.1,3.5,9.1c0.2,0.4,0.5,0.7,0.7,1c0.2,0.3,0.4,0.6,0.6,0.9c0.4,0.5,0.8,1,1.1,1.3
				c0.3,0.4,0.7,0.6,0.9,0.9c0.3,0.2,0.5,0.4,0.7,0.5c0.8,0.4,1.1,0.1,1.5-0.2c0.3-0.3,0.6-0.6,0.3-1.4c-0.1-0.2-0.2-0.4-0.4-0.7
				c-0.2-0.3-0.4-0.6-0.6-1c-0.5-0.8-1.2-1.8-2-3.1c-1.7-2.7-3.1-5.6-4.1-7.9C65.7,90.8,65.1,89.2,64.6,89.2z"/>
		</g>
	</g>
	<g>
		<g>
			<path class="st6" d="M236.1,81.3c0.3-0.3-0.1-1.4-1.1-2.7c-1-1.3-2.5-2.8-4.2-4c-1.7-1.2-2.7-1.6-3.3-1.6c-0.6,0-0.8,0.3-1.1,0.7
				c-0.2,0.4-0.5,0.8-0.2,1.3c0.3,0.5,1,1.2,2.6,2.3c1.6,1.2,3.3,2.3,4.6,3.1C234.8,81.2,235.8,81.6,236.1,81.3z"/>
		</g>
	</g>
	<g>
		<g>
			<path class="st6" d="M380.5,207.3c-0.2,0-0.4,0.1-0.6,0.4c-0.1,0.1-0.1,0.3-0.2,0.6c0,0.1,0,0.2,0,0.3c0,0.1,0,0.1,0,0.2
				c0,0.1,0,0.1,0,0.2c0,0.5,0.2,1.1,0.6,1.7c0.3,0.6,0.8,1.1,1.4,1.5c0.6,0.4,1.1,0.6,1.6,0.6c0.2,0,0.4,0,0.5,0
				c0.1,0,0.3-0.1,0.4-0.1c0.4-0.3,0.4-0.7,0.4-1.1c0-0.5,0-0.9-0.1-1.2c0-0.1-0.1-0.2-0.1-0.2c-0.1-0.1-0.1-0.1-0.2-0.2
				c-0.2-0.1-0.4-0.3-0.6-0.4c-0.6-0.4-1.1-0.8-1.6-1.2c0,0-0.1-0.1-0.1-0.1c0,0-0.1-0.1-0.1-0.1c-0.1-0.1-0.1-0.1-0.2-0.2
				c-0.1-0.1-0.2-0.2-0.3-0.3C381,207.4,380.7,207.3,380.5,207.3z"/>
		</g>
	</g>
	<g>
		<g>
			<path class="st6" d="M102,88.6c0,0.1,1,0.7,2.9,1.6c2,0.9,4.9,2.2,8.6,3.8c3.7,1.6,8.2,3.5,13.4,5.7c5.2,2.2,11,4.6,17.3,7.3
				c12.7,5.3,27.5,11.5,43.2,18.2C203,132,219.6,139.4,236,147c32.6,15.4,48.3,24.2,56.4,28.3c8,4.1,8.2,3.8,8.4,3.4
				c0.2-0.4,0.4-0.8-7.3-5.5c-1-0.6-2.1-1.2-3.3-2c-0.6-0.4-1.3-0.8-2-1.1c-0.7-0.4-1.4-0.8-2.2-1.2c-1.5-0.9-3.2-1.8-5.1-2.8
				c-0.9-0.5-1.9-1.1-2.9-1.6c-1-0.6-2.1-1.2-3.2-1.7c-2.3-1.2-4.7-2.5-7.3-3.8c-1.3-0.7-2.7-1.4-4.1-2.1c-1.4-0.7-2.9-1.5-4.5-2.2
				c-1.5-0.8-3.2-1.6-4.8-2.4c-0.8-0.4-1.7-0.8-2.5-1.3c-0.9-0.4-1.7-0.9-2.6-1.3c-3.6-1.7-7.4-3.5-11.5-5.5
				c-16.4-7.7-33-15-48.8-21.6c-15.8-6.6-30.7-12.5-43.5-17.6c-6.4-2.5-12.3-4.8-17.5-6.8c-5.2-2-9.8-3.8-13.6-5.2
				c-3.8-1.4-6.7-2.5-8.8-3.3C103.2,88.9,102,88.5,102,88.6z"/>
		</g>
	</g>
	<g>
		<path class="st8" d="M395.7,187.2L380.8,173l4.3-19.1c-15.7-19.8-34.6-28.5-34.6-28.5l-23.3,8l-29.2-12.6
			c-2.7,4.4,4.5,11,5.1,18.2c1.3,15.9,5.9,33.6,29,42.8c27.8,11,40.9,2.1,71.5,12.5L395.7,187.2z"/>
	</g>
	<g>
		<path class="st0" d="M355.7,128.4c0,0-3.6,3.2-8.5,4.3c-4.9,1.1-13.2,3-13.2,3s-9.9-0.7,0.1-4.4
			C344,127.7,347.4,124.9,355.7,128.4z"/>
	</g>
	<g>
		<path class="st0" d="M321.9,132.9c-0.3-0.3-9.4-1.6-15.7-2.6c-3.4-0.5-5.9-3.3-6.2-6.7l0-0.1l20.8,7.7"/>
	</g>
	<g>
		<path class="st0" d="M384.6,176.3c-3,0.8,0.4,5.6,1.1,7.4c1.1,2.5-25.2,1.8-26.2,3.6l37.7,2.6L384.6,176.3"/>
	</g>
	<g>
		<path class="st6" d="M327.6,182.4c2.3,1.1,4.7,2.1,7,3c11.6,4.6,30.1,5.1,43.5,5.4c4.7,0.1,8.7,0.2,11.6,0.5
			c7.5,0.7,12.6,3.8,14.3,6.6c0.6,1,0.8,1.9,0.5,2.6c-0.7,1.9-4.3,2.6-9.8,2c-4.9-0.6-9.6-2-9.7-2.1l-1.2,3.9
			c0.2,0.1,5.1,1.6,10.3,2.2c7.9,0.9,12.6-0.6,14.2-4.5c0.7-2,0.4-4.2-0.9-6.2c-2.8-4.5-9.6-7.8-17.4-8.5c-3-0.3-7.1-0.4-11.8-0.5
			c-13.2-0.3-31.2-0.8-42.1-5.1c-7.6-3-15.5-6.7-21.4-13.2c-6.5-7.1-10-16.8-10.8-29.8c-0.8-12.5-2.7-18.1-6.3-18.9
			c-1.1-0.2-2.8-0.1-4.6,1.8c-0.8,0.9-1.4,1.9-1.4,2l3.5,2c0.4-0.8,1.2-1.6,1.6-1.8c0.4,0.3,2.3,2.5,3.1,15.2
			c0.9,13.9,4.7,24.5,11.9,32.3C316.3,176.3,321.8,179.7,327.6,182.4z"/>
	</g>
	<g>
		<path class="st6" d="M402.5,196.2l2.8-2.9l-21.4-20.4c-0.8-0.7-1.1-1.8-0.9-2.8l2.7-14.5c0.1-0.4,0-0.8-0.1-1.1l0,0
			c-0.1-0.2-2.2-5.6-7.8-12c-5.1-5.8-14.3-13.6-28.7-17.4l0,0c-0.4-0.1-0.7-0.1-1.1,0l-19.5,5.8c-0.9,0.3-1.9,0.2-2.7-0.1l-28.4-11
			l-1.5,3.8l28.4,11c1.7,0.7,3.6,0.7,5.3,0.2l16.5-4.9c1.7-0.5,3.4-0.5,5.1,0.1c21.1,6.9,29.1,22.6,30.5,25.6l-2.5,13.9
			c-0.4,2.4,0.4,4.8,2.1,6.5L402.5,196.2z"/>
	</g>
	<g>
		<path class="st6" d="M349.1,166.6c14.7,7,30.5,7.8,31.3,7.8l0.2-4.1c-0.2,0-21.3-1.1-36.5-11.3c-7.8-5.2-12.9-11.2-14.7-17.4
			c-1.4-4.6-0.5-7.8-0.5-7.9l-3.9-1.2c0,0.2-1.2,4.1,0.4,9.8c2.6,9.2,10.4,15.9,16.5,20C344.1,164,346.6,165.4,349.1,166.6z"/>
	</g>
	<g>
		<g id="t1lart.tif_9_">
			<g>
				<g>
					<path class="st6" d="M377.5,162.3c0,0.1,0,0.1,0,0.2c-0.2,0.3-0.3,0.7-0.5,1c0,0,0,0.1-0.1,0.1c0,0-0.1,0.1-0.1,0.1
						c0,0.1-0.1,0.1-0.1,0.2c0,0-0.1,0.1-0.1,0.1c0,0.1-0.1,0.2-0.1,0.2c0,0,0,0,0,0c0,0.1-0.1,0.1-0.1,0.2c0,0,0,0,0,0
						c0,0-0.1,0-0.1,0.1c0,0,0,0.1-0.1,0.1c0,0.1-0.1,0.1-0.1,0.1c0,0.1-0.1,0.1-0.1,0.1c0,0,0,0-0.1,0.1c0,0,0,0-0.1,0
						c0,0-0.1,0.1-0.1,0.1c0,0,0,0,0,0c0,0-0.1,0.1-0.1,0.1c0,0-0.1,0.1-0.1,0.1c0,0,0,0,0,0c0,0,0,0,0,0.1c0,0,0,0-0.1,0
						c0,0,0,0-0.1,0c0,0,0,0-0.1,0c0,0,0,0,0,0.1c-0.1,0-0.1,0.1-0.2,0.1c-0.1,0-0.1,0.1-0.2,0.1c0,0,0,0,0,0.1c0,0,0,0-0.1,0
						c0,0,0,0,0,0c0,0,0,0,0,0c0,0,0,0-0.1,0c0,0,0,0-0.1,0c0,0,0,0-0.1,0.1c0,0,0,0-0.1,0c0,0-0.1,0.1-0.2,0.1c0,0,0,0,0,0.1
						c0,0,0,0-0.1,0c0,0,0,0,0,0c0,0-0.1,0-0.1,0c0,0,0,0,0,0c0,0-0.1,0-0.1,0c0,0,0,0,0,0c0,0-0.1,0-0.1,0c0,0,0,0,0,0.1
						c0,0-0.1,0-0.1,0c-0.1,0.1-0.1,0.1-0.2,0c-0.1,0.1-0.1,0.1-0.2,0c0,0,0,0-0.1,0c0,0-0.1,0-0.1,0c0,0,0,0-0.1,0.1
						c-0.1,0-0.1,0-0.2,0c0,0,0,0,0,0c-0.1,0-0.1,0-0.2,0c-0.1,0-0.1-0.1-0.2,0c-0.1,0-0.1,0-0.2,0c0,0,0,0,0,0c-0.1,0-0.2,0-0.3,0
						c0,0,0,0-0.1,0c-0.1,0-0.2,0-0.3,0c-0.1,0-0.1,0-0.1,0c-0.1,0-0.2,0-0.3,0c-0.1,0-0.1,0-0.2,0c0,0-0.1,0-0.1,0
						c-0.3,0-0.6-0.1-0.8-0.1c0,0-0.1,0-0.1,0c0,0,0,0.1-0.1,0.1c0,0,0,0,0,0c0,0,0,0-0.1,0.1c-0.1,0-0.2,0-0.2,0
						c0,0-0.1,0.1-0.1,0.1c0,0,0,0,0,0c-0.1,0.1-0.1,0.1-0.1,0.2c-0.1,0-0.1,0-0.2,0c0,0,0,0,0,0c0,0,0,0,0,0c0,0,0,0.1-0.1,0.1
						c0,0,0,0,0-0.1c0.1-0.1,0.1-0.3,0.2-0.4c0-0.1,0.1-0.2,0.1-0.3c0,0,0,0,0,0c0,0,0,0,0,0c0,0,0-0.1,0-0.1c0-0.1,0-0.1,0-0.1
						c0,0,0,0,0-0.1c0,0-0.1,0-0.1-0.1c0,0,0,0,0-0.1c0,0-0.1,0-0.1,0c0,0,0,0,0-0.1c0,0,0,0-0.1,0c0,0,0,0,0-0.1c0,0-0.1,0-0.1-0.1
						c0,0,0,0,0-0.1c0,0-0.1,0-0.1,0c0,0,0,0,0,0c0,0-0.1,0,0-0.1c0,0,0,0-0.1,0c0,0,0-0.1-0.1-0.1c0,0,0,0,0,0
						c0-0.1-0.1-0.2-0.1-0.3c0,0,0,0,0,0c0,0,0,0,0,0c0,0,0,0,0,0c0,0,0,0,0-0.1c0,0,0,0,0,0c0,0,0-0.1,0-0.1c-0.1,0,0-0.1,0-0.1
						c0,0,0,0-0.1,0c0,0,0-0.1,0-0.1c0,0,0,0,0,0c0,0,0-0.1,0-0.1c0,0,0,0,0,0c0,0,0-0.1,0-0.1c0,0,0,0-0.1,0c0,0,0,0-0.1,0
						c0,0-0.1,0.1-0.1,0.1c0,0,0,0,0,0c0,0,0,0,0,0.1c0,0,0,0-0.1,0c0,0,0,0,0,0c-0.1,0-0.2,0-0.3-0.1c0,0,0,0-0.1,0.1
						c-0.1,0-0.2,0-0.2-0.1c0,0,0,0,0,0c-0.1,0-0.2,0-0.3,0c0,0,0,0,0,0c0,0-0.1,0-0.1,0c0,0-0.1,0-0.1,0c0,0-0.1,0-0.1,0
						c0,0-0.1,0-0.1,0c0,0,0,0-0.1,0c-0.1,0-0.1,0-0.2-0.1c0,0,0,0-0.1,0c-0.1,0-0.1,0-0.2-0.1c0,0,0,0,0,0.1c0,0,0,0,0,0
						c0,0-0.1,0-0.1,0c0,0-0.1,0-0.1,0c0,0,0,0-0.1,0c0,0-0.1,0-0.1,0c0,0-0.1,0-0.1,0c0,0-0.1,0-0.1-0.1c0,0,0,0,0,0c0,0,0,0-0.1,0
						c0,0-0.1,0-0.1,0c0,0-0.1,0-0.1,0c0,0,0,0-0.1,0c0,0,0,0,0,0c-0.1,0-0.1-0.1-0.2-0.1c0,0,0,0,0,0c0,0-0.1,0-0.1-0.1
						c0,0-0.1,0-0.1,0c-0.1,0-0.1,0-0.2,0c-0.1,0-0.1,0-0.2,0c0,0,0,0-0.1,0.1c0,0-0.1-0.1-0.1-0.1c0,0,0,0-0.1,0
						c-0.1,0-0.1,0-0.2-0.1c0,0,0,0-0.1,0c0,0-0.1,0-0.1,0c0,0,0,0-0.1,0c-0.1,0-0.1,0-0.2-0.1c0,0,0,0-0.1,0.1c0,0-0.1,0-0.1,0
						c0,0,0,0-0.1,0c0,0-0.1,0-0.1,0c0,0,0,0-0.1,0c0,0-0.1,0-0.1,0c0,0,0,0-0.1,0c0,0-0.1,0-0.1,0c0,0,0,0,0,0.1
						c-0.1,0-0.1,0-0.2,0c0,0-0.1,0-0.2,0c0,0,0,0-0.1,0c0,0-0.1,0-0.1,0c0,0,0,0,0,0c0,0-0.1,0-0.1,0c0,0,0,0-0.1,0.1
						c0,0-0.1,0-0.1,0c0,0,0,0,0,0c-0.1,0-0.1,0-0.2-0.1c0,0,0,0,0-0.1c0,0,0,0-0.1,0c0-0.1,0-0.1,0-0.1c0,0,0-0.1,0-0.1
						c0,0,0,0,0-0.1c0,0,0-0.1,0-0.1c0,0,0,0,0,0c0-0.1,0-0.1,0-0.1c0,0,0,0-0.1,0c0,0,0-0.1,0-0.1c0-0.1,0-0.1,0-0.2
						c0,0,0.1-0.1,0-0.1c0,0-0.1,0-0.1,0.1c0,0.1-0.1,0.2-0.1,0.2c-0.1,0.1-0.1,0.3-0.2,0.4c0,0-0.1,0-0.1,0c0,0,0,0,0,0
						c0,0,0,0,0,0c0,0-0.1,0.1-0.1,0.1c0,0-0.1,0-0.1,0c0,0,0,0,0,0c0,0,0,0-0.1,0c0,0,0,0,0,0c-0.1,0-0.1,0-0.2-0.1
						c0,0-0.1,0-0.1,0c0,0-0.1,0-0.1,0c0,0-0.1,0-0.1,0c0,0,0,0,0-0.1c0,0,0,0,0,0c0,0,0-0.1,0-0.1c0,0,0,0,0,0c0-0.1,0-0.1,0.1-0.2
						c0,0,0-0.1,0-0.1c0,0,0,0,0,0c0-0.1,0-0.1,0.1-0.2c0,0,0,0,0-0.1c0,0,0-0.1,0.1-0.1c0,0,0,0,0-0.1c0,0,0-0.1,0.1-0.2
						c0,0,0,0,0,0c0,0,0-0.1,0.1-0.1c0,0,0,0-0.1-0.1c0,0,0-0.1,0-0.1c0,0,0,0,0,0c0,0,0-0.1,0-0.1c0,0,0-0.1,0-0.2c0,0,0-0.1,0-0.2
						c0,0,0,0,0,0c0-0.1,0.1-0.1,0-0.2c0,0,0-0.1,0-0.1c0,0,0,0,0,0c0,0,0-0.1,0-0.1c0-0.1,0-0.1,0-0.2c0,0,0,0,0,0c0,0,0-0.1,0-0.1
						c0,0,0,0,0,0c0,0,0-0.1,0-0.1c0,0,0,0,0,0c0-0.1,0-0.2,0-0.2c0,0,0,0,0,0c0,0,0-0.1,0-0.1c0,0,0,0-0.1,0c0-0.1,0-0.1,0-0.2
						c0,0,0,0,0,0c0,0,0-0.1,0-0.1c0,0,0,0,0,0c0,0,0-0.1,0-0.1c0,0,0,0-0.1,0c0,0,0-0.1,0-0.1c0,0,0,0,0,0c0,0,0,0,0,0
						c0-0.1,0-0.1,0-0.2c0,0,0,0,0-0.1c0,0,0,0-0.1,0c0.1-0.1,0-0.1,0-0.2c0,0,0,0,0,0c0,0,0-0.1,0-0.1c0,0,0-0.1,0-0.1
						c0,0-0.1,0-0.1-0.1c0,0,0,0,0-0.1c-0.1,0-0.1,0-0.1,0c0,0,0,0,0,0c0,0,0,0-0.1,0c0,0-0.1,0-0.1,0c0,0,0,0-0.1,0.1
						c0,0-0.1,0-0.1,0c0,0,0,0,0,0.1c0,0-0.1,0-0.1,0c-0.1,0-0.1,0-0.2,0c0,0,0,0-0.1,0.1c0,0-0.1,0-0.1,0c0,0,0,0,0,0
						c0,0,0,0-0.1,0c0,0,0,0-0.1,0.1c0,0,0,0-0.1,0c0,0-0.1,0.1-0.1,0.1c0,0,0,0,0,0c-0.1,0.2-0.3,0.5-0.4,0.7
						c0,0.1-0.1,0.1-0.1,0.2c0,0,0,0,0,0c0,0-0.1,0.1-0.1,0.1c-0.1,0.1-0.1,0.2-0.2,0.4c-0.1,0.1-0.1,0.2-0.2,0.4c0,0,0,0,0,0
						c0,0-0.1,0.1-0.1,0.1c0,0,0,0-0.1,0c0,0.1-0.1,0.1-0.2,0.2c0,0,0,0-0.1,0c0,0-0.1,0.1-0.1,0.1c0,0,0,0-0.1,0
						c0,0-0.1,0.1-0.1,0.1c0,0,0,0,0,0c0,0-0.1,0.1-0.1,0.1c0,0,0,0-0.1,0.1c0,0,0,0-0.1,0c0,0,0,0.1-0.1,0.1c0,0-0.1,0-0.1,0.1
						c0,0-0.1,0-0.1,0c0,0,0,0,0,0c0,0,0,0-0.1,0c0,0,0,0,0,0.1c0,0,0,0-0.1,0c0,0-0.1,0.1-0.1,0.1c0,0-0.1,0-0.1,0.1
						c0,0-0.1,0-0.1,0c0,0,0,0-0.1,0.1c0,0,0,0-0.1,0c0,0,0,0.1-0.1,0.1c0,0-0.1,0-0.1,0c0,0-0.1,0-0.2,0c0,0-0.1,0.1-0.1,0.1
						c0,0,0,0-0.1,0c0,0,0,0,0,0c0,0,0,0,0-0.1c0,0,0-0.1,0.1-0.1c0.1-0.2,0.2-0.3,0.3-0.5c0.1-0.2,0.2-0.4,0.3-0.5
						c0-0.1,0-0.1,0.1-0.2c0-0.1,0.1-0.2,0.1-0.2c0.3-0.5,0.5-1.1,0.8-1.6c0.1-0.1,0.1-0.2,0.2-0.3c0,0,0,0,0,0
						c0-0.1,0.1-0.2,0.1-0.3c0.2-0.5,0.5-0.9,0.7-1.4c0.1-0.1,0.1-0.2,0.2-0.3c0,0,0,0,0,0c0.2-0.4,0.4-0.8,0.6-1.2
						c0.1-0.1,0.1-0.3,0.2-0.4c0,0,0,0,0,0c0.1-0.1,0.1-0.2,0.2-0.4c0.1-0.2,0.2-0.5,0.3-0.7c0,0,0-0.1,0-0.1c0-0.1,0-0.1,0.1-0.2
						c0.1-0.1,0.1-0.3,0.2-0.4c0-0.1,0.1-0.2,0.1-0.2c0,0,0,0,0,0c0-0.2,0.1-0.3,0.2-0.5c0-0.1,0-0.1,0.1-0.2c0,0,0,0,0,0
						c0,0,0,0,0-0.1c0,0,0,0,0.1,0c0,0,0,0,0-0.1c0,0,0,0,0,0c0,0,0.1,0,0.1,0c0,0,0,0,0,0c0.3,0.1,0.5,0.1,0.8,0.2
						c0.1,0,0.1,0,0.1,0.1c0,0,0,0,0.1,0c0,0,0,0,0.1,0c0,0,0,0,0,0c0,0.1,0,0.1,0.1,0.1c0,0,0.1,0.1,0.1,0.1c0,0,0,0,0,0
						c0,0,0,0.1,0,0.2c0,0,0,0,0.1,0c0,0,0,0,0,0.1c0,0,0,0,0,0c0,0,0,0,0,0.1c0,0,0,0,0,0c0,0,0,0.1,0,0.1c0,0,0,0.1,0,0.1
						c0,0,0,0,0,0c0,0.1,0,0.1,0,0.2c0,0.1,0,0.1-0.1,0.2c0,0,0,0,0,0c0,0.1-0.1,0.2-0.1,0.3c0,0.1,0,0.1,0,0.2c0,0,0,0.1-0.1,0.1
						c-0.3,0.6-0.6,1.1-0.9,1.7c0,0-0.1,0.1,0,0.1c0,0,0,0,0,0c0,0,0,0.1,0,0.1c0,0,0.1,0,0.1,0.1c0,0,0,0,0,0.1
						c0.1,0,0.2,0,0.2,0.1c0,0,0,0,0-0.1c0,0,0,0,0.1,0c0,0,0,0,0.1,0c0,0,0,0,0,0c0,0,0,0,0,0c0,0,0,0,0.1,0c0,0,0,0,0,0
						c0,0,0,0,0.1,0c0,0,0,0,0-0.1c0,0,0,0,0,0c0,0,0-0.1,0.1,0c0,0,0.1-0.1,0.1-0.1c0,0,0.1-0.1,0.1-0.1c0,0,0.1,0,0.1,0
						c0,0,0.1,0,0.1,0c0,0,0.1,0,0.1,0c0,0,0.1-0.1,0.1-0.1c0,0,0,0,0,0c0,0,0,0,0.1-0.1c0,0,0,0,0,0c0,0,0,0,0.1,0c0,0,0,0,0.1,0
						c0,0,0,0,0.1-0.1c0,0,0,0,0,0c0,0,0.1-0.1,0.1-0.1c0,0,0,0,0,0c0,0,0.1-0.1,0.1-0.1c0.1,0,0.1-0.1,0.1-0.1c0,0,0,0,0,0
						c0.1-0.1,0.1-0.1,0.2-0.2c0,0,0,0,0.1,0c0.1-0.1,0.1-0.1,0.1-0.1c0,0,0-0.1,0.1-0.1c0,0,0,0,0.1,0c0,0,0.1-0.1,0.1-0.1
						c0,0,0,0,0.1,0c0,0,0-0.1,0.1-0.1c0,0,0,0,0,0c0-0.1,0.1-0.1,0.1-0.2c0,0,0.1,0,0.1,0c0,0,0-0.1,0.1-0.1c0,0,0,0,0.1,0
						c0,0,0.1-0.1,0.1-0.1c0,0,0,0,0,0c0-0.1,0.1-0.1,0.1-0.2c0,0,0,0,0,0c0.1,0,0.1-0.1,0.2-0.2c0,0,0,0,0,0c0,0,0,0,0,0
						c0,0,0-0.1,0.1-0.1c0,0,0.1,0,0.1-0.1c0,0,0,0,0.1-0.1c0,0,0.1,0,0.1,0c0,0,0.1,0,0.1,0c0.1,0,0.2,0.1,0.4,0.1
						c0.1,0,0.1,0.1,0.1,0.1c0,0,0.1,0,0.1,0.1c0,0,0.1,0.1,0.1,0.1c0,0,0,0,0,0c0,0,0.1,0,0.1,0.1c0,0.1,0,0.1,0.1,0.1
						c0,0,0,0,0,0.1c0,0,0,0,0.1,0.1c0,0,0,0,0,0c0,0,0,0.1,0.1,0.1c0,0,0,0,0,0c0,0,0,0,0,0c0,0,0,0,0,0c0,0,0,0,0,0c0,0,0,0,0,0.1
						c0,0,0,0,0.1,0c0,0,0,0,0,0.1c0,0,0,0,0.1,0c0,0,0,0,0,0.1c0,0,0,0,0,0c0,0,0-0.1,0-0.1c0,0,0.1-0.1,0.1-0.2c0,0,0.1,0,0.1,0
						c0,0,0,0,0,0c0,0,0.1,0,0.1,0c0,0,0,0,0,0c0,0,0.1,0,0.1,0c0,0,0.1,0,0.1,0c0,0,0.1,0,0.1,0c0.1,0,0.1,0,0.1,0
						c0.2,0.1,0.5,0.2,0.7,0.3c0.1,0,0.1,0,0.2,0c0.1,0,0.2,0.1,0.2,0.1c0.4,0.1,0.8,0.3,1.2,0.4c0,0,0,0,0,0
						c0.3,0.1,0.6,0.1,0.9,0.2c0.6,0.2,1.2,0.3,1.8,0.4c0.2,0.1,0.5,0.1,0.7,0.2c0,0,0,0.1,0,0.1c0,0,0,0.1-0.1,0.1c0,0,0.1,0,0.1,0
						c0,0,0,0,0-0.1c0,0,0,0,0,0c0.1,0,0.1,0,0.2,0c0,0,0.1,0,0.1,0c0.1,0,0.1,0,0.2,0c0,0,0,0,0.1,0c0,0,0.1,0,0.1,0
						c0.1,0,0.1,0,0.2,0c0,0,0.1,0,0.1,0c0,0,0.1,0,0.1,0c0.1,0,0.1,0,0.2,0c0.1,0,0.1,0,0.2,0c0,0,0,0,0,0c0,0,0,0,0,0
						c0.5,0.1,0.9,0.2,1.4,0.3c0,0,0.1,0,0.1,0.1c0,0,0,0-0.1,0c0.1,0.1,0.4,0.1,0.5,0.2c0,0,0,0,0,0c0.1,0,0.2,0.1,0.3,0.1
						c0,0,0,0,0,0c0,0,0,0,0,0c0.1,0,0.1,0,0.2,0.1c0,0,0.1,0,0.1,0c0,0,0.1,0.1,0.1,0.1c0,0,0.1,0,0.1,0c0,0,0,0,0,0.1c0,0,0,0,0,0
						c0,0,0.1,0,0.1,0c0,0,0.1,0,0.1,0.1c0,0,0,0,0.1,0.1c0,0,0,0,0.1,0c0,0,0,0,0,0.1c0,0,0.1,0.1,0.1,0.1c0,0,0,0,0,0
						c0,0,0.1,0,0.1,0.1c0,0,0,0,0,0c0,0,0.1,0,0.1,0.1c0,0,0,0,0,0.1c0,0,0,0,0.1,0c0,0,0,0,0,0.1c0,0,0.1,0,0.1,0.1c0,0,0,0,0,0
						c0,0,0.1,0,0.1,0.1c0,0,0,0,0,0c0,0,0.1,0,0.1,0.1c0,0,0,0,0,0c0,0,0,0,0.1,0.1c0,0,0,0,0,0c0,0,0.1,0,0.1,0.1c0,0,0,0,0,0.1
						c0,0,0,0,0,0c0,0,0,0,0,0c0,0,0,0,0.1,0.1c0,0,0,0.1,0,0.1c0,0,0,0,0,0c0,0,0,0,0.1,0.1c0,0,0,0,0,0c0,0,0,0,0,0c0,0,0,0,0,0.1
						c0,0,0,0,0,0.1c0,0,0,0.1,0,0.1c0,0,0,0,0,0.1c0,0,0,0,0,0.1c0,0,0,0.1,0,0.1c0,0,0,0,0,0.1c0,0,0,0,0,0c0,0,0,0.1,0,0.1
						c0,0,0,0.1,0,0.1c0,0,0,0,0,0.1c0,0,0,0,0,0.1c0,0,0,0,0,0c0,0,0,0.1,0,0.1c0,0,0,0.1,0,0.1c0,0,0,0,0,0c0,0,0,0,0,0
						c0,0,0,0.1,0,0.1c0,0,0,0,0,0.1c0,0,0,0,0,0c0,0,0,0.1,0,0.1c0,0,0,0,0,0.1c0,0,0,0.1,0,0.1c0,0,0,0,0,0c0,0,0,0.1,0,0.1
						c0,0.1,0,0.1,0,0.2c0,0,0,0,0,0c0,0.1,0,0.1-0.1,0.2c0,0,0,0,0,0c0,0.1,0,0.1-0.1,0.2c0,0,0,0,0,0.1c0,0.1-0.1,0.1-0.1,0.2
						c0,0,0,0,0,0.1c0,0,0,0.1-0.1,0.1c0,0.1-0.1,0.1-0.1,0.2c0,0,0,0.1,0,0.1C377.6,162.1,377.5,162.2,377.5,162.3z M361.7,161
						c0,0,0-0.1,0.1-0.1c0,0,0-0.1,0-0.1C361.7,160.8,361.7,160.9,361.7,161C361.7,160.9,361.7,161,361.7,161c0,0.1-0.1,0.2-0.1,0.3
						c0,0,0,0,0,0c0,0.1-0.1,0.2-0.1,0.3c0,0,0.1,0,0.1,0c0.1-0.1,0.1-0.2,0.2-0.3c0,0,0,0,0,0C361.7,161.1,361.7,161,361.7,161
						C361.7,161,361.7,161,361.7,161z M367.6,161.8c0.1,0,0.2,0,0.3,0.1c0,0,0.1,0,0.1,0c0,0,0.1,0,0.1,0c0,0,0.1,0,0.1,0
						c0.1,0,0.2,0,0.3,0.1c0,0,0,0,0.1,0c0-0.1,0.1-0.2,0.1-0.3c0,0,0,0,0.1,0c0,0,0,0,0-0.1c0,0,0,0,0,0c0,0,0.1,0,0.1-0.1
						c0,0,0.1,0,0.1,0c-0.1,0.1-0.1,0.2-0.2,0.3c0,0,0,0,0,0c0,0,0,0,0,0.1c0,0,0.1,0,0.1,0c0.3,0.1,0.6,0.1,0.8,0.2
						c0,0,0.1,0,0.1,0c0,0,0.1,0,0.1,0.1c0,0,0,0,0,0c0,0,0,0,0,0c-0.1,0.1-0.1,0.1-0.2,0.2c0,0,0,0,0,0c0,0-0.1,0.1-0.1,0.1
						c0,0-0.1,0.1-0.1,0.1c0,0,0,0,0,0c0,0,0,0.1-0.1,0.1c0,0-0.1,0-0.1,0.1c0,0,0,0,0.1,0c0,0,0,0,0,0.1c0,0.1,0.2,0,0.2,0.1
						c0.1,0,0.1,0,0.2,0c0,0,0,0,0.1,0c0,0,0.1,0,0.1,0c0,0,0,0,0-0.1c0.1,0,0.1-0.1,0.1-0.1c0,0,0.1-0.1,0.1-0.1c0,0,0-0.1,0.1-0.1
						c0.3-0.6,0.6-1.2,0.9-1.8c0,0,0-0.1,0-0.1c0-0.1,0.1-0.2,0.1-0.3c0.1-0.2,0.2-0.5,0.4-0.7c0.1-0.2,0.2-0.4,0.3-0.6
						c0,0,0-0.1,0-0.1c0,0,0,0-0.1,0c0.1-0.2,0.1-0.3,0.2-0.4c0,0,0,0-0.1,0c0,0,0-0.1,0-0.1c0,0,0,0,0,0c0,0,0,0,0-0.1
						c-0.1,0-0.3,0-0.4-0.1c0,0-0.1,0-0.1,0c0,0-0.1,0-0.1,0c-0.1,0-0.3,0-0.4-0.1c0,0,0,0,0-0.1c0,0,0,0,0,0c0,0,0-0.1,0-0.1
						c0,0,0-0.1,0-0.1c0,0,0,0,0,0c0,0,0,0,0-0.1c0,0,0,0,0,0c0-0.1,0-0.1,0-0.2c0,0,0,0-0.1,0.1c0-0.1,0-0.1,0.1-0.2c0,0,0,0,0,0
						c0-0.1,0.1-0.2,0.1-0.2c0,0,0,0,0,0c0.1-0.3,0.3-0.5,0.4-0.8c0,0,0,0,0.1,0c0,0,0-0.1,0.1-0.1c0,0,0,0,0,0c0,0,0,0,0,0
						c0,0,0,0-0.1,0c0,0,0,0,0,0.1c0,0,0,0-0.1,0c0,0,0,0,0,0c0,0-0.1,0-0.1,0c0,0,0,0,0,0c0,0-0.1,0-0.1,0c0,0,0,0.1-0.1,0.1
						c0,0,0,0,0.1,0c0,0,0,0,0,0.1c0,0-0.1,0-0.1,0c0,0,0,0-0.1,0c0,0-0.1,0-0.1,0c0,0,0,0,0,0c0,0-0.1,0-0.1,0c0,0.1,0,0.1-0.1,0.2
						c0,0-0.1,0-0.1,0c0,0,0,0,0,0.1c0,0-0.1,0-0.1,0c0,0-0.1,0-0.1,0c-0.1,0.1-0.1,0-0.2,0c0,0,0,0,0,0c0,0,0,0,0,0
						c-0.1,0-0.2,0-0.3-0.1c0,0,0,0-0.1,0.1c-0.1,0-0.1,0-0.2,0c-0.1,0-0.1,0-0.2,0c0,0,0,0,0,0c-0.1,0-0.3-0.1-0.4-0.1
						c0,0,0,0-0.1,0c-0.1,0-0.2,0-0.3-0.1c0,0-0.1,0-0.2,0c-0.1,0-0.3-0.1-0.4-0.1c-0.1,0-0.1,0-0.2,0c-0.1,0-0.2-0.1-0.3-0.1
						c0,0,0,0,0,0c0,0-0.1,0-0.1,0c-0.1,0-0.1,0-0.2-0.1c-0.1,0-0.1,0-0.2,0c0,0,0,0.1-0.1,0.1c0,0,0,0-0.1,0
						c-0.1,0.2-0.2,0.3-0.3,0.5c0,0.1-0.1,0.2-0.1,0.3c0,0,0,0.1,0,0.1c0,0,0,0.1,0.1,0.1c0.1,0.1,0.1,0.1,0.2,0.1c0,0,0.1,0,0.1,0
						c0.1,0,0.2,0.1,0.3,0.1c0,0,0.1,0,0.1,0c0.1,0,0.1,0,0.2,0c0.2,0,0.3,0.1,0.5,0.1c0,0,0.1,0,0.1,0c0.1,0,0.1,0,0.2,0
						c0.4,0.1,0.8,0.2,1.2,0.3c0,0,0,0,0.1,0c0,0,0,0,0,0c0,0,0,0.1-0.1,0.1c0,0,0,0.1-0.1,0.1c0,0-0.1,0-0.1,0
						c0,0.1-0.1,0.1-0.1,0.2c0,0-0.1,0-0.1,0.1c0,0.1-0.1,0.1-0.1,0.2c0,0-0.1,0-0.1,0c0,0,0,0,0,0c-0.1,0-0.1,0-0.2,0
						c0,0-0.1,0-0.1,0c0,0,0,0,0,0.1c0,0,0.1,0.1,0.1,0.1c0,0-0.1,0-0.1,0c0,0,0,0,0,0c-0.1,0-0.1,0-0.2,0.1c0,0-0.1,0-0.1,0
						c0,0,0,0.1-0.1,0.1c0,0-0.1,0-0.1,0c0,0.1-0.1,0.1-0.1,0.2c-0.1,0-0.1,0-0.2,0c0,0,0,0,0,0c0,0,0,0,0,0c-0.1,0-0.2-0.1-0.3,0
						c0,0,0,0,0,0c0,0,0,0-0.1,0c0,0-0.1,0.1-0.1,0.1c0,0-0.1,0-0.1,0c0,0,0,0,0,0c0,0-0.1,0-0.1,0c0,0,0,0,0,0.1c0,0-0.1,0-0.1,0
						c0,0,0,0-0.1,0c0,0-0.1,0-0.1,0c0,0,0,0-0.1,0c-0.1,0-0.1,0-0.2-0.1c0,0-0.1,0-0.1,0.1c-0.1,0-0.1-0.1-0.2-0.1c0,0,0,0,0,0.1
						c-0.1,0-0.1,0-0.2-0.1c-0.1,0.1-0.2,0-0.3,0c0,0,0,0,0,0c-0.1,0-0.2-0.1-0.2-0.1c0,0,0,0,0,0c-0.1,0-0.1-0.1-0.2-0.1
						c0,0,0,0-0.1,0c0,0-0.1,0-0.1,0c0,0-0.1,0.1-0.1,0.1c0,0.1-0.1,0.2-0.1,0.2c0,0.1-0.1,0.1-0.1,0.1c0,0.1-0.1,0.1-0.1,0.2
						c0,0.1-0.1,0.2-0.1,0.2c0,0.1-0.1,0.1-0.1,0.2c0,0,0,0,0,0c0,0,0,0,0,0c0,0,0,0,0,0c0,0,0,0,0,0c0,0,0,0.1,0,0.1
						c0.1,0.1,0.2,0.1,0.3,0.2c0,0,0,0,0,0c0,0,0,0,0,0c0.1,0,0.1,0.1,0.2,0.1c0,0,0,0,0.1,0c0,0,0.1,0,0.1,0.1c0,0,0,0,0.1,0
						c0.1,0,0.1,0,0.2,0.1c0,0,0,0,0,0c0.1,0,0.2,0.1,0.3,0.1c0,0,0,0,0-0.1c0.1,0,0.1,0.1,0.2,0.1c0,0,0.1,0,0.1,0
						c0.1,0,0.2,0,0.2,0.1c0.1-0.1,0.2,0,0.3,0.1c0,0,0,0,0.1,0c0.1,0,0.2,0.1,0.3,0.1c0,0,0.1,0,0.1,0
						C367.4,161.8,367.5,161.9,367.6,161.8C367.6,161.8,367.6,161.8,367.6,161.8z M374.8,163.1C374.8,163,374.8,163.1,374.8,163.1
						c0.1,0,0.1,0,0.2,0c0,0,0.1,0,0.1,0c0,0,0.1,0,0.1,0c0,0,0,0,0,0c0,0,0,0,0-0.1c0,0,0.1,0,0.1,0c0,0,0.1,0,0.1,0
						c0,0,0.1,0,0.1,0c0,0,0,0,0,0c0,0,0,0,0.1,0c0,0,0,0,0.1-0.1c0,0,0,0,0.1,0c0,0,0,0,0,0c0,0,0.1,0,0.1,0c0,0,0,0,0,0
						c0,0,0,0,0,0c0,0,0.1,0,0.1-0.1c0,0,0.1-0.1,0.1-0.1c0,0,0,0,0.1,0c0,0,0-0.1,0.1-0.1c0,0,0,0,0.1,0c0.1-0.1,0.1-0.1,0.1-0.2
						c0,0,0,0,0,0c0.1-0.1,0.1-0.2,0.1-0.3c0,0,0-0.1,0-0.1c0-0.1,0-0.1,0.1-0.2c0,0,0,0,0,0c0,0,0-0.1,0-0.1c0,0,0-0.1,0-0.1
						c0,0,0,0,0,0c0,0,0-0.1,0-0.1c0,0,0,0,0,0c0,0,0,0,0-0.1c0,0,0,0,0,0c0,0,0,0,0-0.1c0,0,0,0,0,0c0-0.1,0-0.1-0.1-0.2
						c0,0,0,0,0,0c0,0,0,0,0,0c0,0,0,0,0-0.1c0,0,0,0,0,0c0,0,0,0,0-0.1c0,0-0.1,0-0.1-0.1c0,0,0-0.1-0.1-0.1c0,0,0,0,0,0
						c0,0,0,0,0-0.1c0,0,0,0,0,0c0,0,0,0,0-0.1c-0.1,0-0.1-0.1-0.1-0.1c0,0,0,0,0,0c0,0-0.1,0-0.1-0.1c0,0,0-0.1,0-0.1
						c-0.1,0-0.1-0.1-0.1-0.1c0,0-0.1,0-0.1,0c0,0,0,0,0,0c0,0-0.1,0-0.1-0.1c0,0,0,0,0,0c0,0-0.1-0.1-0.1-0.1c0,0,0,0,0,0
						c0,0-0.1,0-0.1,0c0,0,0,0,0-0.1c0,0-0.1,0-0.1,0c0,0,0,0,0,0c0,0-0.1,0-0.1-0.1c0,0,0,0,0,0c-0.1,0-0.2,0-0.2-0.1
						c-0.1,0-0.1-0.1-0.2-0.1c0,0,0,0,0-0.1c-0.1,0-0.1,0-0.2,0c0,0,0,0,0-0.1c-0.1,0-0.1,0-0.2-0.1c-0.1,0-0.2,0-0.2-0.1
						c0,0-0.1,0-0.1,0c0,0,0,0-0.1,0c0,0,0,0.1-0.1,0.1c0,0,0,0-0.1,0c0,0.1-0.1,0.1-0.1,0.2c-0.2,0.4-0.4,0.8-0.6,1.2
						c0,0.1-0.1,0.2-0.2,0.3c0,0,0,0,0-0.1c-0.1,0.2-0.2,0.3-0.2,0.4c-0.2,0.5-0.5,0.9-0.7,1.4c0,0-0.1,0.1-0.1,0.1
						c0,0,0,0.1-0.1,0.1c0,0,0,0,0,0c0,0,0,0,0-0.1c0,0,0,0,0,0c-0.1,0.3-0.3,0.5-0.4,0.8c0,0.1,0,0.1,0,0.2c0,0,0,0,0,0
						c0,0,0,0,0,0.1c0.2,0,0.4,0.1,0.4,0c0,0,0,0,0-0.1c0.1,0,0.2,0,0.3,0c0.1-0.1,0.2,0,0.3,0c0,0,0,0,0.1,0c0.1,0,0.1,0,0.2,0
						c0,0,0,0,0,0c0.1,0,0.1,0,0.2,0c0,0,0.1-0.1,0.1-0.1c0,0,0.1,0,0.1,0c0,0,0,0,0.1,0c0.1,0,0.1,0,0.2,0c0,0,0,0,0.1,0
						c0,0,0,0,0.1,0c0,0,0,0,0,0c0,0,0.1,0,0.1,0c0,0,0,0,0-0.1c0,0,0.1,0,0.1,0c0,0,0,0,0,0c0,0,0.1,0,0.1,0c0,0,0.1,0,0.1,0
						c0,0,0,0,0,0c0,0,0.1,0,0.1,0c0,0,0,0,0,0c0,0,0.1,0,0.1-0.1C374.7,163.1,374.7,163.1,374.8,163.1
						C374.7,163.1,374.8,163.1,374.8,163.1z M362.4,161.1C362.4,161.1,362.4,161.1,362.4,161.1c0.1-0.1,0.1-0.1,0.1-0.1
						c0.4-0.7,0.7-1.4,1.1-2.1c0,0,0-0.1,0-0.1c0,0,0,0.1,0,0.1c0,0,0,0,0,0.1c0,0,0,0,0,0.1c0,0,0,0,0,0.1c0.2-0.4,0.4-0.7,0.6-1.1
						c0,0,0,0,0,0.1c0,0,0,0.1,0,0.1c0,0,0,0,0,0.1c0,0,0,0,0,0.1c0.1-0.1,0.1-0.3,0.2-0.4c0.3-0.5,0.5-1,0.8-1.6
						c0.1-0.1,0.1-0.2,0.2-0.4c0-0.1,0-0.1,0.1-0.2c-0.1,0-0.1,0.1-0.1,0.1c0,0,0,0,0,0c0,0,0,0.1-0.1,0.1c0,0,0,0,0,0
						c0,0,0,0.1-0.1,0.1c0,0,0,0-0.1,0c0,0-0.1,0.1-0.1,0.1c0,0,0,0-0.1,0c0,0.1-0.1,0.1-0.1,0.1c0,0,0,0,0,0.1c0,0,0,0,0,0
						c0,0,0,0-0.1,0.1c0,0,0,0-0.1,0c0,0,0,0,0,0.1c0,0,0,0-0.1,0c-0.1,0-0.1,0.1-0.2,0.1c0,0,0,0,0,0c0,0,0,0,0,0.1c0,0,0,0,0,0
						c0,0,0,0,0,0c0,0,0,0-0.1,0c0,0,0,0,0,0c0,0,0,0,0,0c0,0-0.1,0.1-0.1,0.1c0,0-0.1,0-0.1,0c0,0-0.1,0-0.1,0c0,0,0,0-0.1,0
						c0,0.1-0.1,0.1-0.1,0c0,0,0,0,0,0.1c0,0,0,0,0,0c0,0,0,0,0,0c-0.1,0-0.1,0.1-0.2,0c0,0-0.1,0-0.1,0c0,0-0.1,0-0.1,0.1
						c0,0,0,0-0.1,0c0,0-0.1,0-0.1,0c0,0-0.1,0-0.1,0c0,0,0,0-0.1,0.1c0,0,0,0-0.1,0c0,0,0,0-0.1,0c0,0-0.1,0.1-0.1,0.1
						c0,0,0,0.1-0.1,0.1c0,0,0,0.1,0,0.1c0,0,0,0,0,0c0,0,0,0.1,0,0.1c0,0,0,0.1,0,0.1c0.1,0,0,0.1,0,0.1c0,0,0,0,0,0
						c0,0.1,0,0.2,0,0.2c0,0,0,0,0,0c0,0,0,0.1,0,0.1c0,0,0,0,0,0c0,0,0,0.1,0,0.1c0,0,0,0,0,0c0,0,0,0.1,0,0.1c0,0,0,0,0,0
						c0,0.1,0,0.1,0,0.2c0,0,0,0,0,0.1c0,0,0,0,0,0c0,0.1,0,0.1,0,0.2c0,0,0,0.1,0,0.1c0,0,0,0,0,0c0,0,0,0.1,0,0.1c0,0,0,0.1,0,0.1
						c0,0,0,0.1,0,0.1c0,0,0,0,0,0.1c0,0,0,0.1,0,0.1c0,0,0,0,0,0c0,0,0,0.1-0.1,0.1c0,0,0,0,0,0.1c0,0.1,0,0.1-0.1,0.2c0,0,0,0,0,0
						c0,0.1,0,0.1-0.1,0.2c0,0,0,0,0.1,0c0,0.1-0.1,0.1-0.1,0.2c0,0,0,0,0,0.1c0,0.1-0.1,0.2-0.1,0.2c0,0,0,0,0,0
						c0,0.1-0.1,0.2-0.1,0.3c0,0,0.1,0,0.1,0c0,0,0,0,0,0c0.1,0,0.1,0,0.1,0c0,0,0,0,0,0C362.2,161.2,362.3,161.2,362.4,161.1
						C362.3,161.1,362.3,161.1,362.4,161.1C362.3,161.1,362.4,161.1,362.4,161.1z M371.6,162.6c-0.1,0.2-0.2,0.3-0.3,0.5
						c-0.1,0.2-0.2,0.3-0.3,0.5c0,0,0,0,0,0c0,0,0.1,0,0.1,0c0.1-0.2,0.2-0.4,0.3-0.6c0-0.1,0.1-0.2,0.1-0.2
						C371.6,162.7,371.6,162.6,371.6,162.6z M365.9,154.3C365.9,154.3,365.9,154.3,365.9,154.3C365.9,154.3,365.9,154.3,365.9,154.3
						C365.9,154.3,365.9,154.3,365.9,154.3C365.9,154.3,365.9,154.3,365.9,154.3z"/>
					<path class="st6" d="M344,151.6C344,151.6,344,151.6,344,151.6c-0.2,0-0.3-0.1-0.4-0.2c-0.1,0-0.1,0-0.2,0
						c-0.1-0.1-0.1-0.1-0.2-0.2c0,0,0,0,0,0c0,0-0.1,0-0.1,0c-0.1-0.1-0.2-0.1-0.2-0.2c0,0,0,0,0,0c-0.1,0-0.1-0.1-0.2-0.1
						c0,0,0,0,0,0.1c0,0,0,0-0.1,0c0,0,0,0,0,0c0,0,0,0,0,0c0,0-0.1,0.1-0.1,0.1c-0.2,0.3-0.3,0.6-0.5,0.9c0,0,0,0-0.1,0
						c0,0,0,0,0-0.1c0,0,0,0,0,0c0,0.1-0.1,0.1-0.1,0.2c-0.1,0-0.1,0.1-0.1,0.1c0,0-0.1,0-0.1,0c0,0-0.1,0-0.1,0.1
						c0,0.1-0.1,0.1-0.1,0.2c0,0,0,0-0.1,0c0,0.1-0.1,0.1-0.1,0.2c0,0-0.1,0-0.1,0.1c0,0,0,0,0,0c0,0,0,0-0.1,0.1c0,0,0,0-0.1,0
						c0,0-0.1,0-0.1,0.1c0,0,0,0,0,0.1c0,0-0.1,0-0.1,0c-0.1,0.1-0.1,0.1-0.2,0.2c0,0.1-0.1,0.1-0.1,0.1c-0.1,0,0-0.1-0.1-0.1
						c0,0.1-0.1,0.1-0.1,0.2c0,0,0,0,0,0c0,0-0.1,0.1-0.1,0.1c0,0,0,0-0.1,0.1c0,0-0.1,0.1-0.1,0.1c0,0-0.1,0-0.1,0c0,0,0-0.1,0-0.1
						c0.1-0.2,0.2-0.3,0.2-0.5c0,0,0,0,0-0.1c0,0,0,0,0,0c0,0,0,0,0,0c0.4-0.7,0.7-1.4,1.1-2.1c0.1-0.3,0.3-0.5,0.4-0.8
						c0,0,0,0.1-0.1,0.1c0,0,0,0,0,0c0,0,0-0.1,0-0.1c0.3-0.5,0.5-0.9,0.7-1.4c0.2-0.4,0.4-0.9,0.6-1.3c0-0.1,0.1-0.2,0.1-0.3
						c0,0,0,0-0.1,0.1c0,0,0,0,0,0c0.1-0.1,0.1-0.2,0.2-0.3c0.1-0.2,0.2-0.4,0.3-0.6c0.1-0.2,0.2-0.4,0.2-0.5c0,0,0,0,0,0
						c0-0.1,0-0.1,0.1-0.2c0,0,0,0,0-0.1c0.1-0.2,0.2-0.4,0.3-0.6c0-0.1,0-0.1,0-0.2c0-0.1,0.1-0.1,0.1-0.2c0-0.1,0.1-0.2,0.1-0.3
						c0,0,0,0,0,0c0,0,0-0.1,0-0.1c0-0.1,0.1-0.1,0.1-0.2c0,0,0,0,0-0.1c0,0,0-0.1,0.1-0.1c0,0,0,0,0,0c0,0,0,0,0.1,0
						c0,0,0.1,0.1,0.2,0.1c0,0,0.1,0,0.1,0.1c0,0,0.1,0,0.1,0.1c0,0,0.1,0,0.1,0.1c0.1,0.1,0.2,0.2,0.4,0.3c0,0.1,0.1,0.1,0.2,0.2
						c0,0,0,0,0,0.1c0,0,0.1,0,0.1,0.1c0,0.1,0,0.1,0.1,0.1c0,0,0,0,0,0.1c0,0,0,0,0.1,0.1c0,0,0,0,0,0c0,0.1,0,0.1,0.1,0.1
						c0,0,0,0,0,0c0,0,0,0,0,0c0,0,0,0,0,0c0,0,0,0,0.1,0.1c0,0,0,0,0,0.1c0,0,0,0,0,0.1c0,0,0,0.1,0,0.1c0,0,0,0,0,0
						c0,0,0,0.1,0,0.1c0,0,0,0,0,0c0,0.1,0,0.1-0.1,0.2c0,0,0,0.1,0,0.1c0,0.1-0.1,0.2-0.1,0.3c0,0,0,0.1,0,0.1c0,0.1,0,0.1-0.1,0.2
						c0,0,0,0.1-0.1,0.2c0,0,0,0.1-0.1,0.1c0,0-0.1,0.1-0.1,0.1c0,0.1-0.1,0.1-0.1,0.2c-0.2,0.3-0.4,0.7-0.5,1
						c0,0.1-0.1,0.1-0.1,0.2c0,0,0,0,0,0c0,0,0,0,0,0c-0.2,0.2-0.3,0.5-0.4,0.8c0,0,0,0.1-0.1,0.1c0,0,0,0.1,0,0.1c0,0,0,0,0,0
						c0,0,0,0,0,0.1c0,0,0,0,0,0.1c0,0,0,0,0,0.1c0,0.1,0,0.1,0,0.1c0.1,0.1,0.1,0.1,0.2,0.2c0,0,0,0,0.1,0c0.4,0.3,0.8,0.7,1.1,1
						c0,0,0.1-0.1,0.1,0c0,0,0,0,0,0c0,0,0,0,0.1,0c0,0,0-0.1,0.1-0.1c0.4-0.8,0.8-1.5,1.2-2.1c0-0.1,0.1-0.2,0.2-0.2c0,0,0,0,0,0
						c0.2-0.2,0.3-0.5,0.4-0.8c0,0,0-0.1,0.1-0.1c0,0,0,0,0,0c0.1-0.1,0.2-0.3,0.2-0.4c0,0,0,0,0,0c0,0,0,0,0.1-0.1c0,0,0,0,0,0
						c0,0,0,0,0,0c0.1,0,0.1,0.1,0.2,0.1c0,0,0,0,0,0c0.1,0,0.1,0.1,0.2,0.1c0.1,0,0.1,0.1,0.2,0.1c0,0,0,0,0,0
						c0.1,0,0.1,0.1,0.2,0.1c0.1,0,0.1,0.1,0.2,0.2c0,0,0,0,0,0c0.1,0.1,0.2,0.2,0.3,0.3c0,0,0,0,0,0.1c0,0,0.1,0.1,0.1,0.1
						c0,0,0,0,0,0.1c0,0,0.1,0,0.1,0.1c0,0,0,0,0,0c0,0,0,0,0,0c0,0,0,0,0,0c0,0,0,0,0,0.1c0,0,0,0,0,0.1c0,0,0,0,0,0
						c0,0,0,0.1,0,0.1c0,0,0,0,0,0c0,0.1,0,0.1-0.1,0.2c0,0,0,0.1,0,0.1c0,0.1-0.1,0.1-0.1,0.2c0,0,0,0.1-0.1,0.1
						c0,0-0.1,0.1-0.1,0.1c-0.1,0.1-0.1,0.3-0.2,0.4c0,0,0,0,0,0c-0.1,0.1-0.1,0.1-0.1,0.3c0,0,0,0,0,0c0,0,0-0.1,0.1-0.1
						c0,0,0.1,0,0.1,0c0,0,0-0.1,0-0.1c0,0,0,0,0.1-0.1c0,0,0,0,0,0c0,0,0.1-0.1,0.1-0.1c0.1,0,0.1-0.1,0.1-0.1c0,0,0,0,0.1,0
						c0,0,0-0.1,0.1-0.1c0,0,0,0,0,0c0,0,0.1-0.1,0.1-0.1c0,0,0,0,0,0c0,0,0,0,0-0.1c0,0,0,0,0.1,0c0,0,0,0,0.1-0.1c0,0,0,0,0.1,0
						c0,0,0,0,0.1-0.1c0,0,0,0,0,0c0,0,0,0,0-0.1c0,0,0.1,0,0.1-0.1c0,0,0,0,0,0c0,0,0,0,0,0c0,0,0,0,0.1,0c0,0,0,0,0,0
						c0,0,0.1-0.1,0.1,0c0,0,0.1,0,0.1,0c0,0,0,0,0,0c0,0,0,0,0.1,0c0.1,0.1,0.2,0.1,0.3,0.2c0,0,0,0,0,0.1c0,0,0.1,0.1,0.1,0.1
						c0,0,0,0,0,0c0,0,0,0,0.1,0c0,0,0,0,0,0.1c0,0,0.1,0,0.1,0.1c0,0,0,0.1,0,0.1c0,0,0,0,0,0c0,0,0,0,0,0c0,0,0,0.1,0,0.1
						c0,0,0,0,0,0c0,0,0,0.1,0,0.1c0.1,0,0.1-0.1,0.1-0.1c0-0.1,0.1,0,0.1-0.1c0.1,0,0.1,0,0.2,0.1c0,0,0,0,0.1,0
						c0.2,0.1,0.3,0.1,0.5,0.2c0,0.1,0.1,0.1,0.1,0.1c0.1,0,0.1,0,0.1,0.1c0,0,0,0,0,0.1c0,0,0.1,0,0.1,0c0,0,0,0,0,0.1
						c0,0,0.1,0,0.1,0c0,0,0,0,0,0.1c0,0,0.1,0,0.1,0.1c0,0,0,0,0,0c0,0,0,0,0.1,0.1c0,0,0,0,0,0c0,0,0,0,0,0c0,0,0,0,0,0
						c0,0,0.1,0,0.1,0.1c0,0,0,0,0,0c0,0,0,0,0,0c0,0,0,0,0,0c0,0,0,0.1,0.1,0.1c0,0,0,0,0,0c0,0,0.1,0.1,0,0.1c0,0,0,0,0,0
						c0.1,0.1,0.1,0.1,0,0.2c0,0,0,0.1,0,0.1c0,0,0,0,0,0c0,0,0,0,0,0c0,0,0,0,0,0c0,0,0,0,0.1,0c0,0,0,0.1,0,0.1c0,0,0,0.1,0,0.2
						c0,0,0,0.1,0,0.1c0,0.1,0,0.1,0,0.2c0,0,0,0,0.1,0c0,0.1,0,0.1-0.1,0.2c0,0,0,0,0,0.1c0,0.1-0.1,0.1-0.1,0.2c0,0,0,0,0,0.1
						c0,0.1-0.1,0.2-0.1,0.3c0,0,0,0,0,0c0,0.1-0.1,0.2-0.2,0.4c-0.1,0.2-0.2,0.4-0.3,0.5c-0.1,0.1-0.1,0.2-0.2,0.3c0,0,0,0,0,0
						c-0.1,0.1-0.2,0.3-0.2,0.4c0,0,0,0-0.1,0c0,0.1-0.1,0.2-0.1,0.2c0,0,0,0-0.1,0c0,0.1-0.1,0.1-0.1,0.2c0,0,0,0,0,0
						c-0.1,0.1-0.1,0.2-0.2,0.2c0,0,0,0,0,0c-0.1,0-0.1,0.1-0.1,0.1c0,0,0,0-0.1,0c0,0,0,0.1,0,0.1c-0.1,0-0.1,0.1-0.1,0.1
						c0,0,0,0-0.1,0c0,0,0,0.1-0.1,0.1c-0.1,0-0.1,0.1-0.1,0.1c0,0-0.1,0-0.1,0.1c0,0,0,0,0,0c0,0,0,0.1-0.1,0.1c0,0,0,0-0.1,0
						c0,0,0,0,0,0.1c0,0,0,0,0,0c-0.1,0.1-0.2,0-0.2,0.1c0,0,0,0-0.1,0c0,0,0,0,0,0.1c-0.1,0-0.1,0-0.2,0.1c0,0,0,0,0,0c0,0,0,0,0,0
						c0,0,0,0-0.1,0c-0.1,0-0.1,0-0.2,0c0,0,0,0,0,0c0,0-0.1,0-0.1,0c0,0,0,0,0,0c0,0-0.1,0-0.1,0c0,0-0.1,0-0.1,0c0,0,0,0,0,0
						c-0.1,0-0.2-0.1-0.2-0.1c0,0,0,0,0,0c-0.1,0-0.6-0.3-0.7-0.4c0,0,0,0,0,0c0-0.1-0.1-0.1-0.2-0.2c0-0.1-0.1-0.1-0.1-0.2
						c0-0.1,0-0.1-0.1-0.1c0,0,0,0,0-0.1c0,0-0.1-0.1-0.1-0.1c0,0,0,0,0-0.1c0,0,0,0,0,0c0,0,0,0,0,0c0,0,0-0.1-0.1-0.1c0,0,0,0,0,0
						c0,0,0,0-0.1-0.1c0,0,0,0,0-0.1c0,0,0,0,0-0.1c0,0,0,0,0,0c0,0,0,0,0-0.1c0,0,0,0,0-0.1c0,0,0,0,0,0c0,0,0,0,0-0.1c0,0,0,0,0,0
						c0,0,0-0.1,0-0.1c0,0,0-0.1,0-0.1c0,0,0,0,0-0.1c0,0,0,0,0,0c0,0,0,0,0-0.1c0,0,0,0,0,0c0,0,0-0.1,0-0.1c0,0,0,0,0,0
						c0,0,0-0.1,0-0.1c0-0.1,0-0.1,0-0.2c0,0,0,0,0,0c0,0,0-0.1,0-0.1c0,0,0,0,0-0.1c0,0,0-0.1,0-0.2c0,0,0-0.1,0-0.1c0,0,0,0,0,0
						c0-0.1,0-0.1,0-0.2c0,0,0-0.1,0-0.1c0,0,0,0,0-0.1c0,0,0-0.1,0-0.1c0,0,0,0,0-0.1c0,0,0-0.1,0.1-0.1c0,0,0,0,0-0.1
						c0,0,0-0.1,0.1-0.2c0,0,0,0,0-0.1c0-0.1,0.1-0.1,0.1-0.2c0,0,0-0.1,0-0.1c0-0.1,0.1-0.1,0.1-0.2c0,0,0,0,0-0.1
						c0.1-0.1,0.1-0.3,0.2-0.4c0,0,0,0,0,0c-0.1,0-0.1,0.1-0.1,0.1c-0.1,0.1-0.1,0.2-0.2,0.3c0,0.1-0.1,0.2-0.1,0.3
						c-0.1,0-0.1,0.1-0.1,0.1c-0.1,0.1-0.1,0.2-0.2,0.3c-0.1,0.1-0.1,0.2-0.2,0.3c0,0,0,0,0,0c0,0,0,0,0,0c-0.2,0.3-0.3,0.6-0.5,0.9
						c-0.1,0.1-0.2,0.2-0.2,0.4c0,0,0,0,0,0c0,0,0,0,0,0c-0.1,0.1-0.2,0.3-0.2,0.4c-0.2,0.4-0.5,0.9-0.8,1.3c0,0.1-0.1,0.1-0.2,0.1
						c0,0,0,0-0.1,0c0,0-0.1,0.1-0.1,0.2c0,0,0,0,0,0c-0.1,0-0.1,0.2-0.2,0.2c0,0-0.1-0.1-0.1-0.1c0,0-0.1,0.1-0.1,0.1
						c0,0,0,0-0.1,0c-0.1,0.1-0.1,0.2-0.2,0.3c0,0-0.1,0-0.1,0.1c0,0,0,0.1-0.1,0.1c0,0,0,0.1-0.1,0.1c0,0,0,0,0,0c0,0,0,0-0.1,0
						c0,0,0-0.1,0-0.1c0,0,0,0,0,0c0,0.1-0.1,0-0.2,0.1c0,0-0.1,0-0.1-0.1c0,0,0,0,0,0c0,0,0,0,0,0c-0.1,0-0.1,0.1-0.1,0.2
						c-0.1,0-0.1,0-0.1-0.1c0,0,0-0.1,0-0.1c0,0,0-0.1,0.1-0.1c0,0,0,0,0-0.1c0-0.1,0.1-0.2,0.1-0.2c0,0,0,0,0,0
						c0-0.1,0.1-0.2,0.1-0.3c0,0,0,0,0,0c0-0.1,0.1-0.2,0.1-0.3c0-0.1,0-0.1,0-0.2c0-0.1,0.1-0.1,0.1-0.2c0,0,0,0,0-0.1
						c0.1-0.2,0.2-0.3,0.2-0.5c0,0,0,0,0-0.1c0.1-0.2,0.2-0.3,0.3-0.5c0-0.1,0-0.1,0-0.2c0.1-0.1,0.1-0.2,0.2-0.3c0,0,0-0.1,0-0.2
						c0-0.1,0.1-0.1,0.1-0.2c0,0-0.1-0.1-0.1-0.1c0,0,0,0,0,0c0,0-0.1,0-0.1-0.1c-0.1-0.1-0.2-0.2-0.3-0.3
						C344.1,151.6,344.1,151.6,344,151.6z M351.6,149.6c-0.1,0-0.1-0.1-0.2-0.1c0,0.1-0.1,0.1-0.1,0.2c0,0,0,0,0,0
						c0,0-0.1,0-0.1,0.1c0,0,0,0,0,0c0,0,0,0,0,0c0,0-0.1,0-0.1,0c0,0,0,0.1-0.1,0.1c0,0,0,0,0,0c0,0,0,0.1-0.1,0.1c0,0,0,0,0,0
						c0,0.1,0,0.1-0.1,0.1c0,0,0,0,0,0c0,0,0,0-0.1,0.1c0,0,0,0,0,0c0,0-0.1,0.1-0.1,0.1c0,0-0.1,0-0.1,0c0,0,0,0.1-0.1,0.1
						c0,0,0,0,0,0c0,0.1-0.1,0.1-0.1,0.2c0,0,0,0,0,0c0,0-0.1,0.1-0.1,0.1c-0.1,0.1-0.1,0.3-0.2,0.4c-0.1,0.1-0.1,0.3-0.2,0.4
						c0,0.1-0.1,0.2-0.1,0.2c0,0.1,0,0.1-0.1,0.1c0,0,0,0,0,0c0,0.1-0.1,0.2-0.1,0.2c0,0,0,0,0,0.1c0,0.1-0.1,0.1-0.1,0.2
						c0,0,0,0,0,0.1c0,0,0,0.1-0.1,0.1c0,0,0,0,0,0c0,0,0,0.1,0,0.1c0,0,0,0,0,0.1c0,0,0,0.1,0,0.1c0,0,0,0,0,0c0,0,0,0.1,0,0.1
						c0,0,0,0,0,0c0,0,0,0,0,0.1c0,0,0,0,0,0c0,0.1,0,0.1,0,0.2c0,0,0,0,0,0c0,0,0,0,0,0c0,0,0,0.1,0,0.1c0,0,0.1,0.1,0.1,0.1
						c0,0,0.1,0,0.1,0.1c0,0,0.1,0,0.1,0c0,0,0,0,0,0c0,0,0,0,0,0c0,0,0.1,0,0.1-0.1c0,0,0,0,0.1,0c0,0,0,0,0,0c0,0,0,0,0,0
						c0,0,0.1-0.1,0.1-0.1c0,0,0,0,0,0c0-0.1,0-0.1,0.1-0.1c0,0,0,0,0-0.1c0,0,0,0,0,0c0,0,0.1,0,0.1,0c0-0.1,0.1-0.1,0.1-0.1
						c0,0,0.1-0.1,0.1-0.1c0,0,0.1,0,0.1,0c0-0.1,0.1-0.1,0.1-0.2c0,0,0,0,0.1,0c0.1-0.1,0.1-0.2,0.2-0.3c0,0,0,0,0.1,0
						c0,0,0-0.1,0.1-0.1c0.1-0.3,0.3-0.5,0.4-0.8c0,0,0-0.1,0-0.1c0,0,0,0,0,0c0,0,0-0.1,0-0.1c0-0.1,0.1-0.1,0.1-0.2
						c0,0,0-0.1,0-0.1c0,0,0-0.1,0-0.1c0,0,0-0.1,0-0.1c0,0,0,0,0,0c0,0,0-0.1,0-0.1c0-0.1,0-0.1,0-0.2c0,0,0,0,0,0c0,0,0-0.1,0-0.1
						c0-0.1,0-0.1,0-0.1c0,0,0,0,0,0c0,0,0,0,0,0c0,0,0,0,0,0c0,0,0,0-0.1,0c0,0,0,0,0-0.1c0,0,0,0,0,0c0,0,0,0,0,0
						c0,0-0.1,0-0.1-0.1c0,0,0,0,0,0c0,0,0,0,0,0C351.7,149.7,351.7,149.6,351.6,149.6C351.6,149.6,351.6,149.6,351.6,149.6z
						 M351.5,149.4C351.5,149.4,351.5,149.4,351.5,149.4C351.5,149.4,351.5,149.4,351.5,149.4C351.5,149.4,351.5,149.4,351.5,149.4z
						"/>
					<path class="st6" d="M352.7,153.5C352.7,153.5,352.7,153.4,352.7,153.5c0-0.1,0-0.2,0.1-0.3c0.1-0.2,0.2-0.4,0.3-0.6
						c0,0,0.1-0.1,0.1-0.1c0,0,0,0,0,0c0.1-0.1,0.1-0.3,0.2-0.4c0.1,0,0.1-0.1,0.1-0.1c0-0.1,0.1-0.1,0.1-0.2c0,0,0,0,0.1,0
						c0,0,0.1-0.1,0.1-0.2c0,0,0,0,0.1,0c0-0.1,0.1-0.1,0.1-0.2c0,0,0,0,0.1,0c0-0.1,0.1-0.1,0.1-0.2c0,0,0,0,0.1,0
						c0,0,0.1-0.1,0.1-0.1c0,0,0,0,0,0c0,0,0.1-0.1,0.1-0.1c0,0,0,0,0.1,0c0,0,0-0.1,0.1-0.1c0,0,0.1,0,0.1,0c0,0,0-0.1,0.1-0.1
						c0,0,0,0,0.1,0c0,0,0.1-0.1,0.1-0.1c0,0,0,0,0,0c0,0,0.1-0.1,0.1-0.1c0,0,0,0,0,0c0,0,0.1,0,0.1-0.1c0,0,0,0,0.1,0
						c0,0,0,0,0-0.1c0,0,0,0,0.1,0c0.1-0.1,0.1-0.1,0.2-0.2c0,0,0.1,0,0.1,0c0,0,0.1,0,0.1,0c0,0,0.1,0,0.1,0c0.1,0,0.2,0.1,0.3,0.1
						c0,0.1,0.1,0.1,0.1,0.1c0,0,0,0,0,0.1c0,0,0.1,0,0.1,0.1c0,0.1,0,0.1,0.1,0.1c0,0,0,0,0,0c0,0,0,0,0,0c0,0,0,0.1,0.1,0.1
						c0,0,0,0.1,0.1,0.1c0,0,0,0.1,0,0.1c0,0,0,0.1,0,0.1c0,0,0,0.1,0,0.1c0.1,0,0.1-0.1,0.1-0.1c0.1,0,0.1-0.1,0.2,0c0,0,0,0,0,0
						c0.1,0,0.1,0.1,0.2,0c0.1,0,0.1,0,0.2,0.1c0.1,0,0.1,0,0.2,0.1c0.1,0,0.1,0,0.2,0.1c0,0,0,0,0,0.1c0.1,0,0.2,0,0.2,0.1
						c0,0,0,0,0,0.1c0,0,0.1,0,0.1,0.1c0,0,0,0,0,0c0,0,0.1,0,0.1,0.1c0,0,0,0,0,0.1c0,0,0.1,0,0.1,0.1c0,0,0.1,0,0,0.1
						c0,0,0.1,0,0.1,0.1c0,0.1,0.1,0.1,0.1,0.2c0,0,0,0,0,0c0,0,0,0,0.1,0c0,0,0,0,0,0.1c0,0,0,0,0,0c0,0,0,0,0,0.1c0,0,0,0,0,0
						c0,0,0,0,0,0c0,0,0,0,0,0c0,0,0,0,0,0.1c0,0,0,0,0.1,0c0,0.1,0,0.1,0,0.2c0,0,0,0,0,0c0,0,0,0.1,0,0.1c0,0,0,0,0,0
						c0,0,0,0.1,0,0.1c0,0,0,0,0.1,0c0,0,0,0.1-0.1,0.1c0,0,0,0,0,0c0,0,0,0.1,0,0.1c0,0,0,0,0,0c0,0.1-0.1,0.1-0.1,0.2c0,0,0,0,0,0
						c0,0.1-0.1,0.2-0.1,0.3c0,0,0,0,0.1,0c-0.1,0.2-0.2,0.4-0.3,0.6c0,0,0,0,0,0c-0.1,0.2-0.2,0.4-0.3,0.5c0,0,0,0,0,0
						c-0.1,0.2-0.2,0.5-0.4,0.7c0,0,0,0-0.1,0c0,0.1-0.1,0.1-0.1,0.2c0,0.1-0.1,0.1-0.2,0.2c0,0.1-0.1,0.1-0.1,0.2c0,0,0,0-0.1,0
						c0,0,0,0,0,0c0,0,0,0.1-0.1,0.1c0,0,0,0.1-0.1,0.1c0,0,0,0-0.1,0.1c0,0,0,0.1-0.1,0.1c0,0,0,0-0.1,0c0,0-0.1,0.1-0.1,0.1
						c0,0,0,0,0,0c0,0-0.1,0.1-0.1,0.1c0,0-0.1,0.1-0.1,0.1c0,0,0,0,0,0c0,0,0,0.1-0.1,0.1c0,0-0.1,0-0.1,0c0,0.1-0.1,0.1-0.2,0.1
						c0,0,0,0,0,0c-0.1,0-0.1,0.1-0.2,0.1c0,0,0,0.1-0.1,0.1c0,0,0,0,0,0c0,0-0.1,0-0.1,0.1c0,0,0,0,0,0c0,0,0,0-0.1,0
						c0,0,0,0-0.1,0.1c0,0-0.1,0-0.1,0c0,0,0,0-0.1,0c0,0,0,0,0,0c-0.1,0-0.1,0-0.1,0c0,0-0.1,0-0.1,0.1c-0.1,0-0.1,0-0.1,0.1
						c0,0-0.1,0-0.1,0c0,0,0,0,0,0c0,0-0.1,0-0.1,0c0,0,0,0-0.1,0c-0.1,0-0.1,0-0.2,0c-0.1,0-0.1,0-0.2-0.1c0,0-0.1,0-0.1,0.1
						c0,0-0.1,0-0.1,0c-0.2-0.1-0.4-0.1-0.5-0.2c0,0-0.1,0-0.1-0.1c0,0,0,0,0-0.1c0,0-0.1,0-0.1-0.1c0,0-0.1,0-0.1,0c0,0,0,0,0-0.1
						c0,0,0,0-0.1,0c0,0,0,0,0,0c0,0,0-0.1-0.1-0.1c0,0-0.1,0-0.1-0.1c0,0,0,0-0.1-0.1c0,0,0,0,0-0.1c0,0-0.1,0-0.1-0.1
						c0,0,0-0.1,0-0.1c0,0,0,0,0-0.1c0,0,0,0,0,0c0,0,0,0,0,0c0,0,0,0,0-0.1c0,0,0,0,0,0c0,0,0-0.1,0-0.1c0,0,0,0,0-0.1c0,0,0,0,0,0
						c0,0,0,0,0-0.1c0,0,0,0,0,0c0,0,0,0,0-0.1c0,0,0,0,0,0c0,0,0-0.1,0-0.1c0,0,0,0,0,0c0,0,0-0.1,0-0.1c0,0,0,0,0,0c0,0,0,0,0-0.1
						c0,0,0,0,0,0c0,0,0,0,0-0.1c0,0,0,0,0,0c0,0,0-0.1,0-0.1c0,0,0-0.1,0-0.1c0,0,0-0.1,0-0.1c0,0,0,0,0,0c0,0,0-0.1,0-0.1
						c0,0,0,0,0,0c0,0,0-0.1,0-0.1c0,0,0-0.1,0-0.1c0-0.1,0-0.1,0-0.2c0,0,0,0,0-0.1c0-0.1,0-0.1,0-0.1c0-0.1,0-0.1,0.1-0.2
						c0,0,0-0.1,0-0.1c0,0,0-0.1,0.1-0.1c0-0.1,0-0.2,0.1-0.3c0,0,0,0,0,0C352.6,153.7,352.7,153.6,352.7,153.5z M356.5,151.3
						c-0.1,0.1-0.1,0.1-0.1,0.2c0,0-0.1,0-0.1,0c0,0-0.1,0.1-0.1,0.1c0,0,0,0-0.1,0c0,0,0,0.1-0.1,0.1c0,0,0,0-0.1,0
						c0,0-0.1,0.1-0.1,0.1c0,0,0,0-0.1,0c0,0,0,0.1-0.1,0.1c0,0,0,0-0.1,0c0,0,0,0.1-0.1,0.1c0,0,0,0,0,0c0,0,0,0.1-0.1,0.1
						c0,0,0,0-0.1,0c0,0.1-0.1,0.1-0.1,0.2c0,0,0,0-0.1,0c-0.1,0.1-0.1,0.2-0.2,0.4c0,0,0,0,0,0c-0.1,0.1-0.1,0.2-0.2,0.2
						c-0.1,0.2-0.2,0.5-0.3,0.7c0,0,0,0,0,0c-0.1,0.1-0.1,0.3-0.2,0.4c0,0,0,0,0,0c0,0.1-0.1,0.1-0.1,0.2c0,0,0,0.1,0,0.1
						c0,0,0,0.1,0,0.1c0,0,0,0,0,0c0,0,0,0.1,0,0.1c0,0,0,0,0,0c0,0,0,0.1,0,0.1c0,0,0,0,0,0c0,0,0,0.1,0,0.1c0,0,0,0,0,0
						c-0.1,0.1,0,0.1,0,0.2c0,0,0,0,0,0c0,0,0,0,0,0c0,0,0,0,0,0.1c0,0,0,0,0,0c0,0,0.1,0,0.1,0.1c0,0,0,0,0,0.1
						c0.1,0,0.2,0.1,0.2,0.1c0,0,0,0,0,0c0,0,0.1,0,0.1,0c0,0,0,0,0-0.1c0,0,0,0,0.1,0c0,0,0.1,0,0.1-0.1c0,0,0,0,0,0c0,0,0,0,0,0
						c0,0,0.1-0.1,0.1-0.1c0,0,0,0,0.1,0c0,0,0-0.1,0.1-0.1c0,0,0,0,0.1,0c0,0,0.1-0.1,0.1-0.1c0,0,0,0,0.1,0c0,0,0-0.1,0.1-0.1
						c0,0,0,0,0.1,0c0,0,0.1-0.1,0.1-0.2c0,0,0,0,0.1,0c0-0.1,0.1-0.1,0.1-0.2c0,0,0,0,0.1,0c0,0,0,0,0,0c0.1-0.1,0.1-0.2,0.2-0.3
						c0-0.1,0.1-0.1,0.1-0.2c0.1-0.2,0.2-0.3,0.3-0.5c0.1-0.1,0.1-0.2,0.2-0.4c0.1-0.2,0.2-0.4,0.3-0.5c0,0,0,0,0,0
						c0-0.1,0-0.1,0.1-0.2c0,0,0,0,0,0c0-0.1,0-0.1,0.1-0.2c0,0,0,0,0-0.1c0,0,0,0,0-0.1c0,0,0,0,0-0.1c0,0,0-0.1,0-0.1c0,0,0,0,0,0
						c0,0,0-0.1,0-0.1c0,0,0,0,0,0c0,0,0-0.1,0-0.1c0,0,0,0,0-0.1c0,0,0-0.1,0-0.1c0,0-0.1,0-0.1,0c0,0,0,0,0-0.1c0,0-0.1,0-0.1-0.1
						c0,0,0,0,0,0c0,0,0,0,0,0c0,0,0,0-0.1,0c0,0-0.1,0-0.1-0.1C356.7,151.3,356.6,151.3,356.5,151.3
						C356.6,151.3,356.5,151.3,356.5,151.3z M356.6,151.2C356.6,151.2,356.6,151.2,356.6,151.2C356.6,151.1,356.6,151.1,356.6,151.2
						C356.6,151.2,356.6,151.2,356.6,151.2z M357.5,155.5C357.5,155.5,357.5,155.5,357.5,155.5C357.5,155.5,357.5,155.5,357.5,155.5
						C357.5,155.5,357.5,155.5,357.5,155.5C357.5,155.5,357.5,155.5,357.5,155.5z"/>
					<path class="st6" d="M353,157.8c0,0.1,0.1,0.1,0.1,0.1c0.1,0.1,0.3,0.1,0.4,0.2c0,0,0,0,0,0c0.1,0.1,0.3,0.1,0.4,0.2
						c0,0,0,0,0,0c0,0,0,0,0,0c0.1,0,0.1,0.1,0.2,0.1c0,0,0.1,0,0.1,0.1c0.1,0,0.1,0,0.2,0.1c0,0,0.1,0.1,0.1,0.1c0,0,0.1,0,0.1,0
						c0,0,0,0,0,0c0,0,0.1,0,0.1,0.1c0,0,0,0,0,0.1c0,0,0,0,0,0.1c0,0,0,0.1-0.1,0.1c0,0,0,0,0.1,0c0,0,0,0,0,0.1c0,0,0,0,0,0
						c0,0,0,0,0,0.1c-0.1,0-0.2,0-0.2-0.1c0,0,0,0,0,0c-0.1,0-0.2-0.1-0.3-0.1c0,0-0.1,0-0.1-0.1c0,0-0.1-0.1-0.1-0.1
						c-0.1,0-0.1-0.1-0.2-0.1c0,0-0.1,0-0.1-0.1c-0.2-0.1-0.3-0.1-0.5-0.2c0-0.1,0-0.1-0.1-0.1c-0.1,0-0.2-0.1-0.4-0.1
						c-0.1,0-0.1,0-0.2-0.1c0,0,0,0,0,0c0,0,0,0,0,0c0.1,0.1,0.2,0.1,0.4,0.2c0,0,0.1,0,0.1,0.1c0,0,0.1,0.1,0.1,0.1
						c0.1,0,0.1,0.1,0.2,0.1c0,0,0.1,0,0.1,0.1c0.1,0.1,0.3,0.1,0.4,0.2c0,0.1,0,0.1,0.1,0.1c0.1,0,0.1,0,0.2,0.1c0,0,0.1,0,0.1,0.1
						c0,0,0.1,0,0.1,0.1c0.1,0,0.1,0,0.2,0.1c0,0.1,0,0.1,0.1,0.1c0.1,0,0.1,0.1,0.2,0.1c0,0.1,0.1,0.1,0.2,0.1c0,0,0,0.1-0.1,0.1
						c0,0,0,0,0,0.1c-0.1,0.1-0.1,0.2-0.2,0.3c0,0,0,0-0.1,0.1c-0.1,0-0.1,0.1-0.1,0.1c0,0,0,0.1-0.1,0.1c0,0-0.1,0-0.1,0.1
						c0,0,0,0,0-0.1c-0.1,0-0.1,0-0.2-0.1c0-0.1-0.1-0.1-0.2-0.1c-0.1,0-0.2-0.1-0.4-0.1c0-0.1-0.1-0.1-0.1-0.1
						c-0.1,0-0.3-0.1-0.4-0.1c-0.1,0-0.2-0.1-0.3-0.1c0,0,0,0,0,0c-0.1-0.1-0.2-0.1-0.4-0.2c-0.6-0.2-1.1-0.5-1.7-0.7
						c-0.1,0-0.2-0.1-0.3-0.1c0,0,0,0,0,0c0,0,0,0,0,0c0,0,0,0,0,0c0,0-0.1,0-0.1,0c-0.2-0.1-0.4-0.2-0.7-0.3c-0.1,0-0.1,0-0.2-0.1
						c0,0,0,0,0,0c0,0,0,0,0,0c-0.1-0.1-0.2-0.1-0.4-0.2c-0.1,0-0.2-0.1-0.2-0.1c-0.1,0-0.1,0-0.2-0.1c-0.1-0.1-0.2-0.1-0.3-0.2
						c-0.1,0-0.1,0-0.1,0c0,0,0,0-0.1,0c-0.1-0.1-0.2-0.1-0.3-0.2c0,0,0,0-0.1,0.1c-0.1-0.1-0.3-0.1-0.4-0.2c0,0,0,0,0,0
						c-0.1-0.1-0.2-0.1-0.3-0.2c-0.1,0-0.1,0-0.1,0c0,0-0.1,0-0.1-0.1c-0.1,0-0.1-0.1-0.2,0c-0.1,0-0.2-0.1-0.3-0.1c0,0,0,0,0,0
						c-0.1,0-0.2-0.1-0.3-0.1c0,0,0,0,0,0c0,0-0.1,0-0.2-0.1c0,0-0.1,0-0.1,0c-0.1,0-0.1,0-0.2-0.1c0,0,0,0-0.1,0
						c-0.1-0.1-0.3-0.2-0.4-0.3c0,0,0-0.1-0.1-0.2c0,0-0.1-0.1,0-0.2c0,0,0,0,0-0.1c0,0,0,0,0-0.1c0,0,0,0,0,0c0,0,0-0.1,0-0.1
						c0,0,0,0,0,0c0-0.1,0.1-0.1,0.1-0.2c0,0,0,0,0-0.1c0.2-0.3,0.3-0.6,0.5-0.8c0,0,0,0,0.1,0c0,0,0.1-0.1,0.1-0.1
						c0,0,0.1-0.1,0.1-0.1c0,0,0.1-0.1,0.1-0.1c0,0,0,0,0,0c0,0,0,0,0.1-0.1c0,0,0.1,0,0.1,0.1c0,0,0,0,0,0c0,0,0,0,0,0
						c0.1,0,0.1,0.1,0.2,0.1c0,0,0,0,0.1,0c0,0,0.1,0.1,0.1,0.1c0,0,0,0,0.1,0c0.1,0.1,0.2,0.1,0.3,0.2c0,0,0,0,0-0.1
						c0,0,0.1,0,0.1,0.1c0.1,0,0.1,0.1,0.2,0.1c0,0,0,0,0,0c0.1,0.1,0.3,0.2,0.4,0.2c0.1,0,0.1,0,0.1,0c0.2,0.1,0.3,0.2,0.5,0.3
						c0.1,0.1,0.2,0.1,0.3,0.1c0,0,0,0,0,0c0.1,0,0.2,0.1,0.3,0.1c1.1,0.6,2.1,1.2,3.2,1.6c0.1,0,0.2,0.1,0.2,0.1
						c0,0,0.1,0.1,0.2,0.1C352.7,157.7,352.9,157.7,353,157.8z M352.7,158.2c-0.1,0-0.2-0.1-0.3-0.1c-0.1-0.1-0.3-0.1-0.4-0.2
						c0,0,0,0,0,0c0,0,0,0,0,0C352.1,158.1,352.4,158.1,352.7,158.2C352.6,158.2,352.6,158.2,352.7,158.2z M351.1,157.4
						c0.1,0.1,0.2,0.1,0.3,0.2c0.1,0.1,0.2,0.1,0.3,0.1c-0.1-0.1-0.2-0.1-0.3-0.2C351.3,157.5,351.2,157.4,351.1,157.4z"/>
					<polygon class="st7" points="379.6,157.5 379.6,157.5 379.6,157.5 					"/>
					<polygon class="st7" points="366.7,165 366.7,165 366.7,165 366.7,165 					"/>
				</g>
			</g>
		</g>
	</g>
</g>
</svg>
