<svg width="311" height="209" viewBox="0 0 311 209" fill="none" xmlns="http://www.w3.org/2000/svg">
<path fill-rule="evenodd" clip-rule="evenodd" d="M155.5 189C241.38 189 311 149.153 311 100C311 50.8467 241.38 11 155.5 11C69.6197 11 0 50.8467 0 100C0 122.874 15.0767 143.732 39.8526 159.498L5.71392 208.541L72.2241 175.175C96.2989 183.93 124.865 189 155.5 189Z" fill="#3E4651"/>
<path fill-rule="evenodd" clip-rule="evenodd" d="M155.5 178C241.38 178 311 138.153 311 89C311 39.8467 241.38 0 155.5 0C69.6197 0 0 39.8467 0 89C0 111.874 15.0767 132.732 39.8526 148.498L5.71392 197.541L72.2241 164.175C96.2989 172.93 124.865 178 155.5 178Z" fill="#FADDB9"/>
</svg>
