<svg width="643" height="369" viewBox="0 0 643 369" fill="none" xmlns="http://www.w3.org/2000/svg">
<path d="M447.492 346.746C441.216 353.499 430.767 356.038 421.171 353.35C415.109 351.654 406.554 350.092 393.003 350.602C372.517 351.381 358.716 380.987 344.679 363.465C331.165 346.588 328.25 333.668 273.99 360.76C252.733 371.38 234.845 367.626 214.056 358.109C192.823 348.391 186.905 322.579 144.214 310.935C117.541 303.67 123.294 277.68 103.179 270.114C72.9563 258.743 60.4306 281.027 43.328 270.548C30.4506 262.666 48.7708 247.755 19.8238 220.43C-29.937 173.462 24.8857 95.2847 68.3388 98.8896C110.239 102.363 111.34 63.269 138.124 66.4646C170.28 70.3152 182.345 105.479 211.992 78.3615C221.775 69.3927 234.057 37.6184 257.147 36.8595C288.505 35.8534 295.226 -10.9594 336.19 2.7051C392.601 21.5191 389.995 -3.97642 420.097 7.73071C443.089 16.6692 453.534 28.3516 466.348 47.7368C479.616 67.7979 473.386 97.5169 489.04 96.3835C511.701 94.7141 481.131 58.6938 506.699 61.0035C521.57 62.3531 521.022 73.2507 523.375 91.0586C525.093 104.078 533.531 115.9 556.201 117.4C590.524 119.668 638.736 141.74 641.855 171.977C644.277 195.49 615.936 199.865 614.761 212.221C612.047 240.417 589.945 239.712 580.832 255.839C568.478 277.719 548.006 283.544 520.271 293.36C480.442 307.38 458.934 334.458 447.492 346.746Z" fill="#FADDB9"/>
</svg>
