<svg width="610" height="379" viewBox="0 0 610 379" fill="none" xmlns="http://www.w3.org/2000/svg">
<path d="M283.199 351.1C345.899 400.5 415.699 376.8 435.799 333C455.899 289.3 465.199 279 509.799 251.8C541.099 232.7 597.999 206.1 609.299 137.4C613.799 110.4 560.799 100.6 541.299 75.8999C521.799 51.1999 504.499 21.7999 463.999 10.7999C423.499 -0.000112534 367.699 13.4999 301.299 2.79989C234.999 -7.80011 132.799 30.3999 95.5992 54.3999C58.3992 78.3999 12.4992 105.4 2.09918 138.4C-1.20082 148.8 2.09918 169.5 22.2992 205.7C57.1992 268.2 193.999 280.8 283.199 351.1Z" fill="#F5BE6B"/>
</svg>
