<?xml version="1.0" encoding="UTF-8"?>
<svg xmlns="http://www.w3.org/2000/svg" width="129" height="62" viewBox="0 0 129 62" fill="none">
  <path d="M118.607 28.8891C116.792 22.5315 110.389 17.8032 102.764 17.8032C101.057 17.8032 99.4226 18.0334 97.8778 18.4762C97.9946 17.9892 98.0664 17.4933 98.0664 16.9709C98.0664 13.3317 95.0756 10.3832 91.3843 10.3832C88.6181 10.3832 86.2381 12.0478 85.2322 14.4119C79.1339 6.14183 68.6618 0.660889 56.7616 0.660889C46.8463 0.660889 37.7123 4.41521 31.3536 10.7993C30.68 7.86847 28.0305 5.68141 24.8512 5.68141C21.1599 5.68141 18.1691 8.62996 18.1691 12.2692C18.1691 14.7219 19.5432 16.8381 21.564 17.9715C16.9566 20.0966 13.6156 24.1254 12.8252 28.8979H3.70925C1.66152 28.8979 0 30.536 0 32.5548C0 34.5737 1.66152 36.2117 3.70925 36.2117H124.66C126.708 36.2117 128.369 34.5737 128.369 32.5548C128.369 30.536 126.708 28.8979 124.66 28.8979H118.607V28.8891ZM24.2045 28.8891C25.1296 27.4458 26.9168 26.4541 29.0005 26.4541C31.0752 26.4541 32.8624 27.4458 33.7965 28.8891H24.2045ZM38.6015 28.8891C37.5147 24.9754 33.6348 22.0623 29.0005 22.0623C24.3662 22.0623 20.4863 24.9754 19.3995 28.8891H17.3518C18.5104 24.2316 23.2884 20.7252 29.0005 20.7252C34.7036 20.7252 39.4816 24.2316 40.6492 28.8891H38.6015ZM51.9656 28.8891C52.8996 27.4458 54.6869 26.4541 56.7616 26.4541C58.8363 26.4541 60.6325 27.4458 61.5576 28.8891H51.9656ZM66.3536 28.8891C65.2668 24.9754 61.3959 22.0623 56.7526 22.0623C52.1183 22.0623 48.2383 24.9754 47.1516 28.8891H45.1758C45.0859 28.3844 44.9782 27.8885 44.8345 27.3927L45.041 27.4369C46.1278 22.5935 51.0495 19.0783 56.7526 19.0783C63.1113 19.0783 68.2846 23.4347 68.6169 28.8891H66.3536ZM73.1075 28.8891C72.7842 21.0174 65.5902 14.6864 56.7616 14.6864C50.6004 14.6864 45.1219 17.8386 42.3377 22.5404C41.8078 21.8763 41.233 21.2388 40.5953 20.6632C44.0531 15.7667 50.1693 12.7207 56.7616 12.7207C67.0631 12.7207 75.4516 19.9283 75.739 28.8802H73.1075V28.8891ZM80.1847 28.8891C79.9063 17.5199 69.515 8.33776 56.7526 8.33776C48.7054 8.33776 41.1971 12.1098 36.922 18.184C35.449 17.449 33.8414 16.9178 32.135 16.6167C37.5956 9.40914 46.7026 5.04388 56.7526 5.04388C72.2453 5.04388 84.9717 15.5542 86.2471 28.8891H80.1847ZM89.7498 23.6295C89.7228 23.5232 89.6869 23.417 89.66 23.3107C89.7587 23.3373 89.8486 23.3727 89.9474 23.3993C89.8755 23.4701 89.8216 23.5498 89.7498 23.6295ZM99.4316 28.8891C100.357 28.287 101.497 27.9151 102.755 27.9151C104.012 27.9151 105.153 28.287 106.078 28.8891H99.4316ZM111.817 28.8891C110.272 25.7369 106.796 23.5232 102.764 23.5232C98.722 23.5232 95.2553 25.7369 93.7015 28.8891H91.6358C93.3423 24.9842 97.6712 22.1951 102.755 22.1951C107.847 22.1951 112.167 24.9931 113.873 28.8891H111.817Z" fill="#5DAFBD"></path>
  <path d="M107.003 57.5067C109.958 48.2096 120.322 38.8948 120.322 38.8948H7.29297C7.29297 38.8948 17.6663 48.2007 20.6122 57.5067C21.3486 59.8176 23.3784 61.8099 25.8393 61.8099H59.4741H68.132H101.776C104.237 61.8099 106.266 59.8176 107.003 57.5067Z" fill="#5DAFBD"></path>
</svg>
