<?xml version="1.0" encoding="UTF-8"?>
<svg xmlns="http://www.w3.org/2000/svg" width="89" height="78" viewBox="0 0 89 78" fill="none">
  <path d="M1.00195 48C1.00195 50.261 3.28139 52 6.00195 52H37.002L21.002 44H4.00195C2.00265 44.5251 1.00195 46.1653 1.00195 48Z" fill="#5DAFBD"></path>
  <path d="M88.002 48C88.002 46.1653 87.0023 44.5189 85.002 44H68.002L52.002 52H83.002C85.7239 51.9938 88.002 50.261 88.002 48Z" fill="#5DAFBD"></path>
  <path d="M63.002 44H25.002C30.9779 47.1484 43.1768 53.5613 44.002 54C44.8271 53.5613 57.0197 47.1484 63.002 44Z" fill="#5DAFBD"></path>
  <path d="M11.0003 28.9999C21.9367 28.9936 33.0575 28.9999 44.0003 28.9999C56.6449 28.9999 69.3493 28.9307 82.0003 28.9999C84.9313 29.0188 86.1137 27.5099 86.0003 24.9999C85.9183 23.2322 86.057 21.7676 86.0003 19.9999C85.6347 9.34352 75.3486 1.02507 63.0003 0.999909C50.2359 0.962165 37.7646 1.03765 25.0003 0.999909C18.6149 0.974747 13.4631 3.12486 9.00025 6.99991C4.52484 10.8875 2.05068 15.5774 2.00025 20.9999C1.92461 29.8131 1.04718 28.9999 11.0003 28.9999Z" fill="#5DAFBD"></path>
  <path d="M62.002 4.99991C72.9144 5.06109 80.7366 12.0835 81.002 19.9999C81.0589 21.6762 79.005 22.9999 77.002 22.9999C55.2847 22.9999 33.9278 22.9999 12.002 22.9999C10.0053 22.9999 7.92619 21.6701 8.00201 19.9999C8.40641 11.074 15.5842 5.04886 27.002 4.99991C38.7547 4.95097 50.243 4.93262 62.002 4.99991Z" fill="#5DAFBD"></path>
  <path d="M81.0016 55.0001C68.5922 54.9873 56.411 55.0001 44.0016 55.0001C31.4787 55.0001 18.5245 55.0704 6.00163 55.0001C2.79839 54.9809 1.95749 56.3412 2.00163 59.0001C2.14035 68.8879 11.8949 76.9681 24.0016 77.0001C36.9848 77.032 50.0247 77.0192 63.0016 77.0001C75.1273 76.9809 85.5728 68.8687 86.0016 59.0001C86.1593 55.4911 85.2768 55.0128 81.0016 55.0001Z" fill="#5DAFBD"></path>
  <path d="M22.0016 73C15.158 72.8505 10.2161 68.6877 8.00163 63C7.40735 61.4862 9.02486 60 11.0016 60C32.6836 60 54.5574 60 76.0016 60C77.9784 60 79.4833 61.4675 79.0016 63C77.469 67.8779 71.7389 72.8505 65.0016 73C50.9953 73.3115 36.0017 73.3053 22.0016 73Z" fill="#5DAFBD"></path>
  <path d="M83.0011 31.0001C70.0472 30.994 56.9488 31.0001 44.0011 31.0001C30.8207 31.0001 18.1753 30.9757 5.00113 31.0001C1.58491 31.0062 -0.0492034 32.4992 0.00112759 36.0001C0.0451672 39.379 1.70445 41.0001 5.00113 41.0001C31.1292 41.0184 56.8793 41.0306 83.0011 41.0001C86.1154 40.994 88.0074 39.2387 88.0011 36.0001C87.9885 32.7005 86.3985 31.0062 83.0011 31.0001Z" fill="#5DAFBD"></path>
  <path d="M23.002 9C23.5055 9 24.002 8.5035 24.002 8V6C24.002 5.4965 23.5055 5 23.002 5C22.4915 5 22.002 5.4965 22.002 6V8C22.002 8.5035 22.4985 9 23.002 9Z" fill="white"></path>
  <path d="M32.0001 13C32.5035 13 33.0001 12.5026 33.0001 12V10C33.0001 9.49738 32.5035 9 32.0001 9C31.4896 9 31.0001 9.49738 31.0001 10V12C30.9931 12.5096 31.4966 13 32.0001 13Z" fill="white"></path>
  <path d="M55.002 13C55.5055 13 56.002 12.5026 56.002 12V10C56.002 9.49738 55.5055 9 55.002 9C54.4985 9 54.002 9.49738 54.002 10V12C54.002 12.5096 54.4985 13 55.002 13Z" fill="white"></path>
  <path d="M23.002 18C23.5055 18 24.002 17.5026 24.002 17V15C24.002 14.4974 23.5055 14 23.002 14C22.4915 14 22.002 14.4974 22.002 15V17C22.002 17.5026 22.4985 18 23.002 18Z" fill="white"></path>
  <path d="M45.0001 9C45.5035 9 46.0001 8.5035 46.0001 8V6C46.0001 5.4965 45.5035 5 45.0001 5C44.4896 5 44.0001 5.4965 44.0001 6V8C43.9931 8.5035 44.4896 9 45.0001 9Z" fill="white"></path>
  <path d="M45.0001 18C45.5035 18 46.0001 17.5026 46.0001 17V15C46.0001 14.4974 45.5035 14 45.0001 14C44.4896 14 44.0001 14.4974 44.0001 15V17C43.9931 17.5026 44.4896 18 45.0001 18Z" fill="white"></path>
  <path d="M64.0001 9C64.5035 9 65.0001 8.5035 65.0001 8V6C65.0001 5.4965 64.5035 5 64.0001 5C63.4896 5 63.0001 5.4965 63.0001 6V8C62.9931 8.5035 63.4966 9 64.0001 9Z" fill="white"></path>
  <path d="M64.0001 18C64.5035 18 65.0001 17.5026 65.0001 17V15C65.0001 14.4974 64.5035 14 64.0001 14C63.4896 14 63.0001 14.4974 63.0001 15V17C62.9931 17.5026 63.4966 18 64.0001 18Z" fill="white"></path>
</svg>
