<?xml version="1.0" encoding="UTF-8"?>
<svg xmlns="http://www.w3.org/2000/svg" width="94" height="98" viewBox="0 0 94 98" fill="none">
  <path d="M8.74023 51.1958C8.74023 57.6042 10.3694 63.6345 13.2321 68.9151L43.2962 51.7564L12.7835 34.3435C10.2045 39.4155 8.74023 45.1329 8.74023 51.1958ZM18.2581 60.4727C17.3017 60.9225 16.2925 61.2094 15.2636 61.4571C14.8084 61.5679 13.5882 61.7765 13.4036 61.105C13.2255 60.4401 14.3863 59.9902 14.8349 59.8794C15.5736 59.6969 16.2727 59.5013 16.9653 59.1819C17.5194 58.9211 18.6473 58.6994 19.142 59.1949C19.6828 59.7295 18.6209 60.3032 18.2581 60.4727ZM31.2917 48.8423C32.7164 48.8423 33.8707 49.9832 33.8707 51.3914C33.8707 52.7995 32.7164 53.9404 31.2917 53.9404C29.867 53.9404 28.7126 52.7995 28.7126 51.3914C28.7126 49.9832 29.8735 48.8423 31.2917 48.8423ZM24.1813 52.6691C24.1813 54.7879 22.4465 56.5024 20.3029 56.5024C18.1592 56.5024 16.4245 54.7879 16.4245 52.6691C16.4245 50.5569 18.1592 48.8423 20.3029 48.8423C22.4399 48.8423 24.1813 50.5504 24.1813 52.6691ZM16.4178 39.4416C17.8426 39.4416 18.9969 40.5824 18.9969 41.9906C18.9969 43.3987 17.8426 44.5396 16.4178 44.5396C14.9931 44.5396 13.8389 43.3987 13.8389 41.9906C13.8455 40.5824 14.9931 39.4416 16.4178 39.4416ZM11.6028 50.4917C9.39321 50.4917 11.8996 48.9075 12.955 48.9075C15.1712 48.9075 12.6648 50.4917 11.6028 50.4917Z" fill="#5DAFBD"></path>
  <path d="M45.0116 11.8129V5.06543C28.9373 5.63913 14.9078 14.2707 6.95312 26.9964L12.8697 30.3734C19.6371 19.6556 31.457 12.3801 45.0116 11.8129Z" fill="#5DAFBD"></path>
  <path d="M83.9798 25.308L89.8964 21.931C81.9417 9.20527 67.9122 0.573699 51.8379 0V6.74749C65.3925 7.31467 77.2124 14.5967 83.9798 25.308Z" fill="#5DAFBD"></path>
  <path d="M86.0714 76.0342L80.1548 72.6638C73.3214 83.0294 61.706 90.031 48.4219 90.5851V97.3325C64.2323 96.7719 78.0507 88.4142 86.0714 76.0342Z" fill="#5DAFBD"></path>
  <path d="M82.2519 33.3068C85.0354 38.6786 86.6118 44.7546 86.6118 51.1955C86.6118 57.9038 84.9035 64.2209 81.9023 69.7557L87.8189 73.1327C91.4004 66.6004 93.4386 59.1294 93.4386 51.1955C93.4386 43.5289 91.5258 36.2991 88.1685 29.9233L82.2519 33.3068Z" fill="#5DAFBD"></path>
  <path d="M11.5297 69.7626C8.52852 64.2277 6.82677 57.9106 6.82677 51.2024C6.82677 44.7614 8.40978 38.6855 11.1867 33.3071L5.27014 29.9302C1.91281 36.306 0 43.5358 0 51.2024C0 59.1362 2.03811 66.6138 5.6197 73.1395L11.5297 69.7626Z" fill="#5DAFBD"></path>
  <path d="M45.0109 97.3325V90.5851C31.7267 90.031 20.1113 83.0229 13.2779 72.6638L7.36133 76.0342C15.382 88.4142 29.207 96.7719 45.0109 97.3325Z" fill="#5DAFBD"></path>
  <path d="M45.012 13.71C32.1038 14.2706 20.8775 21.2072 14.4531 31.4033L45.012 48.8425V13.71ZM26.1872 32.4464C24.0502 32.4464 22.3089 30.7319 22.3089 28.6131C22.3089 26.4943 24.0502 24.7797 26.1872 24.7797C28.3309 24.7797 30.0657 26.4943 30.0657 28.6131C30.0657 30.7319 28.3243 32.4464 26.1872 32.4464ZM37.7565 39.4417C36.3318 39.4417 35.1775 38.3008 35.1775 36.8926C35.1775 35.4844 36.3318 34.3436 37.7565 34.3436C39.1812 34.3436 40.3355 35.4844 40.3355 36.8926C40.3355 38.3073 39.1746 39.4417 37.7565 39.4417ZM37.651 29.9561C37.1629 29.3563 36.6022 29.0434 35.8569 28.8413C35.1115 28.6392 34.9598 27.8568 35.4413 27.3157C36.0086 26.6834 36.9716 26.4813 37.7697 26.6964C38.9306 27.0093 39.9134 27.6091 40.6719 28.5349C41.7075 29.8061 38.5678 31.0774 37.651 29.9561ZM38.9504 23.9061C37.5257 23.9061 36.3713 22.7653 36.3713 21.3571C36.3713 19.9489 37.5257 18.8081 38.9504 18.8081C40.3751 18.8081 41.5294 19.9489 41.5294 21.3571C41.5294 22.7653 40.3751 23.9061 38.9504 23.9061Z" fill="#5DAFBD"></path>
  <path d="M84.6927 51.1958C84.6927 45.1329 83.2284 39.4155 80.6494 34.3435L50.1367 51.7564L80.2009 68.9151C83.0635 63.641 84.6927 57.6042 84.6927 51.1958ZM79.5413 40.3217C81.7443 40.3217 79.1389 41.7885 78.1562 41.7885C75.9465 41.7885 78.5585 40.3217 79.5413 40.3217ZM63.4407 54.1816C62.016 54.1816 60.8616 53.0407 60.8616 51.6326C60.8616 50.2244 62.016 49.0835 63.4407 49.0835C64.8654 49.0835 66.0197 50.2244 66.0197 51.6326C66.0131 53.0407 64.8588 54.1816 63.4407 54.1816ZM70.5313 49.0444C72.1407 49.0444 69.067 50.3613 68.3876 50.3613C66.7716 50.3613 69.8453 49.0444 70.5313 49.0444ZM69.0406 57.4282C66.8112 57.4282 68.9944 55.4789 70.2938 55.4789C72.5298 55.4724 70.3466 57.4282 69.0406 57.4282ZM75.841 63.8171C74.4163 63.8171 73.262 62.6762 73.262 61.268C73.262 59.8599 74.4163 58.719 75.841 58.719C77.2657 58.719 78.4266 59.8599 78.4266 61.268C78.42 62.6762 77.2657 63.8171 75.841 63.8171ZM77.1404 53.7448C74.9967 53.7448 73.262 52.0302 73.262 49.9115C73.262 47.7927 74.9967 46.0782 77.1404 46.0782C79.284 46.0782 81.0188 47.7927 81.0188 49.9115C81.0122 52.0302 79.2774 53.7448 77.1404 53.7448Z" fill="#5DAFBD"></path>
  <path d="M45.009 88.6879V54.6838L14.9844 71.8162C21.4813 81.5689 32.4504 88.1403 45.009 88.6879ZM39.5607 85.9759C37.3379 85.9759 39.7586 84.2874 40.8865 84.2874C43.1093 84.2809 40.6952 85.9759 39.5607 85.9759ZM38.9473 63.8172C40.372 63.8172 41.5263 64.9581 41.5263 66.3662C41.5263 67.7744 40.372 68.9152 38.9473 68.9152C37.5226 68.9152 36.3683 67.7744 36.3683 66.3662C36.3683 64.9581 37.5226 63.8172 38.9473 63.8172ZM32.3118 69.7823C34.5413 69.7823 32.4108 71.7902 31.0718 71.7902C28.8424 71.7967 30.9729 69.7823 32.3118 69.7823ZM33.8751 73.1396C36.0187 73.1396 37.7535 74.8542 37.7535 76.9729C37.7535 79.0917 36.0187 80.8062 33.8751 80.8062C31.7314 80.8062 29.9967 79.0917 29.9967 76.9729C29.9967 74.8542 31.7314 73.1396 33.8751 73.1396ZM22.8731 70.1995C24.2978 70.1995 25.4521 71.3404 25.4521 72.7485C25.4521 74.1566 24.2978 75.2975 22.8731 75.2975C21.4484 75.2975 20.2941 74.1566 20.2941 72.7485C20.2941 71.3404 21.455 70.1995 22.8731 70.1995Z" fill="#5DAFBD"></path>
  <path d="M78.4465 71.8162L48.4219 54.6838V88.6879C60.9805 88.1403 71.9495 81.5689 78.4465 71.8162ZM53.9691 83.3487C52.5443 83.3487 51.39 82.2078 51.39 80.7997C51.39 79.3915 52.5443 78.2507 53.9691 78.2507C55.3938 78.2507 56.548 79.3915 56.548 80.7997C56.548 82.2078 55.3938 83.3487 53.9691 83.3487ZM55.7169 72.7485C53.5799 72.7485 51.8386 71.034 51.8386 68.9152C51.8386 66.7965 53.5733 65.0819 55.7169 65.0819C57.8606 65.0819 59.5953 66.7965 59.5953 68.9152C59.5953 71.034 57.8606 72.7485 55.7169 72.7485ZM59.6349 78.3941C58.0321 78.3941 61.1124 77.0968 61.7852 77.0968C63.388 77.0968 60.3077 78.3941 59.6349 78.3941ZM69.3837 75.6886C67.959 75.6886 66.8047 74.5478 66.8047 73.1396C66.8047 71.7315 67.959 70.5907 69.3837 70.5907C70.8084 70.5907 71.9627 71.7315 71.9627 73.1396C71.9627 74.5478 70.8084 75.6886 69.3837 75.6886Z" fill="#5DAFBD"></path>
  <path d="M51.8379 8.64429V43.7764L82.3902 26.344C75.9724 16.1414 64.7461 9.21146 51.8379 8.64429ZM61.7252 13.7097C63.1499 13.7097 64.3042 14.8506 64.3042 16.2588C64.3042 17.6669 63.1499 18.8078 61.7252 18.8078C60.3005 18.8078 59.1462 17.6669 59.1462 16.2588C59.1462 14.8506 60.3005 13.7097 61.7252 13.7097ZM56.1978 11.3237C58.4272 11.3237 56.3957 13.4359 54.9842 13.4359C52.7547 13.4359 54.7863 11.3237 56.1978 11.3237ZM57.8468 35.1059C55.7097 35.1059 53.9684 33.3913 53.9684 31.2725C53.9684 29.1603 55.7031 27.4392 57.8468 27.4392C59.9904 27.4392 61.7252 29.1603 61.7252 31.2725C61.7252 33.3913 59.9904 35.1059 57.8468 35.1059ZM61.8175 23.7298C61.1711 24.2383 60.1488 24.3817 59.4496 23.8993C58.7175 23.4038 57.8072 23.28 56.9563 23.117C56.244 22.9801 55.5712 22.4259 55.9208 21.6371C56.2506 20.8939 57.2729 20.4571 58.0578 20.6136C59.4298 20.8809 60.7951 21.1482 61.9692 21.9435C62.6684 22.4129 62.3848 23.2995 61.8175 23.7298ZM63.9546 29.7014C61.7252 29.7014 63.7039 27.5305 65.1485 27.5305C67.3779 27.5305 65.3991 29.7014 63.9546 29.7014ZM69.3831 26.1615C67.9583 26.1615 66.804 25.0206 66.804 23.6124C66.804 22.2043 67.9583 21.0634 69.3831 21.0634C70.8078 21.0634 71.962 22.2043 71.962 23.6124C71.962 25.0206 70.8078 26.1615 69.3831 26.1615ZM73.9276 25.0467C72.3248 25.0467 75.4051 23.7494 76.0779 23.7494C77.6807 23.7494 74.607 25.0467 73.9276 25.0467Z" fill="#5DAFBD"></path>
</svg>
