<?xml version="1.0" encoding="UTF-8"?>
<svg xmlns="http://www.w3.org/2000/svg" width="111" height="81" viewBox="0 0 111 81" fill="none">
  <path d="M52.3194 76.0269C40.7766 76.0269 29.2876 73.1163 19.9349 67.9805C19.2707 68.9418 18.8848 69.9031 18.8848 70.8377C18.8848 76.5966 32.5817 80.6198 52.1848 80.6198C71.7967 80.6198 85.4847 76.5966 85.4847 70.8377C85.4847 69.9298 85.1257 69.013 84.5064 68.0784C75.1896 73.1608 63.7724 76.0269 52.3194 76.0269Z" fill="#5DAFBD"></path>
  <path d="M104.648 36.9431C102.225 37.4149 98.1227 37.8688 91.1037 38.296C80.7277 38.9369 66.9231 39.2751 52.2477 39.2751C37.5634 39.2751 23.7677 38.928 13.3918 38.296C6.51638 37.8777 2.45037 37.4327 0 36.9787C1.94773 55.4924 20.1415 73.9883 52.3285 73.9883C84.5155 73.9883 102.709 55.4657 104.648 36.9431ZM70.2261 67.4106C70.2261 67.4106 92.2526 44.8826 85.5657 42.8443H97.3598C97.3598 42.8443 98.015 58.6611 70.2261 67.4106Z" fill="#5DAFBD"></path>
  <path d="M70.2254 28.1141C71.8051 13.8905 103.48 21.0023 96.8832 2.53297C95.878 -0.288612 91.3093 0.921902 92.3326 3.77909C95.2227 11.8789 84.2275 12.8669 78.6266 14.7183C71.9038 16.9435 66.3299 20.673 65.5041 28.1141C65.181 31.1137 69.9022 31.0781 70.2254 28.1141Z" fill="#5DAFBD"></path>
  <path d="M83.5204 29.9031C85.6477 22.7912 95.0632 22.6755 101.077 20.9398C107.531 19.0796 111.229 14.6469 110.34 7.82882C109.954 4.87372 105.233 4.83811 105.619 7.82882C106.687 16.0622 99.0485 16.6674 92.7116 18.145C86.5363 19.5869 80.8905 22.2127 78.9607 28.648C78.6555 29.6627 79.0235 30.4638 79.6519 30.9712C80.6841 31.0068 81.7163 31.0424 82.7126 31.0869C83.0716 30.8287 83.3588 30.4371 83.5204 29.9031Z" fill="#5DAFBD"></path>
  <path d="M52.2388 32.573C24.2524 32.573 5.76242 33.8014 0 34.9052C5.7714 36.0178 24.2524 37.2373 52.2388 37.2373C80.2252 37.2373 98.7152 36.0089 104.487 34.9052C98.7152 33.7925 80.2252 32.573 52.2388 32.573Z" fill="#5DAFBD"></path>
</svg>
