<svg viewBox="0 0 1920 64" fill="none" xmlns="http://www.w3.org/2000/svg" preserveAspectRatio="none">
<path d="M1918.6 20.5996C1917.8 20.7996 1834.8 40.3996 1688.2 48.8996C1579 55.2996 1473.6 45.7996 1375 20.6996C1322.7 7.39963 1280.1 1.29963 1237 0.999629C1191.4 0.699629 1142.1 6.89963 1081.9 20.6996C986.5 42.3996 910 57.1996 794.2 48.9996C748.4 45.6996 711.9 38.6996 673.4 31.2996C629.4 22.7996 584.1 14.0996 518 8.79963C414.3 0.599629 356.6 -0.700371 239.9 20.5996C124.4 41.6996 67 48.5996 2 26.0996L0 25.3996V38.0996C32.5 49.0996 64.5 53.2996 103.2 51.5996C140 49.9996 182 43.3996 242 32.3996C357.4 11.2996 414.4 12.6996 517 20.7996C582.4 25.9996 627.5 34.6996 671 42.9996C709.9 50.4996 746.7 57.5996 793.2 60.8996C815.2 62.4996 836 63.1996 855.8 63.1996C941.3 63.1996 1008.7 49.5996 1084.5 32.2996C1197.8 6.39963 1270.3 6.39963 1372 32.2996C1471.8 57.6996 1578.4 67.2996 1688.8 60.8996C1826.3 52.8996 1908.4 35.1996 1919.9 32.5996V20.2996L1918.6 20.5996Z" fill="#F5BE6B"/>
</svg>
