<svg width="224" height="212" viewBox="0 0 224 212" fill="none" xmlns="http://www.w3.org/2000/svg">
<path d="M77.4 45V30.65H63.9V45H59.5V11.75H63.9V26.15H77.4V11.75H81.75V45H77.4ZM91.0461 34.4C91.0461 35.2 91.3294 36.0333 91.8961 36.9C92.4961 37.7667 93.1794 38.5 93.9461 39.1C95.3461 40.2 96.9794 40.75 98.8461 40.75C101.813 40.75 104.229 39.3167 106.096 36.45L109.896 38.7C108.596 40.8 106.996 42.4167 105.096 43.55C103.196 44.6833 101.113 45.25 98.8461 45.25C97.1461 45.25 95.5294 44.9333 93.9961 44.3C92.4628 43.6333 91.1128 42.7167 89.9461 41.55C88.7794 40.3833 87.8628 39.0333 87.1961 37.5C86.5628 35.9667 86.2461 34.35 86.2461 32.65C86.2461 30.95 86.5628 29.3333 87.1961 27.8C87.8628 26.2333 88.7794 24.8667 89.9461 23.7C91.0794 22.5333 92.4128 21.6333 93.9461 21C95.5128 20.3667 97.1461 20.05 98.8461 20.05C100.546 20.05 102.163 20.3667 103.696 21C105.263 21.6333 106.613 22.5333 107.746 23.7C110.213 26.2333 111.446 29.1667 111.446 32.5C111.446 33.1 111.396 33.7333 111.296 34.4H91.0461ZM98.8461 24.15C97.4794 24.15 96.1961 24.45 94.9961 25.05C93.7961 25.65 92.8294 26.45 92.0961 27.45C91.3961 28.4167 91.0461 29.45 91.0461 30.55H106.646C106.646 29.45 106.279 28.4167 105.546 27.45C104.846 26.45 103.896 25.65 102.696 25.05C101.496 24.45 100.213 24.15 98.8461 24.15ZM126.295 55.65C124.395 55.65 122.629 55.1667 120.995 54.2C119.395 53.2333 117.995 51.8333 116.795 50L120.695 47.75C121.395 48.85 122.229 49.6833 123.195 50.25C124.162 50.85 125.195 51.15 126.295 51.15C128.062 51.15 129.595 50.5 130.895 49.2C131.495 48.6 131.945 47.9 132.245 47.1C132.579 46.3 132.745 45.45 132.745 44.55V42.8C131.979 43.6 131.012 44.25 129.845 44.75C128.679 45.2167 127.495 45.45 126.295 45.45C124.829 45.45 123.445 45.1833 122.145 44.65C120.845 44.0833 119.695 43.3 118.695 42.3C117.662 41.3 116.862 40.15 116.295 38.85C115.729 37.5167 115.445 36.1167 115.445 34.65V20H119.845V34.35C119.845 35.5167 120.129 36.6167 120.695 37.65C121.295 38.65 122.079 39.45 123.045 40.05C124.045 40.65 125.129 40.95 126.295 40.95C127.462 40.95 128.545 40.6667 129.545 40.1C130.545 39.5 131.329 38.7 131.895 37.7C132.462 36.6667 132.745 35.55 132.745 34.35V20H137.145V44.55C137.145 46.05 136.862 47.4833 136.295 48.85C135.762 50.2167 134.995 51.4 133.995 52.4C132.962 53.4333 131.779 54.2333 130.445 54.8C129.145 55.3667 127.762 55.65 126.295 55.65ZM145.166 50.1H141.516L144.266 39.65H148.416L145.166 50.1Z" fill="white"/>
<path d="M37.4314 75.4572C33.9426 75.3425 30.8509 76.4316 28.1561 78.7243C25.5433 80.9404 23.9826 83.7467 23.4741 87.1431L37.0328 87.5886L36.7671 95.6763L23.0895 95.2269L21.4014 146.607L13.3137 146.341L15.0019 94.9611L8.81719 94.7579L9.08291 86.6703L15.2676 86.8735C15.6279 83.1547 16.85 79.7816 18.9338 76.7544C21.097 73.7298 23.793 71.3975 27.022 69.7573C30.3328 68.0404 33.8912 67.2445 37.6971 67.3695L37.4314 75.4572ZM52.4941 71.5467C53.9213 71.5936 55.1334 72.1493 56.1303 73.214C57.1272 74.2786 57.6022 75.5246 57.5553 76.9518C57.5058 78.4583 56.9488 79.71 55.8841 80.7069C54.8195 81.7039 53.5735 82.1789 52.1463 82.132C50.6398 82.0825 49.3881 81.5254 48.3912 80.4608C47.3942 79.3961 46.9205 78.1105 46.97 76.604C47.0169 75.1768 47.5727 73.9647 48.6373 72.9678C49.702 71.9709 50.9876 71.4972 52.4941 71.5467ZM55.9947 88.2116L54.0409 147.68L45.8343 147.41L47.7882 87.942L55.9947 88.2116ZM71.2369 132.29C71.7983 134.531 72.7321 136.308 74.0384 137.621C76.1908 139.755 79.4078 140.893 83.6895 141.034C87.4161 141.156 90.4578 140.383 92.8146 138.714C95.1713 137.045 96.3953 134.823 96.4865 132.048C96.5724 129.431 96.1209 127.472 95.1318 126.169C94.1427 124.867 92.8208 124.03 91.1661 123.658C89.5933 123.209 87.381 122.898 84.5291 122.725C80.4139 122.352 77.0583 121.805 74.4626 121.085C71.8694 120.285 69.5415 118.661 67.4788 116.212C64.9691 112.875 63.778 109.264 63.9057 105.379C63.9369 104.427 64 103.715 64.0949 103.242C64.8934 98.2673 67.1196 94.5304 70.7737 92.031C74.4303 89.4523 79.2717 88.262 85.2978 88.46L85.4167 88.4639C89.857 88.6098 93.4373 89.5609 96.1578 91.3172C98.8783 93.0735 100.953 95.1657 102.381 97.5939C103.881 100.263 104.782 103.031 105.085 105.898L96.7593 105.625C96.6372 104.509 96.1648 103.184 95.3421 101.649C93.4588 98.5708 90.0618 96.8717 85.151 96.5516C80.1557 96.3874 76.8378 97.1119 75.1972 98.7249C73.5567 100.338 72.5414 102.249 72.1513 104.459C72.0616 104.773 72.0076 105.208 71.9894 105.763C71.9269 107.666 72.5448 109.393 73.8433 110.944C74.909 112.328 76.3063 113.287 78.0351 113.82C79.7664 114.274 82.2537 114.673 85.4968 115.018C88.1081 115.262 90.3205 115.573 92.1337 115.95C94.0263 116.33 95.7908 116.983 97.4272 117.91C102.49 120.855 104.912 125.657 104.693 132.318C104.617 134.617 104.069 136.821 103.047 138.931C102.107 140.964 100.778 142.746 99.0613 144.277C95.2148 147.802 90.0406 149.458 83.5388 149.244C77.1955 149.036 72.1003 147.082 68.253 143.384C65.2596 140.269 63.4791 136.48 62.9114 132.016L71.2369 132.29ZM140.436 90.5097C144.718 90.6504 148.608 91.8498 152.105 94.1079C155.685 96.2893 158.446 99.2375 160.387 102.953C162.411 106.591 163.352 110.551 163.212 114.833L162.016 151.227L153.809 150.958L155.005 114.563C155.096 111.788 154.467 109.188 153.118 106.762C151.849 104.339 150.046 102.414 147.712 100.988C145.46 99.4855 142.946 98.6886 140.17 98.5974C137.395 98.5062 134.795 99.1352 132.369 100.484C129.946 101.754 127.982 103.555 126.477 105.887C125.051 108.221 124.292 110.776 124.201 113.551L123.005 149.945L114.798 149.676L117.405 70.3456L125.612 70.6152L124.756 96.6622C126.732 94.5045 129.046 92.9137 131.699 91.8896C134.432 90.8681 137.344 90.4081 140.436 90.5097ZM173.69 122.321L173.956 114.233L215.821 115.609L215.555 123.696L173.69 122.321Z" fill="white"/>
<path d="M24.25 192V148.775H29.45V192H24.25ZM51.7247 192.325C49.5147 192.325 47.413 191.892 45.4197 191.025C43.4264 190.158 41.6714 188.967 40.1547 187.45C38.638 185.933 37.4464 184.178 36.5797 182.185C35.713 180.192 35.2797 178.09 35.2797 175.88C35.2797 173.627 35.713 171.482 36.5797 169.445C37.4464 167.408 38.638 165.632 40.1547 164.115C41.6714 162.598 43.4264 161.428 45.4197 160.605C47.413 159.738 49.5147 159.305 51.7247 159.305C53.978 159.305 56.123 159.738 58.1597 160.605C60.1964 161.428 61.973 162.598 63.4897 164.115C65.0064 165.632 66.1764 167.408 66.9997 169.445C67.8664 171.482 68.2997 173.627 68.2997 175.88C68.2997 178.09 67.8664 180.192 66.9997 182.185C66.1764 184.178 65.0064 185.933 63.4897 187.45C61.973 188.967 60.1964 190.158 58.1597 191.025C56.123 191.892 53.978 192.325 51.7247 192.325ZM51.7247 165.09C48.8214 165.09 46.3297 166.13 44.2497 168.21C43.253 169.207 42.473 170.377 41.9097 171.72C41.3464 173.063 41.0647 174.45 41.0647 175.88C41.0647 177.31 41.3464 178.675 41.9097 179.975C42.473 181.275 43.253 182.423 44.2497 183.42C45.2464 184.417 46.373 185.197 47.6297 185.76C48.9297 186.323 50.2947 186.605 51.7247 186.605C53.1547 186.605 54.5414 186.323 55.8847 185.76C57.228 185.197 58.3764 184.417 59.3297 183.42C60.283 182.423 61.0414 181.275 61.6047 179.975C62.168 178.675 62.4497 177.31 62.4497 175.88C62.4497 174.45 62.168 173.063 61.6047 171.72C61.0414 170.377 60.283 169.207 59.3297 168.21C58.3764 167.213 57.228 166.455 55.8847 165.935C54.5847 165.372 53.198 165.09 51.7247 165.09ZM88.5853 192H83.0603L70.2553 159.5H76.4303L85.8553 183.225L95.2153 159.5H101.39L88.5853 192ZM108.932 178.22C108.932 179.26 109.3 180.343 110.037 181.47C110.817 182.597 111.705 183.55 112.702 184.33C114.522 185.76 116.645 186.475 119.072 186.475C122.928 186.475 126.07 184.612 128.497 180.885L133.437 183.81C131.747 186.54 129.667 188.642 127.197 190.115C124.727 191.588 122.018 192.325 119.072 192.325C116.862 192.325 114.76 191.913 112.767 191.09C110.773 190.223 109.018 189.032 107.502 187.515C105.985 185.998 104.793 184.243 103.927 182.25C103.103 180.257 102.692 178.155 102.692 175.945C102.692 173.735 103.103 171.633 103.927 169.64C104.793 167.603 105.985 165.827 107.502 164.31C108.975 162.793 110.708 161.623 112.702 160.8C114.738 159.977 116.862 159.565 119.072 159.565C121.282 159.565 123.383 159.977 125.377 160.8C127.413 161.623 129.168 162.793 130.642 164.31C133.848 167.603 135.452 171.417 135.452 175.75C135.452 176.53 135.387 177.353 135.257 178.22H108.932ZM119.072 164.895C117.295 164.895 115.627 165.285 114.067 166.065C112.507 166.845 111.25 167.885 110.297 169.185C109.387 170.442 108.932 171.785 108.932 173.215H129.212C129.212 171.785 128.735 170.442 127.782 169.185C126.872 167.885 125.637 166.845 124.077 166.065C122.517 165.285 120.848 164.895 119.072 164.895ZM155.796 165.74C154.756 165.263 153.824 165.025 153.001 165.025C151.267 165.025 149.837 165.632 148.711 166.845C147.497 168.145 146.891 169.64 146.891 171.33V192H141.301V171.33C141.301 168.99 141.886 166.845 143.056 164.895C144.269 162.945 145.916 161.428 147.996 160.345C149.556 159.608 151.224 159.24 153.001 159.24C154.431 159.24 155.796 159.5 157.096 160.02C158.396 160.54 159.761 161.385 161.191 162.555L155.796 165.74ZM167.722 182.835L167.462 148.775H172.532L172.272 182.835H167.722ZM169.932 192.325C169.109 192.325 168.416 192.065 167.852 191.545C167.332 190.982 167.072 190.288 167.072 189.465C167.072 188.685 167.332 188.013 167.852 187.45C168.416 186.887 169.109 186.605 169.932 186.605C170.712 186.605 171.384 186.887 171.947 187.45C172.511 188.013 172.792 188.685 172.792 189.465C172.792 190.288 172.511 190.982 171.947 191.545C171.384 192.065 170.712 192.325 169.932 192.325Z" fill="white"/>
<path d="M50.3391 54.4347L49.2162 64.3553L47.213 64.1286L48.3359 54.2079L47.2151 54.0811L47.4418 52.0779L48.5865 52.2074C48.7047 51.4479 48.9967 50.7886 49.4626 50.2294C49.9443 49.6721 50.5379 49.2642 51.2435 49.0059C51.949 48.7477 52.6992 48.6635 53.4942 48.7535L53.262 50.8044C52.5979 50.697 52.0146 50.8001 51.5121 51.1135C51.0256 51.4288 50.734 51.8708 50.6374 52.4396L53.0461 52.7122L52.8193 54.7154L50.3391 54.4347ZM55.2828 59.9215C55.2396 60.3031 55.3297 60.7158 55.5532 61.1598C55.7926 61.6056 56.0789 61.9922 56.4122 62.3198C57.0205 62.92 57.7699 63.2705 58.6602 63.3713C60.0752 63.5314 61.3052 62.9783 62.3503 61.7118L64.0412 62.9901C63.3078 63.9215 62.4574 64.6062 61.49 65.0442C60.5226 65.4822 59.4983 65.64 58.4173 65.5176C57.6064 65.4258 56.8524 65.1875 56.1553 64.8026C55.46 64.4019 54.8656 63.8918 54.3721 63.2724C53.8786 62.6529 53.5143 61.9596 53.2791 61.1922C53.0598 60.4267 52.9961 59.6385 53.0879 58.8277C53.1796 58.0169 53.418 57.2629 53.8028 56.5658C54.2054 55.8545 54.7164 55.2522 55.3358 54.7587C55.9393 54.2635 56.6238 53.9062 57.3894 53.6869C58.1708 53.4694 58.9669 53.4066 59.7777 53.4983C60.5886 53.5901 61.3425 53.8284 62.0397 54.2133C62.7527 54.5999 63.348 55.1021 63.8256 55.7197C64.8653 57.0612 65.2952 58.5268 65.1152 60.1167C65.0828 60.4028 65.0248 60.7022 64.9411 61.0148L55.2828 59.9215ZM59.5564 55.4538C58.9045 55.3801 58.2763 55.4539 57.6715 55.6753C57.0668 55.8966 56.5625 56.226 56.1588 56.6634C55.7727 57.0866 55.55 57.5606 55.4906 58.0853L62.9311 58.9275C62.9905 58.4028 62.8714 57.8902 62.5738 57.3895C62.2939 56.8748 61.884 56.4419 61.3441 56.091C60.8041 55.74 60.2082 55.5276 59.5564 55.4538ZM66.5863 66.3215L68.3814 50.4628L70.2892 50.6787L68.4941 66.5374L66.5863 66.3215ZM70.8714 66.8065L72.6665 50.9478L74.5743 51.1637L72.7792 67.0225L70.8714 66.8065ZM80.9381 68.0667C80.1272 67.975 79.3742 67.7287 78.6788 67.328C77.9835 66.9272 77.3891 66.4171 76.8956 65.7977C76.4022 65.1783 76.0378 64.4849 75.8026 63.7176C75.5675 62.9502 75.4958 62.1612 75.5875 61.3503C75.6811 60.5236 75.9292 59.7546 76.3317 59.0434C76.7343 58.3322 77.2453 57.7298 77.8647 57.2364C78.4841 56.7429 79.1766 56.3865 79.9421 56.1672C80.7094 55.932 81.4985 55.8603 82.3093 55.9521C83.1361 56.0457 83.905 56.2937 84.6163 56.6963C85.3293 57.0829 85.9326 57.586 86.426 58.2054C86.9195 58.8249 87.275 59.5253 87.4924 60.3067C87.7258 61.0899 87.7957 61.8949 87.7022 62.7216C87.6104 63.5324 87.3641 64.2855 86.9634 64.9809C86.5785 65.678 86.0764 66.2733 85.457 66.7668C84.8375 67.2602 84.1362 67.6236 83.353 67.857C82.5698 68.0904 81.7648 68.1603 80.9381 68.0667ZM82.0691 58.0746C81.0039 57.954 80.0465 58.2321 79.197 58.9088C78.79 59.2331 78.4552 59.63 78.1928 60.0994C77.9303 60.5689 77.7694 61.0659 77.71 61.5906C77.6506 62.1152 77.6972 62.6277 77.8499 63.1281C78.0026 63.6284 78.2411 64.0821 78.5654 64.4892C78.8897 64.8962 79.2706 65.2292 79.7083 65.4881C80.1619 65.7487 80.651 65.9088 81.1756 65.9681C81.7003 66.0275 82.2207 65.9818 82.737 65.8309C83.2532 65.68 83.7069 65.4415 84.0981 65.1154C84.4892 64.7894 84.8151 64.3995 85.0758 63.946C85.3365 63.4924 85.4965 63.0033 85.5559 62.4787C85.6153 61.954 85.5695 61.4336 85.4186 60.9173C85.2677 60.4011 85.0381 59.9403 84.7297 59.5351C84.4213 59.1298 84.0315 58.8039 83.5603 58.5573C83.1067 58.2967 82.6096 58.1357 82.0691 58.0746ZM101.29 70.2497L99.2154 70.0148L97.6553 64.3796L94.8751 69.5235L92.8003 69.2887L89.3328 56.8196L91.6699 57.0841L94.1902 66.1853L96.8107 61.3856L95.7478 57.5457L98.0849 57.8102L100.605 66.9114L105.096 58.6038L107.409 58.8657L101.29 70.2497Z" fill="white"/>
</svg>
