<?xml version="1.0" encoding="utf-8"?>
<!-- Generator: Adobe Illustrator 25.0.0, SVG Export Plug-In . SVG Version: 6.00 Build 0)  -->
<svg version="1.1" id="Layer_1" xmlns="http://www.w3.org/2000/svg" xmlns:xlink="http://www.w3.org/1999/xlink" x="0px" y="0px"
	 viewBox="0 0 381.1 189" style="enable-background:new 0 0 381.1 189;" xml:space="preserve">
<style type="text/css">
	.st0{clip-path:url(#SVGID_2_);fill:#F5BE6B;}
</style>
<g>
	<defs>
		<rect id="SVGID_1_" width="381.1" height="189"/>
	</defs>
	<clipPath id="SVGID_2_">
		<use xlink:href="#SVGID_1_"  style="overflow:visible;"/>
	</clipPath>
	<path class="st0" d="M-179.7-578.8c-44.4-5.2-18.8-91.8-51.1-61.5s-3.5-45.3-25.2-4.8c-13.8,25.8-3.8,50.3,10.1,79
		c16.4,34,117.1,86.3,100,135.9c-29,79.5-9.3,92.7,17.9,117.1c33.6,30.2-46.7,109-66.8,146.7c-20.2,37.7-50.7,70.2-56,115
		c-4.4,37.2,10.2,76.7,32.1,108.3c21.9,31.6,50.7,56.4,79.3,80.3c37.3,31.1,80.9,63,124.2,55.8C21.1,187,47.3,154.5,82,143
		c49.1-16.3,105,11.7,157.1,8.4c86.5-5.4,145.4-99.9,146.5-196.7c1-96.8-43.2-192.3-96.8-274.8C208.6-443.3,104.3-549-15-621.6
		c-44.6-27.2-95.3-50.3-142-38.9c-49.6,12.1-83.6,60.6-132.2,76.1"/>
</g>
</svg>
