<?xml version="1.0" encoding="utf-8"?>
<!-- Generator: Adobe Illustrator 25.0.0, SVG Export Plug-In . SVG Version: 6.00 Build 0)  -->
<svg version="1.1" id="Layer_1" xmlns="http://www.w3.org/2000/svg" xmlns:xlink="http://www.w3.org/1999/xlink" x="0px" y="0px"
	 viewBox="0 0 425.6 239.2" style="enable-background:new 0 0 425.6 239.2;" xml:space="preserve">
<style type="text/css">
	.st0{clip-path:url(#SVGID_2_);fill:#FADDB9;}
	.st1{clip-path:url(#SVGID_2_);fill:#F5BE6B;}
</style>
<g>
	<defs>
		<rect id="SVGID_1_" width="425.6" height="239.2"/>
	</defs>
	<clipPath id="SVGID_2_">
		<use xlink:href="#SVGID_1_"  style="overflow:visible;"/>
	</clipPath>
	<path class="st0" d="M33.3,2.3C12.8,8.5,25,34.9,29.9,56.8s39.3,43.6,81.4,58.5c42.1,14.8,64.5,19.8,91.9,22.8
		c27.4,2.9,83.5,8.3,116.9,29.7c33.4,21.4,78.8,56.6,91.6,64c12.9,7.4,104.3,55,160.3,50.7c55.9-4.3,73.2-47.6,85.6-58.8
		c12.4-11.3,27.2-19.9,71.6-32.4c44.4-12.5,57.9-57.6,15.6-85c-42.4-27.4-129.2-55.8-174.9-52.7c-45.7,3.1-116.3-11.5-148-24.6
		s-125.6-39.8-158-24S33.3,2.3,33.3,2.3z"/>
	<path class="st1" d="M7.3-39.7C-13.2-33.5-1-7.1,3.9,14.8c4.9,21.9,39.3,43.6,81.4,58.5c42.1,14.8,64.5,19.8,91.9,22.8
		c27.4,2.9,83.5,8.3,116.9,29.7c33.4,21.4,78.8,56.6,91.6,64c12.9,7.4,104.3,55,160.3,50.7c55.9-4.3,73.2-47.6,85.6-58.8
		c12.4-11.3,27.2-19.9,71.6-32.4c44.4-12.5,57.9-57.6,15.6-85C676.3,36.8,589.5,8.3,543.8,11.4c-45.7,3.1-116.3-11.5-148-24.6
		s-125.6-39.8-158-24C205.4-21.4,7.3-39.7,7.3-39.7z"/>
</g>
</svg>
