<?xml version="1.0" encoding="utf-8"?>
<!-- Generator: Adobe Illustrator 25.0.0, SVG Export Plug-In . SVG Version: 6.00 Build 0)  -->
<svg version="1.1" id="Layer_1" xmlns="http://www.w3.org/2000/svg" xmlns:xlink="http://www.w3.org/1999/xlink" x="0px" y="0px"
	 viewBox="0 0 173 249" style="enable-background:new 0 0 173 249;" xml:space="preserve">
<style type="text/css">
	.st0{clip-path:url(#SVGID_2_);fill:#F5BE6B;}
</style>
<g>
	<defs>
		<rect id="SVGID_1_" y="3.1" width="173" height="245.9"/>
	</defs>
	<clipPath id="SVGID_2_">
		<use xlink:href="#SVGID_1_"  style="overflow:visible;"/>
	</clipPath>
	<path class="st0" d="M566.5,140.6c-8.7-25.9-25.6-50.2-43.4-73.8c-11.3-15-26.7-31.8-47.7-33.4c-24.9-2-41.9,12.1-48.1,30.4
		s-13.1,33.6-35.4,40.2c-27.5,8-56.6-11.6-73.1-33.4c-16.6-22-26.8-36.6-51.8-53C246.3,4,218.7-0.7,193.8,0.9
		c-25,1.6-47.9,8.7-70.3,16.2C94.4,26.7,63,39.3,54.9,63.8c-6.8,20.5,4.9,43.9,1.8,65.2c-4.4,30.2-37,50.3-50,78.1
		c-21.6,46.1,17.5,105.2,74.5,135.4s126.2,36.7,190.4,34.3c95.9-3.5,188.3-24.7,265.5-63.8c28.9-14.6,56.1-21,63.7-61
		C608.3,212.1,566.5,140.6,566.5,140.6z"/>
</g>
</svg>
