<?xml version="1.0" encoding="utf-8"?>
<!-- Generator: Adobe Illustrator 25.0.0, SVG Export Plug-In . SVG Version: 6.00 Build 0)  -->
<svg version="1.1" id="Layer_1" xmlns="http://www.w3.org/2000/svg" xmlns:xlink="http://www.w3.org/1999/xlink" x="0px" y="0px"
	 viewBox="0 0 340.9 370" style="enable-background:new 0 0 340.9 370;" xml:space="preserve">
<style type="text/css">
	.st0{clip-path:url(#SVGID_2_);}
	.st1{fill:#FADDB9;}
	.st2{fill:#F5BE6B;}
</style>
<g>
	<g>
		<defs>
			<rect id="SVGID_1_" width="340.9" height="370"/>
		</defs>
		<clipPath id="SVGID_2_">
			<use xlink:href="#SVGID_1_"  style="overflow:visible;"/>
		</clipPath>
		<g class="st0">
			<path class="st1" d="M29.5,94.3C34.2,48.2,2.9-9.6-29-26.2s-59.2-23.2-92.5-55.2s-38.8-45-55.7-49.9
				c-16.9-4.9-47.6,6.1-54.2,20.1s-16.9,26.1-8.1,56.7s36.7,73.4,55,123.5s77.1,129.1,104.1,158.1S-21.5,292,0.8,301
				s43.1,17,65.3-7.5S22.8,159.8,29.5,94.3z"/>
			<path class="st2" d="M-127.4,63.7c2.5,13.8,18.2,76.1,34,83.8s51,16.2,65.4,51.2s49.2,47.7,78,58.6
				c48.9,18.6,106.7,5.4,161.2,18.4s110.6,56.9,122.4,78s5.4,20.8,5.4,20.8h-474.4l-14.1-270.8L-127.4,63.7z"/>
			<g>
				<path class="st2" d="M169.7,464.4l-1.1-0.5c1.9-2.8,4.5-5.1,7.6-6.5c2.9-1.4,5.4-3.5,7.2-6.2c1.8-2.4,2.9-5.3,2.9-8.3
					c0.1-3.2,1.2-6.2,3.1-8.8c1.9-2.8,4.5-5.1,7.6-6.5c2.9-1.4,5.4-3.5,7.2-6.2c1.8-2.4,2.8-5.3,2.9-8.3c0.1-3.2,1.2-6.2,3.1-8.8
					c1.9-2.8,4.5-5.1,7.6-6.5c2.9-1.4,5.4-3.5,7.2-6.2c1.8-2.4,2.8-5.3,2.9-8.3c0.1-3.2,1.2-6.2,3.1-8.8c1.9-2.8,4.5-5.1,7.6-6.5
					c2.9-1.4,5.4-3.5,7.2-6.2c1.8-2.4,2.8-5.3,2.9-8.3c0.1-3.2,1.2-6.2,3.1-8.8c1.9-2.8,4.5-5.1,7.6-6.5c2.9-1.4,5.4-3.5,7.2-6.2
					c1.8-2.4,2.9-5.3,2.9-8.3c0.1-3.2,1.2-6.2,3.1-8.8c1.9-2.8,4.5-5.1,7.6-6.5c2.9-1.4,5.4-3.5,7.2-6.2c1.8-2.4,2.9-5.3,2.9-8.4
					c0.1-3.2,1.2-6.2,3.1-8.8l1.1,0.5c-1.8,2.4-2.8,5.3-2.9,8.4c-0.1,3.2-1.2,6.2-3.1,8.8c-1.9,2.8-4.5,5-7.6,6.5
					c-2.9,1.4-5.4,3.5-7.2,6.2c-1.8,2.4-2.8,5.3-2.9,8.3c-0.1,3.2-1.2,6.2-3.1,8.8c-1.9,2.8-4.5,5.1-7.6,6.5
					c-2.9,1.4-5.4,3.5-7.2,6.2c-1.8,2.4-2.8,5.3-2.9,8.4c-0.1,3.2-1.2,6.2-3.1,8.8c-1.9,2.8-4.5,5.1-7.6,6.5
					c-2.9,1.4-5.4,3.5-7.2,6.2c-1.8,2.4-2.8,5.3-2.9,8.3c-0.1,3.2-1.2,6.3-3.1,8.8c-1.9,2.8-4.5,5.1-7.6,6.5
					c-2.9,1.4-5.4,3.5-7.2,6.2c-1.8,2.4-2.8,5.3-2.9,8.3c-0.1,3.2-1.2,6.2-3.1,8.8c-1.9,2.8-4.5,5.1-7.6,6.5
					c-2.9,1.4-5.4,3.5-7.2,6.2c-1.8,2.4-2.8,5.3-2.9,8.3c-0.1,3.2-1.2,6.2-3.1,8.8c-1.9,2.8-4.5,5.1-7.6,6.5
					C174,459.6,171.5,461.7,169.7,464.4z"/>
				<path class="st2" d="M157.3,458.5l-1.1-0.5c1.9-2.8,4.5-5.1,7.6-6.5c2.9-1.4,5.4-3.5,7.2-6.2c1.8-2.4,2.9-5.3,2.9-8.3
					c0.1-3.2,1.2-6.2,3.1-8.8c1.9-2.8,4.5-5.1,7.6-6.5c2.9-1.4,5.4-3.5,7.2-6.2c1.8-2.4,2.8-5.3,2.9-8.3c0.1-3.2,1.2-6.2,3.1-8.8
					c1.9-2.8,4.5-5.1,7.6-6.5c2.9-1.4,5.4-3.5,7.2-6.2c1.8-2.4,2.9-5.3,2.9-8.3c0.1-3.2,1.2-6.2,3.1-8.8c1.9-2.8,4.5-5.1,7.6-6.5
					c2.9-1.4,5.4-3.5,7.2-6.2c1.8-2.4,2.8-5.3,2.9-8.3c0.1-3.2,1.2-6.2,3.1-8.8c1.9-2.8,4.5-5.1,7.6-6.5c2.9-1.4,5.4-3.5,7.2-6.2
					c1.8-2.4,2.8-5.3,2.9-8.4c0.1-3.2,1.2-6.2,3.1-8.8c1.9-2.8,4.5-5.1,7.6-6.5c2.9-1.4,5.4-3.5,7.2-6.2c1.8-2.4,2.8-5.3,2.9-8.4
					c0.1-3.2,1.2-6.2,3.1-8.8l1.1,0.5c-1.8,2.4-2.8,5.3-2.9,8.4c-0.1,3.2-1.2,6.3-3.1,8.8c-1.9,2.8-4.5,5.1-7.6,6.5
					c-2.9,1.4-5.4,3.5-7.2,6.2c-1.8,2.4-2.9,5.3-2.9,8.3c-0.1,3.2-1.2,6.2-3.1,8.8c-1.9,2.8-4.5,5.1-7.6,6.5
					c-2.9,1.4-5.4,3.5-7.2,6.2c-1.8,2.4-2.8,5.3-2.9,8.3c-0.1,3.2-1.2,6.2-3.1,8.8c-1.9,2.8-4.5,5.1-7.6,6.5
					c-2.9,1.4-5.4,3.5-7.2,6.2c-1.8,2.4-2.9,5.3-2.9,8.3c-0.1,3.2-1.2,6.2-3.1,8.8c-1.9,2.8-4.5,5.1-7.6,6.5
					c-2.9,1.4-5.4,3.5-7.2,6.2c-1.8,2.4-2.8,5.3-2.9,8.3c-0.1,3.2-1.2,6.2-3.1,8.8c-1.9,2.8-4.5,5.1-7.6,6.5
					c-2.9,1.4-5.4,3.5-7.2,6.2c-1.8,2.4-2.8,5.3-2.9,8.3c-0.1,3.2-1.2,6.2-3.1,8.8c-1.9,2.8-4.5,5.1-7.6,6.5
					C161.6,453.7,159.1,455.9,157.3,458.5z"/>
				<path class="st2" d="M144.8,452.8l-1.1-0.5c1.9-2.8,4.5-5.1,7.6-6.5c2.9-1.4,5.4-3.5,7.2-6.2c1.8-2.4,2.9-5.3,2.9-8.3
					c0.1-3.2,1.2-6.2,3.1-8.8c1.9-2.8,4.5-5.1,7.6-6.5c2.9-1.4,5.4-3.5,7.2-6.2c1.8-2.4,2.9-5.3,2.9-8.3c0.1-3.2,1.2-6.2,3.1-8.8
					c1.9-2.8,4.5-5.1,7.6-6.5c2.9-1.4,5.4-3.5,7.2-6.2c1.8-2.4,2.8-5.3,2.9-8.3c0.1-3.2,1.2-6.2,3.1-8.8c1.9-2.8,4.5-5.1,7.6-6.5
					c2.9-1.4,5.4-3.5,7.2-6.2c1.8-2.4,2.8-5.3,2.9-8.3c0.1-3.2,1.2-6.2,3.1-8.8c1.9-2.8,4.5-5.1,7.6-6.5c2.9-1.4,5.4-3.5,7.2-6.2
					c1.8-2.4,2.9-5.3,2.9-8.3c0.1-3.2,1.2-6.2,3.1-8.8c1.9-2.8,4.5-5.1,7.6-6.5c2.9-1.4,5.4-3.5,7.2-6.2c1.8-2.4,2.9-5.3,2.9-8.4
					c0.1-3.2,1.2-6.2,3.1-8.8l1.1,0.5c-1.8,2.4-2.8,5.3-2.9,8.4c-0.1,3.2-1.2,6.2-3.1,8.8c-1.9,2.8-4.5,5.1-7.6,6.5
					c-2.9,1.4-5.4,3.5-7.2,6.2c-1.8,2.4-2.8,5.3-2.9,8.3c-0.1,3.2-1.2,6.2-3.1,8.8c-1.9,2.8-4.5,5.1-7.6,6.5
					c-2.9,1.4-5.4,3.5-7.2,6.2c-1.8,2.4-2.9,5.3-2.9,8.3c-0.1,3.2-1.2,6.2-3.1,8.8c-1.9,2.8-4.5,5.1-7.6,6.5
					c-2.9,1.4-5.4,3.5-7.2,6.2c-1.8,2.4-2.8,5.3-2.9,8.3c-0.1,3.2-1.2,6.2-3.1,8.8c-1.9,2.8-4.5,5.1-7.6,6.5
					c-2.9,1.4-5.4,3.5-7.2,6.2c-1.8,2.4-2.8,5.3-2.9,8.3c-0.1,3.2-1.2,6.2-3.1,8.8c-1.9,2.8-4.5,5.1-7.6,6.5
					c-2.9,1.4-5.4,3.5-7.2,6.2c-1.8,2.4-2.9,5.3-2.9,8.3c-0.1,3.2-1.2,6.2-3.1,8.8c-1.9,2.8-4.5,5.1-7.6,6.5
					C149.1,447.9,146.6,450.1,144.8,452.8z"/>
				<path class="st2" d="M132.4,447l-1.1-0.5c1.9-2.8,4.5-5.1,7.6-6.5c2.9-1.4,5.4-3.5,7.2-6.2c1.8-2.4,2.9-5.3,2.9-8.3
					c0.1-3.2,1.2-6.2,3.1-8.8c1.9-2.8,4.5-5.1,7.6-6.5c2.9-1.4,5.4-3.5,7.2-6.2c1.8-2.4,2.8-5.3,2.9-8.3c0.1-3.2,1.2-6.2,3.1-8.8
					c1.9-2.8,4.5-5.1,7.6-6.5c2.9-1.4,5.4-3.5,7.2-6.2c1.8-2.4,2.8-5.3,2.9-8.3c0.1-3.2,1.2-6.2,3.1-8.8c1.9-2.8,4.5-5.1,7.6-6.5
					c2.9-1.4,5.4-3.5,7.2-6.2c1.8-2.4,2.9-5.3,2.9-8.3c0.1-3.2,1.2-6.2,3.1-8.8c1.9-2.8,4.5-5.1,7.6-6.5c2.9-1.4,5.4-3.5,7.2-6.2
					c1.8-2.4,2.9-5.3,2.9-8.4c0.1-3.2,1.2-6.2,3.1-8.8c1.9-2.8,4.5-5.1,7.6-6.5c2.9-1.4,5.4-3.5,7.2-6.2c1.8-2.4,2.8-5.3,2.9-8.4
					c0.1-3.2,1.2-6.2,3.1-8.8l1.1,0.5c-1.8,2.4-2.9,5.3-2.9,8.4c-0.1,3.2-1.2,6.2-3.1,8.8c-1.9,2.8-4.5,5.1-7.6,6.5
					c-2.9,1.4-5.4,3.5-7.2,6.2c-1.8,2.4-2.8,5.3-2.9,8.3c-0.1,3.2-1.2,6.2-3.1,8.8c-1.9,2.8-4.5,5.1-7.6,6.5
					c-2.9,1.4-5.4,3.5-7.2,6.2c-1.8,2.4-2.8,5.3-2.9,8.3c-0.1,3.2-1.2,6.2-3.1,8.8c-1.9,2.8-4.5,5.1-7.6,6.5
					c-2.9,1.4-5.4,3.5-7.2,6.2c-1.8,2.4-2.8,5.3-2.9,8.3c-0.1,3.2-1.2,6.2-3.1,8.8c-1.9,2.8-4.5,5.1-7.6,6.5
					c-2.9,1.4-5.4,3.5-7.2,6.2c-1.8,2.4-2.9,5.3-2.9,8.3c-0.1,3.2-1.2,6.2-3.1,8.8c-1.9,2.8-4.5,5.1-7.6,6.6
					c-2.9,1.4-5.4,3.5-7.2,6.2c-1.8,2.4-2.8,5.3-2.9,8.3c-0.1,3.2-1.2,6.2-3.1,8.8c-1.9,2.8-4.5,5.1-7.6,6.5
					C136.7,442.2,134.2,444.3,132.4,447z"/>
				<path class="st2" d="M119.9,441.2l-1.1-0.5c1.9-2.8,4.5-5,7.6-6.5c2.9-1.4,5.4-3.5,7.2-6.2c1.8-2.4,2.8-5.3,2.9-8.3
					c0.1-3.2,1.2-6.2,3.1-8.8c1.9-2.8,4.5-5.1,7.6-6.5c2.9-1.4,5.4-3.5,7.2-6.2c1.8-2.4,2.9-5.3,2.9-8.3c0.1-3.2,1.2-6.2,3.1-8.8
					c1.9-2.8,4.5-5.1,7.6-6.5c2.9-1.4,5.4-3.5,7.2-6.2c1.8-2.4,2.8-5.3,2.9-8.3c0.1-3.2,1.2-6.2,3.1-8.8c1.9-2.8,4.5-5.1,7.6-6.5
					c2.9-1.4,5.4-3.5,7.2-6.2c1.8-2.4,2.8-5.3,2.9-8.3c0.1-3.2,1.2-6.2,3.1-8.8c1.9-2.8,4.5-5.1,7.6-6.5c2.9-1.4,5.4-3.5,7.2-6.2
					c1.8-2.4,2.8-5.3,2.9-8.3c0.1-3.2,1.2-6.2,3.1-8.8c1.9-2.8,4.5-5.1,7.6-6.5c2.9-1.4,5.4-3.5,7.2-6.2c1.8-2.4,2.9-5.3,2.9-8.4
					c0.1-3.2,1.2-6.2,3.1-8.8l1.1,0.5c-1.8,2.4-2.8,5.3-2.9,8.4c-0.1,3.2-1.2,6.2-3.1,8.8c-1.9,2.8-4.5,5.1-7.6,6.5
					c-2.9,1.4-5.4,3.5-7.2,6.2c-1.8,2.4-2.9,5.3-2.9,8.4c-0.1,3.2-1.2,6.2-3.1,8.8c-1.9,2.8-4.5,5.1-7.6,6.5
					c-2.9,1.4-5.4,3.5-7.2,6.2c-1.8,2.4-2.8,5.3-2.9,8.3c-0.1,3.2-1.2,6.2-3.1,8.8c-1.9,2.8-4.5,5.1-7.6,6.5
					c-2.9,1.4-5.4,3.5-7.2,6.2c-1.8,2.4-2.9,5.3-2.9,8.3c-0.1,3.2-1.2,6.2-3.1,8.8c-1.9,2.8-4.5,5.1-7.6,6.5
					c-2.9,1.4-5.4,3.5-7.2,6.2c-1.8,2.4-2.8,5.3-2.9,8.3c-0.1,3.2-1.2,6.2-3.1,8.8c-1.9,2.8-4.5,5-7.6,6.5c-2.9,1.4-5.4,3.5-7.2,6.2
					c-1.8,2.4-2.9,5.3-2.9,8.3c-0.1,3.2-1.2,6.2-3.1,8.8c-1.9,2.8-4.5,5-7.6,6.5C124.2,436.4,121.7,438.5,119.9,441.2z"/>
				<path class="st2" d="M107.4,435.4l-1.1-0.5c1.9-2.8,4.5-5.1,7.6-6.5c2.9-1.4,5.4-3.5,7.2-6.2c1.8-2.4,2.8-5.3,2.9-8.3
					c0.1-3.2,1.2-6.2,3.1-8.8c1.9-2.8,4.5-5.1,7.6-6.5c2.9-1.4,5.4-3.5,7.2-6.2c1.8-2.4,2.9-5.3,2.9-8.3c0.1-3.2,1.2-6.2,3.1-8.8
					c1.9-2.8,4.5-5.1,7.6-6.5c2.9-1.4,5.4-3.5,7.2-6.2c1.8-2.4,2.8-5.3,2.9-8.3c0.1-3.2,1.2-6.2,3.1-8.8c1.9-2.8,4.5-5.1,7.6-6.5
					c2.9-1.4,5.4-3.5,7.2-6.2c1.8-2.4,2.9-5.3,2.9-8.3c0.1-3.2,1.2-6.2,3.1-8.8c1.9-2.8,4.5-5.1,7.6-6.5c2.9-1.4,5.4-3.5,7.2-6.2
					c1.8-2.4,2.8-5.3,2.9-8.3c0.1-3.2,1.2-6.2,3.1-8.8c1.9-2.8,4.5-5,7.6-6.5c2.9-1.4,5.4-3.5,7.2-6.2c1.8-2.4,2.9-5.3,2.9-8.4
					c0.1-3.2,1.2-6.2,3.1-8.8l1.1,0.5c-1.8,2.4-2.9,5.3-2.9,8.4c-0.1,3.2-1.2,6.2-3.1,8.8c-1.9,2.8-4.5,5.1-7.6,6.5
					c-2.9,1.4-5.4,3.5-7.2,6.2c-1.8,2.4-2.8,5.3-2.9,8.3c-0.1,3.2-1.2,6.2-3.1,8.8c-1.9,2.8-4.5,5-7.5,6.5c-2.9,1.4-5.4,3.5-7.2,6.2
					c-1.8,2.4-2.9,5.3-2.9,8.3c-0.1,3.2-1.2,6.2-3.1,8.8c-1.9,2.8-4.5,5.1-7.6,6.5c-2.9,1.4-5.4,3.5-7.2,6.2
					c-1.8,2.4-2.8,5.3-2.9,8.3c-0.1,3.2-1.2,6.2-3.1,8.8c-1.9,2.8-4.5,5.1-7.6,6.5c-2.9,1.4-5.4,3.5-7.2,6.2
					c-1.8,2.4-2.8,5.3-2.9,8.3c-0.1,3.2-1.2,6.2-3.1,8.8c-1.9,2.8-4.5,5.1-7.6,6.5c-2.9,1.4-5.4,3.5-7.2,6.2
					c-1.8,2.4-2.9,5.3-2.9,8.3c-0.1,3.2-1.2,6.2-3.1,8.8c-1.9,2.8-4.5,5.1-7.6,6.5C111.8,430.6,109.3,432.8,107.4,435.4z"/>
				<path class="st2" d="M95,429.6l-1.1-0.6c1.9-2.8,4.5-5.1,7.6-6.5c2.9-1.4,5.4-3.5,7.2-6.2c1.8-2.4,2.8-5.3,2.9-8.3
					c0.1-3.2,1.2-6.2,3.1-8.8c1.9-2.8,4.5-5.1,7.6-6.5c2.9-1.4,5.4-3.5,7.2-6.2c1.8-2.4,2.8-5.3,2.9-8.3c0.1-3.2,1.2-6.2,3.1-8.8
					c1.9-2.8,4.5-5.1,7.6-6.5c2.9-1.4,5.4-3.5,7.2-6.2c1.8-2.4,2.9-5.3,2.9-8.3c0.1-3.2,1.2-6.2,3.1-8.8c1.9-2.8,4.5-5.1,7.6-6.5
					c2.9-1.4,5.4-3.5,7.2-6.2c1.8-2.4,2.8-5.3,2.9-8.3c0.1-3.2,1.2-6.2,3.1-8.8c1.9-2.8,4.5-5.1,7.6-6.5c2.9-1.4,5.4-3.5,7.2-6.2
					c1.8-2.4,2.9-5.3,2.9-8.3c0.1-3.2,1.2-6.2,3.1-8.8c1.9-2.8,4.5-5.1,7.6-6.5c2.9-1.4,5.4-3.5,7.2-6.2c1.8-2.4,2.9-5.3,2.9-8.4
					c0.1-3.2,1.2-6.2,3.1-8.8l1.1,0.6c-1.8,2.4-2.9,5.4-2.9,8.4c-0.1,3.2-1.2,6.2-3.1,8.8c-1.9,2.8-4.5,5.1-7.6,6.5
					c-2.9,1.4-5.4,3.5-7.2,6.2c-1.8,2.4-2.8,5.3-2.9,8.4c-0.1,3.2-1.2,6.2-3.1,8.8c-1.9,2.8-4.5,5.1-7.6,6.5
					c-2.9,1.4-5.4,3.5-7.2,6.2c-1.8,2.4-2.8,5.3-2.9,8.3c-0.1,3.2-1.2,6.2-3.1,8.8c-1.9,2.8-4.5,5-7.6,6.5c-2.9,1.4-5.4,3.5-7.2,6.2
					c-1.8,2.4-2.9,5.3-2.9,8.3c-0.1,3.2-1.2,6.2-3.1,8.8c-1.9,2.8-4.5,5-7.6,6.5c-2.9,1.4-5.4,3.5-7.2,6.2c-1.8,2.4-2.8,5.3-2.9,8.3
					c-0.1,3.2-1.2,6.2-3.1,8.8c-1.9,2.8-4.5,5.1-7.6,6.5c-2.9,1.4-5.4,3.5-7.2,6.2c-1.8,2.4-2.8,5.3-2.9,8.3
					c-0.1,3.2-1.2,6.2-3.1,8.8c-1.9,2.8-4.5,5.1-7.6,6.5C99.3,424.9,96.8,427,95,429.6z"/>
				<path class="st2" d="M82.5,423.9l-1.1-0.5c1.9-2.8,4.5-5.1,7.6-6.5c2.9-1.4,5.4-3.5,7.2-6.2c1.8-2.4,2.9-5.3,2.9-8.4
					c0.1-3.2,1.2-6.2,3.1-8.8c1.9-2.8,4.5-5.1,7.6-6.5c2.9-1.4,5.4-3.5,7.2-6.2c1.8-2.4,2.9-5.3,2.9-8.3c0.1-3.2,1.2-6.2,3.1-8.8
					c1.9-2.8,4.5-5.1,7.6-6.5c2.9-1.4,5.4-3.5,7.2-6.2c1.8-2.4,2.9-5.3,2.9-8.3c0.1-3.2,1.2-6.2,3.1-8.8c1.9-2.8,4.5-5.1,7.6-6.5
					c2.9-1.4,5.4-3.5,7.2-6.2c1.8-2.4,2.8-5.3,2.9-8.3c0.1-3.2,1.2-6.2,3.1-8.7c1.9-2.8,4.5-5.1,7.6-6.5c2.9-1.4,5.4-3.5,7.2-6.2
					c1.8-2.4,2.9-5.3,2.9-8.3c0.1-3.2,1.2-6.2,3.1-8.8c1.9-2.8,4.5-5,7.6-6.5c2.9-1.4,5.4-3.5,7.2-6.2c1.8-2.4,2.9-5.3,2.9-8.3
					c0.1-3.2,1.2-6.3,3.1-8.8l1.1,0.6c-1.8,2.4-2.9,5.3-2.9,8.4c-0.1,3.2-1.2,6.2-3.1,8.8c-1.9,2.8-4.5,5.1-7.6,6.5
					c-2.9,1.4-5.4,3.5-7.2,6.2c-1.8,2.4-2.8,5.3-2.9,8.3c-0.1,3.2-1.2,6.2-3.1,8.8c-1.9,2.8-4.5,5.1-7.6,6.5
					c-2.9,1.4-5.4,3.5-7.2,6.2c-1.8,2.4-2.8,5.3-2.9,8.3c-0.1,3.2-1.2,6.2-3.1,8.8c-1.9,2.8-4.5,5.1-7.6,6.5
					c-2.9,1.4-5.4,3.5-7.2,6.2c-1.8,2.4-2.8,5.3-2.9,8.3c-0.1,3.2-1.2,6.2-3.1,8.8c-1.9,2.8-4.5,5.1-7.6,6.5
					c-2.9,1.4-5.4,3.5-7.2,6.2c-1.8,2.4-2.9,5.3-2.9,8.3c-0.1,3.2-1.2,6.2-3.1,8.8c-1.9,2.8-4.5,5.1-7.6,6.5
					c-2.9,1.4-5.4,3.5-7.2,6.2c-1.8,2.4-2.8,5.3-2.9,8.3c-0.1,3.2-1.2,6.2-3.1,8.8c-1.9,2.8-4.5,5.1-7.6,6.5
					C86.8,419.1,84.3,421.2,82.5,423.9z"/>
				<path class="st2" d="M70.1,418.1l-1.1-0.6c1.9-2.8,4.5-5.1,7.6-6.5c2.9-1.4,5.4-3.5,7.2-6.2c1.8-2.4,2.8-5.3,2.9-8.3
					c0.1-3.2,1.2-6.2,3.1-8.8c1.9-2.8,4.5-5.1,7.6-6.5c2.9-1.4,5.4-3.5,7.2-6.2c1.8-2.4,2.9-5.3,2.9-8.3c0.1-3.2,1.2-6.2,3.1-8.8
					c1.9-2.8,4.5-5.1,7.6-6.5c2.9-1.4,5.4-3.5,7.2-6.2c1.8-2.4,2.8-5.3,2.9-8.3c0.1-3.2,1.2-6.2,3.1-8.8c1.9-2.8,4.5-5.1,7.6-6.5
					c2.9-1.4,5.4-3.5,7.2-6.2c1.8-2.4,2.8-5.3,2.9-8.3c0.1-3.2,1.2-6.2,3.1-8.8c1.9-2.8,4.5-5.1,7.6-6.5c2.9-1.4,5.4-3.5,7.2-6.2
					c1.8-2.4,2.8-5.3,2.9-8.3c0.1-3.2,1.2-6.2,3.1-8.8c1.9-2.8,4.5-5.1,7.6-6.5c2.9-1.4,5.4-3.5,7.2-6.2c1.8-2.4,2.9-5.3,2.9-8.4
					c0.1-3.2,1.2-6.2,3.1-8.8l1.1,0.5c-1.8,2.4-2.9,5.3-2.9,8.4c-0.1,3.2-1.2,6.2-3.1,8.8c-1.9,2.8-4.5,5.1-7.6,6.5
					c-2.9,1.4-5.4,3.5-7.2,6.2c-1.8,2.4-2.9,5.3-2.9,8.4c-0.1,3.2-1.2,6.2-3.1,8.8c-1.9,2.8-4.5,5.1-7.6,6.5
					c-2.9,1.4-5.4,3.5-7.2,6.2c-1.8,2.4-2.9,5.3-2.9,8.3c-0.1,3.2-1.2,6.2-3.1,8.8c-1.9,2.8-4.5,5.1-7.6,6.5
					c-2.9,1.4-5.4,3.5-7.2,6.2c-1.8,2.4-2.8,5.3-2.9,8.3c-0.1,3.2-1.2,6.2-3.1,8.8c-1.9,2.8-4.5,5.1-7.6,6.5
					c-2.9,1.4-5.4,3.5-7.2,6.2c-1.8,2.4-2.8,5.3-2.9,8.3c-0.1,3.2-1.2,6.2-3.1,8.8c-1.9,2.8-4.5,5-7.6,6.5c-2.9,1.4-5.4,3.5-7.2,6.2
					c-1.8,2.4-2.8,5.4-2.9,8.4c-0.1,3.2-1.2,6.2-3.1,8.8c-1.9,2.8-4.5,5.1-7.6,6.5C74.4,413.3,71.9,415.4,70.1,418.1z"/>
				<path class="st2" d="M57.6,412.3l-1.1-0.6c1.9-2.8,4.5-5.1,7.6-6.5c2.9-1.4,5.4-3.5,7.2-6.2c1.8-2.4,2.9-5.3,2.9-8.3
					c0.1-3.2,1.2-6.2,3.1-8.8c1.9-2.8,4.5-5.1,7.6-6.5c2.9-1.4,5.4-3.5,7.2-6.2c1.8-2.4,2.8-5.3,2.9-8.3c0.1-3.2,1.2-6.2,3.1-8.8
					c1.9-2.8,4.5-5.1,7.6-6.5c2.9-1.4,5.4-3.5,7.2-6.2c1.8-2.4,2.8-5.3,2.9-8.3c0.1-3.2,1.2-6.2,3.1-8.8c1.9-2.8,4.5-5.1,7.6-6.5
					c2.9-1.4,5.4-3.5,7.2-6.2c1.8-2.4,2.8-5.3,2.9-8.3c0.1-3.2,1.2-6.2,3.1-8.8c1.9-2.8,4.5-5.1,7.6-6.5c2.9-1.4,5.4-3.5,7.2-6.2
					c1.8-2.4,2.9-5.3,2.9-8.3c0.1-3.2,1.2-6.2,3.1-8.8c1.9-2.8,4.5-5,7.6-6.5c2.9-1.4,5.4-3.5,7.2-6.2c1.8-2.4,2.9-5.3,2.9-8.4
					c0.1-3.2,1.2-6.2,3.1-8.8l1.1,0.6c-1.8,2.4-2.8,5.3-2.9,8.4c-0.1,3.2-1.2,6.2-3.1,8.8c-1.9,2.8-4.5,5.1-7.6,6.5
					c-2.9,1.4-5.4,3.5-7.2,6.2c-1.8,2.4-2.8,5.3-2.9,8.3c-0.1,3.2-1.2,6.2-3.1,8.8c-1.9,2.8-4.5,5.1-7.6,6.5
					c-2.9,1.4-5.4,3.5-7.2,6.2c-1.8,2.4-2.8,5.3-2.9,8.3c-0.1,3.2-1.2,6.2-3.1,8.8c-1.9,2.8-4.5,5.1-7.6,6.5
					c-2.9,1.4-5.4,3.5-7.2,6.2c-1.8,2.4-2.8,5.3-2.9,8.3c-0.1,3.2-1.2,6.2-3.1,8.8c-1.9,2.8-4.5,5.1-7.6,6.5
					c-2.9,1.4-5.4,3.5-7.2,6.2c-1.8,2.4-2.8,5.3-2.9,8.4c-0.1,3.2-1.2,6.2-3.1,8.8c-1.9,2.8-4.5,5.1-7.6,6.5
					c-2.9,1.4-5.4,3.5-7.2,6.2c-1.8,2.4-2.8,5.3-2.9,8.3c-0.1,3.2-1.2,6.2-3.1,8.8c-1.9,2.8-4.5,5-7.6,6.5
					C61.9,407.5,59.4,409.6,57.6,412.3z"/>
				<path class="st2" d="M45.1,406.5L44,406c1.9-2.8,4.5-5.1,7.6-6.5c2.9-1.4,5.4-3.5,7.2-6.2c1.8-2.4,2.8-5.3,2.9-8.3
					c0.1-3.2,1.2-6.2,3.1-8.8c1.9-2.8,4.5-5.1,7.6-6.5c2.9-1.4,5.4-3.5,7.2-6.2c1.8-2.4,2.9-5.3,2.9-8.3c0.1-3.2,1.2-6.2,3.1-8.8
					c1.9-2.8,4.5-5.1,7.6-6.5c2.9-1.4,5.4-3.5,7.2-6.2c1.8-2.4,2.8-5.3,2.9-8.3c0.1-3.2,1.2-6.2,3.1-8.8c1.9-2.8,4.5-5.1,7.6-6.5
					c2.9-1.4,5.4-3.5,7.2-6.2c1.8-2.4,2.8-5.3,2.9-8.3c0.1-3.2,1.2-6.2,3.1-8.8c1.9-2.8,4.5-5.1,7.6-6.5c2.9-1.4,5.4-3.5,7.2-6.2
					c1.8-2.4,2.8-5.3,2.9-8.3c0.1-3.2,1.2-6.2,3.1-8.8c1.9-2.8,4.5-5.1,7.6-6.5c3-1.4,5.5-3.6,7.3-6.3c1.8-2.4,2.9-5.3,2.9-8.4
					c0.1-3.2,1.2-6.2,3.1-8.8l1.1,0.6c-1.8,2.4-2.9,5.3-2.9,8.4c-0.1,3.2-1.2,6.2-3.1,8.8c-1.9,2.8-4.5,5.1-7.6,6.5
					c-2.9,1.4-5.4,3.5-7.2,6.2c-1.8,2.4-2.8,5.3-2.9,8.3c-0.1,3.2-1.2,6.2-3.1,8.8c-1.9,2.8-4.5,5.1-7.6,6.5
					c-2.9,1.4-5.4,3.5-7.2,6.2c-1.8,2.4-2.9,5.3-2.9,8.3c-0.1,3.2-1.2,6.2-3.1,8.8c-1.9,2.8-4.5,5.1-7.6,6.5
					c-2.9,1.4-5.4,3.5-7.2,6.2c-1.8,2.4-2.8,5.3-2.9,8.3c-0.1,3.2-1.2,6.2-3.1,8.8c-1.9,2.8-4.5,5.1-7.6,6.5
					c-2.9,1.4-5.4,3.5-7.2,6.2c-1.8,2.4-2.8,5.3-2.9,8.3c-0.1,3.2-1.2,6.2-3.1,8.8c-1.9,2.8-4.5,5.1-7.6,6.5
					c-2.9,1.4-5.4,3.5-7.2,6.2c-1.9,2.4-2.9,5.3-3,8.4c-0.1,3.2-1.1,6.2-3,8.8c-1.9,2.8-4.5,5.1-7.6,6.5
					C49.5,401.7,47,403.8,45.1,406.5z"/>
				<path class="st2" d="M32.7,400.7l-1.1-0.5c1.9-2.8,4.5-5.1,7.6-6.5c2.9-1.4,5.4-3.5,7.2-6.2c1.8-2.4,2.9-5.3,2.9-8.3
					c0.1-3.2,1.2-6.2,3.1-8.8c1.9-2.8,4.5-5.1,7.6-6.5c2.9-1.4,5.4-3.5,7.2-6.2c1.8-2.4,2.9-5.3,2.9-8.3c0.1-3.2,1.2-6.2,3.1-8.8
					c1.9-2.8,4.5-5.1,7.6-6.5c2.9-1.4,5.4-3.5,7.2-6.2c1.8-2.4,2.9-5.3,2.9-8.3c0.1-3.2,1.2-6.2,3.1-8.8c1.9-2.8,4.5-5.1,7.6-6.5
					c2.9-1.4,5.4-3.5,7.2-6.2c1.8-2.4,2.8-5.3,2.9-8.3c0.1-3.2,1.2-6.2,3.1-8.8c1.9-2.8,4.5-5.1,7.6-6.5c2.9-1.4,5.4-3.5,7.2-6.2
					c1.8-2.4,2.8-5.3,2.9-8.3c0.1-3.2,1.2-6.2,3.1-8.8c1.9-2.8,4.5-5.1,7.6-6.5c2.9-1.4,5.4-3.5,7.2-6.2c1.8-2.4,2.8-5.3,2.9-8.4
					c0.1-3.2,1.2-6.2,3.1-8.8l1.1,0.5c-1.8,2.4-2.8,5.3-2.9,8.4c-0.1,3.2-1.2,6.2-3.1,8.8c-1.9,2.8-4.5,5.1-7.6,6.5
					c-2.9,1.4-5.4,3.5-7.2,6.2c-1.8,2.4-2.8,5.3-2.9,8.3c-0.1,3.2-1.2,6.2-3.1,8.8c-1.9,2.8-4.5,5.1-7.6,6.5
					c-2.9,1.4-5.4,3.5-7.2,6.2c-1.8,2.4-2.8,5.3-2.9,8.3c-0.1,3.2-1.2,6.2-3.1,8.8c-1.9,2.8-4.5,5.1-7.6,6.5
					c-2.9,1.4-5.4,3.5-7.2,6.2c-1.8,2.4-2.8,5.3-2.9,8.3c-0.1,3.2-1.2,6.2-3.1,8.8c-1.9,2.8-4.5,5.1-7.6,6.5
					c-2.9,1.4-5.4,3.5-7.2,6.2c-1.8,2.4-2.9,5.3-2.9,8.3c-0.1,3.2-1.2,6.2-3.1,8.8c-1.9,2.8-4.5,5-7.6,6.5c-2.9,1.4-5.4,3.5-7.2,6.2
					c-1.8,2.4-2.8,5.3-2.9,8.3c-0.1,3.2-1.2,6.2-3.1,8.8c-1.9,2.8-4.5,5.1-7.6,6.5C37,395.9,34.5,398.1,32.7,400.7z"/>
				<path class="st2" d="M20.2,395l-1.1-0.5c1.9-2.8,4.5-5.1,7.6-6.5c2.9-1.4,5.5-3.5,7.3-6.2c1.8-2.4,2.9-5.3,2.9-8.3
					c0.1-3.2,1.2-6.2,3.1-8.8c1.9-2.8,4.5-5.1,7.6-6.5c2.9-1.4,5.4-3.5,7.2-6.2c1.8-2.4,2.8-5.3,2.9-8.3c0.1-3.2,1.2-6.2,3.1-8.8
					c1.9-2.8,4.5-5.1,7.6-6.5c2.9-1.4,5.4-3.5,7.2-6.2c1.8-2.4,2.8-5.3,2.9-8.3c0.1-3.2,1.2-6.2,3.1-8.8c1.9-2.8,4.5-5.1,7.6-6.5
					c2.9-1.4,5.4-3.5,7.2-6.2c1.8-2.4,2.9-5.3,2.9-8.3c0.1-3.2,1.2-6.2,3.1-8.8c1.9-2.8,4.5-5.1,7.6-6.5c2.9-1.4,5.4-3.5,7.2-6.2
					c1.8-2.4,2.8-5.3,2.9-8.3c0.1-3.2,1.2-6.2,3.1-8.8c1.9-2.8,4.5-5.1,7.6-6.5c2.9-1.4,5.4-3.5,7.2-6.2c1.8-2.4,2.8-5.3,2.9-8.4
					c0.1-3.2,1.2-6.2,3.1-8.8l1.1,0.5c-1.8,2.4-2.8,5.3-2.9,8.4c-0.1,3.2-1.2,6.2-3.1,8.8c-1.9,2.8-4.5,5.1-7.6,6.5
					c-2.9,1.4-5.4,3.5-7.2,6.2c-1.8,2.4-2.8,5.3-2.9,8.4c-0.1,3.2-1.2,6.2-3.1,8.8c-1.9,2.8-4.5,5.1-7.6,6.5
					c-2.9,1.4-5.4,3.5-7.2,6.2c-1.8,2.4-2.8,5.3-2.9,8.3c-0.1,3.2-1.2,6.2-3.1,8.8c-1.9,2.8-4.5,5.1-7.6,6.5
					c-2.9,1.4-5.4,3.5-7.2,6.2c-1.8,2.4-2.9,5.3-2.9,8.3c-0.1,3.2-1.2,6.2-3.1,8.8c-1.9,2.8-4.5,5.1-7.6,6.5
					c-2.9,1.4-5.4,3.5-7.2,6.2c-1.8,2.4-2.8,5.3-2.9,8.3c-0.1,3.2-1.2,6.2-3.1,8.8c-1.9,2.8-4.5,5.1-7.6,6.5
					c-2.9,1.4-5.4,3.5-7.2,6.2c-1.8,2.4-2.8,5.3-2.9,8.3c-0.1,3.2-1.2,6.2-3.2,8.8c-1.9,2.8-4.5,5.1-7.6,6.5
					C24.5,390.2,22,392.3,20.2,395z"/>
				<path class="st2" d="M7.8,389.2l-1.1-0.5c1.9-2.8,4.5-5.1,7.6-6.5c2.9-1.4,5.4-3.5,7.2-6.2c1.8-2.4,2.8-5.3,2.9-8.3
					c0.1-3.2,1.2-6.2,3.1-8.8c1.9-2.8,4.5-5.1,7.6-6.5c2.9-1.4,5.4-3.5,7.2-6.2c1.8-2.4,2.8-5.3,2.9-8.3c0.1-3.2,1.2-6.2,3.1-8.7
					c1.9-2.8,4.5-5.1,7.6-6.5c2.9-1.4,5.4-3.5,7.2-6.2c1.8-2.4,2.9-5.3,2.9-8.3c0.1-3.2,1.2-6.2,3.1-8.8c1.9-2.8,4.5-5.1,7.6-6.5
					c2.9-1.4,5.4-3.5,7.2-6.2c1.8-2.4,2.8-5.3,2.9-8.3c0.1-3.2,1.2-6.3,3.1-8.8c1.9-2.8,4.5-5.1,7.6-6.5c2.9-1.4,5.4-3.5,7.2-6.2
					c1.8-2.4,2.9-5.3,2.9-8.3c0.1-3.2,1.2-6.2,3.1-8.8c1.9-2.8,4.5-5.1,7.6-6.5c2.9-1.4,5.4-3.5,7.2-6.2c1.8-2.4,2.9-5.3,2.9-8.4
					c0.1-3.2,1.2-6.3,3.1-8.8l1.1,0.6c-1.8,2.4-2.9,5.3-2.9,8.4c-0.1,3.2-1.2,6.2-3.1,8.8c-1.9,2.8-4.5,5.1-7.6,6.5
					c-2.9,1.4-5.4,3.5-7.2,6.2c-1.8,2.4-2.9,5.3-2.9,8.3c-0.1,3.2-1.2,6.2-3.1,8.8c-1.9,2.8-4.5,5.1-7.6,6.5
					c-2.9,1.4-5.4,3.5-7.2,6.2c-1.8,2.4-2.8,5.3-2.9,8.3c-0.1,3.2-1.2,6.3-3.1,8.8c-1.9,2.8-4.5,5.1-7.6,6.5
					c-2.9,1.4-5.4,3.5-7.2,6.2c-1.8,2.4-2.8,5.3-2.9,8.3c-0.1,3.2-1.2,6.2-3.1,8.8c-1.9,2.8-4.5,5.1-7.6,6.5
					c-2.9,1.4-5.4,3.5-7.2,6.2c-1.8,2.4-2.9,5.3-2.9,8.3c-0.1,3.2-1.2,6.2-3.1,8.8c-1.9,2.8-4.5,5.1-7.6,6.5
					c-2.9,1.4-5.4,3.5-7.2,6.2c-1.8,2.4-2.8,5.3-2.9,8.3c-0.1,3.2-1.2,6.2-3.1,8.8c-1.9,2.8-4.5,5.1-7.6,6.6
					C12.1,384.4,9.6,386.5,7.8,389.2z"/>
				<path class="st2" d="M-4.6,383.4l-1.1-0.5c1.9-2.8,4.5-5.1,7.6-6.5c2.9-1.4,5.4-3.5,7.2-6.2c1.8-2.4,2.8-5.3,2.9-8.3
					c0.1-3.2,1.2-6.3,3.1-8.8c1.9-2.8,4.5-5.1,7.6-6.5c2.9-1.4,5.4-3.5,7.2-6.2c1.8-2.4,2.8-5.3,2.9-8.3c0.1-3.2,1.2-6.2,3.1-8.8
					c1.9-2.8,4.5-5.1,7.6-6.5c2.9-1.4,5.4-3.5,7.2-6.2c1.8-2.4,2.8-5.3,2.9-8.3c0.1-3.2,1.2-6.2,3.1-8.8c1.9-2.8,4.5-5.1,7.6-6.5
					c2.9-1.4,5.4-3.5,7.2-6.2c1.8-2.4,2.9-5.3,2.9-8.3c0.1-3.2,1.2-6.2,3.1-8.8c1.9-2.8,4.5-5.1,7.6-6.5c2.9-1.4,5.4-3.5,7.2-6.2
					c1.8-2.4,2.8-5.3,2.9-8.3c0.1-3.2,1.2-6.2,3.1-8.8c1.9-2.8,4.5-5.1,7.6-6.5c2.9-1.4,5.4-3.5,7.2-6.2c1.8-2.4,2.8-5.3,2.9-8.4
					c0.1-3.2,1.2-6.2,3.1-8.8l1.1,0.6c-1.8,2.4-2.9,5.3-2.9,8.4c-0.1,3.2-1.2,6.2-3.1,8.8c-1.9,2.8-4.5,5-7.6,6.5
					c-2.9,1.4-5.4,3.5-7.2,6.2c-1.8,2.4-2.9,5.3-2.9,8.3c-0.1,3.2-1.2,6.2-3.1,8.8c-1.9,2.8-4.5,5.1-7.6,6.5
					c-2.9,1.4-5.4,3.5-7.2,6.2c-1.8,2.4-2.8,5.3-2.9,8.3c-0.1,3.2-1.2,6.2-3.1,8.8c-1.9,2.8-4.5,5.1-7.6,6.5
					c-2.9,1.4-5.4,3.5-7.2,6.2c-1.8,2.4-2.8,5.3-2.9,8.3c-0.1,3.2-1.2,6.3-3.1,8.8c-1.9,2.8-4.5,5.1-7.6,6.5
					c-2.9,1.4-5.4,3.5-7.2,6.2c-1.8,2.4-2.8,5.3-2.9,8.3c-0.1,3.2-1.2,6.3-3.1,8.8c-1.9,2.8-4.5,5.1-7.6,6.5
					c-2.9,1.4-5.4,3.5-7.2,6.2c-1.8,2.4-2.8,5.3-2.9,8.3c-0.1,3.2-1.2,6.2-3.1,8.8c-1.9,2.8-4.5,5.1-7.6,6.5
					C-0.3,378.6-2.8,380.7-4.6,383.4z"/>
				<path class="st2" d="M-17.1,377.6l-1.1-0.5c1.9-2.8,4.5-5.1,7.6-6.5c2.9-1.4,5.4-3.5,7.2-6.2c1.8-2.4,2.8-5.3,2.9-8.4
					c0.1-3.2,1.2-6.2,3.1-8.8c1.9-2.8,4.5-5.1,7.6-6.5c2.9-1.4,5.4-3.5,7.2-6.2c1.8-2.4,2.9-5.3,2.9-8.3c0.1-3.2,1.2-6.2,3.1-8.8
					c1.9-2.8,4.5-5.1,7.6-6.5c2.9-1.4,5.4-3.5,7.2-6.2c1.8-2.4,2.8-5.3,2.9-8.3c0.1-3.2,1.2-6.2,3.1-8.8c1.9-2.8,4.5-5.1,7.6-6.5
					c2.9-1.4,5.4-3.5,7.2-6.2c1.8-2.4,2.8-5.3,2.9-8.3c0.1-3.2,1.2-6.2,3.1-8.8c1.9-2.8,4.5-5.1,7.6-6.5c2.9-1.4,5.4-3.5,7.2-6.2
					c1.8-2.4,2.8-5.3,2.9-8.3c0.1-3.2,1.2-6.2,3.1-8.8c1.9-2.8,4.5-5.1,7.6-6.5c2.9-1.4,5.4-3.5,7.2-6.2c1.8-2.4,2.9-5.3,2.9-8.4
					c0.1-3.2,1.2-6.2,3.1-8.8l1.1,0.6c-1.8,2.4-2.9,5.3-2.9,8.4c-0.1,3.2-1.2,6.2-3.1,8.8c-1.9,2.8-4.5,5.1-7.6,6.5
					c-2.9,1.4-5.4,3.5-7.2,6.2c-1.8,2.4-2.8,5.3-2.9,8.3c-0.1,3.2-1.2,6.2-3.1,8.8c-1.9,2.8-4.5,5.1-7.6,6.5
					c-2.9,1.4-5.4,3.5-7.2,6.2c-1.8,2.4-2.8,5.3-2.9,8.3c-0.1,3.2-1.2,6.2-3.1,8.8c-1.9,2.8-4.5,5.1-7.6,6.5
					c-2.9,1.4-5.4,3.5-7.2,6.2c-1.8,2.4-2.8,5.3-2.9,8.3c-0.1,3.2-1.2,6.2-3.1,8.8c-1.9,2.8-4.5,5-7.6,6.5c-2.9,1.4-5.4,3.5-7.2,6.2
					c-1.8,2.4-2.8,5.3-2.9,8.3c-0.1,3.2-1.2,6.2-3.1,8.8c-1.9,2.8-4.5,5-7.6,6.5c-2.9,1.4-5.4,3.5-7.2,6.2c-1.8,2.4-2.8,5.3-2.9,8.3
					c-0.1,3.2-1.2,6.2-3.1,8.8c-1.9,2.8-4.5,5-7.6,6.5C-12.8,372.8-15.3,374.9-17.1,377.6z"/>
				<path class="st2" d="M-29.5,371.8l-1.1-0.6c1.9-2.8,4.6-5.1,7.6-6.5c2.9-1.4,5.4-3.5,7.2-6.2c1.8-2.4,2.8-5.3,2.9-8.3
					c0.1-3.2,1.2-6.2,3.1-8.8c1.9-2.8,4.5-5.1,7.6-6.5c2.9-1.4,5.4-3.5,7.2-6.2c1.8-2.4,2.8-5.3,2.9-8.3c0.1-3.2,1.2-6.2,3.1-8.8
					c1.9-2.8,4.5-5.1,7.6-6.5c2.9-1.4,5.4-3.5,7.2-6.2c1.8-2.4,2.8-5.3,2.9-8.3c0.1-3.2,1.2-6.2,3.1-8.8c1.9-2.8,4.5-5.1,7.6-6.5
					c2.9-1.4,5.4-3.5,7.2-6.2c1.8-2.4,2.8-5.3,2.9-8.3c0.1-3.2,1.2-6.2,3.1-8.7c1.9-2.8,4.5-5.1,7.6-6.5c2.9-1.4,5.4-3.5,7.2-6.2
					c1.8-2.4,2.8-5.3,2.9-8.3c0.1-3.2,1.2-6.2,3.1-8.8c1.9-2.8,4.5-5.1,7.6-6.5c2.9-1.4,5.4-3.5,7.2-6.2c1.8-2.4,2.9-5.4,2.9-8.4
					c0.1-3.2,1.2-6.2,3.1-8.8l1.1,0.6c-1.8,2.4-2.8,5.3-2.9,8.4c-0.1,3.2-1.2,6.2-3.1,8.8c-1.9,2.8-4.5,5.1-7.6,6.5
					c-2.9,1.4-5.4,3.5-7.2,6.2c-1.8,2.4-2.8,5.3-2.9,8.3c-0.1,3.2-1.2,6.2-3.1,8.8c-1.9,2.8-4.5,5.1-7.6,6.5
					c-2.9,1.4-5.4,3.5-7.2,6.2c-1.8,2.4-2.8,5.3-2.9,8.3c-0.1,3.2-1.2,6.2-3.1,8.8c-1.9,2.8-4.5,5.1-7.6,6.5
					c-2.9,1.4-5.4,3.5-7.2,6.2c-1.8,2.4-2.9,5.3-2.9,8.4c-0.1,3.2-1.2,6.2-3.1,8.8c-1.9,2.8-4.5,5.1-7.6,6.5
					c-2.9,1.4-5.4,3.5-7.2,6.2c-1.8,2.4-2.9,5.3-2.9,8.3c-0.1,3.2-1.2,6.2-3.1,8.8c-1.9,2.8-4.5,5.1-7.6,6.5
					c-2.9,1.4-5.4,3.5-7.2,6.2c-1.8,2.4-2.9,5.3-2.9,8.3c-0.1,3.2-1.2,6.2-3.1,8.8c-1.9,2.8-4.5,5.1-7.6,6.5
					C-25.2,367-27.7,369.2-29.5,371.8z"/>
				<path class="st2" d="M-42,366.1l-1.1-0.6c1.9-2.8,4.5-5,7.6-6.5c2.9-1.4,5.4-3.5,7.2-6.2c1.8-2.4,2.8-5.3,2.9-8.3
					c0.1-3.2,1.2-6.2,3.1-8.8c1.9-2.8,4.5-5.1,7.6-6.5c2.9-1.4,5.4-3.5,7.2-6.2c1.8-2.4,2.9-5.3,2.9-8.3c0.1-3.2,1.2-6.2,3.1-8.8
					c1.9-2.8,4.5-5.1,7.6-6.5c2.9-1.4,5.4-3.5,7.2-6.2c1.8-2.4,2.8-5.3,2.9-8.3c0.1-3.2,1.2-6.3,3.1-8.8c1.9-2.8,4.5-5.1,7.6-6.5
					c2.9-1.4,5.4-3.5,7.2-6.2c1.8-2.4,2.8-5.3,2.9-8.3c0.1-3.2,1.2-6.2,3.1-8.8c1.9-2.8,4.5-5.1,7.6-6.5c2.9-1.4,5.4-3.6,7.2-6.3
					c1.8-2.4,2.9-5.3,2.9-8.3c0.1-3.2,1.2-6.2,3.1-8.8c1.9-2.8,4.5-5.1,7.6-6.5c2.9-1.4,5.4-3.5,7.2-6.2c1.8-2.4,2.9-5.3,2.9-8.4
					c0.1-3.2,1.2-6.2,3.1-8.8L83,187c-1.8,2.4-2.9,5.3-3,8.4c-0.1,3.2-1.2,6.2-3.1,8.8c-1.9,2.8-4.5,5.1-7.6,6.5
					c-2.9,1.4-5.4,3.5-7.2,6.2c-1.8,2.4-2.8,5.3-2.9,8.3c-0.1,3.2-1.2,6.2-3.1,8.8c-1.9,2.8-4.5,5.1-7.6,6.5
					c-2.9,1.4-5.4,3.5-7.2,6.2c-1.8,2.4-2.8,5.3-2.9,8.3c-0.1,3.2-1.2,6.2-3.1,8.8c-1.9,2.8-4.5,5.1-7.6,6.5
					c-2.9,1.4-5.4,3.5-7.2,6.2c-1.8,2.4-2.8,5.3-2.9,8.3c-0.1,3.2-1.2,6.2-3.1,8.8c-1.9,2.8-4.5,5.1-7.6,6.5
					c-2.9,1.4-5.4,3.5-7.2,6.2c-1.8,2.4-2.8,5.3-2.9,8.3c-0.1,3.2-1.2,6.2-3.1,8.8c-1.9,2.8-4.5,5-7.6,6.5c-2.9,1.4-5.4,3.5-7.2,6.2
					c-1.8,2.4-2.8,5.3-2.9,8.3c-0.1,3.2-1.2,6.2-3.1,8.8c-1.9,2.8-4.5,5.1-7.6,6.5C-37.7,361.2-40.2,363.4-42,366.1z"/>
			</g>
		</g>
	</g>
</g>
</svg>
