<svg width="542" height="1742" viewBox="0 0 542 1742" fill="none" xmlns="http://www.w3.org/2000/svg">
<path d="M541.023 1059.39C540.113 1063.93 539.433 1068.54 538.253 1073C530.953 1100.71 513.893 1119.86 487.253 1130.18C483.513 1131.63 483.253 1133.82 483.253 1137.01C483.293 1187.97 483.293 1238.93 483.253 1289.9C483.253 1360.35 483.253 1430.8 483.253 1501.25C483.253 1524.37 483.713 1547.49 478.473 1570.31C466.343 1623.22 438.983 1666.22 395.603 1698.76C355.603 1728.76 310.173 1742.76 260.343 1741.7C161.563 1739.63 75.2528 1668.21 54.1628 1571.56C47.8685 1543.2 47.3278 1513.86 52.5728 1485.28C53.2728 1481.49 52.0428 1480.47 48.9128 1479.28C22.6328 1469.51 5.91281 1450.95 1.16281 1423.28C-7.23719 1374.28 31.1628 1336.39 74.7428 1338.01C108.343 1339.26 136.593 1362.84 143.443 1395.19C146.88 1411.29 144.76 1428.09 137.429 1442.83C130.097 1457.58 117.987 1469.4 103.073 1476.38C99.7628 1477.94 98.4528 1479.63 98.4928 1483.38C98.6928 1500.52 97.3128 1517.76 98.7528 1534.77C103.523 1591.29 130.263 1635.2 178.353 1665.03C210.732 1685.17 249.064 1693.54 286.892 1688.72C324.72 1683.9 359.73 1666.19 386.023 1638.57C420.373 1602.66 435.823 1559.44 432.643 1509.69C432.473 1507.03 432.433 1504.36 432.433 1501.69C432.433 1380.27 432.496 1258.85 432.623 1137.44C432.623 1132.52 431.203 1130.31 426.623 1128.36C395.183 1114.84 374.863 1081.36 377.733 1048.44C380.933 1011.66 405.613 982.32 440.163 974.22C487.703 963.06 534.163 995.35 539.983 1043.59C540.183 1045.21 540.683 1046.79 541.043 1048.39L541.023 1059.39ZM459.213 1025C453.522 1025.02 447.964 1026.72 443.244 1029.9C438.525 1033.08 434.855 1037.59 432.701 1042.86C430.547 1048.12 430.007 1053.91 431.147 1059.49C432.287 1065.06 435.058 1070.17 439.107 1074.17C443.156 1078.17 448.302 1080.88 453.891 1081.95C459.48 1083.02 465.261 1082.4 470.501 1080.18C475.741 1077.96 480.204 1074.24 483.323 1069.48C486.443 1064.72 488.078 1059.14 488.023 1053.45C487.902 1045.88 484.817 1038.66 479.43 1033.34C474.043 1028.02 466.784 1025.02 459.213 1025Z" fill="#3D4551"/>
<path d="M472.183 0C472.183 2.5 472.133 5 472.133 7.49V944.12H443.383V7.49C443.383 4.99 443.293 2.49 443.243 0H472.183Z" fill="#3D4551"/>
</svg>
