<?xml version="1.0" encoding="utf-8"?>
<!-- Generator: Adobe Illustrator 25.0.0, SVG Export Plug-In . SVG Version: 6.00 Build 0)  -->
<svg version="1.1" id="Layer_1" xmlns="http://www.w3.org/2000/svg" xmlns:xlink="http://www.w3.org/1999/xlink" x="0px" y="0px"
	 viewBox="0 0 568.4 148.3" style="enable-background:new 0 0 568.4 148.3;" xml:space="preserve">
<style type="text/css">
	.st0{fill:#3e4651;}
</style>
<g>
	<path class="st0" d="M449.5,111.9c-2,3.3-5.2,3.9-8.5,4.6c-15,3.3-29.7,8.1-44.3,13.1c-12.1,4.1-23.9,9.1-35.4,14.7
		c-1.7,0.8-3.2,0.7-4.3-0.7c-1.4-1.7-2.6-3.5-3.9-5.3c-0.2-0.3-0.3-0.5-0.6-1l-0.5,1.5c0.4-3.1-1.4-5.6-2-8.5c-0.7-2.9-0.9-6-0.6-9
		c0-0.2,0-0.4,0-0.6c-1-4.1-2.5-8-4.5-11.7c2.6,10.9,5.9,21.7,4.8,33.4l-1.2-0.8c-0.1,0.3-0.3,0.7-0.5,1c-1.1,1.7-2.1,3.4-4.5,3.5
		c-0.9,0.1-1.7,0.3-2.6,0.5c-1.6,0.4-3.1-0.5-3.5-2.1c0,0,0-0.1,0-0.1c-3.2-11.1-8.2-21.5-13.8-31.5c-5-9.1-10.7-17.9-17.1-26.2
		c-0.3-0.4-0.7-0.9-1.1-1.3c-0.3,0.2-0.6,0.3-0.9,0.4c-4.2,2.5-8.5,4.9-12.7,7.4c-0.4,0.2-0.6,0.6-0.7,1.1c-0.4,6-0.8,12-1.2,17.9
		c-0.2,3.1-0.5,6.2-0.7,9.3c-0.1,0.4-0.2,0.8-0.4,1.1c-0.9,1.5-1.8,3-2.7,4.5c-1.4,2.6-2.7,5.2-4.1,7.8c-0.2,0.4-0.5,0.9-0.9,1
		c-2.4,0.8-4.2,2.8-4.9,5.2c-0.2,0.7-0.6,1.2-1.4,1.1c-0.4,0.1-0.8,0.3-1,0.6c-0.7,1-1.3,2.1-2,3.2l-0.6-0.4
		c-1.4-0.8-1.9-0.6-2.6,0.8c-0.3,0.5-0.5,0.9-0.8,1.4l-0.4-0.1c-0.1-1.9-0.4-3.8-0.5-5.6c-0.6-17.5-1.2-34.9-1.8-52.4
		c-0.4-10.8-0.7-21.5-1.2-32.2c-0.5-11-1.2-22-1.9-33c-0.4-5.1-1.2-10.2-1.8-15.3c-0.3-1.5,0.6-3.1,2.1-3.4
		c6.2-1.6,12.5-2.6,18.6,0.2s9.5,7.8,11.3,14c0.9,3.3,1.4,6.6,1.4,10c-0.1,10.5-0.5,21-0.8,31.5c0,0.8,0,1.5,0,2.4
		c0.4-0.3,0.6-0.4,0.8-0.6c14.8-12.8,26.2-29.2,32.9-47.7c0.9-2.6,1.8-5.2,2.5-7.9c1.1-4,3-5.5,7.1-5.5c3.1,0,6.1,0.8,8.9,2.3
		c3.8,1.9,7.1,4.5,9.9,7.7c0.2,0.3,0.5,0.5,0.9,0.6L355,7.2c2.8-0.6,5.6-1.4,8.5-1.8s5.7-0.3,8.6-0.6c22.8-2.1,45.6-1.8,68.4-1.5
		c3.3,0,6.5,0,9.9,0v3.9c2.6-0.8,5.1-1.8,7.7-2.4C476.9,0.6,496.4,1,515,6c9.6,2.7,18.7,6.4,26.8,12.5c12.7,9.6,20.3,22.4,24.1,37.6
		c2.4,9.7,3.1,19.7,2.1,29.6c-1.3,14.9-8.4,26.6-19.9,35.8c-7.5,6-16.2,9.7-25.2,12.6c-8.1,2.6-16.5,4.2-25,4.6
		c-3.9,0.2-7.9,0-11.8,0.1c-0.5,0.1-0.9,0.4-1.1,0.8c-0.5,1.4-1.2,2-2.7,1.6c-1.3-0.4-2,0.2-2.4,1.5c-0.4,1.2-0.9,2.5-1.5,3.6
		c-0.8-0.1-1.7-0.4-2.3-0.1s-1,1.2-1.6,2.2c-0.1-1.6-0.2-2.8-0.3-4.1c-0.1-2.5-0.2-4.9-0.3-7.4c0.1-0.6-0.3-1.1-0.8-1.2
		c-11-4.4-18.8-12-23.3-23C449.8,112.3,449.7,112.2,449.5,111.9z M387.4,51.9c16.7-1.7,33.2-3.3,50.1-3.1c-0.3,0.9-0.5,1.6-0.8,2.3
		c-0.5,1.2-0.9,2.4-1.1,3.7c0,2-1.3,3.7-3.2,4.3c-1.1,0.5-2.2,1.1-3.3,1.8l0.1,0.2l2,0.2c-1.8,1.2-3.3,2.2-4.9,3.1
		c-1.1,0.6-1.8,1.3-1.4,2.7c0,0.1-0.1,0.1-0.1,0.3c-2,0.5-4,1-6,1.6c-0.6,0.3-1.2,0.7-1.6,1.2c-0.5,0.5-0.7,1.3-1.2,1.6
		c-3.1,1.6-6.3,3-9.5,4.1c-7,2-14.1,3.7-21.2,5.5c-0.7,0.1-1.2,0.6-1.2,1.3c-0.7,6.3-1.5,12.5-2.3,18.8c-0.1,1.3-0.4,2.6-0.6,4
		c21.2-6.5,42.4-12,64.4-13.6c0-0.7,0-1.3,0-2c-0.1-1.3,0.3-2.5,1.2-3.4c0.4-0.3,0.8-0.6,1.3-0.8c0.3,0.4,0.5,0.8,0.6,1.3
		c0.2,1.2,0.3,2.4,0.5,3.7c0.1,0.7,0.6,1,1.4,1c3.2,0,6.4,0,9.6,0.2c2.5,0.2,5,0.6,7.8,0.9c-0.8,1-1.2,1.8-1.8,2.4
		c-0.8,0.7-1.5,1.6-2.1,2.4c-0.8,1.4-1.2,3.1-3.4,3.4c3.9,2.2,8.1,3.8,12.4,4.8c-0.8-23.4-1.1-46.6-2.8-69.7c-0.3,0-0.5,0-0.8,0
		c-4.1,0.9-8.2,1.7-12.2,2.9c-1.6,0.7-3.5,0.1-4.5-1.3c-0.2-0.2-0.4-0.4-0.5-0.6c-4.7-6.4-6.8-14.3-5.8-22.2
		c0.4-1.8,0.9-3.6,1.5-5.3l-8.2,6.6l3.4,0.3c-2,1-3.6,1.9-5.3,2.7c-0.7,0.2-1.2,0.9-1.1,1.6c0.1,0.7-0.3,1.5-1,1.7
		c-4.1,1.7-8.1,3.4-12.6,4.1c-11.2,1.6-22.4,3.6-33.6,5.3c-0.9,0.1-1.2,0.5-1.2,1.3c-0.1,3.4-0.3,6.8-0.5,10.2
		C387.8,46.3,387.6,49,387.4,51.9L387.4,51.9z M495.3,107.9c1.4-0.2,2.7-0.2,4-0.4c13.3-2.1,25.9-7.2,36.9-14.8
		c4.6-3,8.6-6.8,11.9-11.2c2.2-2.7,3.4-6.1,3.5-9.6c-0.1-2.9-1.1-5.8-2.8-8.2c-2.6-4-5.9-7.5-9.7-10.3c-9.6-7.2-20.6-12.3-32.3-15.2
		c-3-0.8-6.1-1.3-9.1-2C496.9,60.2,496.1,84,495.3,107.9L495.3,107.9z M351.5,117.2c1.7-0.8,3.3-1.6,4.9-2.3
		c0.7-0.2,1.2-0.9,1.1-1.6c0-3.8,0-7.7,0-11.5c-0.1-21.7-0.2-43.3-0.2-65c0-2.4-0.2-4.7-0.2-7.1c-6.7,15.5-18,27.4-29.8,38.7
		C339.8,82.5,347.3,99.1,351.5,117.2L351.5,117.2z M491.6,84.5h-0.2c-0.5,7.9-1.1,15.7-1.6,23.6h1.8L491.6,84.5z"/>
	<path class="st0" d="M12.2,140.9l-1.7-1c-1.3,2.6-0.9,6-4.2,7.6c-0.1-1-0.2-1.9-0.2-2.8c-0.4-14.8-0.8-29.7-1.2-44.5
		C4.4,84.7,4.1,69.3,3.6,53.9c-0.4-10.1-1-20.2-1.7-30.3C1.5,17.5,0.7,11.4,0,5.3C-0.1,3.8,0.4,2.4,1.9,2c5.9-1.8,11.8-2.9,17.9-1
		c5.8,1.9,9.2,6,11.4,11.5c1.9,5.1,2.8,10.5,2.6,15.9c0,5.9-0.3,11.8-0.5,17.8C33,52.8,32.7,59.4,32.4,66c-0.2,3.7-0.3,7.3-0.5,11
		c0,0.3,0,0.7,0,1.2c11.3-1.3,22.8-1.4,34.1-0.4c0-0.9,0-1.8,0-2.6c-0.1-8.7-0.4-17.4-0.3-26c0.1-9.5,0.5-19,0.9-28.5
		c0.3-5.4,1.1-10.8,1.5-16.2c-0.1-0.7,0.5-1.3,1.2-1.4c3-0.6,5.9-1.4,8.9-1.7c4.8-0.6,9.7-0.1,14.3,1.3c6,2,8.4,5.1,8.4,11.4
		c-0.1,3.6-0.3,7.3-0.8,10.9c-0.9,7.5-1.9,15-2.8,22.5c-0.8,6.8-1.5,13.6-2.1,20.4c-0.5,5.4-0.8,10.9-1,16.4
		c-0.4,12.1-0.7,24.2-1,36.2c0,1,0.1,2.4-1.6,2.4c-0.2,0-0.4,0.5-0.5,0.8c-0.4,1.7-0.7,3.4-1,5.2l-2.8-0.4c-0.9,3.9-1.8,7.9-2.8,12
		l-2.1-1.6c-0.2,0.2-0.4,0.5-0.5,0.7c-0.2,0.8-1,1.2-1.7,1.1c-1-0.1-1.3,0.4-1.6,1.3c-0.2,0.8-0.6,1.5-1.2,2
		c-0.6,0.5-1.2,0.3-1.5-0.6c-2.2-5.6-3.8-11.4-4.9-17.4c-1.3-8.3-2.4-16.8-3.6-25.1c0-0.2-0.1-0.3-0.1-0.4
		c-5.1,1.6-10.4,1.1-15.5,2.1c-7.1,1.3-14.2,2.4-21.2,3.6c-0.7,0.1-0.9,0.4-1,1.1c-0.3,4.1-0.6,8.2-0.9,12.3c0,0.3,0,0.6,0,1
		l-1.3-1.5c-0.3,1.6-0.6,2.8-0.8,4c-0.1,0.9-0.5,1.5-1.4,1.5c-0.8,0-1.5,0.6-1.6,1.4c-0.5,1.8-1.2,3.5-1.7,5.2
		c-0.2,0.9-0.8,1.6-1.6,2c-3.2,1.5-5.8,3.9-7.5,6.9C12.6,140.4,12.4,140.7,12.2,140.9z"/>
	<path class="st0" d="M216.1,13.4c1.1-0.6,1.2-0.9,0.2-1.6c-0.6-0.5-0.8-1-0.4-1.6c0.5-0.8,1.1-1.4,1.9-1.9c2.4-1.1,5.2-1.5,7.8-1.2
		c10.5,0.8,18.4,6,24.6,14.3c4.6,6.2,7.3,13.5,7.8,21.2c0.9,12.3-0.5,24.3-5.4,35.7c-3.4,7.9-8.2,14.6-15.4,19.5
		c-10.4,7.1-24.2,6.9-34.4-0.5c-8.2-5.9-13.8-13.8-18-22.8c-2.9-5.9-4.8-12.3-5.6-18.9c-0.4-3.9-0.4-7.7-0.1-11.6
		c0.8-10.8,4.1-21.3,9.5-30.8c1.4-2.6,3.4-4.9,5.1-7.3c2.1-3,5.1-3.4,8.3-2.8C208.3,4.2,212.9,7.8,216.1,13.4z M216.1,13.8
		c-0.1,1.9-0.3,3.6-2.2,4.3c-0.1,0-0.2,0.2-0.3,0.4c-2,4.1-4.1,8.1-5.9,12.3c-1.6,3.7-1.9,7.8-2,11.8c-0.3,7.1,0.4,14,3.2,20.7
		c1.9,4.5,4.4,8.6,8.7,11.3c1.3,0.9,3.1,0.9,4.4,0c2.1-1.4,3.9-3.2,5.3-5.3c2.7-4.2,4.7-8.9,5.7-13.8c1.5-7,1.8-14.3,0.9-21.5
		c-0.6-5.7-3-11.1-6.9-15.4C224.2,15.5,220.3,13.8,216.1,13.8L216.1,13.8z"/>
	<path class="st0" d="M135.3,13.4c1.2-0.7,1.3-0.9,0.2-1.6c-0.6-0.5-0.9-1-0.4-1.6c0.5-0.8,1.2-1.5,2-2c2.4-1.1,5.1-1.5,7.8-1.1
		c10.9,0.9,19,6.5,25.1,15.2c4.7,6.7,6.8,14.2,7.2,22.3c0.7,10.7-0.9,21.5-4.6,31.5c-3.2,8.3-8,15.6-15.3,20.9
		c-10.7,7.9-25.3,7.8-35.9-0.1c-7.8-5.8-13.3-13.4-17.4-22.1c-3.2-6.4-5.2-13.4-5.9-20.5c-0.3-3.8-0.2-7.7,0.2-11.5
		c1-10.4,4.2-20.5,9.3-29.6c1.5-2.6,3.4-4.9,5.1-7.3c2.1-3,5.2-3.4,8.4-2.8C127.3,4.2,132.1,7.7,135.3,13.4z M135.4,13.8
		c-0.1,1.9-0.2,3.6-2.2,4.3c-0.1,0-0.2,0.2-0.3,0.4c-2,4.2-4.3,8.2-6,12.5c-2.3,6-2.2,12.4-1.8,18.7c0.3,5.4,1.6,10.7,4,15.6
		c1.9,3.8,4.3,7.2,8.1,9.4c1.1,0.8,2.7,0.8,3.8,0c1.4-0.8,2.7-1.9,3.7-3.1c1.9-2.4,3.4-5.1,4.8-7.8c4.6-10.3,5-21,3.3-32
		c-0.8-5-3.1-9.6-6.6-13.2C143.5,15.4,139.5,13.8,135.4,13.8L135.4,13.8z"/>
	<path class="st0" d="M245.2,115.7l-0.6,0.4l2.2,2.7c-25.7-4.2-51.3-7.3-77.2-4.7c0.5,0,1.1,0,1.6,0s1.1-0.1,1.7-0.1
		c10.3-0.3,20.5,0,30.8,0.8c14.6,1.2,29,3.3,43.4,5.9c1.6,0.3,3.1,0.6,4.7,1c1.9,0.4,3.8,3.2,3.3,5.1c-0.6,2.6-1.4,5.2-2.1,7.7
		c-4.9-1.7-9.9-1.8-14.9-2.3c-10.4-1-20.8-1.5-31.2-1.4c-12,0-24,0.6-35.9,1.7c-13.8,1.2-27.4,3.1-41,5.6c-5.7,1.1-11.4,2.6-17,4.1
		s-9.7-0.1-12.2-5.3c-1.5-3.2-2.2-6.6-2.1-10.1c0-3.7,0.6-7.5,1.9-11c0.3-0.9,1-1.6,1.9-2c4.5-1.8,9.1-3.1,13.9-3.8
		c8.5-1.4,17.1-2.3,25.7-2.7c13.9-0.8,27.9-1,41.8-0.7c12.4,0.3,24.8,0.9,37.2,2.4c6.6,0.8,13.1,1.7,19.5,3.8
		C242.3,113.5,243.9,114.4,245.2,115.7z"/>
</g>
</svg>
