<svg width="259" height="259" viewBox="0 0 259 259" fill="none" xmlns="http://www.w3.org/2000/svg">
<path d="M129.643 1.82528C127.483 -0.684716 124.083 -0.594711 122.063 2.02529L116.043 9.81528C113.673 12.8753 109.193 13.5553 106.023 11.3453L97.9529 5.72529C95.2329 3.83529 91.9629 4.76529 90.6529 7.80529L86.7529 16.8553C85.2229 20.4053 81.0429 22.1853 77.4229 20.8353L68.2129 17.3953C65.1129 16.2353 62.1729 17.9453 61.6529 21.2253L60.1229 30.9653C59.5229 34.7853 55.9129 37.5453 52.0729 37.1453L42.3029 36.1153C39.0129 35.7653 36.5929 38.1553 36.9029 41.4553L37.8329 51.2753C38.2029 55.1253 35.3929 58.7053 31.5729 59.2653L21.8529 60.6953C18.5729 61.1753 16.8229 64.0953 17.9529 67.2153L21.2929 76.4953C22.6029 80.1353 20.7729 84.2953 17.2129 85.7953L8.15292 89.6053C5.10292 90.8953 4.13292 94.1553 5.99292 96.8953L11.5329 105.045C13.7029 108.245 12.9729 112.735 9.89293 115.065L2.06293 121.015C-0.577072 123.025 -0.69707 126.425 1.78293 128.615L9.16292 135.125C12.0629 137.685 12.4629 142.215 10.0629 145.245L3.95293 152.965C1.89293 155.565 2.62292 158.895 5.57292 160.395L14.3329 164.865C17.7729 166.625 19.2929 170.905 17.7229 174.435L13.7129 183.445C12.3629 186.475 13.8929 189.515 17.1329 190.235L26.7229 192.375C30.4929 193.215 33.0329 196.995 32.3829 200.805L30.7329 210.535C30.1829 213.805 32.4129 216.365 35.7329 216.255L45.5529 215.945C49.4129 215.825 52.8129 218.845 53.1329 222.695L53.9529 232.525C54.2329 235.825 57.0329 237.755 60.2129 236.825L69.6429 234.075C73.3529 232.995 77.3929 235.075 78.6629 238.725L81.8929 248.045C82.9829 251.175 86.1729 252.345 89.0229 250.655L97.4729 245.635C100.803 243.665 105.223 244.675 107.363 247.905L112.803 256.115C114.633 258.875 118.013 259.215 120.353 256.865L127.303 249.895C130.033 247.155 134.573 247.035 137.443 249.625L144.743 256.225C147.203 258.445 150.563 257.935 152.243 255.075L157.243 246.585C159.203 243.255 163.573 242.005 166.993 243.805L175.703 248.375C178.633 249.915 181.763 248.585 182.683 245.395L185.423 235.925C186.503 232.215 190.423 229.915 194.183 230.805L203.743 233.055C206.973 233.815 209.663 231.745 209.773 228.435L210.073 218.575C210.193 214.715 213.423 211.515 217.283 211.435L227.103 211.235C230.413 211.165 232.513 208.495 231.793 205.255L229.643 195.625C228.803 191.855 231.133 187.955 234.853 186.915L244.313 184.275C247.503 183.385 248.873 180.265 247.373 177.315L242.903 168.535C241.153 165.085 242.443 160.725 245.783 158.795L254.293 153.875C257.163 152.215 257.713 148.855 255.523 146.365L249.013 138.975C246.463 136.075 246.623 131.525 249.383 128.825L256.413 121.935C258.783 119.615 258.473 116.225 255.733 114.365L247.603 108.835C244.403 106.665 243.433 102.215 245.443 98.9153L250.543 90.4853C252.263 87.6553 251.123 84.4453 248.003 83.3153L238.763 79.9853C235.123 78.6753 233.083 74.6153 234.203 70.9153L237.053 61.4753C238.013 58.3053 236.113 55.4753 232.813 55.1653L223.033 54.2453C219.183 53.8853 216.193 50.4553 216.363 46.5953L216.783 36.7353C216.923 33.4253 214.383 31.1653 211.113 31.6853L201.413 33.2253C197.593 33.8353 193.853 31.2553 193.053 27.4753L191.013 17.8253C190.323 14.5853 187.303 13.0253 184.263 14.3453L175.253 18.2553C171.703 19.7953 167.443 18.2353 165.723 14.7653L161.353 5.92528C159.883 2.95528 156.573 2.19528 153.953 4.23528L147.273 9.43529C143.623 12.2753 138.223 11.7353 135.203 8.23528L129.643 1.82528Z" fill="#EF866D"/>
</svg>
