<svg width="641" height="589" viewBox="0 0 641 589" fill="none" xmlns="http://www.w3.org/2000/svg">
<path d="M576.218 55.4571C568.943 51.1326 560.44 48.6594 551.36 48.6594C524.38 48.6594 502.509 70.5546 502.509 97.5633C502.509 124.572 524.38 146.467 551.36 146.467C555.195 146.467 558.924 146.012 562.516 145.177C562.607 146.695 562.683 148.212 562.759 149.729C555.968 171.852 551.36 211.607 551.36 240.527C551.36 244.154 551.436 247.719 551.573 251.209C540.341 235.216 521.789 224.762 500.781 224.762C485.578 224.762 471.664 230.24 460.872 239.328C451.747 218.875 431.254 204.597 407.412 204.597C401.197 204.597 395.225 205.568 389.602 207.358C386.222 200.94 381.978 195.068 377.037 189.848C392.467 174.887 402.077 153.933 402.077 130.732V87.3364C402.077 79.9621 401.091 72.8003 399.272 66.0026C421.554 44.5019 439.864 8.52569 439.864 8.52569C311.557 -15.1297 242.971 13.6998 224.782 55.017C194.271 124.268 243.607 169.607 243.607 169.607H247.321C251.383 177.193 256.628 184.067 262.766 190C257.886 195.174 253.687 201.016 250.337 207.373C244.729 205.583 238.742 204.612 232.543 204.612C208.715 204.612 188.223 218.875 179.083 239.328C168.291 230.24 154.377 224.762 139.174 224.762C118.166 224.762 99.6135 235.216 88.382 251.209C88.5184 247.719 88.5942 244.154 88.5942 240.512C88.5942 211.591 83.9864 171.852 77.1959 149.714C77.2717 148.182 77.3626 146.664 77.4384 145.147C81.0155 145.982 84.7442 146.437 88.579 146.437C115.559 146.437 137.431 124.542 137.431 97.5329C137.431 70.5243 115.559 48.629 88.579 48.629C79.4998 48.629 71.0117 51.1175 63.7211 55.4267C40.8791 63.9693 0 120.915 0 181.199V272.194C0 303.36 25.2368 328.624 56.3698 328.624H61.3566C76.0136 347.636 105.919 360.67 140.432 360.67C146.07 360.67 151.588 360.306 156.938 359.638C159.97 380.669 174.157 398.073 193.301 405.659V412.169C193.301 429.74 201.319 445.429 213.899 455.777C211.322 461.74 209.883 468.326 209.883 475.229V538.988C209.883 566.073 231.815 588.029 258.871 588.029H381.16C408.215 588.029 430.148 566.073 430.148 538.988V475.229C430.148 468.31 428.708 461.74 426.131 455.777C438.712 445.429 446.73 429.74 446.73 412.169V405.659C465.873 398.057 480.045 380.654 483.077 359.638C488.427 360.306 493.945 360.67 499.583 360.67C534.111 360.67 564.002 347.636 578.659 328.624H583.645C614.778 328.624 640.015 303.36 640.015 272.194V181.199C640 120.915 599.121 63.9693 576.218 55.4571Z" fill="#3E4651" fill-opacity="0.3"/>
</svg>
