<svg width="91" height="57" viewBox="0 0 91 57" fill="none" xmlns="http://www.w3.org/2000/svg">
<path d="M89.4461 37.331C91.3599 34.905 90.0999 32.9779 86.6344 29.8671C83.1689 26.7563 77.5226 22.0155 74.4397 20.3753C71.3568 18.7351 68.6334 18.653 69.889 22.8051C71.1485 26.9426 76.504 29.9252 76.0764 31.0981C75.6488 32.271 62.6693 32.6036 58.6182 31.1149C54.5672 29.6263 27.7613 22.4462 16.6749 12.4503C5.58855 2.45441 0.885251 0.218763 0.885251 0.218763L1.72083 10.6386C1.72083 10.6386 28.4659 38.3373 67.7967 41.3358C63.0144 46.9366 58.7372 48.6282 60.2895 51.9546C61.8471 55.2903 65.4077 60.692 73.5618 50.811C81.7733 43.3043 87.7537 39.4811 89.4461 37.331Z" fill="#F5BE6B"/>
</svg>
