<svg width="521" height="403" viewBox="0 0 521 403" fill="none" xmlns="http://www.w3.org/2000/svg">
<path d="M267.212 401.571C258.552 404.446 249.099 401.688 243.281 394.805C239.605 390.459 233.943 385.046 223.271 379.058C207.133 370.012 179.67 389.121 178.914 367.276C178.19 346.237 183.328 333.657 126.306 331.389C103.963 330.506 92.4015 318.765 81.9053 300.653C71.1841 282.156 81.3769 256.978 55.3156 226.63C39.0274 207.677 58.2622 187.884 47.1694 171.782C30.5044 147.586 8.19585 160.955 1.07291 143.758C-4.29514 130.817 18.2457 126.588 11.6592 89.1718C0.334906 24.856 86.9318 -16.8821 118.162 6.86065C148.278 29.7525 171.425 -3.60537 190.119 11.8731C212.556 30.4682 201.737 66.6677 239.919 57.234C252.53 54.1033 280.066 32.3945 298.187 42.6931C322.783 56.7006 354.638 19.3199 378.223 50.5997C410.703 93.6716 423.252 70.34 439.632 94.7689C452.146 113.425 453.483 128.506 452.239 151.386C450.959 175.067 429.232 197.867 441.87 204.312C460.182 213.618 457.313 167.896 475.582 182.03C486.204 190.256 479.567 199.44 471.211 215.99C465.099 228.088 464.818 242.337 481.329 254.395C506.328 272.646 530.669 314.651 515.809 342.336C504.25 363.862 480.043 354.206 472.094 364.357C453.929 387.504 437.4 376.406 421.219 386.058C399.273 399.159 380.267 394.492 353.421 389.839C314.911 383.09 282.987 396.351 267.212 401.571Z" fill="#FADDB9"/>
</svg>
